<svg width="168" height="141" viewBox="0 0 168 141" fill="none" xmlns="http://www.w3.org/2000/svg">
<path d="M111.463 1.90152C111.463 1.90152 85.3408 -5.79097 59.5391 9.76828C33.7374 25.3275 20.6001 54.3371 9.31566 77.6172C-1.96879 100.897 4.28336 123.697 23.8329 133.275C43.3824 142.852 56.8256 126.66 84.3521 124.547C111.879 122.435 119.255 125.87 142.19 109.753C165.125 93.6352 169.489 58.0215 151.646 32.707C133.804 7.3926 111.463 1.90152 111.463 1.90152Z" fill="#2b2963"/>
<path opacity="0.8" d="M111.463 1.90152C111.463 1.90152 85.3408 -5.79097 59.5391 9.76828C33.7374 25.3275 20.6001 54.3371 9.31566 77.6172C-1.96879 100.897 4.28336 123.697 23.8329 133.275C43.3824 142.852 56.8256 126.66 84.3521 124.547C111.879 122.435 119.255 125.87 142.19 109.753C165.125 93.6352 169.489 58.0215 151.646 32.707C133.804 7.3926 111.463 1.90152 111.463 1.90152Z" fill="white"/>
<path d="M19.96 137.358C19.96 137.358 11.1508 118.594 13.0641 118.053C14.9774 117.513 18.9891 120.5 18.9891 120.5C18.9891 120.5 7.21738 88.955 10.2652 86.5082C13.313 84.0614 19.0033 96.5835 19.0033 96.5835C19.0033 96.5835 12.9254 77.2616 13.6402 69.9105C14.3551 62.5594 22.076 69.6402 22.076 69.6402C22.076 69.6402 15.8914 43.2624 21.635 41.9003C27.3786 40.5382 27.1866 72.0834 27.1866 72.0834C27.1866 72.0834 29.0714 49.511 31.3724 55.7667C33.6734 62.0224 28.8367 82.9589 28.8367 82.9589C28.8367 82.9589 31.9912 75.8888 33.7446 82.4148C35.4979 88.9408 30.2593 115.319 30.2593 115.319C30.2593 115.319 34.7119 110.969 35.128 116.407C35.5441 121.845 25.9098 138.705 25.9098 138.705L20.4579 139.26L19.96 137.358Z" fill="#2b2963"/>
<path opacity="0.6" d="M19.96 137.358C19.96 137.358 11.1508 118.594 13.0641 118.053C14.9774 117.513 18.9891 120.5 18.9891 120.5C18.9891 120.5 7.21738 88.955 10.2652 86.5082C13.313 84.0614 19.0033 96.5835 19.0033 96.5835C19.0033 96.5835 12.9254 77.2616 13.6402 69.9105C14.3551 62.5594 22.076 69.6402 22.076 69.6402C22.076 69.6402 15.8914 43.2624 21.635 41.9003C27.3786 40.5382 27.1866 72.0834 27.1866 72.0834C27.1866 72.0834 29.0714 49.511 31.3724 55.7667C33.6734 62.0224 28.8367 82.9589 28.8367 82.9589C28.8367 82.9589 31.9912 75.8888 33.7446 82.4148C35.4979 88.9408 30.2593 115.319 30.2593 115.319C30.2593 115.319 34.7119 110.969 35.128 116.407C35.5441 121.845 25.9098 138.705 25.9098 138.705L20.4579 139.26L19.96 137.358Z" fill="white"/>
<path d="M21.8377 138.193C21.8377 138.193 14.4973 125.141 15.8559 122.691C17.2144 120.241 21.2936 125.956 21.2936 125.956C21.2936 125.956 12.047 102.839 13.4091 100.666C14.7712 98.4933 19.1206 108.01 19.1206 108.01C19.1206 108.01 17.4954 76.1769 20.2053 77.2616C22.9153 78.3463 23.1856 93.5784 23.1856 93.5784C23.1856 93.5784 21.5568 57.4134 24.0036 58.5016C26.4504 59.5899 26.1801 99.8341 26.1801 99.8341C26.1801 99.8341 31.0737 84.3317 31.8703 91.4018C32.6669 98.472 25.6182 117.509 25.6182 117.509C25.6182 117.509 32.4322 102.551 33.2609 110.453C34.0895 118.356 27.8089 133.008 27.8089 133.008C27.8089 133.008 30.2557 127.026 30.2557 130.287C30.2557 133.549 28.353 137.631 28.353 137.631" stroke="#263238" stroke-linecap="round" stroke-linejoin="round"/>
<path d="M12.6693 122.709L7.98553 138.144H20.6712L25.4972 122.791L12.6693 122.709Z" fill="#263238" stroke="#263238" stroke-linecap="round" stroke-linejoin="round"/>
<path d="M42.2479 138.119H15.8132L12.6693 122.709H39.104L42.2479 138.119Z" fill="white" stroke="#263238" stroke-linecap="round" stroke-linejoin="round"/>
<path d="M39.5237 135.512H17.474L15.8274 127.449H37.8771L39.5237 135.512Z" stroke="#263238" stroke-linecap="round" stroke-linejoin="round"/>
<path d="M17.723 127.481L19.3553 135.476" stroke="#263238" stroke-linecap="round" stroke-linejoin="round"/>
<path d="M19.7465 127.481L21.3789 135.476" stroke="#263238" stroke-linecap="round" stroke-linejoin="round"/>
<path d="M21.7701 127.481L23.4025 135.476" stroke="#263238" stroke-linecap="round" stroke-linejoin="round"/>
<path d="M23.7902 127.481L25.4225 135.476" stroke="#263238" stroke-linecap="round" stroke-linejoin="round"/>
<path d="M25.8138 127.481L27.4462 135.476" stroke="#263238" stroke-linecap="round" stroke-linejoin="round"/>
<path d="M27.8373 127.481L29.4697 135.476" stroke="#263238" stroke-linecap="round" stroke-linejoin="round"/>
<path d="M29.8574 127.481L31.4897 135.476" stroke="#263238" stroke-linecap="round" stroke-linejoin="round"/>
<path d="M31.881 127.481L33.5134 135.476" stroke="#263238" stroke-linecap="round" stroke-linejoin="round"/>
<path d="M33.901 127.481L35.5334 135.476" stroke="#263238" stroke-linecap="round" stroke-linejoin="round"/>
<path d="M35.9246 127.481L37.557 135.476" stroke="#263238" stroke-linecap="round" stroke-linejoin="round"/>
<path d="M16.2043 129.043H38.1295" stroke="#263238" stroke-linecap="round" stroke-linejoin="round"/>
<path d="M16.5316 130.65H38.4567" stroke="#263238" stroke-linecap="round" stroke-linejoin="round"/>
<path d="M16.8623 132.261H38.7839" stroke="#263238" stroke-linecap="round" stroke-linejoin="round"/>
<path d="M17.1895 133.869H39.1147" stroke="#263238" stroke-linecap="round" stroke-linejoin="round"/>
<path d="M25.4332 126.055H15.6424L15.486 125.273H25.2732L25.4332 126.055Z" fill="#263238"/>
<path d="M159.04 98.7173H127.153C125.653 98.7529 124.215 99.3237 123.098 100.327C121.981 101.33 121.26 102.699 121.065 104.187L117.153 138.766H154.495L159.04 98.7173Z" fill="white" stroke="#263238" stroke-linecap="round" stroke-linejoin="round"/>
<path d="M159.207 98.7173C157.96 98.7467 156.765 99.221 155.838 100.055C154.91 100.888 154.312 102.026 154.15 103.262L150.128 138.766H159.211L163.237 103.262C163.319 102.69 163.277 102.107 163.111 101.553C162.945 100.999 162.66 100.487 162.277 100.055C161.893 99.6219 161.42 99.278 160.89 99.0471C160.359 98.8161 159.785 98.7036 159.207 98.7173Z" fill="#263238" stroke="#263238" stroke-linecap="round" stroke-linejoin="round"/>
<path d="M116.822 88.3291C114.581 89.9291 112.159 91.2589 109.606 92.2909C105.079 94.1758 103.258 94.7448 103.258 94.7448L104.513 138.062H137.382C137.382 138.062 133.167 110.902 133.167 101.786C133.167 92.6714 133.544 90.8932 133.544 90.8932L122.733 88.1263L116.822 88.3291Z" fill="#2b2963" stroke="#263238" stroke-linecap="round" stroke-linejoin="round"/>
<path d="M113.237 90.1534C112.212 97.5105 111.604 104.92 111.416 112.345C111.228 123.473 113.365 138.307 113.365 138.307H89.2848C92.2793 132.642 94.4208 126.567 95.6401 120.276C97.4183 111.268 98.8408 95.9966 99.2178 95.8081C99.5948 95.6196 112.359 90.8932 113.237 90.1534Z" fill="#263238" stroke="#263238" stroke-linecap="round" stroke-linejoin="round"/>
<path d="M102.301 138.311C102.301 138.311 99.8473 121.713 99.9718 117.815C100.096 113.917 100.715 100.716 100.715 100.716" stroke="#616161" stroke-linecap="round" stroke-linejoin="round"/>
<path d="M126.755 89.0225C126.755 89.0225 123.675 103.166 123.423 114.799C123.17 126.432 122.356 138.375 122.356 138.375H141.827C141.827 138.375 142.08 127.748 141.827 124.103C141.575 120.457 141.575 121.211 141.575 121.211L149.121 123.16C149.121 123.16 144.277 99.8339 143.399 97.2591C142.521 94.6842 142.958 93.8627 142.392 93.4217C141.827 92.9807 126.755 89.0225 126.755 89.0225Z" fill="#263238" stroke="#263238" stroke-linecap="round" stroke-linejoin="round"/>
<path d="M91.5858 128.694C92.0934 129.472 92.6902 130.188 93.364 130.828C94.2282 131.568 96.0811 131.184 97.0662 132.194C98.0513 133.204 96.9737 136.287 95.729 137.365C93.5952 139.203 94.7261 133.623 94.7261 133.623C93.9736 134.139 93.1425 134.529 92.2651 134.779C91.0559 135.056 87.944 134.11 86.902 134.068C85.86 134.025 84.4125 133.826 83.8577 132.667C83.3029 131.507 86.7455 130.11 88.2748 129.555C89.3549 129.184 90.4618 128.896 91.5858 128.694Z" fill="white" stroke="#263238" stroke-linecap="round" stroke-linejoin="round"/>
<path d="M84.9993 130.33C84.6705 130.242 84.3231 130.253 84.0002 130.36C83.6772 130.468 83.3928 130.667 83.182 130.935C82.4707 131.87 81.0482 136.095 81.4643 136.909C81.8804 137.724 82.958 136.582 83.4701 135.241C83.6885 134.595 83.9796 133.976 84.3378 133.396C84.3378 133.396 84.8998 133.67 85.2945 132.937C85.6893 132.204 86.0876 131.105 84.9993 130.33Z" fill="white" stroke="#263238" stroke-linecap="round" stroke-linejoin="round"/>
<path d="M87.0123 129.594C86.6677 129.396 86.2652 129.323 85.8729 129.388C85.4807 129.452 85.1231 129.651 84.8606 129.95C83.8613 131.017 84.5477 135.501 85.0776 136.874C85.6075 138.247 86.6104 138.076 86.7598 137.23C86.9091 136.383 87.0798 132.162 87.1332 131.184C87.1773 130.651 87.1365 130.114 87.0123 129.594Z" fill="white" stroke="#263238" stroke-linecap="round" stroke-linejoin="round"/>
<path d="M89.1461 129.11C88.806 128.896 88.3993 128.814 88.0028 128.88C87.6063 128.945 87.2476 129.154 86.9945 129.466C86.0022 130.593 86.7349 135.338 87.279 136.796C87.8231 138.254 88.826 138.083 88.9683 137.176C89.1105 136.269 89.2386 131.813 89.2812 130.775C89.3176 130.216 89.272 129.656 89.1461 129.11Z" fill="white" stroke="#263238" stroke-linecap="round" stroke-linejoin="round"/>
<path d="M92.2686 129.686C92.2686 129.686 91.44 127.833 90.0885 128.139C88.7371 128.445 88.3103 130.273 88.5593 133.047C88.8082 135.821 89.3275 138.026 90.0814 138.104C90.8354 138.183 91.6569 136.508 91.8063 134.342C91.9556 132.176 92.1797 130.881 92.1797 130.881" fill="white"/>
<path d="M92.2686 129.686C92.2686 129.686 91.44 127.833 90.0885 128.139C88.7371 128.445 88.3103 130.273 88.5593 133.047C88.8082 135.821 89.3275 138.026 90.0814 138.104C90.8354 138.183 91.6569 136.508 91.8063 134.342C91.9556 132.176 92.1797 130.881 92.1797 130.881" stroke="#263238" stroke-linecap="round" stroke-linejoin="round"/>
<path d="M109.645 110.3H101.263V123.167H109.645V110.3Z" fill="#2b2963" stroke="#263238" stroke-linecap="round" stroke-linejoin="round"/>
<path d="M106.039 106.552H104.496V112.505H106.039V106.552Z" fill="white" stroke="#263238" stroke-linecap="round" stroke-linejoin="round"/>
<path d="M106.921 113.903H103.318V118.608H106.921V113.903Z" fill="white" stroke="#263238" stroke-linecap="round" stroke-linejoin="round"/>
<path d="M102.732 120.006H107.657" stroke="#263238" stroke-linecap="round" stroke-linejoin="round"/>
<path d="M101.995 121.034H108.319" stroke="#263238" stroke-linecap="round" stroke-linejoin="round"/>
<path d="M115.944 86.5081C115.944 86.5081 113.237 88.329 112.743 89.7765C112.248 91.2239 110.164 97.3836 109.346 99.7095C108.528 102.035 103.877 104.048 104.506 104.489C105.136 104.93 111.235 105.492 111.235 105.492C111.235 105.492 112.618 110.901 112.931 112.285C113.244 113.668 115.133 117.879 115.133 117.879C115.133 117.879 120.727 111.15 121.609 109.344C122.215 108.122 122.908 106.945 123.682 105.823C123.682 105.823 126.072 106.388 127.594 106.641C129.116 106.893 133.253 107.267 133.064 106.577C132.876 105.887 130.802 102.868 129.984 99.9122C129.166 96.9568 129.668 90.4806 128.665 87.9663C127.662 85.4519 125.464 85.0749 124.703 84.8864C123.942 84.6979 117.074 85.4377 115.944 86.5081Z" fill="#2b2963" stroke="#263238" stroke-linecap="round" stroke-linejoin="round"/>
<path d="M115.062 84.5592C115.062 84.5592 115.88 89.1469 115.773 92.8563C115.666 96.5656 114.325 104.866 114.389 109.141C114.453 111.981 114.684 114.814 115.079 117.627C115.079 117.627 121.243 109.141 123.504 102.224C125.766 95.3066 126.396 89.3994 126.396 88.9585C126.396 88.5175 126.52 78.2715 126.52 78.2715C126.52 78.2715 119.966 85.1247 115.062 84.5592Z" fill="white" stroke="#263238" stroke-linecap="round" stroke-linejoin="round"/>
<path d="M126.453 82.621C126.478 80.3164 126.502 78.2715 126.502 78.2715C126.502 78.2715 119.966 85.1247 115.062 84.5592C115.062 84.5592 115.293 85.8502 115.488 87.6177C116.13 88.0571 116.842 88.3831 117.594 88.5815C119.863 89.0367 122.406 87.7671 124.13 85.587C124.767 84.7832 125.61 83.6879 126.453 82.621Z" fill="#263238" stroke="#263238" stroke-linecap="round" stroke-linejoin="round"/>
<path d="M130.937 61.7983C134.392 61.7983 137.193 59.0262 137.193 55.6066C137.193 52.187 134.392 49.4149 130.937 49.4149C127.482 49.4149 124.682 52.187 124.682 55.6066C124.682 59.0262 127.482 61.7983 130.937 61.7983Z" fill="#263238" stroke="#263238" stroke-linecap="round" stroke-linejoin="round"/>
<path d="M105.605 66.4252C105.605 66.4252 102.248 65.5148 101.693 63.701C101.138 61.8873 103.148 55.5213 109.684 52.2601C116.221 48.9989 122.217 50.8055 124.849 51.531C127.48 52.2565 129.39 53.6222 131.115 58.434C132.84 63.2458 132.929 66.9693 132.385 68.7831C132.061 69.8676 131.667 70.9297 131.204 71.9625C131.204 71.9625 127.847 72.3182 126.936 70.9632C126.026 69.6082 126.392 62.7835 122.487 61.1582C118.582 59.5329 111.139 60.4469 109.329 62.0651C107.518 63.6832 105.605 66.4252 105.605 66.4252Z" fill="#263238" stroke="#263238" stroke-linecap="round" stroke-linejoin="round"/>
<path d="M105.061 65.2445C105.061 65.2445 105.879 70.4191 105.879 73.2322C105.879 76.0453 108.148 79.9538 109.329 81.0562C110.509 82.1587 114.414 85.8681 116.683 86.3233C118.952 86.7785 121.495 85.5053 123.22 83.3252C124.945 81.1452 128.306 76.7886 128.306 76.7886C129.055 76.872 129.81 76.6909 130.44 76.2766C131.07 75.8622 131.535 75.2407 131.755 74.5196C132.666 71.8843 132.211 68.8898 130.667 68.5271C129.124 68.1643 128.035 69.9781 128.035 69.9781C128.035 69.9781 126.762 65.0774 125.13 62.6234L122.768 59.067L125.781 55.3008C125.813 55.2599 125.838 55.2127 125.852 55.162C125.865 55.1114 125.869 55.0585 125.862 55.0065C125.854 54.9545 125.836 54.9045 125.809 54.8597C125.782 54.8149 125.745 54.7762 125.702 54.746C125.621 54.688 125.521 54.6634 125.422 54.6773C125.324 54.6912 125.234 54.7425 125.172 54.8207L122.224 58.6154C122.224 58.6154 116.413 57.616 111.327 60.1589C106.242 62.7017 105.061 65.2445 105.061 65.2445Z" fill="white" stroke="#263238" stroke-linecap="round" stroke-linejoin="round"/>
<path d="M123.718 70.355L122.9 71.4468" stroke="#263238" stroke-linecap="round" stroke-linejoin="round"/>
<path d="M112.508 76.5929C112.508 76.5929 112.689 77.137 113.87 77.4109C114.421 77.539 114.997 77.5044 115.529 77.3112C116.061 77.118 116.525 76.7746 116.865 76.3226" stroke="#263238" stroke-linecap="round" stroke-linejoin="round"/>
<path d="M113.874 79.5127C114.993 79.7652 116.159 79.7223 117.257 79.3881C118.355 79.0539 119.348 78.4399 120.137 77.6064C120.137 77.6064 119.322 81.0561 117.686 81.6927C116.05 82.3293 115.961 80.6009 115.961 80.6009L113.874 79.5127Z" stroke="#263238" stroke-linecap="round" stroke-linejoin="round"/>
<path d="M117.138 72.5991C117.891 71.8907 118.807 71.3792 119.804 71.1099C120.802 70.8406 121.851 70.822 122.857 71.0556" stroke="#263238" stroke-width="2" stroke-linecap="round" stroke-linejoin="round"/>
<path d="M111.235 72.4177C111.235 72.4177 109.24 70.419 107.149 71.5073" stroke="#263238" stroke-width="2" stroke-linecap="round" stroke-linejoin="round"/>
<path d="M106.516 71.0557L107.511 72.055" stroke="#263238" stroke-linecap="round" stroke-linejoin="round"/>
<path d="M116.502 67.6948C116.502 67.6948 119.208 64.5759 123.12 67.5135" stroke="#263238" stroke-linecap="round" stroke-linejoin="round"/>
<path d="M111.054 67.6024C111.054 67.6024 108.603 65.6961 106.149 67.8762" stroke="#263238" stroke-linecap="round" stroke-linejoin="round"/>
<path d="M119.276 72.1118C119.279 72.2004 119.256 72.2881 119.209 72.3632C119.162 72.4384 119.093 72.4977 119.012 72.5332C118.931 72.5688 118.841 72.579 118.754 72.5626C118.666 72.5461 118.586 72.5038 118.523 72.4411C118.461 72.3783 118.418 72.2981 118.402 72.211C118.385 72.1238 118.396 72.0337 118.431 71.9524C118.467 71.8712 118.526 71.8025 118.601 71.7554C118.676 71.7084 118.764 71.6851 118.853 71.6886C118.964 71.693 119.069 71.739 119.147 71.8174C119.226 71.8958 119.272 72.0009 119.276 72.1118Z" fill="#263238"/>
<path d="M108.895 71.7313C108.895 71.8186 108.87 71.9042 108.822 71.9772C108.774 72.0502 108.706 72.1073 108.625 72.1412C108.545 72.1751 108.456 72.1844 108.37 72.1678C108.284 72.1512 108.205 72.1094 108.143 72.0479C108.081 71.9864 108.039 71.9078 108.022 71.8222C108.004 71.7365 108.013 71.6477 108.046 71.5669C108.079 71.4861 108.136 71.417 108.208 71.3684C108.281 71.3198 108.366 71.2938 108.454 71.2938C108.57 71.2938 108.682 71.3398 108.764 71.4217C108.847 71.5037 108.894 71.6149 108.895 71.7313Z" fill="#263238"/>
<path d="M130.351 62.8759C130.351 62.8759 130.663 66.9622 129.91 70.042L131.104 70.419C131.104 70.419 132.047 65.7032 131.606 63.0643L130.351 62.8759Z" fill="#2b2963" stroke="#263238" stroke-linecap="round" stroke-linejoin="round"/>
<path d="M122.228 50.9229C123.542 51.5789 124.714 52.489 125.675 53.6006C126.636 54.7122 127.367 56.0032 127.825 57.3991C129.269 62.0508 129.081 63.4983 129.959 63.9997C130.838 64.5012 132.538 64.8177 132.598 63.6868C132.659 62.5558 132.267 57.5093 129.753 54.3797C127.868 51.9969 123.8 50.9869 122.228 50.9229Z" fill="#2b2963" stroke="#263238" stroke-linecap="round" stroke-linejoin="round"/>
<path d="M130.848 69.1422C129.038 68.5874 127.05 69.8535 126.403 71.9553C125.805 73.9007 126.566 75.8851 128.11 76.6178C126.977 79.4973 125.291 82.1274 123.149 84.36C122.732 84.3087 122.311 84.4152 121.968 84.6588C121.321 85.0962 121.036 85.8111 121.339 86.2592C121.641 86.7073 122.406 86.7144 123.056 86.2805C123.707 85.8466 123.938 85.2136 123.732 84.7797C125.923 82.493 127.641 79.7968 128.789 76.8454C130.518 77.201 132.346 75.9634 132.954 73.9611C133.601 71.8557 132.659 69.697 130.848 69.1422Z" fill="#2b2963" stroke="#263238" stroke-linecap="round" stroke-linejoin="round"/>
<path d="M132.385 73.2535C132.079 74.5978 130.866 75.4727 129.675 75.2024C128.483 74.9321 127.765 73.6198 128.071 72.2755C128.377 70.9312 129.589 70.0563 130.781 70.323C131.972 70.5897 132.691 71.9056 132.385 73.2535Z" fill="#2b2963" stroke="#263238" stroke-linecap="round" stroke-linejoin="round"/>
<path d="M132.036 95.4347C132.036 95.4347 130.276 91.0354 129.902 90.2174C129.529 89.3995 132.605 84.5592 133.103 83.8657C133.601 83.1722 134.547 81.7319 134.547 81.4153C134.547 81.0988 130.966 77.578 130.208 77.0125C129.451 76.4471 128.199 77.7238 128.199 77.7238C128.199 77.7238 124.931 82.0626 124.931 82.5641C124.931 83.0655 126.499 84.6374 126.499 84.6374C126.499 84.6374 124.049 88.1583 124.365 89.5417C124.682 90.9252 125.937 92.1201 125.937 92.1201L127.697 98.9093L132.036 95.4347Z" fill="white" stroke="#263238" stroke-linecap="round" stroke-linejoin="round"/>
<path d="M126.503 84.6197C126.503 84.6197 128.636 82.9233 128.451 82.4218C128.378 82.2729 128.26 82.1505 128.114 82.0715C127.969 81.9925 127.802 81.9608 127.637 81.9808" stroke="#263238" stroke-linecap="round" stroke-linejoin="round"/>
<path d="M128.014 78.2715C128.202 78.2715 133.733 81.9168 133.608 82.5392C133.498 82.9986 133.33 83.4421 133.107 83.8586" stroke="#263238" stroke-linecap="round" stroke-linejoin="round"/>
<path d="M128.643 77.7061C128.643 77.7061 133.861 80.9744 133.978 81.5399C134.001 81.7256 133.979 81.9142 133.914 82.0896C133.848 82.2649 133.741 82.4216 133.601 82.5463" stroke="#263238" stroke-linecap="round" stroke-linejoin="round"/>
<path d="M129.209 77.1406C129.209 77.1406 134.679 80.8499 134.544 81.4083C134.394 81.866 134.16 82.2918 133.854 82.6637" stroke="#263238" stroke-linecap="round" stroke-linejoin="round"/>
<path d="M132.79 94.9332L124.365 99.7842C124.365 99.7842 135.305 125.81 137.318 129.331C139.33 132.852 144.736 133.67 147.567 132.727C150.398 131.785 151.778 126.126 150.835 123.736C149.893 121.347 143.1 110.901 139.835 105.681C136.571 100.46 132.79 94.9332 132.79 94.9332Z" fill="#263238" stroke="#263238" stroke-linecap="round" stroke-linejoin="round"/>
<path d="M128.338 108.675C128.338 108.675 137.584 126.457 139.953 130.014" stroke="#616161" stroke-linecap="round" stroke-linejoin="round"/>
<path d="M133.551 97.0422L146.593 116.958" stroke="#616161" stroke-linecap="round" stroke-linejoin="round"/>
<path d="M96.5718 71.2833V59.8353C96.5718 59.3939 96.3965 58.9705 96.0844 58.6584C95.7722 58.3462 95.3489 58.1709 94.9075 58.1709H66.9862C66.5447 58.1709 66.1214 58.3462 65.8093 58.6584C65.4971 58.9705 65.3218 59.3939 65.3218 59.8353V71.2833C65.3218 71.7248 65.4971 72.1481 65.8093 72.4602C66.1214 72.7724 66.5447 72.9477 66.9862 72.9477H90.9634L96.4225 78.2005L95.3307 72.8873C95.6854 72.794 95.9993 72.5862 96.2238 72.2962C96.4482 72.0061 96.5706 71.6501 96.5718 71.2833Z" fill="white" stroke="#263238" stroke-linecap="round" stroke-linejoin="round"/>
<path d="M75.4326 66.5818C76.122 66.5818 76.6809 66.0229 76.6809 65.3335C76.6809 64.6441 76.122 64.0852 75.4326 64.0852C74.7432 64.0852 74.1843 64.6441 74.1843 65.3335C74.1843 66.0229 74.7432 66.5818 75.4326 66.5818Z" fill="#263238"/>
<path d="M80.945 66.5818C81.6345 66.5818 82.1933 66.0229 82.1933 65.3335C82.1933 64.6441 81.6345 64.0852 80.945 64.0852C80.2556 64.0852 79.6967 64.6441 79.6967 65.3335C79.6967 66.0229 80.2556 66.5818 80.945 66.5818Z" fill="#263238"/>
<path d="M86.461 66.5818C87.1504 66.5818 87.7093 66.0229 87.7093 65.3335C87.7093 64.6441 87.1504 64.0852 86.461 64.0852C85.7716 64.0852 85.2127 64.6441 85.2127 65.3335C85.2127 66.0229 85.7716 66.5818 86.461 66.5818Z" fill="#263238"/>
<path d="M69.8562 71.0201V68.4595L67.164 67.8621C67.0174 67.342 66.8109 66.8408 66.5487 66.3684L68.0247 64.0425L66.218 62.2323L63.8921 63.7117C63.4221 63.4472 62.9217 63.2407 62.402 63.0965L61.801 60.4043H59.2404L58.6429 63.0965C58.1218 63.24 57.6202 63.4466 57.1492 63.7117L54.8375 62.2323L53.0273 64.0425L54.4819 66.3541C54.2167 66.8251 54.0101 67.3267 53.8666 67.8478L51.1744 68.4453V71.0059L53.8666 71.6069C54.0097 72.1316 54.2163 72.6368 54.4819 73.1113L53.0024 75.4372L54.8126 77.2474L57.1385 75.7679C57.6101 76.0327 58.1115 76.2405 58.6322 76.3867L59.2297 79.0754H61.7903L62.3913 76.3867C62.9106 76.2398 63.4108 76.0321 63.8814 75.7679L66.2073 77.2474L68.0175 75.4372L66.5487 73.1113C66.8103 72.6398 67.0167 72.1398 67.164 71.6212L69.8562 71.0201ZM60.5278 73.0473C59.8736 73.0473 59.2341 72.8533 58.6902 72.4899C58.1463 72.1265 57.7224 71.6099 57.4721 71.0055C57.2217 70.4012 57.1562 69.7362 57.2839 69.0946C57.4115 68.453 57.7265 67.8637 58.189 67.4011C58.6516 66.9386 59.2409 66.6236 59.8825 66.4959C60.5241 66.3683 61.1891 66.4338 61.7935 66.6842C62.3978 66.9345 62.9144 67.3584 63.2778 67.9023C63.6412 68.4462 63.8352 69.0857 63.8352 69.7398C63.8352 70.1742 63.7497 70.6043 63.5835 71.0055C63.4172 71.4068 63.1736 71.7714 62.8665 72.0786C62.5594 72.3857 62.1948 72.6293 61.7935 72.7955C61.3922 72.9617 60.9621 73.0473 60.5278 73.0473Z" fill="#263238" stroke="#263238" stroke-linecap="round" stroke-linejoin="round"/>
<path d="M47.2873 138.279H106.11V135.907H47.2873V138.279Z" fill="white" stroke="#263238" stroke-linecap="round" stroke-linejoin="round"/>
<path d="M38.254 138.279H89.5231V135.907H38.254V138.279Z" fill="white" stroke="#263238" stroke-linecap="round" stroke-linejoin="round"/>
<path d="M37.2618 131.685H86.3117L81.0233 94.2399H31.9734L37.2618 131.685Z" fill="white" stroke="#263238" stroke-linecap="round" stroke-linejoin="round"/>
<path d="M35.2311 131.685H84.2809L78.9926 94.2399H29.9427L35.2311 131.685Z" fill="#263238" stroke="#263238" stroke-linecap="round" stroke-linejoin="round"/>
<path d="M50.2605 114.28L45.3384 138.279H57.9956L62.9177 114.28H50.2605ZM58.8456 121.393C58.8251 121.494 58.7702 121.584 58.6905 121.649C58.6107 121.714 58.511 121.749 58.4082 121.749L51.2385 121.677C51.1713 121.677 51.1053 121.661 51.0451 121.631C50.985 121.601 50.9323 121.558 50.891 121.505C50.8497 121.452 50.8208 121.391 50.8065 121.325C50.7921 121.26 50.7927 121.192 50.8082 121.126L51.4554 118.434C51.476 118.333 51.5308 118.243 51.6105 118.178C51.6903 118.113 51.7901 118.078 51.8929 118.078L59.0661 118.146C59.1329 118.147 59.1986 118.164 59.2583 118.194C59.318 118.224 59.3702 118.267 59.4111 118.32C59.4521 118.372 59.4806 118.434 59.4948 118.499C59.5089 118.564 59.5083 118.632 59.4929 118.697L58.8456 121.393Z" fill="white" stroke="#263238" stroke-linecap="round" stroke-linejoin="round"/>
<path d="M1.22484 140L166.775 140V138.279L1.22484 138.279V140Z" fill="#263238" stroke="#263238" stroke-linecap="round" stroke-linejoin="round"/>
<path d="M119.87 24.5771L118.824 21.5435H108.322L109.272 39.3254H133.69V24.5771H119.87Z" stroke="#263238" stroke-linecap="round" stroke-linejoin="round"/>
<path d="M133.69 39.3254L135.774 23.0336H119.237" stroke="#263238" stroke-linecap="round" stroke-linejoin="round"/>
<path d="M63.0458 33.3876C64.5954 26.7808 60.4958 20.1687 53.8889 18.6191C47.2821 17.0694 40.67 21.1691 39.1204 27.7759C37.5708 34.3828 41.6705 40.9949 48.2773 42.5445C54.8841 44.0941 61.4962 39.9944 63.0458 33.3876Z" stroke="#263238" stroke-linecap="round" stroke-linejoin="round"/>
<path d="M60.7168 32.8913C61.9887 27.5731 58.7085 22.2308 53.3903 20.9589C48.0721 19.6871 42.7298 22.9673 41.4579 28.2855C40.186 33.6037 43.4662 38.946 48.7844 40.2179C54.1026 41.4897 59.4449 38.2095 60.7168 32.8913Z" stroke="#263238" stroke-linecap="round" stroke-linejoin="round"/>
<path d="M52.3978 30.5838C52.3978 30.8433 52.3209 31.0971 52.1767 31.3129C52.0325 31.5287 51.8275 31.6969 51.5877 31.7962C51.3479 31.8955 51.084 31.9215 50.8295 31.8709C50.5749 31.8203 50.3411 31.6953 50.1576 31.5117C49.974 31.3282 49.849 31.0944 49.7984 30.8398C49.7478 30.5853 49.7738 30.3214 49.8731 30.0816C49.9724 29.8418 50.1406 29.6368 50.3564 29.4926C50.5722 29.3484 50.826 29.2715 51.0855 29.2715C51.4336 29.2715 51.7673 29.4097 52.0134 29.6559C52.2596 29.902 52.3978 30.2357 52.3978 30.5838V30.5838Z" stroke="#263238" stroke-linecap="round" stroke-linejoin="round"/>
<path d="M51.0464 21.4261V23.8765" stroke="#263238" stroke-linecap="round" stroke-linejoin="round"/>
<path d="M51.0464 37.3409V39.7877" stroke="#263238" stroke-linecap="round" stroke-linejoin="round"/>
<path d="M44.556 24.1147L46.2844 25.8467" stroke="#263238" stroke-linecap="round" stroke-linejoin="round"/>
<path d="M55.8084 35.3672L57.5368 37.0992" stroke="#263238" stroke-linecap="round" stroke-linejoin="round"/>
<path d="M41.8673 30.6088H44.3141" stroke="#263238" stroke-linecap="round" stroke-linejoin="round"/>
<path d="M57.7787 30.6088H60.2255" stroke="#263238" stroke-linecap="round" stroke-linejoin="round"/>
<path d="M44.556 37.0992L46.2844 35.3672" stroke="#263238" stroke-linecap="round" stroke-linejoin="round"/>
<path d="M55.8084 25.8467L57.5368 24.1147" stroke="#263238" stroke-linecap="round" stroke-linejoin="round"/>
<path d="M49.7732 30.5839H46.1492" stroke="#263238" stroke-linecap="round" stroke-linejoin="round"/>
<path d="M51.0855 29.2715V24.4882" stroke="#263238" stroke-linecap="round" stroke-linejoin="round"/>
<path d="M99.3209 21.5435H71.108V39.5637H99.3209V21.5435Z" stroke="#263238" stroke-linecap="round" stroke-linejoin="round"/>
<path d="M71.108 21.5435L85.2127 30.5518L99.3209 21.5435" stroke="#263238" stroke-linecap="round" stroke-linejoin="round"/>
<path d="M71.108 39.5638L81.7772 29.8406" stroke="#263238" stroke-linecap="round" stroke-linejoin="round"/>
<path d="M99.1858 39.5638L88.5166 29.8406" stroke="#263238" stroke-linecap="round" stroke-linejoin="round"/>
</svg>
