<svg width="142" height="141" viewBox="0 0 142 141" fill="none" xmlns="http://www.w3.org/2000/svg">
<path d="M58.1986 19.363C54.6424 15.8184 51.3589 12.1048 46.1783 10.5033C35.4253 7.1776 22.6638 9.20146 13.9923 16.7785C1.97972 27.2741 -0.842936 44.886 1.0926 59.199C3.28928 75.4168 10.0445 91.0739 21.312 103.198C33.6319 116.462 50.9096 125.088 69.1782 129.381C79.044 131.686 89.4014 132.838 99.5784 131.302C109.755 129.765 119.767 125.441 126.787 118.144C136.542 108.017 139.434 93.4894 138.443 80.0866C137.748 70.6931 135.152 61.0961 128.577 54.2142C116.318 41.3874 96.122 40.4273 80.1654 33.4763C73.6368 30.6306 67.4039 27.1321 61.9237 22.7579C60.6212 21.6949 59.3776 20.5616 58.1986 19.363Z" fill="#2b2963"/>
<path opacity="0.7" d="M58.1986 19.363C54.6424 15.8184 51.3589 12.1048 46.1783 10.5033C35.4253 7.1776 22.6638 9.20146 13.9923 16.7785C1.97972 27.2741 -0.842936 44.886 1.0926 59.199C3.28928 75.4168 10.0445 91.0739 21.312 103.198C33.6319 116.462 50.9096 125.088 69.1782 129.381C79.044 131.686 89.4014 132.838 99.5784 131.302C109.755 129.765 119.767 125.441 126.787 118.144C136.542 108.017 139.434 93.4894 138.443 80.0866C137.748 70.6931 135.152 61.0961 128.577 54.2142C116.318 41.3874 96.122 40.4273 80.1654 33.4763C73.6368 30.6306 67.4039 27.1321 61.9237 22.7579C60.6212 21.6949 59.3776 20.5616 58.1986 19.363Z" fill="white"/>
<path d="M125.643 40.2469L126.687 38.0041C126.687 38.0041 126.687 37.9388 126.687 37.8275C126.687 37.8275 126.561 34.0601 126.396 32.8926C126.273 32.017 125.896 31.8941 125.712 31.8903C125.454 31.6733 125.163 31.4972 124.852 31.368C124.002 30.8511 123.12 30.3905 122.21 29.9893C121.307 29.5208 120.539 29.252 120.216 29.7627C120.079 29.9781 119.96 30.2041 119.859 30.4386C119.832 30.5039 119.809 30.5654 119.786 30.6306V30.6691C119.723 30.857 119.674 31.0496 119.64 31.2451L118.335 32.1937L117.951 32.3934L118.719 36.4065L120.984 39.0487C120.984 39.0487 120.984 39.1562 120.938 39.3252C120.654 40.5823 120.066 41.7506 119.226 42.7277C118.906 43.0297 118.605 43.3503 118.323 43.6878C118.223 43.7838 118.127 43.8799 118.02 43.972C116.38 45.4045 115.75 46.5028 115.477 47.3323V47.3861C114.337 46.3022 113.126 45.2951 111.852 44.3714C111.576 44.1564 109.018 41.9213 107.198 40.1893L105.804 37.9081C106.253 38.7338 105.446 37.213 105.373 37.0556C104.559 35.2429 104.221 33.2421 103.277 31.4832C101.871 28.795 98.5953 26.7557 95.3924 26.3371L96.9285 22.8808L95.4231 22.2779C95.4672 22.3133 95.5164 22.3418 95.5691 22.3624C95.907 22.4853 96.5637 22.7234 97.3587 22.9768C102.658 25.0045 104.141 23.7449 104.271 23.6451C104.469 23.5288 104.631 23.359 104.737 23.1552C104.843 22.9514 104.889 22.7219 104.87 22.4929L104.41 15.8069C104.404 15.7243 104.415 15.6414 104.443 15.5634C104.47 15.4854 104.514 15.414 104.571 15.3537L105.723 14.0826C105.817 13.9789 105.873 13.8463 105.881 13.7067C105.889 13.567 105.85 13.4287 105.769 13.3145L104.198 11.1063C104.111 10.9854 104.071 10.8362 104.087 10.6877L104.264 9.02868C104.279 8.90947 104.256 8.78855 104.198 8.68305L102.044 4.52395C102.468 4.30867 102.833 3.99369 103.108 3.60611C104.287 1.68593 104.26 0.499264 103.434 0.0499428C102.608 -0.399378 101.03 2.35415 97.0591 1.48624C95.0698 1.07916 90.8838 4.99631 89.3477 8.09164L90.9798 4.33193C89.3323 6.50557 88.4145 7.16995 88.7563 8.17228C88.7217 8.19532 88.6603 8.23373 88.5835 8.29133C87.1664 9.41655 87.0473 10.5456 87.0473 10.5456C86.6633 11.8897 87.1933 13.9021 89.4629 16.5289L85.442 21.9054C85.1363 21.7047 84.7902 21.5737 84.4282 21.5213C82.7807 21.2525 80.3766 22.1051 79.647 22.3854C79.2322 22.2779 78.8328 22.1819 78.4526 22.1012C77.3411 21.7137 76.1734 21.5113 74.9963 21.5021C73.7727 21.3759 72.5369 21.4394 71.3326 21.6903C70.6387 21.8811 69.9618 22.129 69.3087 22.4315C68.7118 22.6631 68.1382 22.9512 67.596 23.2917C67.0279 23.6017 66.4836 23.9534 65.9676 24.344C64.3906 25.4548 62.9697 26.7723 61.7433 28.2612L60.4836 29.7627C60.0228 30.2466 59.5658 30.7331 59.1126 31.2221C57.0653 33.3173 54.8748 35.2678 52.5571 37.0594C50.3268 38.421 47.9349 39.4983 45.4371 40.2661C43.709 40.8191 41.9002 41.2953 40.0952 41.7254C38.175 42.1402 36.2164 42.4935 34.2617 42.8775C33.2632 43.0465 32.2455 43.2616 31.2586 43.4997C30.1871 43.7339 29.1195 43.9874 28.0595 44.2677C26.7971 44.5406 25.56 44.9196 24.3613 45.4006C24.0157 45.5235 23.67 45.6541 23.3282 45.7847C23.5663 45.8346 23.8006 45.8922 24.031 45.9613C25.3769 46.5194 26.6105 47.317 27.6717 48.3155C28.8698 49.7642 29.6044 51.5399 29.78 53.4116C29.7493 55.063 29.2001 56.9486 28.7777 58.7881C28.1863 60.7582 27.7062 62.471 28.4781 63.9764C28.6551 64.4385 28.9154 64.8642 29.2462 65.2322C29.6971 65.7774 30.2219 66.257 30.8054 66.657C31.8769 67.4942 33.1096 68.316 34.062 69.2914C34.7631 70.3901 35.3695 71.5463 35.8747 72.7478C36.1278 73.574 36.4543 74.376 36.8501 75.1441C37.0191 75.5282 37.1957 75.9122 37.3954 76.277C37.4985 76.4891 37.6193 76.6921 37.7564 76.8838C38.9411 78.7179 40.5838 80.2111 42.5223 81.2157C44.2654 82.3165 46.2563 82.9634 48.3135 83.0975C48.1785 83.7895 48.0798 84.4881 48.0178 85.1905C46.6448 85.5743 45.3103 86.0847 44.0316 86.7151C41.5929 87.7328 38.5936 89.196 36.685 90.8934C35.1792 92.2455 33.8996 93.8298 32.8945 95.5863C31.7185 97.5912 30.7913 99.732 30.1333 101.961C29.8415 102.841 29.5765 103.713 29.3192 104.557L29.2961 104.504C29.2961 104.603 29.2616 104.703 29.2462 104.803C28.9313 105.852 28.6279 106.862 28.313 107.799C27.0611 110.69 24.9873 113.559 23.9734 115.072C23.4434 115.752 22.8904 116.416 22.3221 117.073C21.0932 118.429 19.5378 120.019 18.3435 121.42C17.9598 121.834 17.6081 122.275 17.2912 122.741C17.0351 123.081 16.8151 123.447 16.6345 123.832C15.7243 125.952 17.7328 127.427 19.1499 129.235C19.1499 129.235 19.173 129.274 19.1883 129.293C19.6439 130.237 19.9324 131.253 20.0409 132.296C20.0028 133.239 20.0893 134.183 20.2982 135.104C20.5391 135.832 20.9529 136.49 21.5041 137.024C22.1948 137.81 23.0256 138.461 23.9542 138.944C24.4129 139.222 24.8917 139.466 25.3867 139.674C26.823 140.246 31.5658 140.211 32.6257 138.372C32.6907 138.258 32.7496 138.142 32.8024 138.022C32.9352 137.798 33.0128 137.545 33.029 137.285C33.0776 136.931 33.0378 136.57 32.9132 136.235C32.7885 135.9 32.5829 135.601 32.3147 135.365C32.2839 135.403 32.4452 135.503 32.4145 135.545C30.7324 133.034 26.22 130.123 26.2699 127.569C26.3429 122.711 29.2846 119.354 32.6411 116.209C35.9054 113.137 39.8955 112.622 42.9294 109.389C44.888 107.303 47.0309 105.164 48.3596 100.809C56.2669 98.3975 58.2332 91.8919 58.2332 91.8919C59.0473 91.5616 59.7156 91.2429 60.4683 90.9088C62.6342 94.1846 64.1857 96.3429 64.4123 96.2008L81.8321 84.4839C82.2162 84.9409 85.6725 89.0155 89.0021 90.1023L89.0981 90.1369L92.5966 91.8919C91.9975 94.0195 89.0481 94.6301 89.0481 94.6301V94.6646L88.7832 94.7184C88.161 94.6954 84.6855 94.7184 81.6824 97.9712C80.2576 99.3537 78.3796 101.861 76.9818 103.816C75.8297 105.421 75.0385 106.585 75.0385 106.585C74.5164 106.709 74.0032 106.868 73.5024 107.061C70.265 108.233 69.9846 109.619 70.169 110.418C70.1723 110.547 70.1864 110.675 70.2112 110.802C70.334 111.241 70.5774 111.638 70.914 111.946C71.2488 112.339 71.6277 112.692 72.0431 112.998C72.642 113.528 73.1539 114.149 73.56 114.838C73.9514 115.879 74.2583 116.95 74.4779 118.041C74.9733 120.157 77.4618 124.861 80.922 125.065C81.7522 125.141 82.5891 125.078 83.399 124.881C83.9674 124.773 84.5242 124.581 84.5818 124.112C84.6007 124.074 84.6161 124.034 84.6279 123.993C84.6279 123.993 84.6049 123.959 84.5703 123.894C84.5492 123.779 84.513 123.668 84.4628 123.563C83.9953 122.68 83.4693 121.83 82.8882 121.017C81.9392 119.192 81.2748 117.233 80.9181 115.207C80.8989 115.076 80.8836 114.949 80.8682 114.823C80.7991 114.235 80.7069 113.582 80.6647 112.925C80.6647 112.856 80.6647 112.787 80.6647 112.722C80.6129 111.728 80.8054 110.736 81.2254 109.834C81.882 108.774 83.0879 108.202 84.2746 107.914C85.1079 107.714 86.1448 107.434 87.2969 107.092C88.7197 106.744 90.1139 106.288 91.4676 105.729C96.1067 104.062 100.919 101.8 101.779 99.5841C103.142 96.0779 105.823 92.2875 105.823 92.2875C104.483 83.5276 97.7965 73.7578 97.7965 73.7578L115.808 61.5685C115.969 61.4687 115.324 60.2013 114.168 58.2044L114.483 58.7036C115.666 59.3795 117.82 59.6829 119.091 59.8096L119.372 59.8365C119.57 59.8596 119.771 59.8673 119.971 59.8595C121.345 58.646 122.571 56.3495 123.392 54.099C124.513 51.4407 125.242 48.6334 125.555 45.7655C125.756 44.4119 125.806 43.0402 125.704 41.6755C125.708 41.207 125.685 40.7308 125.643 40.2469ZM89.0136 17.32C89.1595 17.0819 89.2978 16.863 89.4207 16.6595L89.4629 16.5596C89.8738 15.8837 90.1158 15.4421 90.1158 15.4421L89.9622 15.4075L90.0121 15.2923L90.1158 15.4421C89.82 16.1074 89.4502 16.7373 89.0136 17.32Z" fill="white"/>
<path d="M117.471 44.7401C117.471 44.7401 118.892 49.4522 124.925 48.135C124.925 48.135 126.165 45.0627 125.508 40.3851L126.611 38.0118C126.611 38.0118 126.284 34.2982 126.338 33.7452C126.392 33.1922 126.403 32.04 124.667 31.3296C122.932 30.6191 120.739 28.7988 120.128 29.7704C119.517 30.742 119.594 31.2105 119.594 31.2105L118.058 32.3396L118.634 36.4104L120.904 39.0564C120.904 39.0564 120.604 41.4604 119.395 42.5127C118.649 43.158 118.001 43.9083 117.471 44.7401Z" fill="#2b2963"/>
<path opacity="0.2" d="M123.527 48.4115C123.527 48.4115 124.971 42.1479 124.026 38.465C124.026 38.465 126.142 36.5064 125.535 31.8941C125.535 31.8941 126.154 31.7213 126.303 32.8888C126.453 34.0563 126.599 37.8275 126.599 37.8275L125.57 40.2008C125.57 40.2008 125.493 45.6157 125.155 47.7586C125.151 47.7586 125.063 48.231 123.527 48.4115Z" fill="black"/>
<path d="M95.0391 27.424L114.479 55.8425C114.479 55.8425 115.631 57.0215 118.431 57.5515C118.431 57.5515 122.571 52.9431 123.515 48.4153L125.051 48.1081C125.051 48.1081 123.27 57.0484 120.059 59.9056C120.059 59.9056 116.184 59.7098 114.456 58.7151L94.897 27.7657L95.0391 27.424Z" fill="#2b2963"/>
<path opacity="0.6" d="M95.0391 27.424L114.479 55.8425C114.479 55.8425 115.631 57.0215 118.431 57.5515C118.431 57.5515 122.571 52.9431 123.515 48.4153L125.051 48.1081C125.051 48.1081 123.27 57.0484 120.059 59.9056C120.059 59.9056 116.184 59.7098 114.456 58.7151L94.897 27.7657L95.0391 27.424Z" fill="white"/>
<path d="M95.3885 26.4331C97.0076 26.5449 98.5716 27.0667 99.9334 27.9495C101.295 28.8323 102.41 30.047 103.173 31.4793C104.095 33.2382 104.452 35.239 105.27 37.0517C106.622 40.051 109.149 42.3514 111.748 44.3714C113.384 45.6387 115.101 46.8561 116.357 48.5036C116.995 49.3347 117.464 50.2834 117.736 51.2955" stroke="#263238" stroke-linecap="round" stroke-linejoin="round"/>
<path d="M115.378 47.3285C115.654 46.499 116.28 45.4083 117.92 43.972C120.67 41.5718 120.888 39.0487 120.888 39.0487L118.619 36.4027L117.851 32.3934L119.51 31.5408C119.51 31.5408 119.606 30.0892 120.431 29.6437C121.257 29.1982 125.155 31.5178 126.012 32.1783C126.565 32.6084 126.234 34.7053 126.603 37.8275C126.008 39.1754 125.574 40.2008 125.574 40.2008C126.568 52.0521 120.036 59.9018 120.036 59.9018C118.117 59.7977 116.225 59.3961 114.429 58.7113" stroke="#263238" stroke-linecap="round" stroke-linejoin="round"/>
<path d="M119.932 32.9119L121.13 33.9872C121.301 34.1511 121.488 34.2978 121.687 34.425C121.985 34.6554 122.339 34.8014 122.713 34.8474C123.024 34.8623 123.335 34.814 123.627 34.7053C123.892 34.5901 124.475 33.5532 124.552 33.2921" stroke="#263238" stroke-linecap="round" stroke-linejoin="round"/>
<path d="M117.413 44.4674C117.413 44.4674 118.646 49.7402 125.167 48.0159" stroke="#263238" stroke-linecap="round" stroke-linejoin="round"/>
<path d="M122.313 30.1199C121.985 30.2463 121.688 30.4431 121.444 30.6966C121.2 30.95 121.014 31.2539 120.9 31.5869C120.744 31.9192 120.659 32.2806 120.651 32.6477C120.643 33.0148 120.712 33.3795 120.854 33.7183" stroke="#263238" stroke-linecap="round" stroke-linejoin="round"/>
<path d="M124.134 31.007C123.723 31.1312 123.345 31.3442 123.027 31.6309C122.708 31.9177 122.457 32.2711 122.29 32.666C122.014 33.2878 121.956 33.9847 122.125 34.6438" stroke="#263238" stroke-linecap="round" stroke-linejoin="round"/>
<path d="M121.868 34.5479C122.292 34.7789 122.681 35.0713 123.02 35.4158C123.726 36.203 123.861 37.3359 123.965 38.3805" stroke="#263238" stroke-linecap="round" stroke-linejoin="round"/>
<path d="M119.502 31.5408C119.502 31.5408 120.75 30.7727 120.961 31.1875" stroke="#263238" stroke-linecap="round" stroke-linejoin="round"/>
<path d="M37.814 112.833C37.814 112.833 30.4674 110.932 29.396 104.584C28.3873 107.672 26.9553 110.604 25.1409 113.298C22.2721 117.426 16.5846 122.162 16.5615 123.817C16.5385 125.472 16.8803 126.486 18.3703 127.876C19.8604 129.266 20.0217 132.938 20.0793 133.802C20.1926 134.703 20.4951 135.57 20.967 136.347C21.4389 137.123 22.0695 137.791 22.8175 138.306C24.9527 139.842 28.3975 140.476 30.9321 139.435C33.4667 138.395 33.2786 136.451 32.4298 135.503C31.5811 134.554 26.4735 129.869 26.2853 128.283C26.0971 126.697 26.6463 123.467 28.3399 120.902C30.0335 118.337 34.2002 114.408 37.814 112.833Z" fill="#2b2963"/>
<path d="M96.9093 22.9537C96.9093 22.9537 95.3386 25.5229 94.8663 27.7619" stroke="#263238" stroke-linecap="round" stroke-linejoin="round"/>
<path d="M98.3955 5.65308C98.9485 7.23146 99.3902 8.97114 98.8449 10.5495C98.5108 11.5211 97.831 12.3391 97.4854 13.3031C97.1013 14.3515 97.1513 15.5036 97.1974 16.6173C97.2626 18.1227 97.3663 19.7356 98.2957 20.9185C99.6513 22.6466 102.167 22.781 104.194 23.6336C104.194 23.6336 102.831 25.1121 97.2396 22.9654L95.3194 22.2703L94.3017 26.9248C94.3017 26.9248 93.7026 25.9186 92.7656 26.0722C91.8285 26.2258 89.34 28.0807 89.34 28.0807C89.34 28.0807 87.9114 26.6675 87.5926 25.7151C87.2739 24.7627 86.4021 22.4815 85.3883 21.9554C85.3883 21.9554 89.6127 16.84 90.0812 15.4536C90.0812 15.4536 87.6848 12.2969 90.4345 11.0564C93.1842 9.81602 94.6934 12.9766 94.6934 12.9766L93.7257 8.87897L97.4124 5.76061L98.3955 5.65308Z" fill="#2b2963"/>
<path opacity="0.6" d="M98.3955 5.65308C98.9485 7.23146 99.3902 8.97114 98.8449 10.5495C98.5108 11.5211 97.831 12.3391 97.4854 13.3031C97.1013 14.3515 97.1513 15.5036 97.1974 16.6173C97.2626 18.1227 97.3663 19.7356 98.2957 20.9185C99.6513 22.6466 102.167 22.781 104.194 23.6336C104.194 23.6336 102.831 25.1121 97.2396 22.9654L95.3194 22.2703L94.3017 26.9248C94.3017 26.9248 93.7026 25.9186 92.7656 26.0722C91.8285 26.2258 89.34 28.0807 89.34 28.0807C89.34 28.0807 87.9114 26.6675 87.5926 25.7151C87.2739 24.7627 86.4021 22.4815 85.3883 21.9554C85.3883 21.9554 89.6127 16.84 90.0812 15.4536C90.0812 15.4536 87.6848 12.2969 90.4345 11.0564C93.1842 9.81602 94.6934 12.9766 94.6934 12.9766L93.7257 8.87897L97.4124 5.76061L98.3955 5.65308Z" fill="white"/>
<path d="M101.863 4.34351L104.122 8.70614C104.178 8.81079 104.2 8.93002 104.187 9.04793L104.01 10.7108C103.995 10.8575 104.033 11.0048 104.118 11.1256L105.692 13.3376C105.774 13.4517 105.814 13.5905 105.805 13.7306C105.796 13.8706 105.738 14.0032 105.642 14.1057L104.49 15.373C104.435 15.4341 104.392 15.5057 104.365 15.5836C104.338 15.6614 104.327 15.7439 104.333 15.8262L104.794 22.5122C104.812 22.7704 104.747 23.0277 104.609 23.2466C104.471 23.4655 104.266 23.6347 104.026 23.7296C103.47 23.918 102.888 24.0153 102.301 24.0176C100.293 24.0867 96.4907 22.7349 95.4923 22.3663C95.4145 22.3381 95.3433 22.2943 95.2832 22.2375C95.2231 22.1807 95.1753 22.1121 95.1428 22.036L93.4799 18.1035" stroke="#263238" stroke-linecap="round" stroke-linejoin="round"/>
<path d="M93.2879 13.0726C93.2879 13.0726 92.1358 10.4919 91.1488 10.7684C90.1618 11.0449 88.9828 11.9205 89.0097 13.0957C89.0366 14.2708 90.8416 16.3139 91.6097 16.4944C92.1765 16.5869 92.7573 16.5421 93.3032 16.3638" stroke="#263238" stroke-linecap="round" stroke-linejoin="round"/>
<path d="M102.474 11.1947C102.474 11.5787 102.317 11.8859 102.132 11.8821C101.948 11.8782 101.802 11.5672 101.81 11.187C101.817 10.8068 101.967 10.4957 102.151 10.4995C102.336 10.5034 102.482 10.8145 102.474 11.1947Z" fill="#263238"/>
<path d="M101.091 15.7609C101.094 16.1685 101.236 16.5629 101.494 16.8787C101.752 17.1945 102.11 17.4126 102.509 17.4967" stroke="#263238" stroke-linecap="round" stroke-linejoin="round"/>
<path d="M102.566 8.77902C102.566 8.77902 100.85 7.28512 99.8472 10.0348" stroke="#263238" stroke-width="2" stroke-linecap="round" stroke-linejoin="round"/>
<path d="M89.7548 15.3883L90.0543 15.4536C90.0543 15.4536 87.7155 19.7049 85.3614 21.9553" stroke="#263238" stroke-linecap="round" stroke-linejoin="round"/>
<path d="M90.6073 15.9375C90.6073 15.9375 89.6472 23.2726 90.9914 26.6521" stroke="#263238" stroke-linecap="round" stroke-linejoin="round"/>
<path d="M88.906 8.75219C88.906 8.75219 87.3238 5.64919 89.5435 2.72668" stroke="#263238" stroke-linecap="round" stroke-linejoin="round"/>
<path d="M89.5167 8.21837C86.502 8.05324 85.6033 11.6747 85.6033 11.6747" stroke="#263238" stroke-linecap="round" stroke-linejoin="round"/>
<path d="M103.357 0.0730343C102.543 -0.380127 100.953 2.37724 96.9823 1.50932C94.4515 0.963995 88.3684 2.63455 88.7217 8.17233C88.7217 8.17233 84.0787 10.8606 89.3592 16.671L90.039 15.0926C90.039 15.0926 87.8384 12.7347 89.7394 11.5403C91.4215 10.4881 91.6365 10.6148 93.238 13.1609C93.238 13.1609 93.7756 14.2746 94.8202 13.9597C95.8648 13.6448 95.8187 13.2109 95.3962 12.1625C95.2388 11.7784 94.9776 11.1256 94.7626 10.4113C95.715 10.1386 98.0038 9.15546 97.9731 5.99869V5.95261C99.997 5.39192 102.332 4.73138 103.031 3.61C104.21 1.72822 104.171 0.522355 103.357 0.0730343Z" fill="#263238"/>
<path d="M89.8008 8.0263C89.509 6.30199 90.6956 4.59303 92.2279 3.75583C93.7602 2.91864 95.5729 2.78039 97.3202 2.74966C98.4341 2.78392 99.5483 2.69375 100.642 2.48084C101.025 2.39309 101.397 2.26434 101.752 2.0968" stroke="white" stroke-width="0.5" stroke-linecap="round" stroke-linejoin="round"/>
<path d="M90.6611 8.95572C90.7795 8.29052 91.0976 7.67711 91.5729 7.19695C92.0483 6.71679 92.6585 6.39261 93.3224 6.26747C94.0175 6.15226 94.7395 6.26748 95.4308 6.12154C96.122 5.97561 96.8287 5.44564 96.7979 4.73901" stroke="white" stroke-width="0.5" stroke-linecap="round" stroke-linejoin="round"/>
<path d="M73.1913 39.4404L91.5789 26.3486C91.7909 26.1976 92.032 26.0923 92.2868 26.0394C92.5417 25.9865 92.8047 25.9872 93.0593 26.0414C93.3139 26.0955 93.5544 26.202 93.7657 26.3541C93.9769 26.5062 94.1542 26.7005 94.2864 26.9247C94.2864 26.9247 116.61 61.0309 115.746 61.5685L64.3278 96.1585C63.4484 96.7115 42.9447 63.0393 42.9447 63.0393C42.6901 62.6322 42.6004 62.1433 42.6939 61.6723C42.7873 61.2013 43.057 60.7837 43.4478 60.5047L53.187 53.45" stroke="#263238" stroke-linecap="round" stroke-linejoin="round"/>
<path d="M86.6326 80.993C87.5466 83.2166 89.5474 84.7796 91.529 86.1391C93.5106 87.4986 95.6151 88.8274 96.9324 90.832C98.2496 92.8367 98.5184 95.7784 96.8402 97.495C96.6906 97.6805 96.4981 97.8267 96.2793 97.9211C96.0605 98.0154 95.822 98.055 95.5844 98.0365C94.4938 97.8215 94.6858 96.0395 93.7987 95.3713C92.4584 97.2684 89.6895 97.9981 88.138 98.217L88.9637 94.5917C88.9637 94.5917 90.9952 94.3651 92.516 92.1915C92.516 92.1915 92.4545 91.2161 88.9176 90.0639C85.3806 88.9118 81.7092 84.3994 81.7092 84.3994L86.6326 80.993Z" fill="#2b2963"/>
<path opacity="0.6" d="M86.6326 80.993C87.5466 83.2166 89.5474 84.7796 91.529 86.1391C93.5106 87.4986 95.6151 88.8274 96.9324 90.832C98.2496 92.8367 98.5184 95.7784 96.8402 97.495C96.6906 97.6805 96.4981 97.8267 96.2793 97.9211C96.0605 98.0154 95.822 98.055 95.5844 98.0365C94.4938 97.8215 94.6858 96.0395 93.7987 95.3713C92.4584 97.2684 89.6895 97.9981 88.138 98.217L88.9637 94.5917C88.9637 94.5917 90.9952 94.3651 92.516 92.1915C92.516 92.1915 92.4545 91.2161 88.9176 90.0639C85.3806 88.9118 81.7092 84.3994 81.7092 84.3994L86.6326 80.993Z" fill="white"/>
<path d="M92.4545 105.206C92.4545 105.206 86.79 102.257 88.787 94.6838C88.787 94.6838 84.9005 94.3343 81.5902 97.9327C78.2798 101.531 74.9464 106.547 74.9464 106.547C74.9464 106.547 70.0461 108.029 70.096 109.911C70.1459 111.793 71.5592 112.645 72.5269 113.413C73.4947 114.181 73.9171 115.917 74.4125 118.022C74.9079 120.126 77.3965 124.842 80.8567 125.046C84.3168 125.249 84.5588 123.974 84.5588 123.974C84.5588 123.974 83.8252 122.68 82.8728 121.086C81.9204 119.492 80.6224 115.71 80.5917 112.695C80.561 109.68 81.786 108.348 83.9021 107.852C86.0181 107.357 89.8738 106.597 92.4545 105.206Z" fill="#2b2963"/>
<path d="M81.9128 84.5299C81.3175 83.9308 85.4075 88.8388 89.7125 90.348C93.9369 91.8343 93.9369 93.9426 93.9369 93.9426" stroke="#263238" stroke-linecap="round" stroke-linejoin="round"/>
<path d="M97.735 73.7578C97.735 73.7578 104.406 83.52 105.75 92.2798C105.75 92.2798 103.062 96.0741 101.702 99.5765C100.343 103.079 88.9637 106.746 84.2016 107.902C82.9113 108.213 81.5902 108.855 80.9873 110.103C80.3152 111.493 80.6301 113.336 80.7991 114.811C80.9614 116.439 81.3666 118.034 82.0011 119.542C82.6386 120.983 83.7293 122.146 84.3975 123.552C84.9428 124.704 83.5372 124.858 82.677 124.973C77.3888 125.691 74.7544 119.915 74.1207 116.555C73.487 113.194 70.4532 112.399 70.1229 110.76C69.5123 107.733 74.9464 106.535 74.9464 106.535C74.8427 106.754 78.9826 100.452 81.5902 97.9213C82.5964 96.9382 83.687 95.9781 85.0465 95.4558C86.406 94.9335 87.9613 94.8797 89.4053 94.5149C90.8493 94.1501 92.324 93.286 92.6197 91.9188" stroke="#263238" stroke-linecap="round" stroke-linejoin="round"/>
<path d="M88.86 94.73C88.86 94.73 86.141 101.616 92.6197 105.249" stroke="#263238" stroke-linecap="round" stroke-linejoin="round"/>
<path d="M83.6947 83.2627C85.7128 85.7505 88.3421 87.6719 91.3255 88.8389" stroke="#263238" stroke-linecap="round" stroke-linejoin="round"/>
<path d="M89.6972 95.8782C88.433 95.9576 87.1865 96.2162 85.9951 96.6462C84.798 97.0812 83.7379 97.8259 82.9228 98.8045" stroke="#263238" stroke-linecap="round" stroke-linejoin="round"/>
<path opacity="0.2" d="M88.2609 98.3629C85.9311 99.2323 83.6769 100.292 81.521 101.531C79.3609 102.776 77.5151 104.5 76.1254 106.57C75.9718 106.838 75.7903 107.089 75.5839 107.319C75.0731 107.829 74.3204 107.983 73.6445 108.24C72.1544 108.809 70.3495 111.17 70.3802 111.021C70.3802 111.021 68.1682 108.332 74.9464 106.531C74.9464 106.531 78.4257 101.451 80.7607 98.8814C83.0956 96.3122 84.4128 95.1255 88.6679 94.6915L88.2609 98.3629Z" fill="black"/>
<path d="M88.5796 28.4954L89.0481 28.0768C88.4223 27.1819 87.8652 26.2409 87.3814 25.2618C86.8745 24.1097 86.3253 21.8554 84.3629 21.5367C82.4005 21.2179 79.3704 22.4891 79.3704 22.4891C79.3704 22.4891 75.0347 20.8531 71.2788 21.721C71.2788 21.721 66.079 22.9845 61.678 28.2919C57.2769 33.5992 53.8129 37.574 45.3757 40.2776C36.9384 42.9812 26.6693 43.8952 23.5356 45.8192C23.5356 45.8192 29.3806 47.8047 29.7416 52.609C30.1026 57.4132 26.9228 61.1038 28.4167 64.0071C29.9106 66.9104 32.6795 67.5249 33.9007 69.1762C35.1219 70.8276 36.635 74.7831 37.3378 76.3308C38.0406 77.8785 42.5722 82.6021 48.2559 83.1436C48.2559 83.1436 49.3735 77.9975 50.7983 75.8469L42.9563 63.0317C42.9563 63.0317 42.0269 61.5992 43.5822 60.3434C45.1376 59.0876 53.1831 53.4577 53.1831 53.4577C53.1831 53.4577 51.8659 51.0191 51.6086 49.049C51.4202 47.8238 50.8283 46.6966 49.9265 45.8461C49.9265 45.8461 50.8367 43.0388 52.9719 41.3913C55.1071 39.7438 59.1472 35.8727 60.9137 33.3573C62.6803 30.8419 66.6282 23.4645 73.8864 22.5697C75.3218 23.0646 76.647 23.8342 77.7882 24.8355C79.7775 26.5368 83.6217 29.4747 88.5796 28.4954Z" fill="#2b2963"/>
<path opacity="0.2" d="M48.2559 83.1436C48.2559 83.1436 43.4171 83.1436 39.2964 78.6427C35.1757 74.1418 36.2241 71.8799 34.3731 69.7177C32.522 67.5556 29.2117 66.2077 28.4167 63.9995C27.6217 61.7913 29.4421 56.3648 29.7071 54.4715C29.972 52.5783 28.747 47.1211 23.5356 45.8116C23.5356 45.8116 29.6341 43.5688 34.9415 42.7777C40.2488 41.9866 47.7068 39.9704 51.1362 37.9657C54.5656 35.9611 60.3876 29.974 61.5051 28.6836C62.6227 27.3932 66.7588 22.9884 69.9539 22.2472C72.527 21.6519 73.9133 22.5698 73.9133 22.5698C73.9133 22.5698 67.7688 23.8755 64.4968 27.977C61.8661 31.2566 61.3323 33.8028 57.8031 37.1477C54.2738 40.4927 51.1631 42.0787 49.9265 45.5351C49.9265 45.5351 51.213 47.4091 51.405 48.5805C51.597 49.7518 53.21 53.4577 53.21 53.4577L43.4709 60.5124C43.4709 60.5124 41.9347 61.3765 43.0177 63.289C44.1007 65.2015 50.8405 75.9622 50.8405 75.9622C50.8405 75.9622 48.1331 81.2542 48.2559 83.1436Z" fill="black"/>
<path opacity="0.38" d="M79.7468 22.443C79.7468 22.443 83.783 21.0759 85.0657 21.8439C86.3484 22.612 89.052 28.3034 89.052 28.3034L88.3261 28.9063C88.3261 28.9063 82.6847 28.3802 80.6646 26.917C78.6446 25.4539 76.0562 22.3547 71.4132 22.0129C71.4209 22.0129 74.0247 20.9299 79.7468 22.443Z" fill="white"/>
<path d="M70.841 21.9745C65.7603 23.4453 64.1934 25.9646 61.4821 28.6759C59.4928 30.6652 57.6763 32.8273 55.6141 34.7398C47.0155 42.7047 34.1772 41.5449 23.2514 45.8C24.8517 46.0815 26.3249 46.8532 27.4676 48.0082C28.6103 49.1633 29.366 50.6448 29.6303 52.248C30.237 55.7811 27.1916 60.9502 28.578 64.2567C29.4843 66.4189 32.0881 67.2561 33.7125 68.9496C35.6327 70.9351 36.0168 73.8999 37.3263 76.3154C39.5076 80.294 43.7128 82.4101 48.2444 83.1359" stroke="#263238" stroke-linecap="round" stroke-linejoin="round"/>
<path d="M50.6178 46.86C49.9995 47.4898 49.4426 48.1772 48.8358 48.8147C45.7828 52.0099 41.5661 53.7803 37.4799 55.47" stroke="#263238" stroke-linecap="round" stroke-linejoin="round"/>
<path d="M51.6815 49.7325C49.4004 52.4208 46.2167 53.7073 43.1252 55.4124C40.0338 57.1175 36.9077 59.3104 35.7018 62.6284" stroke="#263238" stroke-linecap="round" stroke-linejoin="round"/>
<path d="M81.4519 24.1943C77.5271 19.678 69.9309 22.2395 69.9309 22.2395C72.8342 21.8555 75.0347 22.2395 79.3282 25.8456C82.6808 28.6606 86.694 28.795 88.2455 28.7067" stroke="#263238" stroke-linecap="round" stroke-linejoin="round"/>
<path d="M79.2859 22.5199C80.5488 22.1559 81.8309 21.8623 83.1263 21.6404C83.4747 21.5683 83.8313 21.5438 84.1862 21.5675C84.5617 21.6308 84.9205 21.7692 85.2412 21.9744C85.5619 22.1796 85.8379 22.4474 86.0527 22.7618C86.4777 23.3921 86.8379 24.0637 87.1279 24.7665C87.678 25.9192 88.3296 27.0206 89.075 28.0576" stroke="#263238" stroke-linecap="round" stroke-linejoin="round"/>
<path d="M54.5733 82.1143C54.5733 82.1143 50.0609 85.778 48.8128 91.8266C48.4032 91.3914 48.1163 90.8554 47.9813 90.2731C47.8464 89.6909 47.8683 89.0834 48.0447 88.5124C48.0447 88.5124 35.3716 93.9119 30.4367 107.649L29.373 104.577C29.373 104.577 31.0781 94.9065 37.2073 90.6053C43.4056 86.2504 47.9257 85.2288 47.9257 85.2288C47.9257 85.2288 48.6938 78.5351 50.8136 76.1426L54.5733 82.1143Z" fill="#2b2963"/>
<path opacity="0.6" d="M54.5733 82.1297C54.5733 82.1297 50.0609 85.7781 48.8128 91.8266C48.4032 91.3914 48.1163 90.8554 47.9813 90.2732C47.8464 89.691 47.8683 89.0834 48.0447 88.5124C48.0447 88.5124 35.3716 93.9119 30.4367 107.649L29.373 104.577C29.373 104.577 31.0781 94.9066 37.2073 90.6054C43.4056 86.2504 47.9257 85.2289 47.9257 85.2289C47.9257 85.2289 48.6938 78.6235 50.8136 76.231L54.5733 82.1297Z" fill="white"/>
<path d="M60.3991 90.8589C59.6311 91.1968 58.9667 91.5194 58.1487 91.8497C58.1487 91.8497 56.1824 98.3552 48.2751 100.771C46.9464 105.118 44.8188 107.265 42.8449 109.35C39.811 112.58 35.8209 113.114 32.5566 116.167C29.1963 119.312 26.2584 122.668 26.1854 127.527C26.124 131.398 36.5352 136.098 31.6579 138.963C26.7807 141.828 20.3443 137.907 20.1369 134.163C19.9295 130.418 19.3074 129.024 17.4487 126.997C15.3902 124.735 16.9494 122.772 18.7582 120.871C22.4834 116.935 25.6708 113.394 28.0019 108.448C29.8223 103.367 30.9859 95.8629 36.5851 90.8934C40.2488 87.6407 47.941 85.2212 47.941 85.2212C47.941 85.2212 48.2905 80.2288 50.8174 75.9622" stroke="#263238" stroke-linecap="round" stroke-linejoin="round"/>
<path d="M29.3345 104.266C29.4689 103.882 30.4866 111.904 38.056 112.653" stroke="#263238" stroke-linecap="round" stroke-linejoin="round"/>
<path d="M42.4647 88.8004C39.3845 90.2071 36.8422 92.5728 35.218 95.5441" stroke="#263238" stroke-linecap="round" stroke-linejoin="round"/>
<path d="M45.8404 87.6445C44.9606 87.8435 44.0988 88.1145 43.2635 88.4548" stroke="#263238" stroke-linecap="round" stroke-linejoin="round"/>
<path d="M22.4066 136.14C23.1344 137.219 24.1691 138.054 25.3768 138.538C26.5846 139.022 27.9097 139.133 29.1809 138.856" stroke="#263238" stroke-linecap="round" stroke-linejoin="round"/>
<path opacity="0.2" d="M30.5135 107.288C29.2078 110.932 27.3606 114.201 24.4957 116.804C23.2821 117.91 21.9457 118.893 20.8512 120.122C19.7567 121.351 18.8965 122.891 18.8965 124.535C18.9438 125.482 19.1315 126.416 19.4533 127.308C19.8988 128.744 20.3417 130.178 20.7821 131.609C21.042 132.623 21.4468 133.594 21.9841 134.493C22.5722 135.337 23.336 136.045 24.223 136.567C25.4542 137.372 26.8955 137.797 28.3668 137.788C29.8261 137.734 31.585 136.578 32.4299 135.384C32.4299 135.384 33.605 136.498 32.5451 138.337C31.4851 140.177 26.7461 140.211 25.3099 139.639C23.8736 139.067 20.809 137.166 20.2214 135.092C19.6338 133.018 20.4864 131.037 19.0693 129.228C17.6522 127.419 15.6475 125.94 16.5577 123.821C17.4679 121.701 22.4872 117.169 23.8966 115.061C25.306 112.952 28.7508 108.267 29.2193 104.488L30.5135 107.288Z" fill="black"/>
<path d="M86.4136 55.6045L114.84 59.6791L115.547 61.4726L86.4904 56.4071L86.4136 55.6045Z" fill="#2b2963"/>
<path opacity="0.6" d="M86.4136 55.6045L114.84 59.6791L115.547 61.4726L86.4904 56.4071L86.4136 55.6045Z" fill="white"/>
<path d="M71.6629 67.0641L62.7033 94.0848L64.3048 96.0434L72.0277 67.8245L71.6629 67.0641Z" fill="#2b2963"/>
<path opacity="0.6" d="M71.6629 67.0641L62.7033 94.0848L64.3048 96.0434L72.0277 67.8245L71.6629 67.0641Z" fill="white"/>
<path d="M93.3378 26.1989L84.0979 70.912L42.9447 63.0393L42.7604 62.3481L82.8191 68.8575L93.3378 26.1989Z" fill="#2b2963"/>
<path opacity="0.6" d="M93.3378 26.1989L84.0979 70.912L42.9447 63.0393L42.7604 62.3481L82.8191 68.8575L93.3378 26.1989Z" fill="white"/>
<path d="M92.9267 44.434C95.8515 43.1501 97.1817 39.7383 95.8978 36.8135C94.614 33.8887 91.2021 32.5585 88.2774 33.8424C85.3526 35.1263 84.0224 38.5381 85.3063 41.4629C86.5902 44.3877 90.002 45.7179 92.9267 44.434Z" fill="#2b2963"/>
<path d="M91.4445 33.3074L93.1688 26.1375" stroke="#263238" stroke-linecap="round" stroke-linejoin="round"/>
<path d="M64.2779 95.9703L72.3772 67.0525" stroke="#263238" stroke-linecap="round" stroke-linejoin="round"/>
<path d="M85.8645 56.3763L115.654 61.4302" stroke="#263238" stroke-linecap="round" stroke-linejoin="round"/>
<path d="M67.185 50.9153L81.5211 40.604" stroke="#263238" stroke-linecap="round" stroke-linejoin="round"/>
<path d="M67.9492 53.0314L82.6194 42.4666" stroke="#263238" stroke-linecap="round" stroke-linejoin="round"/>
<path d="M69.6044 56.4839C71.2481 56.6145 73.1376 55.4508 74.0746 54.1144C75.0116 52.778 75.7567 51.2341 77.1085 50.2971C78.0196 49.7466 79.0107 49.3411 80.0463 49.0951C81.0834 48.8456 82.0576 48.384 82.9074 47.7394C83.71 47.0443 84.2208 45.9268 83.8982 44.9244" stroke="#263238" stroke-linecap="round" stroke-linejoin="round"/>
<path d="M70.5952 57.8434C72.2389 58.0969 73.7482 56.9486 74.7774 55.6544C75.8066 54.3602 76.6054 52.8471 77.9534 51.8793C79.0025 51.0759 80.2151 50.5122 81.5057 50.228C83.6832 49.844 85.1348 48.5114 85.2078 47.2095" stroke="#263238" stroke-linecap="round" stroke-linejoin="round"/>
<path d="M90.5766 44.8323C93.7623 44.8323 96.3448 42.2498 96.3448 39.0641C96.3448 35.8784 93.7623 33.2959 90.5766 33.2959C87.3909 33.2959 84.8084 35.8784 84.8084 39.0641C84.8084 42.2498 87.3909 44.8323 90.5766 44.8323Z" stroke="#263238" stroke-linecap="round" stroke-linejoin="round"/>
<path d="M73.1913 39.4404L91.5789 26.3486C91.7909 26.1976 92.032 26.0923 92.2868 26.0394C92.5417 25.9865 92.8047 25.9872 93.0593 26.0414C93.3139 26.0955 93.5544 26.202 93.7657 26.3541C93.9769 26.5062 94.1542 26.7005 94.2864 26.9247C94.2864 26.9247 116.61 61.0309 115.746 61.5685L64.3278 96.1585C63.4484 96.7115 42.9447 63.0393 42.9447 63.0393C42.6901 62.6322 42.6004 62.1433 42.6939 61.6723C42.7873 61.2013 43.057 60.7837 43.4478 60.5047L53.187 53.45" stroke="#263238" stroke-linecap="round" stroke-linejoin="round"/>
<path d="M83.1494 67.3751L88.6487 44.5864" stroke="#263238" stroke-linecap="round" stroke-linejoin="round"/>
<path d="M42.6567 62.3519L72.4617 67.0333" stroke="#263238" stroke-linecap="round" stroke-linejoin="round"/>
<path d="M61.6511 60.547C61.6511 60.547 66.2864 61.1115 68.5637 55.1398C68.5637 55.1398 71.252 59.1145 73.4525 60.6007C73.4525 60.6007 74.3895 60.355 76.4518 60.8504C78.0741 61.1714 79.7254 61.322 81.379 61.2997C81.379 61.2997 80.8682 63.0931 79.7315 63.1277C78.9921 63.1298 78.2629 62.9561 77.6039 62.6208L77.3504 63.2467L84.9735 68.9535C85.0696 69.0762 85.1405 69.2168 85.1819 69.3671C85.2233 69.5174 85.2346 69.6744 85.2149 69.829C85.1953 69.9837 85.1452 70.1329 85.0675 70.268C84.9898 70.4032 84.8861 70.5216 84.7623 70.6164L79.3858 66.8912L79.1324 67.5211C79.1324 67.5211 82.3506 71.8146 82.4427 72.4905C82.5349 73.1664 82.3813 73.2125 81.8629 73.2585C81.3444 73.3046 80.5802 72.5135 80.5802 72.5135L77.7037 68.3775L77.2045 68.8345C77.2045 68.8345 79.2629 73.0588 78.9979 73.9536C78.733 74.8484 77.5578 73.6042 77.5578 73.6042L75.9602 69.8521C75.9602 69.8521 76.5862 72.8131 75.6492 73.2125C74.7121 73.6119 74.643 72.4213 74.3934 69.5948L71.9048 66.1961C71.9048 66.1961 64.6312 62.8934 61.6511 60.547Z" fill="#2b2963"/>
<path opacity="0.2" d="M64.2625 60.017L72.3503 65.5778L74.3742 69.5948L72.2389 66.5302L61.6127 60.9195L64.2625 60.017Z" fill="black"/>
<path d="M76.6937 24.0713C73.1721 25.9915 72.6767 26.5791 70.8372 28.192C68.533 30.2121 66.4093 32.8005 66.1789 35.842C66.1064 36.3667 66.1906 36.9011 66.4208 37.3781C66.9047 38.2422 68.0875 38.5034 69.0399 38.2307C69.9923 37.958 70.7681 37.2821 71.5093 36.6254C71.3057 36.8059 71.1867 37.4204 71.0139 37.6777C70.7895 38.0133 70.5164 38.3136 70.2035 38.5687C69.4922 39.113 68.6765 39.5052 67.8072 39.7208C65.6988 40.3237 63.3831 40.2853 61.2018 40.7193C58.8976 41.1763 57.3269 42.3668 55.8483 44.1448C54.7999 45.4045 56.6164 48.6573 57.1425 50.2088C58.3638 53.9262 61.4821 57.2635 64.2625 60.0132L61.6511 60.5431C61.6511 60.5431 54.6041 56.8142 53.2023 53.4462C51.8006 50.0782 51.0095 47.221 49.7959 45.6387C49.7959 45.6387 50.8213 43.2232 55.3299 39.2561C59.8384 35.289 62.1695 31.3795 63.9169 29.0023C66.2749 25.788 71.7128 22.7579 73.9018 22.5582C73.8826 22.5506 74.8196 22.708 76.6937 24.0713Z" fill="#2b2963"/>
<path opacity="0.6" d="M76.7475 24.0444C73.2221 25.9646 72.6767 26.579 70.8372 28.192C68.533 30.212 66.4093 32.8004 66.1789 35.842C66.1064 36.3667 66.1906 36.9011 66.4208 37.3781C66.9047 38.2422 68.0875 38.5033 69.0399 38.2307C69.9923 37.958 70.7681 37.2821 71.5093 36.6254C71.3057 36.8059 71.1867 37.4203 71.0139 37.6776C70.7895 38.0132 70.5164 38.3135 70.2035 38.5686C69.4922 39.113 68.6765 39.5051 67.8072 39.7207C65.6988 40.3236 63.3831 40.2852 61.2018 40.7192C58.8976 41.1762 57.3269 42.3667 55.8483 44.1448C54.7999 45.4044 56.6164 48.6572 57.1425 50.2087C58.3638 53.9262 61.4821 57.2634 64.2625 60.0131L61.6511 60.5431C61.6511 60.5431 54.6041 56.8141 53.2023 53.4461C51.8006 50.0781 51.0095 47.2209 49.7959 45.6387C49.7959 45.6387 50.8213 43.2231 55.3299 39.256C59.8384 35.2889 62.1695 31.3795 63.9169 29.0023C66.2749 25.7879 71.9816 22.7771 74.1706 22.5774C75.0693 22.9932 75.9313 23.4839 76.7475 24.0444Z" fill="white"/>
<path d="M65.2034 47.9392C68.387 45.7694 73.4563 41.3184 74.3434 35.8574" stroke="#263238" stroke-linecap="round" stroke-linejoin="round"/>
<path d="M74.4894 61.2805C71.5439 59.494 69.2943 56.7581 68.1105 53.523C66.463 49.0528 64.7272 46.4606 60.3377 44.79" stroke="#263238" stroke-linecap="round" stroke-linejoin="round"/>
<path d="M54.4005 52.8356C55.7515 55.0092 57.7047 56.7436 60.0228 57.828" stroke="#263238" stroke-linecap="round" stroke-linejoin="round"/>
<path d="M53.0526 49.9399C53.279 50.6577 53.5708 51.3531 53.9243 52.0176" stroke="#263238" stroke-linecap="round" stroke-linejoin="round"/>
<path d="M61.6511 60.547C61.6511 60.547 66.7511 60.6814 68.6559 54.9055" stroke="#263238" stroke-linecap="round" stroke-linejoin="round"/>
<path d="M70.5684 25.3041C71.4118 24.9636 72.2864 24.7064 73.1798 24.536" stroke="#263238" stroke-linecap="round" stroke-linejoin="round"/>
<path d="M63.7364 31.5063C65.0516 29.015 67.1164 26.9999 69.639 25.7457" stroke="#263238" stroke-linecap="round" stroke-linejoin="round"/>
<path d="M60.2762 43.78C60.9779 43.9636 61.6318 44.2959 62.1937 44.7545C62.7556 45.213 63.2123 45.787 63.5329 46.4376" stroke="#263238" stroke-linecap="round" stroke-linejoin="round"/>
<path d="M73.7367 60.7428C74.7505 60.2781 76.0409 60.6545 76.6476 60.8503C77.4771 61.1076 80.7491 61.5685 81.3674 61.2996C81.9857 61.0308 80.8259 62.7091 80.1116 63.0393C79.3973 63.3696 77.5924 62.6207 77.5924 62.6207L77.3389 63.2467C77.3389 63.2467 84.7047 68.3966 85.1233 69.1263C85.5419 69.856 85.2577 70.5626 84.7623 70.6163C84.2669 70.6701 79.3858 66.8912 79.3858 66.8912L79.1323 67.521C79.1323 67.521 82.9727 72.4405 82.5887 72.9551C82.2046 73.4697 81.3981 73.2623 80.776 72.6095C80.1539 71.9566 77.7037 68.3851 77.7037 68.3851L77.2045 68.8421C77.2045 68.8421 79.2667 73.4505 78.9979 73.9613C78.7291 74.4721 78.0839 74.2877 77.7076 73.8077C77.3312 73.3276 75.8104 69.5449 75.8104 69.5449C75.8104 69.5449 76.2137 72.7247 75.9756 73.0742C75.9111 73.1566 75.8281 73.2228 75.7334 73.2673C75.6387 73.3118 75.5348 73.3334 75.4302 73.3304C75.3255 73.3274 75.2231 73.2999 75.131 73.25C75.039 73.2002 74.96 73.1294 74.9003 73.0434C74.6583 72.6594 74.3933 69.5871 74.3933 69.5871L71.9048 66.1884C66.6934 64.13 57.3614 57.8587 57.3614 57.8587C52.4381 53.8993 51.9849 50.6772 51.4012 48.5651C51.1372 47.5529 50.6401 46.6165 49.9495 45.8307C51.2821 40.6885 57.4267 39.6401 62.1542 31.4793C66.8816 23.3186 74.2628 22.5851 74.2628 22.5851" stroke="#263238" stroke-linecap="round" stroke-linejoin="round"/>
<path d="M9.54903 96.8574L0.938965 103.977" stroke="#263238" stroke-linecap="round" stroke-linejoin="round"/>
<path d="M32.0151 78.2778L14.7604 92.5447" stroke="#263238" stroke-linecap="round" stroke-linejoin="round"/>
<path d="M9.38772 71.9413L5.98901 74.7524" stroke="#263238" stroke-linecap="round" stroke-linejoin="round"/>
<path d="M25.498 58.6191L12.0529 69.737" stroke="#263238" stroke-linecap="round" stroke-linejoin="round"/>
<path d="M17.0684 68.2853L8.87314 75.0635" stroke="#263238" stroke-linecap="round" stroke-linejoin="round"/>
<path d="M60.1379 102.011L49.4695 110.833" stroke="#263238" stroke-linecap="round" stroke-linejoin="round"/>
<path d="M65.8409 97.2953L61.5973 100.802" stroke="#263238" stroke-linecap="round" stroke-linejoin="round"/>
<path d="M64.2164 101.162L59.9728 104.673" stroke="#263238" stroke-linecap="round" stroke-linejoin="round"/>
<path d="M111.837 24.4592L109.225 26.6175" stroke="#263238" stroke-linecap="round" stroke-linejoin="round"/>
<path d="M122.428 15.6993L113.081 23.43" stroke="#263238" stroke-linecap="round" stroke-linejoin="round"/>
<path d="M104.413 69.0341H141.465C141.465 69.0341 141.081 67.2753 139.518 66.7299C137.955 66.1846 136.83 66.7299 136.83 64.8789C136.83 63.0278 136.365 62.0985 134.606 61.7298C134.606 61.7298 133.496 57.7474 129.975 57.3748C126.453 57.0023 123.953 57.467 123.396 59.5984C122.839 61.7298 122.286 62.8397 121.269 62.7475C120.251 62.6553 118.58 61.6376 117.747 63.5809C116.914 65.5241 116.914 66.6531 115.616 66.2691C114.318 65.8851 111.725 64.2299 109.69 67.5671C109.702 67.5556 106.357 66.1654 104.413 69.0341Z" fill="white"/>
<path d="M40.4792 28.9409H3.42755C3.42755 28.9409 3.81159 27.1782 5.37461 26.6367C6.93763 26.0952 8.06285 26.6367 8.06285 24.7818C8.06285 22.927 8.52754 22.0053 10.2864 21.6328C10.2864 21.6328 11.3963 17.6503 14.9179 17.2778C18.4395 16.9053 20.9395 17.37 21.4964 19.5014C22.0532 21.6328 22.6063 22.7426 23.624 22.6505C24.6416 22.5583 26.3122 21.5406 27.1456 23.4838C27.9789 25.427 27.9789 26.5561 29.2769 26.172C30.575 25.788 33.1634 24.1213 35.1988 27.4586C35.1988 27.4586 38.536 26.0684 40.4792 28.9409Z" fill="white"/>
</svg>
