<svg width="149" height="140" viewBox="0 0 149 140" fill="none" xmlns="http://www.w3.org/2000/svg">
<path d="M46.9991 8.61788C46.9991 8.61788 21.9259 21.391 9.42082 41.0736C-3.08431 60.7562 -2.09489 86.0775 13.1005 104.873C28.296 123.669 57.34 121.2 81.6587 133.107C105.977 145.013 132.808 142.561 144.307 117.335C155.806 92.11 138.466 82.6824 135.488 53.4894C132.51 24.2964 106.192 -18.4506 46.9991 8.61788Z" fill="#92E3A9"/>
<path opacity="0.7" d="M46.9991 8.61788C46.9991 8.61788 21.9259 21.391 9.42082 41.0736C-3.08431 60.7562 -2.09489 86.0775 13.1005 104.873C28.296 123.669 57.34 121.2 81.6587 133.107C105.977 145.013 132.808 142.561 144.307 117.335C155.806 92.11 138.466 82.6824 135.488 53.4894C132.51 24.2964 106.192 -18.4506 46.9991 8.61788Z" fill="white"/>
<path d="M35.8076 30.6631C35.8076 30.9464 35.7236 31.2234 35.5662 31.4589C35.4088 31.6945 35.1851 31.8781 34.9233 31.9865C34.6616 32.0949 34.3736 32.1233 34.0957 32.068C33.8179 32.0127 33.5626 31.8763 33.3623 31.676C33.162 31.4756 33.0255 31.2204 32.9703 30.9426C32.915 30.6647 32.9434 30.3767 33.0518 30.115C33.1602 29.8532 33.3438 29.6295 33.5794 29.4721C33.8149 29.3147 34.0919 29.2307 34.3752 29.2307C34.7551 29.2307 35.1194 29.3816 35.388 29.6503C35.6566 29.9189 35.8076 30.2832 35.8076 30.6631Z" stroke="#808080" stroke-miterlimit="10"/>
<path d="M42.0651 30.6516H26.6852L31.2762 27.4379H37.4741L42.0651 30.6516Z" fill="#263238" stroke="#263238" stroke-linecap="round" stroke-linejoin="round"/>
<path d="M35.5964 25.5281H33.1562V28.7418H35.5964V25.5281Z" fill="#263238" stroke="#263238" stroke-linecap="round" stroke-linejoin="round"/>
<path d="M34.3224 25.7278V18.4097" stroke="#263238" stroke-linecap="round" stroke-linejoin="round"/>
<path d="M91.4141 27.8786V24.2953H94.7564V50.2621" stroke="#808080" stroke-miterlimit="10"/>
<path d="M91.4141 82.6427V28.8519" stroke="#808080" stroke-miterlimit="10"/>
<path d="M94.7564 51.2355V110.956H91.4141V83.9695" stroke="#808080" stroke-miterlimit="10"/>
<path d="M73.9728 25.8677V24.2953H77.3151V25.5808" stroke="#808080" stroke-miterlimit="10"/>
<path d="M73.9728 53.7995V52.7458" stroke="#808080" stroke-miterlimit="10"/>
<path d="M77.3151 107.859V110.956H73.9728V96.3538" stroke="#808080" stroke-miterlimit="10"/>
<path d="M77.3151 96.2964V106.709" stroke="#808080" stroke-miterlimit="10"/>
<path d="M40.0267 104.849V96.3538" stroke="#808080" stroke-miterlimit="10"/>
<path d="M43.369 96.2964V110.956H40.0267V106.266" stroke="#808080" stroke-miterlimit="10"/>
<path d="M77.3151 52.459V53.7422" stroke="#808080" stroke-miterlimit="10"/>
<path d="M64.1847 52.6128H91.4256V48.9399H29.4467" stroke="#808080" stroke-miterlimit="10"/>
<path d="M42.6849 52.6128H63.2987" stroke="#808080" stroke-miterlimit="10"/>
<path d="M39.8546 52.6128H41.8012" stroke="#808080" stroke-miterlimit="10"/>
<path d="M29.4467 52.6128H38.7917" stroke="#808080" stroke-miterlimit="10"/>
<path d="M89.4285 87.376H82.5213V92.7222H89.4285V87.376Z" stroke="#808080" stroke-miterlimit="10"/>
<path d="M72.6047 87.376H65.6975V92.7222H72.6047V87.376Z" stroke="#808080" stroke-miterlimit="10"/>
<path d="M55.7785 87.376H35.8007V92.7222H55.7785V87.376Z" stroke="#808080" stroke-miterlimit="10"/>
<path d="M55.7785 87.376H49.9525V92.7222H55.7785V87.376Z" stroke="#808080" stroke-miterlimit="10"/>
<path d="M90.007 86.3018H32.6581V87.3715H90.007V86.3018Z" stroke="#808080" stroke-miterlimit="10"/>
<path d="M90.0047 86.3018H47.5147V87.3715H90.0047V86.3018Z" stroke="#808080" stroke-miterlimit="10"/>
<path d="M53.8067 85.5144H33.4179V86.3316H53.8067V85.5144Z" stroke="#808080" stroke-miterlimit="10"/>
<path d="M62.4355 85.5144H58.2554V86.2811H62.4355V85.5144Z" stroke="#808080" stroke-miterlimit="10"/>
<path d="M71.0644 85.5144H66.8842V86.2811H71.0644V85.5144Z" stroke="#808080" stroke-miterlimit="10"/>
<path d="M79.6932 85.5144H75.5131V86.2811H79.6932V85.5144Z" stroke="#808080" stroke-miterlimit="10"/>
<path d="M88.3221 85.5144H84.1419V86.2811H88.3221V85.5144Z" stroke="#808080" stroke-miterlimit="10"/>
<path d="M55.7785 92.7223H65.6975" stroke="#808080" stroke-miterlimit="10"/>
<path d="M72.6024 92.7223H82.5213" stroke="#808080" stroke-miterlimit="10"/>
<path d="M49.8814 86.3086V85.5419" stroke="#808080" stroke-miterlimit="10"/>
<path d="M53.8067 85.5144H58.2554" stroke="#808080" stroke-miterlimit="10"/>
<path d="M62.4355 85.5144H66.8842" stroke="#808080" stroke-miterlimit="10"/>
<path d="M71.0644 85.5144H75.5131" stroke="#808080" stroke-miterlimit="10"/>
<path d="M79.6932 85.5144H84.1419" stroke="#808080" stroke-miterlimit="10"/>
<path d="M33.838 96.386H91.4256V92.7131H29.4467" stroke="#808080" stroke-miterlimit="10"/>
<path d="M29.4467 96.3859H32.7775" stroke="#808080" stroke-miterlimit="10"/>
<path d="M88.485 53.7697H69.4231V69.6064H88.485V53.7697Z" stroke="#808080" stroke-miterlimit="10"/>
<path d="M88.485 53.7697H73.1579V69.6064H88.485V53.7697Z" stroke="#808080" stroke-miterlimit="10"/>
<path d="M82.6177 55.0299H79.404C79.2554 55.0299 79.113 54.9709 79.0079 54.8658C78.9029 54.7608 78.8439 54.6183 78.8439 54.4698C78.8439 54.3212 78.9029 54.1788 79.0079 54.0737C79.113 53.9687 79.2554 53.9097 79.404 53.9097H82.6177C82.7663 53.9097 82.9087 53.9687 83.0138 54.0737C83.1188 54.1788 83.1778 54.3212 83.1778 54.4698C83.1778 54.6183 83.1188 54.7608 83.0138 54.8658C82.9087 54.9709 82.7663 55.0299 82.6177 55.0299Z" stroke="#808080" stroke-miterlimit="10"/>
<path d="M88.485 69.6018H69.4231V85.4386H88.485V69.6018Z" stroke="#808080" stroke-miterlimit="10"/>
<path d="M88.485 69.6018H73.1579V85.4386H88.485V69.6018Z" stroke="#808080" stroke-miterlimit="10"/>
<path d="M82.6177 69.7419H79.404C79.0946 69.7419 78.8439 69.9922 78.8439 70.3009C78.8439 70.6096 79.0946 70.8599 79.404 70.8599H82.6177C82.927 70.8599 83.1778 70.6096 83.1778 70.3009C83.1778 69.9922 82.927 69.7419 82.6177 69.7419Z" stroke="#808080" stroke-miterlimit="10"/>
<path d="M66.416 69.6018H47.354V85.4386H66.416V69.6018Z" stroke="#808080" stroke-miterlimit="10"/>
<path d="M66.416 69.6018H51.0888V85.4386H66.416V69.6018Z" stroke="#808080" stroke-miterlimit="10"/>
<path d="M60.5509 69.7419H57.3372C57.0279 69.7419 56.7771 69.9922 56.7771 70.3009C56.7771 70.6096 57.0279 70.8599 57.3372 70.8599H60.5509C60.8603 70.8599 61.111 70.6096 61.111 70.3009C61.111 69.9922 60.8603 69.7419 60.5509 69.7419Z" stroke="#808080" stroke-miterlimit="10"/>
<path d="M89.4285 43.5524H82.5213V48.8986H89.4285V43.5524Z" stroke="#808080" stroke-miterlimit="10"/>
<path d="M72.6047 43.5524H65.6975V48.8986H72.6047V43.5524Z" stroke="#808080" stroke-miterlimit="10"/>
<path d="M55.7785 43.5524H35.8007V48.8986H55.7785V43.5524Z" stroke="#808080" stroke-miterlimit="10"/>
<path d="M55.7785 43.5524H49.9525V48.8986H55.7785V43.5524Z" stroke="#808080" stroke-miterlimit="10"/>
<path d="M90.007 42.4803H32.6581V43.5501H90.007V42.4803Z" stroke="#808080" stroke-miterlimit="10"/>
<path d="M90.0047 42.4803H47.5147V43.5501H90.0047V42.4803Z" stroke="#808080" stroke-miterlimit="10"/>
<path d="M38.9616 41.6907H33.4179V42.5079H53.8067V41.6907H39.8913" stroke="#808080" stroke-miterlimit="10"/>
<path d="M62.4355 41.693H58.2554V42.4597H62.4355V41.693Z" stroke="#808080" stroke-miterlimit="10"/>
<path d="M71.0644 41.693H66.8842V42.4597H71.0644V41.693Z" stroke="#808080" stroke-miterlimit="10"/>
<path d="M79.6932 41.693H75.5131V42.4597H79.6932V41.693Z" stroke="#808080" stroke-miterlimit="10"/>
<path d="M88.3221 41.693H84.1419V42.4597H88.3221V41.693Z" stroke="#808080" stroke-miterlimit="10"/>
<path d="M55.7785 48.9009H65.6975" stroke="#808080" stroke-miterlimit="10"/>
<path d="M72.6024 48.9009H82.5213" stroke="#808080" stroke-miterlimit="10"/>
<path d="M49.8814 42.485V41.7206" stroke="#808080" stroke-miterlimit="10"/>
<path d="M53.8067 41.693H58.2554" stroke="#808080" stroke-miterlimit="10"/>
<path d="M62.4355 41.693H66.8842" stroke="#808080" stroke-miterlimit="10"/>
<path d="M71.0644 41.693H75.5131" stroke="#808080" stroke-miterlimit="10"/>
<path d="M79.6932 41.693H84.1419" stroke="#808080" stroke-miterlimit="10"/>
<path d="M88.485 25.7805H69.4231V41.6173H88.485V25.7805Z" stroke="#808080" stroke-miterlimit="10"/>
<path d="M73.1579 36.2986V25.7805H88.4827V41.6173H73.1579V37.6231" stroke="#808080" stroke-miterlimit="10"/>
<path d="M82.6177 27.0385H79.404C79.2554 27.0385 79.113 26.9794 79.0079 26.8744C78.9029 26.7694 78.8439 26.6269 78.8439 26.4783C78.8439 26.4049 78.8584 26.3322 78.8866 26.2644C78.9147 26.1965 78.956 26.1349 79.0081 26.0831C79.0601 26.0313 79.1219 25.9902 79.1898 25.9623C79.2578 25.9344 79.3305 25.9202 79.404 25.9205H82.6177C82.6912 25.9202 82.7639 25.9344 82.8319 25.9623C82.8998 25.9902 82.9616 26.0313 83.0136 26.0831C83.0657 26.1349 83.107 26.1965 83.1351 26.2644C83.1633 26.3322 83.1778 26.4049 83.1778 26.4783C83.1778 26.6269 83.1188 26.7694 83.0138 26.8744C82.9087 26.9794 82.7663 27.0385 82.6177 27.0385V27.0385Z" stroke="#808080" stroke-miterlimit="10"/>
<path d="M66.416 32.7153V41.6173H47.354V25.7805H66.416V31.7213" stroke="#808080" stroke-miterlimit="10"/>
<path d="M66.416 32.7153V41.6173H51.0888V25.7805H66.416V31.0579" stroke="#808080" stroke-miterlimit="10"/>
<path d="M60.5509 27.0384H57.3372C57.2638 27.0384 57.191 27.0239 57.1232 26.9957C57.0554 26.9675 56.9938 26.9262 56.942 26.8742C56.8901 26.8221 56.8491 26.7604 56.8212 26.6924C56.7933 26.6245 56.7791 26.5517 56.7794 26.4783V26.4783C56.7794 26.3303 56.8382 26.1884 56.9428 26.0838C57.0474 25.9792 57.1893 25.9205 57.3372 25.9205H60.5509C60.6249 25.9195 60.6982 25.9333 60.7669 25.9609C60.8355 25.9885 60.8979 26.0294 60.9506 26.0812C61.0033 26.1331 61.0453 26.1949 61.074 26.263C61.1027 26.3312 61.1176 26.4043 61.1179 26.4783V26.4783C61.1179 26.5524 61.1032 26.6258 61.0746 26.6942C61.0461 26.7626 61.0042 26.8247 60.9514 26.8768C60.8987 26.9289 60.8361 26.97 60.7674 26.9977C60.6986 27.0255 60.6251 27.0393 60.5509 27.0384Z" stroke="#808080" stroke-miterlimit="10"/>
<path d="M85.2254 96.4043L91.4646 100.667" stroke="#808080" stroke-miterlimit="10"/>
<path d="M91.4554 103.883L80.5472 96.4249" stroke="#808080" stroke-miterlimit="10"/>
<path d="M67.7037 96.4043L73.9407 100.667" stroke="#808080" stroke-miterlimit="10"/>
<path d="M73.9315 103.883L63.0232 96.4249" stroke="#808080" stroke-miterlimit="10"/>
<path d="M127.917 110.953H27.3738" stroke="#263238" stroke-linecap="round" stroke-linejoin="round"/>
<path d="M108.148 95.6674H85.5491V114.481H108.148V95.6674Z" fill="#263238" stroke="#808080" stroke-miterlimit="10"/>
<path d="M101.732 95.6674H85.5491V114.481H101.732V95.6674Z" fill="#D1D1D1" stroke="#808080" stroke-miterlimit="10"/>
<path d="M99.8341 99.6777L98.4636 96.6476L97.0886 99.6708L97.8002 99.6731V102.77L99.1201 102.772L99.1224 99.6754L99.8341 99.6777Z" fill="#263238"/>
<path d="M97.915 103.406V104.953C97.915 105.095 97.9586 105.146 98.0298 105.148C98.1009 105.15 98.1446 105.095 98.1446 104.953V103.419H98.3557V104.944C98.3557 105.265 98.2433 105.449 98.0252 105.446C97.8071 105.444 97.6946 105.263 97.6946 104.944V103.417L97.915 103.406Z" fill="#263238"/>
<path d="M99.1638 103.906V104.165C99.1638 104.487 99.0559 104.661 98.8332 104.661H98.7276V105.414H98.4981V103.419H98.824C99.0559 103.419 99.1638 103.585 99.1638 103.906ZM98.7276 103.695V104.383H98.8332C98.9044 104.383 98.9411 104.338 98.9411 104.195V103.878C98.9411 103.736 98.9021 103.688 98.8309 103.688L98.7276 103.695Z" fill="#263238"/>
<path d="M95.0181 95.6674H92.2634V99.2116H95.0181V95.6674Z" fill="#F5F5F5" stroke="#808080" stroke-miterlimit="10"/>
<path d="M126.742 95.6674H104.143V114.481H126.742V95.6674Z" fill="#263238" stroke="#808080" stroke-miterlimit="10"/>
<path d="M120.326 95.6674H104.143V114.481H120.326V95.6674Z" fill="#D1D1D1" stroke="#808080" stroke-miterlimit="10"/>
<path d="M113.612 95.6674H110.857V99.2116H113.612V95.6674Z" fill="#F5F5F5" stroke="#808080" stroke-miterlimit="10"/>
<path d="M125.597 76.9497H102.997V95.7637H125.597V76.9497Z" fill="#263238" stroke="#808080" stroke-miterlimit="10"/>
<path d="M119.181 76.9497H102.997V95.7637H119.181V76.9497Z" fill="#D1D1D1" stroke="#808080" stroke-miterlimit="10"/>
<path d="M117.969 81.1988L116.598 78.1687L115.223 81.1919L115.935 81.1942V84.2908L117.255 84.2931L117.257 81.1965L117.969 81.1988Z" fill="#263238"/>
<path d="M116.05 84.9266V86.4738C116.05 86.6161 116.093 86.6666 116.164 86.6689C116.236 86.6712 116.279 86.6161 116.279 86.4738V84.9289H116.49V86.4532C116.49 86.7745 116.378 86.9582 116.16 86.9559C115.942 86.9536 115.829 86.7722 115.829 86.4532V84.9266H116.05Z" fill="#263238"/>
<path d="M117.298 85.4271V85.6865C117.298 86.0079 117.19 86.1823 116.968 86.1823H116.862V86.9353H116.633V84.9313H116.959C117.19 84.9313 117.298 85.1057 117.298 85.4271ZM116.862 85.2159V85.9046H116.968C117.039 85.9046 117.076 85.8587 117.076 85.7163V85.4156C117.076 85.2733 117.037 85.2251 116.965 85.2251L116.862 85.2159Z" fill="#263238"/>
<path d="M112.466 76.9497H109.709V80.494H112.466V76.9497Z" fill="#F5F5F5" stroke="#808080" stroke-miterlimit="10"/>
<path d="M125.597 57.897H102.997V76.711H125.597V57.897Z" fill="#263238" stroke="#808080" stroke-miterlimit="10"/>
<path d="M119.181 57.897H102.997V76.711H119.181V57.897Z" fill="#D1D1D1" stroke="#808080" stroke-miterlimit="10"/>
<path d="M111.056 67.7789L105.36 71.3214L107.315 74.4636L113.01 70.9211L111.056 67.7789Z" fill="#F5F5F5" stroke="#808080" stroke-miterlimit="10"/>
<path d="M93.0166 104.442L87.3209 107.984L89.2752 111.126L94.9709 107.584L93.0166 104.442Z" fill="#F5F5F5" stroke="#808080" stroke-miterlimit="10"/>
<path d="M112.466 57.897H109.709V61.4412H112.466V57.897Z" fill="#F5F5F5" stroke="#808080" stroke-miterlimit="10"/>
<path d="M99.9121 41.8997H128.376V26.9788L99.9121 26.9788V41.8997Z" stroke="#808080" stroke-miterlimit="10"/>
<path d="M126.91 27.1096L128.218 29.7265H100.883L99.9121 26.9788" stroke="#808080" stroke-miterlimit="10"/>
<path d="M126.91 29.7976L128.218 32.4168H100.883L99.9121 29.6691" stroke="#808080" stroke-miterlimit="10"/>
<path d="M126.91 32.488L128.218 35.1049H100.883L99.9121 32.3595" stroke="#808080" stroke-miterlimit="10"/>
<path d="M126.91 35.1783L128.218 37.7952H100.883L99.9121 35.0475" stroke="#808080" stroke-miterlimit="10"/>
<path d="M126.91 37.8686L128.218 40.4855H100.883L99.9121 37.7378" stroke="#808080" stroke-miterlimit="10"/>
<path d="M55.0348 114.419C63.8748 114.419 71.3949 115.753 74.1909 117.615L81.6673 120.581L62.6857 125.286L58.1636 123.964C57.1444 124.001 56.1014 124.02 55.0348 124.022C43.8097 124.022 34.7126 121.871 34.7126 119.219C34.7126 116.568 43.8097 114.419 55.0348 114.419Z" fill="#263238"/>
<path d="M36.4388 82.6174C36.4388 82.6174 35.7502 84.2495 35.1947 85.8817C34.6391 87.5138 34.4532 88.7419 34.6851 89.9837C34.9169 91.2256 36.0624 92.5616 37.2101 92.7957C38.3579 93.0299 44.9804 90.8537 46.6883 89.5315C48.3962 88.2093 47.2323 84.7936 45.8344 84.0223C44.4364 83.251 36.4388 82.6174 36.4388 82.6174Z" fill="white" stroke="#263238" stroke-linecap="round" stroke-linejoin="round"/>
<path d="M38.0296 84.0406C38.0296 84.0406 39.7696 85.1448 40.7039 85.4409C41.6382 85.737 43.3346 86.0791 43.3346 86.0791C43.3346 86.0791 40.4055 85.8656 39.8109 86.1204C39.2164 86.3752 38.7068 86.63 38.7068 86.63C38.7068 86.63 42.9535 86.5037 43.8878 87.1396C44.822 87.7755 45.9675 88.7465 45.9675 88.7465L44.6522 85.3491L44.8634 84.968C44.8634 84.968 40.7888 85.0162 38.0296 84.0406Z" fill="#263238" stroke="#263238" stroke-linecap="round" stroke-linejoin="round"/>
<path d="M56.9148 68.6102C56.9148 68.6102 60.1676 70.3961 60.6152 72.244C60.8536 73.2927 61.2401 74.3022 61.7629 75.242L46.0708 84.9382C46.0708 84.9382 42.6918 85.7026 40.0749 84.8739C37.458 84.0453 36.122 83.6619 36.1725 82.5784C36.223 81.495 37.2583 80.7283 37.5774 80.1544C37.8965 79.5805 40.5753 73.3298 42.1065 70.9057C43.6376 68.4817 44.0829 66.5052 47.2094 65.2289C49.0249 64.4683 50.9802 64.0984 52.9482 64.1432L56.9148 68.6102Z" fill="#92E3A9" stroke="#263238" stroke-linecap="round" stroke-linejoin="round"/>
<path d="M39.1338 82.9525C38.7527 82.9525 38.3717 82.9525 37.986 82.9181" stroke="#263238" stroke-linecap="round" stroke-linejoin="round"/>
<path d="M44.1472 82.5302C42.6568 82.768 41.1521 82.9053 39.6434 82.9411" stroke="#263238" stroke-linecap="round" stroke-linejoin="round"/>
<path d="M45.3041 82.3351C45.3041 82.3351 45.109 82.3764 44.7647 82.4361" stroke="#263238" stroke-linecap="round" stroke-linejoin="round"/>
<path d="M43.9819 80.1107C42.5541 80.8292 40.1094 81.9058 37.6233 82.2823" stroke="#263238" stroke-linecap="round" stroke-linejoin="round"/>
<path d="M45.2513 79.4221C45.2513 79.4221 45.0218 79.5599 44.6223 79.7756" stroke="#263238" stroke-linecap="round" stroke-linejoin="round"/>
<path d="M36.8819 81.8048C37.5171 81.5045 38.1758 81.2565 38.8514 81.0634" stroke="#263238" stroke-linecap="round" stroke-linejoin="round"/>
<path d="M56.2124 70.7152L54.4908 75.6253L53.7263 75.7539L54.6193 73.3298" stroke="#263238" stroke-linecap="round" stroke-linejoin="round"/>
<path d="M58.4436 70.6302L57.7068 72.7375L57.2178 70.5315L58.4436 70.6302Z" fill="#92E3A9" stroke="#263238" stroke-linecap="round" stroke-linejoin="round"/>
<path d="M57.1467 67.7173L58.4436 70.6303L55.8451 71.0228L57.1467 67.7173Z" fill="#92E3A9" stroke="#263238" stroke-linecap="round" stroke-linejoin="round"/>
<path d="M65.6033 61.3609C65.6033 61.3609 64.7701 62.5867 64.6714 62.9793C64.5727 63.3718 63.8863 64.7445 63.3469 65.5296C62.8074 66.3146 60.847 68.5138 59.674 68.7181C58.501 68.9224 57.468 68.0799 57.468 68.0799L55.8382 71.0227L53.9743 63.9067L55.2001 63.0229C54.8873 62.5772 54.7161 62.0477 54.7088 61.5033C54.7088 60.6218 55.2483 59.5429 55.2483 59.5429C55.2483 59.5429 55.9369 58.3148 57.064 57.7271C58.1911 57.1395 62.5067 57.9728 63.9781 58.464C65.4495 58.9552 65.7985 60.282 65.6033 61.3609Z" fill="white" stroke="#263238" stroke-linecap="round" stroke-linejoin="round"/>
<path d="M57.4634 68.0799L56.2193 66.9551L56.7748 68.9728L57.4634 68.0799Z" fill="#263238" stroke="#263238" stroke-linecap="round" stroke-linejoin="round"/>
<path d="M62.6605 61.7053L62.121 62.4399C62.121 62.4399 62.268 64.6459 61.8272 64.8433C61.3865 65.0407 60.4499 64.7951 60.2089 64.4026" stroke="#263238" stroke-linecap="round" stroke-linejoin="round"/>
<path d="M60.062 65.1371C59.6856 64.6704 59.3413 64.1788 59.0313 63.6657C58.6388 62.977 58.0511 63.225 57.7068 63.6657C57.3624 64.1064 57.6586 64.7446 58.1498 65.043C58.641 65.3414 59.8163 65.7248 60.062 65.1371Z" stroke="#263238" stroke-linecap="round" stroke-linejoin="round"/>
<path d="M57.9042 63.4774C57.9042 63.4774 58.5928 64.8983 59.7681 65.2909" stroke="#263238" stroke-linecap="round" stroke-linejoin="round"/>
<path d="M60.629 61.7305C60.4895 61.5004 60.2946 61.309 60.062 61.1738C59.8293 61.0387 59.5665 60.9641 59.2976 60.9569" stroke="#263238" stroke-width="2" stroke-linecap="round" stroke-linejoin="round"/>
<path d="M62.8281 62.6717C62.8281 62.6717 63.6797 62.5891 63.8932 63.2112" stroke="#263238" stroke-width="2" stroke-linecap="round" stroke-linejoin="round"/>
<path d="M64.4694 62.5982C64.4694 62.5982 64.513 61.9096 63.092 61.866" stroke="#263238" stroke-linecap="round" stroke-linejoin="round"/>
<path d="M61.1386 61.2554C61.1386 61.2554 61.0261 60.25 59.5202 60.0457" stroke="#263238" stroke-linecap="round" stroke-linejoin="round"/>
<path d="M55.2804 59.5039C55.584 59.0078 55.9636 58.5624 56.4052 58.184C57.1886 58.2484 57.9674 58.3595 58.7375 58.5168L58.9831 58.9093C58.9831 58.9093 57.5116 60.9202 56.9722 60.9202C56.4328 60.9202 56.5797 59.7908 56.0884 59.497C55.9635 59.4319 55.8244 59.3985 55.6836 59.3997C55.5427 59.4009 55.4042 59.4367 55.2804 59.5039Z" fill="#263238" stroke="#263238" stroke-linecap="round" stroke-linejoin="round"/>
<path d="M54.7157 61.5079C54.7204 61.2688 54.7512 61.031 54.8075 60.7986C54.718 61.6778 55.1496 62.3618 55.3057 62.4399C55.4553 62.5313 55.5881 62.6477 55.6982 62.7842L55.1932 63.0138C54.8888 62.57 54.7227 62.046 54.7157 61.5079Z" fill="#263238" stroke="#263238" stroke-linecap="round" stroke-linejoin="round"/>
<path d="M55.2253 59.3065C55.2253 59.3065 57.6287 58.767 61.2465 59.7082C64.8642 60.6494 65.6447 61.5836 65.6447 61.5836C65.6447 61.5836 66.1497 59.5819 66.3723 58.3263C66.595 57.0706 64.2536 55.1126 62.9038 54.5731C61.5541 54.0337 58.7375 54.4813 57.7917 54.7614C56.846 55.0414 56.1206 56.3085 55.9553 56.6781C55.79 57.0477 55.2253 59.3065 55.2253 59.3065Z" fill="#92E3A9" stroke="#263238" stroke-linecap="round" stroke-linejoin="round"/>
<path d="M65.6447 61.5836C65.6447 61.5836 67.69 64.0881 67.2125 64.2533C66.735 64.4186 64.894 62.4468 62.874 62.0382C60.8539 61.6296 58.9601 60.7963 58.2829 60.1283C57.9367 59.8126 57.6285 59.4574 57.3647 59.0701C57.3647 59.0701 62.1417 58.8704 65.6447 61.5836Z" fill="white" stroke="#263238" stroke-linecap="round" stroke-linejoin="round"/>
<path d="M54.5688 63.078L56.3341 70.9241L54.0799 71.8078L52.6566 63.8126L54.5688 63.078Z" fill="#92E3A9" stroke="#263238" stroke-linecap="round" stroke-linejoin="round"/>
<path d="M61.4553 105.692L58.9693 109.886C58.9693 109.886 59.5133 110.345 59.5133 110.586V111.362C59.5133 111.362 62.6192 112.45 63.3193 112.762C64.0194 113.074 64.1732 114.004 64.0952 114.238C64.0171 114.472 62.4654 114.782 60.9894 114.782C59.5133 114.782 56.7151 114.082 56.7151 114.082C56.7151 114.082 54.8512 114.082 54.2291 113.694C53.607 113.306 53.8411 112.372 53.9995 111.674C54.1579 110.976 54.3875 110.276 54.3875 110.276C54.3875 110.276 54.3094 109.11 54.4655 108.8C54.6216 108.49 54.8534 108.178 54.8534 107.866C54.8534 107.554 55.9415 103.045 55.9415 103.045L61.4553 105.692Z" fill="#263238" stroke="#263238" stroke-linecap="round" stroke-linejoin="round"/>
<path d="M59.1231 91.9419L65.4932 109.344L51.4285 101.266L44.9368 85.3859L59.1231 91.9419Z" fill="#263238" stroke="#263238" stroke-linecap="round" stroke-linejoin="round"/>
<path d="M79.5555 77.1013L59.1231 91.9418L44.9368 85.3858L62.6192 72.5194L79.5555 77.1013Z" fill="#DEDEDE" stroke="#263238" stroke-linecap="round" stroke-linejoin="round"/>
<path d="M79.5555 77.1013L85.4595 94.5036L65.4932 109.344L59.1231 91.9418L79.5555 77.1013Z" fill="#D1D1D1" stroke="#263238" stroke-linecap="round" stroke-linejoin="round"/>
<path d="M71.5441 75.0055L52.4179 88.8199L53.8503 93.4431L51.2495 91.8821L49.5852 87.539L68.1009 73.9932L71.5441 75.0055Z" fill="#F5F5F5" stroke="#263238" stroke-linecap="round" stroke-linejoin="round"/>
<path d="M50.4185 87.8856L50.0122 87.6951" stroke="#263238" stroke-linecap="round" stroke-linejoin="round"/>
<path d="M52.069 88.6661L50.7169 88.028" stroke="#263238" stroke-linecap="round" stroke-linejoin="round"/>
<path d="M65.8191 92.7039L63.5144 91.0764L63.053 94.3521L63.7715 93.9229L64.715 96.4318L66.0487 95.6399L65.1029 93.1309L65.8191 92.7039Z" fill="#263238"/>
<path d="M65.0203 96.8795L65.4909 98.1328C65.5345 98.2476 65.5942 98.2637 65.6653 98.22C65.7365 98.1764 65.7663 98.1099 65.7227 97.9905L65.2498 96.7417L65.461 96.6155L65.9201 97.8505C65.9741 97.9557 65.9853 98.0777 65.9515 98.191C65.9177 98.3043 65.8415 98.4003 65.7388 98.4588C65.5092 98.5896 65.3485 98.5093 65.2521 98.2499L64.793 97.0126L65.0203 96.8795Z" fill="#263238"/>
<path d="M66.4366 96.5328L66.517 96.744C66.5442 96.7954 66.5611 96.8516 66.5667 96.9096C66.5722 96.9675 66.5663 97.0259 66.5492 97.0816C66.5322 97.1372 66.5043 97.1889 66.4673 97.2338C66.4302 97.2787 66.3847 97.3158 66.3333 97.3431L66.2277 97.4074L66.4573 98.0157L66.2277 98.1488L65.6217 96.5328L65.9523 96.3377C66.168 96.1953 66.3402 96.2711 66.4366 96.5328ZM65.9339 96.6246L66.1405 97.1755L66.2461 97.1113C66.3172 97.0699 66.3425 97.008 66.2989 96.8932L66.2071 96.6499C66.1634 96.5328 66.1107 96.519 66.0395 96.5626L65.9339 96.6246Z" fill="#263238"/>
<path d="M79.3764 81.9265L77.0694 80.299L76.6103 83.5746L77.3265 83.1477L78.2723 85.6567L79.6037 84.8624L78.6602 82.3534L79.3764 81.9265Z" fill="#263238"/>
<path d="M78.5822 86.1043L79.0551 87.3553C79.0987 87.4724 79.1584 87.4862 79.2295 87.4448C79.3007 87.4035 79.3305 87.3324 79.2869 87.2153L78.814 85.9734L79.0252 85.8472L79.4843 87.0821C79.5377 87.1869 79.549 87.3081 79.5156 87.4209C79.4823 87.5336 79.407 87.6293 79.3053 87.6882C79.0757 87.819 78.915 87.7387 78.8163 87.4793L78.3572 86.2443L78.5822 86.1043Z" fill="#263238"/>
<path d="M79.9939 85.7439L80.0743 85.9551C80.1259 86.0599 80.1357 86.1804 80.1016 86.2922C80.0675 86.4039 79.992 86.4985 79.8906 86.5565L79.785 86.6185L80.0146 87.2291L79.785 87.3622L79.179 85.7439L79.5096 85.5465C79.7322 85.4179 79.8952 85.4937 79.9939 85.7439ZM79.4912 85.838L79.6978 86.3866L79.8034 86.3247C79.8746 86.2811 79.8998 86.2214 79.8562 86.0951L79.7644 85.8518C79.7208 85.737 79.668 85.7232 79.5968 85.7646L79.4912 85.838Z" fill="#263238"/>
<path d="M85.2415 86.4556L85.5123 87.2337" stroke="#263238" stroke-linecap="round" stroke-linejoin="round"/>
<path d="M82.2068 77.7463L85.028 85.8495" stroke="#263238" stroke-linecap="round" stroke-linejoin="round"/>
<path d="M86.0839 85.5511L87.0044 88.1933" stroke="#263238" stroke-linecap="round" stroke-linejoin="round"/>
<path d="M83.6989 78.7058L85.8544 84.8968" stroke="#263238" stroke-linecap="round" stroke-linejoin="round"/>
<path d="M71.5097 73.1645L64.8298 71.3511" stroke="#263238" stroke-linecap="round" stroke-linejoin="round"/>
<path d="M73.4655 73.6947L72.2121 73.355" stroke="#263238" stroke-linecap="round" stroke-linejoin="round"/>
<path d="M69.2004 71.8836L64.2972 70.605" stroke="#263238" stroke-linecap="round" stroke-linejoin="round"/>
<path d="M67.224 109.59L66.4297 110.154" stroke="#263238" stroke-linecap="round" stroke-linejoin="round"/>
<path d="M70.4813 107.276L67.6831 109.264" stroke="#263238" stroke-linecap="round" stroke-linejoin="round"/>
<path d="M71.4385 107.916L69.5218 109.3" stroke="#263238" stroke-linecap="round" stroke-linejoin="round"/>
<path d="M66.9875 84.486C67.2386 84.4332 67.4922 84.3934 67.7474 84.3666C68.1411 84.4304 68.5431 84.4226 68.9341 84.3436C69.4552 84.2013 69.6939 84.3436 69.5493 84.6765C69.4581 84.8495 69.3304 85.0007 69.175 85.1196C69.0197 85.2385 68.8404 85.3223 68.6495 85.3651C68.3648 85.3881 67.7313 85.3881 67.7313 85.3881L66.8773 84.6283L66.9875 84.486Z" fill="white" stroke="#263238" stroke-linecap="round" stroke-linejoin="round"/>
<path d="M51.1737 67.3982C51.1737 67.3982 52.5786 68.7365 52.7048 70.139C52.8311 71.5416 51.9358 79.5805 51.9358 79.5805C51.9358 79.5805 54.8052 80.983 56.9745 82.2594C59.1438 83.5357 62.7799 85.0668 62.7799 85.0668C62.7799 85.0668 66.9875 84.3001 67.3066 84.4286C67.6257 84.5572 69.3496 86.4051 69.4116 86.6599C69.4736 86.9147 69.0925 88.3815 69.0925 88.6386C69.0925 88.8957 68.762 88.9003 68.762 88.9003H68.5186L68.3442 89.2492C68.3003 89.3368 68.2354 89.4122 68.1553 89.4687C68.0752 89.5251 67.9824 89.5609 67.8851 89.5729L67.6303 89.6004C67.6303 89.6004 67.1849 90.1123 66.8016 89.7932C66.4182 89.4742 65.5896 88.0693 65.5896 88.0693C65.5896 88.0693 63.6131 87.8788 63.1012 87.6882C62.6808 87.5083 62.2755 87.2949 61.8892 87.0501C61.8892 87.0501 50.0994 84.0453 48.9517 83.7262C47.8039 83.4071 47.3563 83.088 46.911 82.1951C46.4656 81.3021 45.451 72.4391 45.451 71.6747" fill="white"/>
<path d="M51.1737 67.3982C51.1737 67.3982 52.5786 68.7365 52.7048 70.139C52.8311 71.5416 51.9358 79.5805 51.9358 79.5805C51.9358 79.5805 54.8052 80.983 56.9745 82.2594C59.1438 83.5357 62.7799 85.0668 62.7799 85.0668C62.7799 85.0668 66.9875 84.3001 67.3066 84.4286C67.6257 84.5572 69.3496 86.405 69.4116 86.6599C69.4736 86.9147 69.0925 88.3815 69.0925 88.6386C69.0925 88.8957 68.762 88.9003 68.762 88.9003H68.5186L68.3442 89.2492C68.3003 89.3368 68.2354 89.4122 68.1553 89.4687C68.0752 89.5251 67.9824 89.5609 67.8851 89.5729L67.6303 89.6004C67.6303 89.6004 67.185 90.1123 66.8016 89.7932C66.4182 89.4742 65.5896 88.0693 65.5896 88.0693C65.5896 88.0693 63.6131 87.8788 63.1012 87.6882C62.6808 87.5083 62.2755 87.2949 61.8892 87.0501C61.8892 87.0501 50.0994 84.0453 48.9517 83.7262C47.8039 83.4071 47.3563 83.088 46.911 82.1951C46.4656 81.3021 45.451 72.4391 45.451 71.6747" stroke="#263238" stroke-linecap="round" stroke-linejoin="round"/>
<path d="M65.5253 86.6621C65.5253 86.6621 66.8659 87.8099 66.8659 88.2575C66.8659 88.7051 67.4857 89.6853 67.4857 89.6853" stroke="#263238" stroke-linecap="round" stroke-linejoin="round"/>
<path d="M66.3241 85.838C66.3241 85.838 67.2263 86.8343 67.4145 87.1442C67.6027 87.4541 67.8736 89.5659 67.8736 89.5659" stroke="#263238" stroke-linecap="round" stroke-linejoin="round"/>
<path d="M67.0587 85.2457C67.0587 85.2457 68.2065 86.3131 68.2225 86.7172C68.2386 87.1212 68.5232 88.8933 68.5232 88.8933" stroke="#263238" stroke-linecap="round" stroke-linejoin="round"/>
<path d="M51.1072 67.288C51.1072 67.288 52.5786 68.7364 52.714 70.139C52.8036 71.1261 52.3904 75.3865 52.1356 77.8336C50.857 77.363 48.4283 76.858 46.2522 78.6255C45.878 75.9398 45.513 72.5975 45.451 71.6747" fill="#92E3A9"/>
<path d="M51.1072 67.288C51.1072 67.288 52.5786 68.7364 52.714 70.139C52.8036 71.1261 52.3904 75.3865 52.1356 77.8336C50.857 77.363 48.4283 76.858 46.2522 78.6255C45.878 75.9398 45.513 72.5975 45.451 71.6747" stroke="#263238" stroke-linecap="round" stroke-linejoin="round"/>
<path d="M51.9358 79.5804C51.9358 79.5804 50.469 79.1328 49.8951 79.2614" stroke="#263238" stroke-linecap="round" stroke-linejoin="round"/>
<path d="M47.5537 120.046C47.5537 120.046 49.3419 122.066 50.6618 123.154C51.9818 124.242 51.4377 125.252 50.5057 125.484C49.5738 125.716 47.7098 125.33 45.9996 124.795C44.2895 124.26 42.8938 122.465 42.8938 122.465C42.8938 122.465 40.9495 121.221 40.7957 120.755C40.6419 120.289 42.4255 118.111 42.4255 118.111C42.4255 118.111 47.0877 120.046 47.5537 120.046Z" fill="#92E3A9" stroke="#263238" stroke-linecap="round" stroke-linejoin="round"/>
<path d="M40.7957 120.746C40.7406 120.585 40.9197 120.218 41.1791 119.807C42.2098 120.695 44.0553 123.23 45.4556 123.939C46.6424 124.531 49.2731 125.172 51.1209 125.172C50.9454 125.327 50.734 125.437 50.5057 125.491C49.5738 125.72 47.7098 125.337 45.9996 124.802C44.2895 124.267 42.8938 122.472 42.8938 122.472C42.8938 122.472 40.9495 121.212 40.7957 120.746Z" fill="white" stroke="#263238" stroke-linecap="round" stroke-linejoin="round"/>
<path d="M37.9148 86.9698C37.9148 86.9698 40.8669 85.7256 43.043 86.5795C45.2192 87.4335 49.1032 90.941 50.733 93.4179C52.3628 95.8947 53.7723 96.992 53.685 99.3219C53.5978 101.652 49.9571 112.062 49.801 112.994C49.6449 113.926 48.6533 117.794 48.6533 117.794C48.7075 118.284 48.7075 118.779 48.6533 119.27C48.5821 119.862 48.3916 120.877 48.3916 120.877C48.3916 120.877 45.7793 120.739 44.3033 120.039C43.4935 119.674 42.7355 119.204 42.0491 118.641C42.1497 118.059 42.3034 117.487 42.5082 116.933C42.8204 116.155 43.8235 114.775 43.9796 114.307C44.1357 113.839 44.5236 109.103 44.5236 107.161C44.5236 105.219 45.3776 100.401 45.3776 100.091C45.4452 99.6434 45.5489 99.2019 45.6875 98.771C45.6875 98.771 39.0856 95.5068 37.2974 93.9504C35.5091 92.3941 34.7493 90.9387 34.5726 89.5476C34.4463 88.5399 34.8641 87.0983 34.8641 87.0983" fill="white"/>
<path d="M37.9148 86.9698C37.9148 86.9698 40.8669 85.7256 43.043 86.5795C45.2192 87.4335 49.1032 90.941 50.733 93.4179C52.3628 95.8947 53.7723 96.992 53.685 99.3219C53.5978 101.652 49.9571 112.062 49.801 112.994C49.6449 113.926 48.6533 117.794 48.6533 117.794C48.7075 118.284 48.7075 118.779 48.6533 119.27C48.5821 119.862 48.3916 120.877 48.3916 120.877C48.3916 120.877 45.7793 120.739 44.3033 120.039C43.4935 119.674 42.7355 119.204 42.0491 118.641C42.1497 118.059 42.3034 117.487 42.5082 116.933C42.8204 116.155 43.8235 114.775 43.9796 114.307C44.1357 113.839 44.5236 109.103 44.5236 107.161C44.5236 105.219 45.3776 100.401 45.3776 100.091C45.4452 99.6434 45.5489 99.2019 45.6875 98.771C45.6875 98.771 39.0856 95.5068 37.2974 93.9504C35.5091 92.3941 34.7493 90.9387 34.5726 89.5476C34.4463 88.5399 34.8641 87.0983 34.8641 87.0983" stroke="#263238" stroke-linecap="round" stroke-linejoin="round"/>
<path d="M37.2147 84.2495C37.2147 84.2495 36.2047 85.3376 36.3608 85.8036C36.5169 86.2696 37.2147 87.1212 36.9048 87.1212C36.5949 87.1212 36.1289 87.8213 36.1289 87.8213L36.8176 87.9751L36.5077 89.7633L45.839 97.2215C46.2742 97.5759 46.7424 97.888 47.2369 98.1534L46.6929 99.0854L47.7029 99.2415C47.7029 99.2415 46.2269 100.718 46.0731 101.959C45.9193 103.201 44.6017 116.238 44.4456 116.625C44.2895 117.013 44.0576 117.248 43.9865 117.635C43.9471 118.049 43.9471 118.466 43.9865 118.88C43.9865 119.109 43.9084 119.656 43.9084 119.656" stroke="#263238" stroke-linecap="round" stroke-linejoin="round"/>
</svg>
