<svg width="212" height="140" viewBox="0 0 212 140" fill="none" xmlns="http://www.w3.org/2000/svg">
<path d="M182.778 34.3781C182.778 34.3781 151.769 2.61453 111.47 0.16166C71.1709 -2.29121 47.6711 23.743 36.5351 39.2688C25.3991 54.7946 -2.38496 80.6628 0.891568 104.35C4.16809 128.037 36.2907 146.009 82.3069 138.114C128.323 130.218 141.665 127.222 162.63 133.214C183.596 139.206 210.825 130.218 211.368 96.1826C211.911 62.1471 182.778 34.3781 182.778 34.3781Z" fill="#92E3A9"/>
<path opacity="0.7" d="M182.778 34.3781C182.778 34.3781 151.769 2.61453 111.47 0.16166C71.1709 -2.29121 47.6711 23.743 36.5351 39.2688C25.3991 54.7946 -2.38496 80.6628 0.891568 104.35C4.16809 128.037 36.2907 146.009 82.3069 138.114C128.323 130.218 141.665 127.222 162.63 133.214C183.596 139.206 210.825 130.218 211.368 96.1826C211.911 62.1471 182.778 34.3781 182.778 34.3781Z" fill="white"/>
<path d="M6.82312 129.913H203.511" stroke="#263238" stroke-miterlimit="10"/>
<path d="M15.3915 79.4922L19.371 117.598" stroke="#263238" stroke-width="2" stroke-miterlimit="10"/>
<path d="M18.7284 110.305L16.9272 108.402" stroke="#263238" stroke-width="2" stroke-miterlimit="10"/>
<path d="M17.4733 108.972C17.4697 108.68 17.4038 108.393 17.2799 108.129C17.156 107.865 16.9772 107.631 16.7553 107.442C16.2937 107.029 13.8589 106.006 13.6266 106.863C13.3762 107.795 15.8683 109.63 17.4733 108.972Z" fill="#92E3A9" stroke="#263238" stroke-miterlimit="10"/>
<path d="M17.4733 108.972L15.1562 107.527" stroke="#263238" stroke-width="0.5" stroke-miterlimit="10"/>
<path d="M19.1809 114.641L17.3798 112.737" stroke="#263238" stroke-width="2" stroke-miterlimit="10"/>
<path d="M17.9258 113.307C17.9224 113.016 17.8566 112.729 17.7327 112.465C17.6088 112.201 17.4298 111.967 17.2078 111.778C16.7462 111.364 14.3114 110.339 14.0791 111.195C13.8287 112.131 16.3208 113.962 17.9258 113.307Z" fill="#92E3A9" stroke="#263238" stroke-miterlimit="10"/>
<path d="M17.9259 113.307L15.6088 111.862" stroke="#263238" stroke-width="0.5" stroke-miterlimit="10"/>
<path d="M17.6242 99.7307L15.823 97.8269" stroke="#263238" stroke-width="2" stroke-miterlimit="10"/>
<path d="M16.369 98.3971C16.3654 98.106 16.2998 97.819 16.1765 97.5552C16.0532 97.2914 15.875 97.057 15.654 96.8675C15.1894 96.4541 12.7546 95.4283 12.5223 96.2882C12.2779 97.2205 14.764 99.0518 16.369 98.3971Z" fill="#92E3A9" stroke="#263238" stroke-miterlimit="10"/>
<path d="M16.369 98.3971L14.0519 96.9519" stroke="#263238" stroke-width="0.5" stroke-miterlimit="10"/>
<path d="M18.0767 104.063L16.2755 102.159" stroke="#263238" stroke-width="2" stroke-miterlimit="10"/>
<path d="M16.8216 102.73C16.818 102.438 16.752 102.151 16.6282 101.887C16.5043 101.623 16.3254 101.389 16.1035 101.2C15.6419 100.787 13.2072 99.7638 12.9748 100.621C12.7244 101.553 15.2165 103.387 16.8216 102.73Z" fill="#92E3A9" stroke="#263238" stroke-miterlimit="10"/>
<path d="M16.8216 102.73L14.5045 101.284" stroke="#263238" stroke-width="0.5" stroke-miterlimit="10"/>
<path d="M16.891 92.6888L15.0868 90.785" stroke="#263238" stroke-width="2" stroke-miterlimit="10"/>
<path d="M15.6359 91.3553C15.6323 91.0638 15.5663 90.7765 15.4425 90.5127C15.3186 90.2489 15.1397 90.0146 14.9178 89.8256C14.4562 89.4153 12.0184 88.3895 11.7891 89.2463C11.5357 90.1937 14.0308 92.0039 15.6359 91.3553Z" fill="#92E3A9" stroke="#263238" stroke-miterlimit="10"/>
<path d="M15.6359 91.3553L13.3158 89.9102" stroke="#263238" stroke-width="0.5" stroke-miterlimit="10"/>
<path d="M16.1518 85.6198L14.3506 83.7161" stroke="#263238" stroke-width="2" stroke-miterlimit="10"/>
<path d="M14.8967 84.2863C14.8931 83.9949 14.8272 83.7076 14.7033 83.4437C14.5794 83.1799 14.4006 82.9456 14.1787 82.7566C13.7171 82.3433 11.2823 81.3175 11.05 82.1774C10.7996 83.1096 13.2917 84.941 14.8967 84.2863Z" fill="#92E3A9" stroke="#263238" stroke-miterlimit="10"/>
<path d="M14.8968 84.2864L12.5797 82.8412" stroke="#263238" stroke-width="0.5" stroke-miterlimit="10"/>
<path d="M18.4267 107.741L19.7964 105.505" stroke="#263238" stroke-width="2" stroke-miterlimit="10"/>
<path d="M19.3801 106.184C19.3229 105.898 19.3278 105.604 19.3944 105.32C19.461 105.036 19.5878 104.77 19.7663 104.54C20.1313 104.039 22.3036 102.534 22.7079 103.333C23.1393 104.181 21.0847 106.486 19.3801 106.184Z" fill="#92E3A9" stroke="#263238" stroke-miterlimit="10"/>
<path d="M19.3801 106.178L21.4679 104.181" stroke="#263238" stroke-width="0.5" stroke-miterlimit="10"/>
<path d="M17.2349 96.3365L18.6077 94.1008" stroke="#263238" stroke-width="2" stroke-miterlimit="10"/>
<path d="M18.1883 94.7736C18.1319 94.4878 18.1372 94.1933 18.2038 93.9097C18.2704 93.6262 18.3968 93.3601 18.5745 93.1293C18.9426 92.6285 21.1149 91.123 21.5161 91.9225C21.9566 92.7763 19.896 95.0814 18.1883 94.7736Z" fill="#92E3A9" stroke="#263238" stroke-miterlimit="10"/>
<path d="M18.1884 94.7737L20.2762 92.7764" stroke="#263238" stroke-width="0.5" stroke-miterlimit="10"/>
<path d="M16.713 91.3251L18.0828 89.0895" stroke="#263238" stroke-width="2" stroke-miterlimit="10"/>
<path d="M17.6664 89.7592C17.6092 89.4735 17.6141 89.1788 17.6807 88.8951C17.7473 88.6114 17.8742 88.3453 18.0526 88.1149C18.4207 87.6171 20.5899 86.1116 20.9942 86.9081C21.4317 87.7619 19.371 90.07 17.6664 89.7592Z" fill="#92E3A9" stroke="#263238" stroke-miterlimit="10"/>
<path d="M17.6664 89.7593L19.7542 87.765" stroke="#263238" stroke-width="0.5" stroke-miterlimit="10"/>
<path d="M15.9467 83.9786L17.3164 81.7429" stroke="#263238" stroke-width="2" stroke-miterlimit="10"/>
<path d="M16.9 82.4128C16.8428 82.127 16.8477 81.8323 16.9143 81.5486C16.981 81.2649 17.1078 80.9989 17.2862 80.7685C17.6513 80.2677 19.8236 78.7621 20.2279 79.5617C20.6653 80.4155 18.6137 82.7235 16.9 82.4128Z" fill="#92E3A9" stroke="#263238" stroke-miterlimit="10"/>
<path d="M16.9001 82.4127L18.9879 80.4185" stroke="#263238" stroke-width="0.5" stroke-miterlimit="10"/>
<path d="M15.3584 79.278C15.302 78.9922 15.3072 78.6977 15.3738 78.4142C15.4404 78.1306 15.5668 77.8645 15.7446 77.6337C16.1126 77.1359 18.2849 75.6304 18.6892 76.4269C19.1267 77.2807 17.066 79.5888 15.3584 79.278Z" fill="#92E3A9" stroke="#263238" stroke-miterlimit="10"/>
<path d="M15.3583 79.278L17.4461 77.2837" stroke="#263238" stroke-width="0.5" stroke-miterlimit="10"/>
<path d="M15.482 79.3655C15.1916 79.3922 14.8987 79.3562 14.6234 79.2599C14.348 79.1636 14.0966 79.0093 13.886 78.8074C13.4274 78.391 12.1572 76.0739 12.9809 75.7541C13.889 75.4102 15.9678 77.7001 15.482 79.3655Z" fill="#92E3A9" stroke="#263238" stroke-miterlimit="10"/>
<path d="M15.482 79.3655L13.7141 77.0786" stroke="#263238" stroke-width="0.5" stroke-miterlimit="10"/>
<path d="M25.8818 84.7389L21.9265 122.85" stroke="#263238" stroke-width="2" stroke-miterlimit="10"/>
<path d="M22.8014 115.582L21.4286 113.347" stroke="#263238" stroke-width="2" stroke-miterlimit="10"/>
<path d="M21.8481 114.029C21.9045 113.743 21.8992 113.448 21.8326 113.165C21.766 112.881 21.6396 112.615 21.4619 112.384C21.0938 111.886 18.9215 110.381 18.5172 111.177C18.0798 112.022 20.1434 114.33 21.8481 114.029Z" fill="#92E3A9" stroke="#263238" stroke-miterlimit="10"/>
<path d="M21.848 114.016L19.8779 112.125" stroke="#263238" stroke-width="0.5" stroke-miterlimit="10"/>
<path d="M23.8996 105.004L22.5269 102.769" stroke="#263238" stroke-width="2" stroke-miterlimit="10"/>
<path d="M22.9463 103.442C23.0027 103.156 22.9974 102.861 22.9308 102.578C22.8642 102.294 22.7378 102.028 22.5601 101.797C22.192 101.297 20.0197 99.794 19.6154 100.591C19.178 101.444 21.2386 103.752 22.9463 103.442Z" fill="#92E3A9" stroke="#263238" stroke-miterlimit="10"/>
<path d="M22.9462 103.442L20.9731 101.55" stroke="#263238" stroke-width="0.5" stroke-miterlimit="10"/>
<path d="M23.4501 109.34L22.0773 107.104" stroke="#263238" stroke-width="2" stroke-miterlimit="10"/>
<path d="M22.4967 107.774C22.5531 107.488 22.5478 107.194 22.4812 106.91C22.4146 106.627 22.2882 106.361 22.1105 106.13C21.7424 105.632 19.5701 104.126 19.1659 104.923C18.7284 105.78 20.789 108.085 22.4967 107.774Z" fill="#92E3A9" stroke="#263238" stroke-miterlimit="10"/>
<path d="M22.4967 107.774L20.5236 105.882" stroke="#263238" stroke-width="0.5" stroke-miterlimit="10"/>
<path d="M24.6298 97.9626L23.257 95.73" stroke="#263238" stroke-width="2" stroke-miterlimit="10"/>
<path d="M23.6764 96.3998C23.7328 96.114 23.7275 95.8195 23.6609 95.5359C23.5943 95.2523 23.4679 94.9863 23.2902 94.7555C22.9221 94.2546 20.7498 92.7522 20.3455 93.5487C19.9081 94.4176 21.9717 96.7105 23.6764 96.3998Z" fill="#92E3A9" stroke="#263238" stroke-miterlimit="10"/>
<path d="M23.6764 96.3998L21.7062 94.5081" stroke="#263238" stroke-width="0.5" stroke-miterlimit="10"/>
<path d="M25.3629 90.8937L23.9932 88.6581" stroke="#263238" stroke-width="2" stroke-miterlimit="10"/>
<path d="M24.4095 89.3278C24.4667 89.0421 24.4619 88.7474 24.3952 88.4637C24.3286 88.18 24.2018 87.9139 24.0233 87.6835C23.6553 87.1857 21.483 85.6802 21.0787 86.4767C20.6412 87.3335 22.7049 89.6386 24.4095 89.3278Z" fill="#92E3A9" stroke="#263238" stroke-miterlimit="10"/>
<path d="M24.4095 89.3279L22.4394 87.4362" stroke="#263238" stroke-width="0.5" stroke-miterlimit="10"/>
<path d="M23.0338 113.009L24.8349 111.105" stroke="#263238" stroke-width="2" stroke-miterlimit="10"/>
<path d="M24.2888 111.675C24.2915 111.384 24.3567 111.097 24.4801 110.833C24.6034 110.569 24.7821 110.334 25.0039 110.146C25.4685 109.732 27.9033 108.706 28.1326 109.563C28.386 110.496 25.8939 112.33 24.2888 111.675Z" fill="#92E3A9" stroke="#263238" stroke-miterlimit="10"/>
<path d="M24.2888 111.675L26.7417 110.152" stroke="#263238" stroke-width="0.5" stroke-miterlimit="10"/>
<path d="M24.2164 101.604L26.0176 99.6975" stroke="#263238" stroke-width="2" stroke-miterlimit="10"/>
<path d="M25.4715 100.268C25.4751 99.9763 25.5411 99.689 25.6649 99.4252C25.7888 99.1613 25.9677 98.9271 26.1896 98.7381C26.6512 98.3248 29.0859 97.2989 29.3182 98.1588C29.5687 99.0911 27.0766 100.922 25.4715 100.268Z" fill="#92E3A9" stroke="#263238" stroke-miterlimit="10"/>
<path d="M25.4715 100.268L27.9244 98.7471" stroke="#263238" stroke-width="0.5" stroke-miterlimit="10"/>
<path d="M24.7384 96.5899L26.5396 94.6862" stroke="#263238" stroke-width="2" stroke-miterlimit="10"/>
<path d="M25.9905 95.2563C25.9941 94.9649 26.0601 94.6776 26.1839 94.4137C26.3078 94.1499 26.4866 93.9156 26.7085 93.7266C27.1701 93.3133 29.6049 92.2875 29.8372 93.1443C30.0786 94.0766 27.5986 95.9261 25.9905 95.2563Z" fill="#92E3A9" stroke="#263238" stroke-miterlimit="10"/>
<path d="M25.9905 95.2564L28.4464 93.7328" stroke="#263238" stroke-width="0.5" stroke-miterlimit="10"/>
<path d="M25.4987 89.2433L27.3029 87.3365" stroke="#263238" stroke-width="2" stroke-miterlimit="10"/>
<path d="M26.7598 87.9098C26.7633 87.6184 26.8291 87.331 26.953 87.0672C27.0769 86.8033 27.2558 86.569 27.4779 86.3802C27.9395 85.9638 30.3743 84.938 30.6066 85.7979C30.851 86.7302 28.3589 88.5645 26.7598 87.9098Z" fill="#92E3A9" stroke="#263238" stroke-miterlimit="10"/>
<path d="M26.7538 87.9098L29.2097 86.3862" stroke="#263238" stroke-width="0.5" stroke-miterlimit="10"/>
<path d="M25.8939 84.5247C25.8976 84.2336 25.9632 83.9466 26.0865 83.6828C26.2098 83.419 26.3879 83.1846 26.609 82.9951C27.0736 82.5817 29.5084 81.5559 29.7377 82.4128C29.9911 83.3451 27.499 85.1794 25.8939 84.5247Z" fill="#92E3A9" stroke="#263238" stroke-miterlimit="10"/>
<path d="M25.8939 84.5247L28.3468 83.0011" stroke="#263238" stroke-width="0.5" stroke-miterlimit="10"/>
<path d="M25.9935 84.6333C25.7043 84.5995 25.4257 84.5042 25.1765 84.3538C24.9272 84.2034 24.713 84.0014 24.5483 83.7614C24.1863 83.2575 23.4199 80.7292 24.2979 80.5874C25.2513 80.4366 26.8141 83.1067 25.9935 84.6333Z" fill="#92E3A9" stroke="#263238" stroke-miterlimit="10"/>
<path d="M25.9935 84.6333L24.7354 82.0356" stroke="#263238" stroke-width="0.5" stroke-miterlimit="10"/>
<path d="M21.3502 69.2191V117.414" stroke="#263238" stroke-width="2" stroke-miterlimit="10"/>
<path d="M21.3894 110.167L19.7934 108.085" stroke="#263238" stroke-width="2" stroke-miterlimit="10"/>
<path d="M20.2792 108.709C20.3059 108.419 20.2702 108.127 20.1744 107.851C20.0787 107.576 19.9251 107.324 19.7241 107.113C19.3077 106.655 16.9906 105.385 16.6708 106.208C16.3238 107.113 18.6138 109.201 20.2792 108.709Z" fill="#92E3A9" stroke="#263238" stroke-miterlimit="10"/>
<path d="M20.2791 108.709L18.1219 107.032" stroke="#263238" stroke-width="0.5" stroke-miterlimit="10"/>
<path d="M21.3894 101.109L19.7934 99.0306" stroke="#263238" stroke-width="2" stroke-miterlimit="10"/>
<path d="M20.2792 99.6522C20.3058 99.3624 20.2701 99.0703 20.1743 98.7955C20.0786 98.5207 19.925 98.2697 19.7241 98.0592C19.3077 97.5976 16.9906 96.3274 16.6708 97.1541C16.3238 98.0592 18.6138 100.15 20.2792 99.6522Z" fill="#92E3A9" stroke="#263238" stroke-miterlimit="10"/>
<path d="M20.2791 99.6522L18.1219 97.9747" stroke="#263238" stroke-width="0.5" stroke-miterlimit="10"/>
<path d="M21.3894 90.4773L19.7934 88.3955" stroke="#263238" stroke-width="2" stroke-miterlimit="10"/>
<path d="M20.2792 89.0201C20.3059 88.7298 20.2702 88.4372 20.1744 88.162C20.0787 87.8867 19.9251 87.6351 19.7241 87.424C19.3077 86.9654 16.9906 85.6953 16.6708 86.5189C16.3238 87.424 18.6138 89.5058 20.2792 89.0201Z" fill="#92E3A9" stroke="#263238" stroke-miterlimit="10"/>
<path d="M20.2791 89.0201L18.1219 87.3427" stroke="#263238" stroke-width="0.5" stroke-miterlimit="10"/>
<path d="M21.3894 83.3993L19.7934 81.3175" stroke="#263238" stroke-width="2" stroke-miterlimit="10"/>
<path d="M20.2792 81.9421C20.3059 81.6519 20.2702 81.3593 20.1744 81.084C20.0787 80.8087 19.9251 80.5571 19.7241 80.3461C19.3077 79.8875 16.9906 78.6143 16.6708 79.4409C16.3238 80.3461 18.6138 82.4278 20.2792 81.9421Z" fill="#92E3A9" stroke="#263238" stroke-miterlimit="10"/>
<path d="M20.2791 81.942L18.1219 80.2645" stroke="#263238" stroke-width="0.5" stroke-miterlimit="10"/>
<path d="M21.3894 76.2881L19.7934 74.2094" stroke="#263238" stroke-width="2" stroke-miterlimit="10"/>
<path d="M20.2792 74.8339C20.3059 74.5437 20.2702 74.2511 20.1744 73.9758C20.0787 73.7005 19.9251 73.4489 19.7241 73.2379C19.3077 72.7793 16.9906 71.5061 16.6708 72.3328C16.3238 73.2379 18.6138 75.3197 20.2792 74.8339Z" fill="#92E3A9" stroke="#263238" stroke-miterlimit="10"/>
<path d="M20.2791 74.8339L18.1219 73.1564" stroke="#263238" stroke-width="0.5" stroke-miterlimit="10"/>
<path d="M21.3532 112.933L22.9492 110.852" stroke="#263238" stroke-width="2" stroke-miterlimit="10"/>
<path d="M22.4635 111.476C22.4368 111.186 22.4726 110.893 22.5683 110.618C22.6641 110.343 22.8176 110.091 23.0187 109.88C23.435 109.421 25.7521 108.148 26.0719 108.975C26.4189 109.88 24.129 111.962 22.4635 111.476Z" fill="#92E3A9" stroke="#263238" stroke-miterlimit="10"/>
<path d="M22.4635 111.476L24.7474 109.708" stroke="#263238" stroke-width="0.5" stroke-miterlimit="10"/>
<path d="M21.3532 98.5299L22.9492 96.4481" stroke="#263238" stroke-width="2" stroke-miterlimit="10"/>
<path d="M22.4635 97.0726C22.4368 96.7823 22.4726 96.4898 22.5683 96.2145C22.6641 95.9392 22.8176 95.6876 23.0187 95.4766C23.435 95.018 25.7521 93.7448 26.0719 94.5714C26.4189 95.4766 24.129 97.5583 22.4635 97.0726Z" fill="#92E3A9" stroke="#263238" stroke-miterlimit="10"/>
<path d="M22.4635 97.0726L24.7474 95.3046" stroke="#263238" stroke-width="0.5" stroke-miterlimit="10"/>
<path d="M21.3532 91.4187L22.9492 89.3369" stroke="#263238" stroke-width="2" stroke-miterlimit="10"/>
<path d="M22.4635 89.9614C22.4368 89.6711 22.4726 89.3785 22.5683 89.1032C22.6641 88.828 22.8176 88.5763 23.0187 88.3653C23.435 87.9067 25.7521 86.6366 26.0719 87.4602C26.4189 88.3653 24.129 90.4471 22.4635 89.9614Z" fill="#92E3A9" stroke="#263238" stroke-miterlimit="10"/>
<path d="M22.4635 89.9614L24.7474 88.1934" stroke="#263238" stroke-width="0.5" stroke-miterlimit="10"/>
<path d="M21.3532 82.0236L22.9492 79.9418" stroke="#263238" stroke-width="2" stroke-miterlimit="10"/>
<path d="M22.4635 80.5662C22.4368 80.276 22.4726 79.9834 22.5683 79.7081C22.6641 79.4328 22.8176 79.1812 23.0187 78.9702C23.435 78.5116 25.7521 77.2384 26.0719 78.0651C26.4189 78.9702 24.129 81.052 22.4635 80.5662Z" fill="#92E3A9" stroke="#263238" stroke-miterlimit="10"/>
<path d="M22.4635 80.5663L24.7474 78.7983" stroke="#263238" stroke-width="0.5" stroke-miterlimit="10"/>
<path d="M21.3532 74.6347L22.9492 72.553" stroke="#263238" stroke-width="2" stroke-miterlimit="10"/>
<path d="M22.4635 73.1775C22.4368 72.8873 22.4726 72.5947 22.5683 72.3194C22.6641 72.0441 22.8176 71.7925 23.0187 71.5815C23.435 71.1229 25.7521 69.8527 26.0719 70.6764C26.4189 71.5815 24.129 73.6633 22.4635 73.1775Z" fill="#92E3A9" stroke="#263238" stroke-miterlimit="10"/>
<path d="M22.4635 73.1775L24.7474 71.4095" stroke="#263238" stroke-width="0.5" stroke-miterlimit="10"/>
<path d="M21.2597 69.901C21.2328 69.611 21.2682 69.3186 21.3634 69.0434C21.4586 68.7682 21.6115 68.5164 21.8118 68.305C22.2312 67.8464 24.5453 66.5762 24.8651 67.3999C25.2121 68.305 22.9221 70.3868 21.2597 69.901Z" fill="#92E3A9" stroke="#263238" stroke-miterlimit="10"/>
<path d="M21.2597 69.9009L23.5406 68.1329" stroke="#263238" stroke-width="0.5" stroke-miterlimit="10"/>
<path d="M21.3683 70.0006C21.077 69.9967 20.79 69.9304 20.5266 69.8059C20.2632 69.6815 20.0296 69.502 19.8417 69.2795C19.4283 68.8179 18.4055 66.3801 19.2654 66.1508C20.1977 65.9004 22.026 68.3955 21.3683 70.0006Z" fill="#92E3A9" stroke="#263238" stroke-miterlimit="10"/>
<path d="M21.3683 70.0006L19.8508 67.5447" stroke="#263238" stroke-width="0.5" stroke-miterlimit="10"/>
<path d="M23.3324 129.913H18.2306L17.5909 117.021H23.972L23.3324 129.913Z" fill="#263238" stroke="#263238" stroke-miterlimit="10"/>
<path d="M186.395 79.4922L190.372 117.598" stroke="#263238" stroke-width="2" stroke-miterlimit="10"/>
<path d="M189.732 110.305L187.928 108.402" stroke="#263238" stroke-width="2" stroke-miterlimit="10"/>
<path d="M188.474 108.972C188.471 108.68 188.405 108.393 188.281 108.129C188.157 107.865 187.978 107.631 187.756 107.442C187.294 107.029 184.857 106.006 184.627 106.863C184.377 107.795 186.872 109.63 188.474 108.972Z" fill="#92E3A9" stroke="#263238" stroke-miterlimit="10"/>
<path d="M188.477 108.972L186.157 107.527" stroke="#263238" stroke-width="0.5" stroke-miterlimit="10"/>
<path d="M190.185 114.641L188.381 112.737" stroke="#263238" stroke-width="2" stroke-miterlimit="10"/>
<path d="M188.93 113.307C188.926 113.016 188.86 112.729 188.737 112.465C188.613 112.201 188.434 111.967 188.212 111.778C187.747 111.364 185.312 110.339 185.083 111.195C184.83 112.131 187.325 113.962 188.93 113.307Z" fill="#92E3A9" stroke="#263238" stroke-miterlimit="10"/>
<path d="M188.93 113.307L186.61 111.862" stroke="#263238" stroke-width="0.5" stroke-miterlimit="10"/>
<path d="M188.628 99.7307L186.824 97.8269" stroke="#263238" stroke-width="2" stroke-miterlimit="10"/>
<path d="M187.373 98.3971C187.369 98.1057 187.303 97.8184 187.179 97.5546C187.056 97.2907 186.877 97.0565 186.655 96.8675C186.193 96.4541 183.755 95.4283 183.526 96.2882C183.276 97.2205 185.759 99.0518 187.373 98.3971Z" fill="#92E3A9" stroke="#263238" stroke-miterlimit="10"/>
<path d="M187.373 98.3971L185.053 96.9519" stroke="#263238" stroke-width="0.5" stroke-miterlimit="10"/>
<path d="M189.081 104.063L187.276 102.159" stroke="#263238" stroke-width="2" stroke-miterlimit="10"/>
<path d="M187.825 102.73C187.822 102.438 187.756 102.151 187.632 101.887C187.508 101.623 187.329 101.389 187.107 101.2C186.646 100.787 184.208 99.7638 183.979 100.621C183.725 101.553 186.22 103.387 187.825 102.73Z" fill="#92E3A9" stroke="#263238" stroke-miterlimit="10"/>
<path d="M187.825 102.73L185.505 101.284" stroke="#263238" stroke-width="0.5" stroke-miterlimit="10"/>
<path d="M187.892 92.6888L186.091 90.785" stroke="#263238" stroke-width="2" stroke-miterlimit="10"/>
<path d="M186.637 91.3553C186.633 91.0641 186.567 90.7771 186.444 90.5134C186.321 90.2496 186.143 90.0151 185.922 89.8256C185.457 89.4153 183.022 88.3895 182.79 89.2463C182.54 90.1937 185.032 92.0039 186.637 91.3553Z" fill="#92E3A9" stroke="#263238" stroke-miterlimit="10"/>
<path d="M186.637 91.3553L184.32 89.9102" stroke="#263238" stroke-width="0.5" stroke-miterlimit="10"/>
<path d="M187.156 85.6198L185.352 83.7161" stroke="#263238" stroke-width="2" stroke-miterlimit="10"/>
<path d="M185.901 84.2863C185.897 83.9949 185.831 83.7076 185.707 83.4437C185.583 83.1799 185.404 82.9456 185.183 82.7566C184.721 82.3433 182.283 81.3175 182.054 82.1774C181.8 83.1096 184.295 84.941 185.901 84.2863Z" fill="#92E3A9" stroke="#263238" stroke-miterlimit="10"/>
<path d="M185.901 84.2864L183.581 82.8412" stroke="#263238" stroke-width="0.5" stroke-miterlimit="10"/>
<path d="M189.428 107.741L190.8 105.505" stroke="#263238" stroke-width="2" stroke-miterlimit="10"/>
<path d="M190.381 106.184C190.325 105.898 190.33 105.604 190.396 105.32C190.463 105.037 190.589 104.771 190.767 104.54C191.135 104.039 193.307 102.534 193.709 103.333C194.149 104.181 192.095 106.486 190.381 106.184Z" fill="#92E3A9" stroke="#263238" stroke-miterlimit="10"/>
<path d="M190.381 106.178L192.469 104.181" stroke="#263238" stroke-width="0.5" stroke-miterlimit="10"/>
<path d="M188.239 96.3365L189.609 94.1008" stroke="#263238" stroke-width="2" stroke-miterlimit="10"/>
<path d="M189.192 94.7736C189.135 94.4879 189.14 94.1932 189.207 93.9095C189.273 93.6258 189.4 93.3597 189.578 93.1293C189.943 92.6285 192.116 91.123 192.52 91.9225C192.958 92.7763 190.888 95.0814 189.192 94.7736Z" fill="#92E3A9" stroke="#263238" stroke-miterlimit="10"/>
<path d="M189.192 94.7737L191.28 92.7764" stroke="#263238" stroke-width="0.5" stroke-miterlimit="10"/>
<path d="M187.714 91.3251L189.087 89.0895" stroke="#263238" stroke-width="2" stroke-miterlimit="10"/>
<path d="M188.667 89.7592C188.611 89.4735 188.616 89.1789 188.683 88.8954C188.749 88.6118 188.876 88.3457 189.053 88.1149C189.421 87.6171 191.594 86.1116 191.995 86.9081C192.436 87.7619 190.375 90.07 188.667 89.7592Z" fill="#92E3A9" stroke="#263238" stroke-miterlimit="10"/>
<path d="M188.667 89.7593L190.755 87.765" stroke="#263238" stroke-width="0.5" stroke-miterlimit="10"/>
<path d="M186.948 83.9786L188.32 81.7429" stroke="#263238" stroke-width="2" stroke-miterlimit="10"/>
<path d="M187.901 82.4128C187.844 82.127 187.85 81.8325 187.916 81.5489C187.983 81.2653 188.109 80.9993 188.287 80.7685C188.655 80.2677 190.827 78.7621 191.229 79.5617C191.669 80.4155 189.609 82.7235 187.901 82.4128Z" fill="#92E3A9" stroke="#263238" stroke-miterlimit="10"/>
<path d="M187.901 82.4127L189.989 80.4185" stroke="#263238" stroke-width="0.5" stroke-miterlimit="10"/>
<path d="M186.362 79.278C186.306 78.9922 186.311 78.6977 186.378 78.4142C186.444 78.1306 186.571 77.8645 186.748 77.6337C187.116 77.1359 189.289 75.6304 189.69 76.4269C190.131 77.2807 188.07 79.5888 186.362 79.278Z" fill="#92E3A9" stroke="#263238" stroke-miterlimit="10"/>
<path d="M186.362 79.278L188.45 77.2837" stroke="#263238" stroke-width="0.5" stroke-miterlimit="10"/>
<path d="M186.483 79.3655C186.192 79.3922 185.9 79.3562 185.624 79.2599C185.349 79.1636 185.097 79.0093 184.887 78.8074C184.428 78.391 183.161 76.0739 183.982 75.7541C184.893 75.4102 186.966 77.7001 186.483 79.3655Z" fill="#92E3A9" stroke="#263238" stroke-miterlimit="10"/>
<path d="M186.483 79.3655L184.718 77.0786" stroke="#263238" stroke-width="0.5" stroke-miterlimit="10"/>
<path d="M196.886 84.7389L192.93 122.85" stroke="#263238" stroke-width="2" stroke-miterlimit="10"/>
<path d="M193.805 115.582L192.432 113.347" stroke="#263238" stroke-width="2" stroke-miterlimit="10"/>
<path d="M192.852 114.029C192.908 113.743 192.902 113.448 192.835 113.164C192.768 112.881 192.641 112.615 192.463 112.384C192.095 111.886 189.922 110.381 189.521 111.177C189.078 112.022 191.144 114.33 192.852 114.029Z" fill="#92E3A9" stroke="#263238" stroke-miterlimit="10"/>
<path d="M192.852 114.016L190.879 112.125" stroke="#263238" stroke-width="0.5" stroke-miterlimit="10"/>
<path d="M194.903 105.004L193.531 102.769" stroke="#263238" stroke-width="2" stroke-miterlimit="10"/>
<path d="M193.947 103.442C194.004 103.156 193.999 102.861 193.933 102.578C193.866 102.294 193.739 102.028 193.561 101.797C193.193 101.297 191.021 99.794 190.619 100.591C190.179 101.444 192.242 103.752 193.947 103.442Z" fill="#92E3A9" stroke="#263238" stroke-miterlimit="10"/>
<path d="M193.947 103.442L191.977 101.55" stroke="#263238" stroke-width="0.5" stroke-miterlimit="10"/>
<path d="M194.454 109.34L193.081 107.104" stroke="#263238" stroke-width="2" stroke-miterlimit="10"/>
<path d="M193.498 107.774C193.555 107.488 193.55 107.194 193.483 106.91C193.417 106.626 193.29 106.36 193.111 106.13C192.743 105.632 190.571 104.126 190.17 104.923C189.729 105.78 191.793 108.085 193.498 107.774Z" fill="#92E3A9" stroke="#263238" stroke-miterlimit="10"/>
<path d="M193.498 107.774L191.527 105.882" stroke="#263238" stroke-width="0.5" stroke-miterlimit="10"/>
<path d="M195.634 97.9626L194.261 95.73" stroke="#263238" stroke-width="2" stroke-miterlimit="10"/>
<path d="M194.68 96.3998C194.736 96.1138 194.731 95.8191 194.664 95.5355C194.596 95.2519 194.469 94.9859 194.291 94.7555C193.923 94.2546 191.751 92.7522 191.349 93.5487C190.912 94.4176 192.973 96.7105 194.68 96.3998Z" fill="#92E3A9" stroke="#263238" stroke-miterlimit="10"/>
<path d="M194.68 96.3998L192.707 94.5081" stroke="#263238" stroke-width="0.5" stroke-miterlimit="10"/>
<path d="M196.367 90.8937L194.994 88.6581" stroke="#263238" stroke-width="2" stroke-miterlimit="10"/>
<path d="M195.413 89.3278C195.47 89.0418 195.464 88.7472 195.397 88.4635C195.33 88.1799 195.203 87.914 195.024 87.6835C194.659 87.1857 192.487 85.6802 192.083 86.4767C191.645 87.3335 193.706 89.6386 195.413 89.3278Z" fill="#92E3A9" stroke="#263238" stroke-miterlimit="10"/>
<path d="M195.413 89.3279L193.44 87.4362" stroke="#263238" stroke-width="0.5" stroke-miterlimit="10"/>
<path d="M194.038 113.009L195.839 111.105" stroke="#263238" stroke-width="2" stroke-miterlimit="10"/>
<path d="M195.29 111.675C195.293 111.384 195.359 111.097 195.483 110.833C195.607 110.569 195.786 110.335 196.008 110.146C196.469 109.732 198.904 108.706 199.136 109.563C199.387 110.496 196.898 112.33 195.29 111.675Z" fill="#92E3A9" stroke="#263238" stroke-miterlimit="10"/>
<path d="M195.29 111.675L197.746 110.152" stroke="#263238" stroke-width="0.5" stroke-miterlimit="10"/>
<path d="M195.22 101.604L197.021 99.6975" stroke="#263238" stroke-width="2" stroke-miterlimit="10"/>
<path d="M196.475 100.268C196.478 99.9764 196.543 99.6891 196.667 99.4252C196.79 99.1613 196.969 98.927 197.19 98.7381C197.652 98.3248 200.087 97.2989 200.319 98.1588C200.573 99.0911 198.08 100.922 196.475 100.268Z" fill="#92E3A9" stroke="#263238" stroke-miterlimit="10"/>
<path d="M196.475 100.268L198.928 98.7471" stroke="#263238" stroke-width="0.5" stroke-miterlimit="10"/>
<path d="M195.739 96.5899L197.54 94.6862" stroke="#263238" stroke-width="2" stroke-miterlimit="10"/>
<path d="M196.994 95.2563C196.998 94.9649 197.064 94.6776 197.188 94.4137C197.312 94.1499 197.49 93.9156 197.712 93.7266C198.174 93.3133 200.609 92.2875 200.841 93.1443C201.091 94.0766 198.599 95.9261 196.994 95.2563Z" fill="#92E3A9" stroke="#263238" stroke-miterlimit="10"/>
<path d="M196.994 95.2564L199.447 93.7328" stroke="#263238" stroke-width="0.5" stroke-miterlimit="10"/>
<path d="M196.503 89.2433L198.304 87.3365" stroke="#263238" stroke-width="2" stroke-miterlimit="10"/>
<path d="M197.758 87.9098C197.76 87.6185 197.825 87.3311 197.949 87.0672C198.072 86.8032 198.251 86.5689 198.473 86.3802C198.937 85.9638 201.372 84.938 201.601 85.7979C201.855 86.7302 199.363 88.5645 197.758 87.9098Z" fill="#92E3A9" stroke="#263238" stroke-miterlimit="10"/>
<path d="M197.758 87.9098L200.21 86.3862" stroke="#263238" stroke-width="0.5" stroke-miterlimit="10"/>
<path d="M196.895 84.5247C196.898 84.2333 196.964 83.946 197.088 83.6822C197.212 83.4183 197.391 83.1841 197.613 82.9951C198.074 82.5817 200.509 81.5559 200.741 82.4128C200.995 83.3451 198.503 85.1794 196.895 84.5247Z" fill="#92E3A9" stroke="#263238" stroke-miterlimit="10"/>
<path d="M196.895 84.5247L199.351 83.0011" stroke="#263238" stroke-width="0.5" stroke-miterlimit="10"/>
<path d="M196.997 84.6333C196.708 84.5996 196.429 84.5043 196.179 84.3539C195.929 84.2035 195.714 84.0015 195.549 83.7614C195.187 83.2575 194.424 80.7292 195.299 80.5874C196.255 80.4366 197.827 83.1067 196.997 84.6333Z" fill="#92E3A9" stroke="#263238" stroke-miterlimit="10"/>
<path d="M196.997 84.6333L195.739 82.0356" stroke="#263238" stroke-width="0.5" stroke-miterlimit="10"/>
<path d="M192.354 69.2191V117.414" stroke="#263238" stroke-width="2" stroke-miterlimit="10"/>
<path d="M192.39 110.167L190.797 108.085" stroke="#263238" stroke-width="2" stroke-miterlimit="10"/>
<path d="M191.283 108.709C191.31 108.419 191.274 108.127 191.178 107.851C191.083 107.576 190.929 107.324 190.728 107.113C190.309 106.655 187.994 105.385 187.675 106.208C187.328 107.113 189.618 109.201 191.283 108.709Z" fill="#92E3A9" stroke="#263238" stroke-miterlimit="10"/>
<path d="M191.283 108.709L189.126 107.032" stroke="#263238" stroke-width="0.5" stroke-miterlimit="10"/>
<path d="M192.39 101.109L190.797 99.0306" stroke="#263238" stroke-width="2" stroke-miterlimit="10"/>
<path d="M191.283 99.6522C191.31 99.3624 191.274 99.0703 191.178 98.7955C191.082 98.5207 190.929 98.2697 190.728 98.0592C190.309 97.5976 187.994 96.3274 187.675 97.1541C187.328 98.0592 189.618 100.15 191.283 99.6522Z" fill="#92E3A9" stroke="#263238" stroke-miterlimit="10"/>
<path d="M191.283 99.6522L189.126 97.9747" stroke="#263238" stroke-width="0.5" stroke-miterlimit="10"/>
<path d="M192.39 90.4773L190.797 88.3955" stroke="#263238" stroke-width="2" stroke-miterlimit="10"/>
<path d="M191.283 89.0201C191.31 88.7298 191.274 88.4372 191.178 88.162C191.083 87.8867 190.929 87.6351 190.728 87.424C190.309 86.9654 187.994 85.6953 187.675 86.5189C187.328 87.424 189.618 89.5058 191.283 89.0201Z" fill="#92E3A9" stroke="#263238" stroke-miterlimit="10"/>
<path d="M191.283 89.0201L189.126 87.3427" stroke="#263238" stroke-width="0.5" stroke-miterlimit="10"/>
<path d="M192.39 83.3993L190.797 81.3175" stroke="#263238" stroke-width="2" stroke-miterlimit="10"/>
<path d="M191.283 81.9421C191.31 81.6519 191.274 81.3593 191.178 81.084C191.083 80.8087 190.929 80.5571 190.728 80.3461C190.309 79.8875 187.994 78.6143 187.675 79.4409C187.328 80.3461 189.618 82.4278 191.283 81.9421Z" fill="#92E3A9" stroke="#263238" stroke-miterlimit="10"/>
<path d="M191.283 81.942L189.126 80.2645" stroke="#263238" stroke-width="0.5" stroke-miterlimit="10"/>
<path d="M192.39 76.2881L190.797 74.2094" stroke="#263238" stroke-width="2" stroke-miterlimit="10"/>
<path d="M191.283 74.8339C191.31 74.5437 191.274 74.2511 191.178 73.9758C191.083 73.7005 190.929 73.4489 190.728 73.2379C190.309 72.7793 187.994 71.5061 187.675 72.3328C187.328 73.2379 189.618 75.3197 191.283 74.8339Z" fill="#92E3A9" stroke="#263238" stroke-miterlimit="10"/>
<path d="M191.283 74.8339L189.126 73.1564" stroke="#263238" stroke-width="0.5" stroke-miterlimit="10"/>
<path d="M192.357 112.933L193.953 110.852" stroke="#263238" stroke-width="2" stroke-miterlimit="10"/>
<path d="M193.467 111.476C193.441 111.186 193.476 110.893 193.572 110.618C193.668 110.343 193.821 110.091 194.023 109.88C194.439 109.421 196.756 108.148 197.073 108.975C197.42 109.88 195.13 111.962 193.467 111.476Z" fill="#92E3A9" stroke="#263238" stroke-miterlimit="10"/>
<path d="M193.467 111.476L195.751 109.708" stroke="#263238" stroke-width="0.5" stroke-miterlimit="10"/>
<path d="M192.357 98.5299L193.953 96.4481" stroke="#263238" stroke-width="2" stroke-miterlimit="10"/>
<path d="M193.467 97.0726C193.441 96.7823 193.476 96.4898 193.572 96.2145C193.668 95.9392 193.821 95.6876 194.023 95.4766C194.439 95.018 196.756 93.7448 197.073 94.5714C197.42 95.4766 195.13 97.5583 193.467 97.0726Z" fill="#92E3A9" stroke="#263238" stroke-miterlimit="10"/>
<path d="M193.467 97.0726L195.751 95.3046" stroke="#263238" stroke-width="0.5" stroke-miterlimit="10"/>
<path d="M192.357 91.4187L193.953 89.3369" stroke="#263238" stroke-width="2" stroke-miterlimit="10"/>
<path d="M193.467 89.9614C193.441 89.6711 193.476 89.3785 193.572 89.1032C193.668 88.828 193.821 88.5763 194.023 88.3653C194.439 87.9067 196.756 86.6366 197.073 87.4602C197.42 88.3653 195.13 90.4471 193.467 89.9614Z" fill="#92E3A9" stroke="#263238" stroke-miterlimit="10"/>
<path d="M193.467 89.9614L195.751 88.1934" stroke="#263238" stroke-width="0.5" stroke-miterlimit="10"/>
<path d="M192.357 82.0236L193.953 79.9418" stroke="#263238" stroke-width="2" stroke-miterlimit="10"/>
<path d="M193.467 80.5662C193.441 80.276 193.476 79.9834 193.572 79.7081C193.668 79.4328 193.821 79.1812 194.023 78.9702C194.439 78.5116 196.756 77.2384 197.073 78.0651C197.42 78.9702 195.13 81.052 193.467 80.5662Z" fill="#92E3A9" stroke="#263238" stroke-miterlimit="10"/>
<path d="M193.467 80.5663L195.751 78.7983" stroke="#263238" stroke-width="0.5" stroke-miterlimit="10"/>
<path d="M192.357 74.6347L193.953 72.553" stroke="#263238" stroke-width="2" stroke-miterlimit="10"/>
<path d="M193.467 73.1775C193.441 72.8873 193.476 72.5947 193.572 72.3194C193.668 72.0441 193.821 71.7925 194.023 71.5815C194.439 71.1229 196.756 69.8527 197.073 70.6764C197.42 71.5815 195.13 73.6633 193.467 73.1775Z" fill="#92E3A9" stroke="#263238" stroke-miterlimit="10"/>
<path d="M193.467 73.1775L195.751 71.4095" stroke="#263238" stroke-width="0.5" stroke-miterlimit="10"/>
<path d="M192.261 69.901C192.234 69.6108 192.27 69.3182 192.365 69.0429C192.461 68.7677 192.615 68.516 192.816 68.305C193.232 67.8464 195.549 66.5762 195.869 67.3999C196.216 68.305 193.926 70.3868 192.261 69.901Z" fill="#92E3A9" stroke="#263238" stroke-miterlimit="10"/>
<path d="M192.261 69.9009L194.544 68.1329" stroke="#263238" stroke-width="0.5" stroke-miterlimit="10"/>
<path d="M192.372 70.0006C192.08 69.9968 191.793 69.9304 191.529 69.806C191.265 69.6816 191.031 69.5021 190.843 69.2795C190.432 68.8179 189.409 66.3801 190.266 66.1508C191.19 65.9004 193.03 68.3955 192.372 70.0006Z" fill="#92E3A9" stroke="#263238" stroke-miterlimit="10"/>
<path d="M192.372 70.0006L190.855 67.5447" stroke="#263238" stroke-width="0.5" stroke-miterlimit="10"/>
<path d="M194.336 129.913H189.231L188.595 117.021H194.973L194.336 129.913Z" fill="#263238" stroke="#263238" stroke-miterlimit="10"/>
<path d="M196.319 28.0423C196.319 26.328 195.907 24.6388 195.117 23.1177C194.326 21.5965 193.181 20.2881 191.778 19.3032C190.375 18.3183 188.755 17.686 187.056 17.4596C185.357 17.2333 183.628 17.4197 182.016 18.0029C180.404 18.5862 178.956 19.5493 177.796 20.8106C176.635 22.0718 175.795 23.5942 175.347 25.2489C174.899 26.9036 174.856 28.6418 175.222 30.3165C175.588 31.9912 176.352 33.5531 177.45 34.8699C179.022 36.7537 179.882 39.1295 179.882 41.5828V43.0431H191.401V41.5828C191.394 39.1334 192.248 36.7595 193.814 34.8759C195.427 32.9636 196.314 30.5438 196.319 28.0423Z" fill="white" stroke="#263238" stroke-linecap="round" stroke-linejoin="round"/>
<path d="M191.401 43.0461H179.866V45.9003H191.401V43.0461Z" fill="#92E3A9" stroke="#263238" stroke-linecap="round" stroke-linejoin="round"/>
<path d="M179.866 45.9062H191.401V47.3333C191.401 47.7118 191.25 48.0748 190.983 48.3424C190.715 48.61 190.352 48.7604 189.974 48.7604H181.291C180.912 48.7604 180.549 48.61 180.281 48.3424C180.014 48.0748 179.863 47.7118 179.863 47.3333V45.9062H179.866Z" fill="#92E3A9" stroke="#263238" stroke-linecap="round" stroke-linejoin="round"/>
<path d="M181.321 48.7574H189.943V49.6626C189.943 50.1755 189.74 50.6674 189.377 51.0301C189.014 51.3927 188.522 51.5965 188.01 51.5965H183.255C182.742 51.5965 182.25 51.3927 181.887 51.0301C181.524 50.6674 181.321 50.1755 181.321 49.6626V48.7574Z" fill="#263238" stroke="#263238" stroke-linecap="round" stroke-linejoin="round"/>
<path d="M197.818 28.0996H202.706" stroke="#263238" stroke-linecap="round" stroke-linejoin="round"/>
<path d="M168.103 28.0996H173.054" stroke="#263238" stroke-linecap="round" stroke-linejoin="round"/>
<path d="M185.406 15.6995V10.7998" stroke="#263238" stroke-linecap="round" stroke-linejoin="round"/>
<path d="M194.264 19.2385L197.637 15.8655" stroke="#263238" stroke-linecap="round" stroke-linejoin="round"/>
<path d="M173.172 40.3308L176.593 36.9094" stroke="#263238" stroke-linecap="round" stroke-linejoin="round"/>
<path d="M176.448 19.142L173.172 15.8655" stroke="#263238" stroke-linecap="round" stroke-linejoin="round"/>
<path d="M197.637 40.3308L194.376 37.0693" stroke="#263238" stroke-linecap="round" stroke-linejoin="round"/>
<path d="M122.567 24.458L108.444 4.92859L94.3178 24.458H100.129V46.1537H116.759V24.458H122.567Z" fill="#92E3A9" stroke="#263238" stroke-linecap="round" stroke-linejoin="round"/>
<path d="M110.667 57.8346C118.605 56.5517 124.001 49.0763 122.718 41.1378C121.435 33.1994 113.959 27.804 106.021 29.0869C98.0825 30.3698 92.6871 37.8452 93.97 45.7836C95.2529 53.7221 102.728 59.1175 110.667 57.8346Z" fill="white" stroke="#263238" stroke-linecap="round" stroke-linejoin="round"/>
<path d="M119.432 49.0513C122.518 42.9305 120.058 35.4664 113.938 32.3799C107.817 29.2933 100.353 31.7532 97.2661 37.8741C94.1795 43.9949 96.6394 51.459 102.76 54.5455C108.881 57.6321 116.345 55.1722 119.432 49.0513Z" fill="white" stroke="#263238" stroke-linecap="round" stroke-linejoin="round"/>
<path d="M112.49 45.321C112.49 42.0716 107.885 42.0022 107.885 40.6445C107.885 39.9325 108.26 39.7183 109.029 39.7183C109.69 39.7183 110.236 40.0019 110.884 40.5751L112.393 38.8252C111.692 38.0318 110.742 37.5 109.699 37.3167V35.5065H107.707V37.3951C105.988 37.7662 104.959 38.9912 104.959 40.7954C104.959 43.921 109.563 44.1141 109.563 45.5442C109.563 46.2412 109.207 46.5429 108.314 46.5429C107.566 46.5429 106.805 46.2593 105.852 45.5442L104.531 47.6139C105.436 48.3624 106.54 48.8311 107.707 48.9625V50.7547H109.708V48.8358C111.569 48.3833 112.49 47.0497 112.49 45.321Z" fill="#92E3A9" stroke="#263238" stroke-linecap="round" stroke-linejoin="round"/>
<path d="M36.2938 32.9717C41.4452 32.0374 44.8638 27.1039 43.9295 21.9525C42.9952 16.8011 38.0618 13.3825 32.9104 14.3168C27.759 15.2511 24.3404 20.1846 25.2747 25.336C26.209 30.4874 31.1424 33.906 36.2938 32.9717Z" fill="white" stroke="#263238" stroke-linecap="round" stroke-linejoin="round"/>
<path d="M37.2803 14.5591L34.6041 23.6465H44.0837C44.0828 21.6003 43.4196 19.6093 42.1932 17.9713C40.9669 16.3333 39.2434 15.1363 37.2803 14.5591Z" fill="#92E3A9" stroke="#263238" stroke-linecap="round" stroke-linejoin="round"/>
<path d="M40.4904 17.6666L44.2527 13.2316H47.4809" stroke="#263238" stroke-width="0.5" stroke-linecap="round" stroke-linejoin="round"/>
<path d="M49.7679 13.3644H54.6072" stroke="#263238" stroke-width="0.5" stroke-linecap="round" stroke-linejoin="round"/>
<path d="M49.7679 14.5742H54.6072" stroke="#263238" stroke-width="0.5" stroke-linecap="round" stroke-linejoin="round"/>
<path d="M49.7679 15.7841H54.6072" stroke="#263238" stroke-width="0.5" stroke-linecap="round" stroke-linejoin="round"/>
<path d="M49.7679 16.9939H54.6072" stroke="#263238" stroke-width="0.5" stroke-linecap="round" stroke-linejoin="round"/>
<path d="M25.5349 43.1487H22.7773V51.3762H25.5349V43.1487Z" fill="#263238" stroke="#263238" stroke-width="0.5" stroke-linecap="round" stroke-linejoin="round"/>
<path d="M29.8674 46.1084H27.1098V51.3762H29.8674V46.1084Z" fill="#92E3A9" stroke="#263238" stroke-linecap="round" stroke-linejoin="round"/>
<path d="M34.2029 41.3475H31.4453V51.3762H34.2029V41.3475Z" fill="#263238" stroke="#263238" stroke-width="0.5" stroke-linecap="round" stroke-linejoin="round"/>
<path d="M38.5384 43.4232H35.7808V51.3792H38.5384V43.4232Z" fill="#92E3A9" stroke="#263238" stroke-linecap="round" stroke-linejoin="round"/>
<path d="M42.8709 41.604H40.1133V51.3763H42.8709V41.604Z" fill="#263238" stroke="#263238" stroke-width="0.5" stroke-linecap="round" stroke-linejoin="round"/>
<path d="M47.2064 35.8142H44.4488V51.3792H47.2064V35.8142Z" fill="#92E3A9" stroke="#263238" stroke-linecap="round" stroke-linejoin="round"/>
<path d="M50.3049 35.6514H51.9191" stroke="#263238" stroke-width="0.5" stroke-linecap="round" stroke-linejoin="round"/>
<path d="M50.3049 38.7952H51.9191" stroke="#263238" stroke-width="0.5" stroke-linecap="round" stroke-linejoin="round"/>
<path d="M50.3049 41.9419H51.9191" stroke="#263238" stroke-width="0.5" stroke-linecap="round" stroke-linejoin="round"/>
<path d="M50.3049 45.0887H51.9191" stroke="#263238" stroke-width="0.5" stroke-linecap="round" stroke-linejoin="round"/>
<path d="M50.3049 48.2355H51.9191" stroke="#263238" stroke-width="0.5" stroke-linecap="round" stroke-linejoin="round"/>
<path d="M50.3049 51.3793H51.9191" stroke="#263238" stroke-width="0.5" stroke-linecap="round" stroke-linejoin="round"/>
<path d="M24.3552 40.1166L28.5791 42.6721L32.975 37.9655L37.3165 38.3305L41.5223 36.6621L46.2832 30.3987" stroke="#263238" stroke-linecap="round" stroke-linejoin="round"/>
<path d="M24.8862 40.1106C24.8862 40.0048 24.8548 39.9014 24.796 39.8136C24.7372 39.7257 24.6536 39.6572 24.5559 39.6169C24.4581 39.5766 24.3506 39.5662 24.2469 39.587C24.1432 39.6079 24.0481 39.659 23.9735 39.734C23.899 39.809 23.8483 39.9044 23.8281 40.0082C23.8078 40.112 23.8188 40.2195 23.8597 40.317C23.9006 40.4145 23.9695 40.4977 24.0577 40.556C24.1459 40.6144 24.2495 40.6452 24.3552 40.6446C24.4252 40.6446 24.4945 40.6307 24.5591 40.6039C24.6237 40.577 24.6824 40.5376 24.7318 40.488C24.7811 40.4383 24.8202 40.3795 24.8467 40.3147C24.8732 40.2499 24.8866 40.1805 24.8862 40.1106Z" fill="#263238"/>
<path d="M29.1131 42.6721C29.1131 42.5665 29.0818 42.4632 29.0231 42.3754C28.9644 42.2876 28.881 42.2191 28.7834 42.1787C28.6858 42.1383 28.5785 42.1277 28.4749 42.1483C28.3713 42.1689 28.2761 42.2198 28.2015 42.2945C28.1268 42.3692 28.0759 42.4643 28.0553 42.5679C28.0347 42.6715 28.0453 42.7789 28.0857 42.8764C28.1261 42.974 28.1946 43.0574 28.2824 43.1161C28.3702 43.1748 28.4734 43.2061 28.5791 43.2061C28.6493 43.2065 28.7189 43.193 28.7839 43.1663C28.8489 43.1396 28.9079 43.1002 28.9576 43.0506C29.0072 43.0009 29.0466 42.9419 29.0732 42.8769C29.0999 42.8119 29.1135 42.7423 29.1131 42.6721Z" fill="#263238"/>
<path d="M33.506 37.9654C33.506 37.8597 33.4746 37.7563 33.4158 37.6684C33.3569 37.5805 33.2734 37.5121 33.1756 37.4718C33.0778 37.4314 32.9703 37.421 32.8667 37.4419C32.763 37.4627 32.6678 37.5139 32.5933 37.5889C32.5187 37.6639 32.4681 37.7593 32.4478 37.8631C32.4276 37.9669 32.4386 38.0743 32.4794 38.1719C32.5203 38.2694 32.5892 38.3526 32.6775 38.4109C32.7657 38.4692 32.8692 38.5 32.975 38.4994C33.045 38.4994 33.1142 38.4856 33.1789 38.4587C33.2435 38.4318 33.3022 38.3925 33.3515 38.3428C33.4009 38.2932 33.4399 38.2343 33.4664 38.1695C33.4929 38.1048 33.5064 38.0354 33.506 37.9654Z" fill="#263238"/>
<path d="M37.8475 38.3305C37.8475 38.2248 37.8161 38.1214 37.7573 38.0335C37.6985 37.9456 37.6149 37.8772 37.5172 37.8369C37.4194 37.7965 37.3119 37.7861 37.2082 37.807C37.1045 37.8278 37.0094 37.879 36.9348 37.954C36.8603 38.029 36.8096 38.1244 36.7894 38.2282C36.7691 38.332 36.7801 38.4395 36.821 38.537C36.8619 38.6345 36.9308 38.7177 37.019 38.776C37.1072 38.8343 37.2108 38.8651 37.3165 38.8645C37.3865 38.8645 37.4558 38.8507 37.5204 38.8238C37.585 38.797 37.6437 38.7576 37.6931 38.7079C37.7424 38.6583 37.7815 38.5994 37.808 38.5347C37.8345 38.4699 37.8479 38.4005 37.8475 38.3305Z" fill="#263238"/>
<path d="M42.0563 36.5776C42.0563 36.472 42.0249 36.3687 41.9663 36.2809C41.9076 36.1931 41.8242 36.1246 41.7266 36.0842C41.629 36.0438 41.5216 36.0332 41.4181 36.0538C41.3145 36.0744 41.2193 36.1253 41.1446 36.2C41.0699 36.2747 41.0191 36.3698 40.9985 36.4734C40.9779 36.577 40.9885 36.6844 41.0289 36.782C41.0693 36.8795 41.1377 36.9629 41.2256 37.0216C41.3134 37.0803 41.4166 37.1116 41.5222 37.1116C41.6639 37.1116 41.7997 37.0554 41.8998 36.9552C42 36.8551 42.0563 36.7192 42.0563 36.5776Z" fill="#263238"/>
<path d="M46.8142 30.3986C46.8142 30.2929 46.7828 30.1895 46.724 30.1016C46.6652 30.0138 46.5816 29.9453 46.4838 29.905C46.3861 29.8647 46.2785 29.8543 46.1749 29.8751C46.0712 29.896 45.9761 29.9471 45.9015 30.0221C45.8269 30.0971 45.7763 30.1925 45.7561 30.2963C45.7358 30.4001 45.7468 30.5076 45.7877 30.6051C45.8286 30.7026 45.8975 30.7858 45.9857 30.8441C46.0739 30.9024 46.1774 30.9333 46.2832 30.9327C46.4243 30.9319 46.5594 30.8752 46.6589 30.7752C46.7583 30.6751 46.8142 30.5397 46.8142 30.3986Z" fill="#263238"/>
<path d="M151.965 116.87H153.684V100.301H151.965V116.87Z" fill="#263238" stroke="#263238" stroke-linecap="round" stroke-linejoin="round"/>
<path d="M160.529 100.882L163.562 101.237L165.486 84.7795L162.454 84.4249L160.529 100.882Z" fill="#263238" stroke="#263238" stroke-linecap="round" stroke-linejoin="round"/>
<path d="M150.64 117.549V114.755H155.006V117.573L172.469 124.582V127.889H171.277V125.376L152.761 121.161L134.734 125.376V127.889H133.576V124.582L150.64 117.549Z" fill="#8C8C8C" stroke="#263238" stroke-linecap="round" stroke-linejoin="round"/>
<path d="M148.525 105.593H157.124V100.301H148.525V105.593Z" fill="#263238" stroke="#263238" stroke-linecap="round" stroke-linejoin="round"/>
<path d="M172.484 128.022C172.484 127.655 172.592 127.297 172.796 126.992C173 126.687 173.289 126.45 173.628 126.31C173.967 126.17 174.339 126.133 174.699 126.205C175.058 126.277 175.388 126.453 175.647 126.713C175.906 126.972 176.082 127.302 176.153 127.662C176.225 128.022 176.188 128.394 176.047 128.733C175.906 129.071 175.668 129.36 175.363 129.563C175.058 129.766 174.7 129.875 174.333 129.874C174.09 129.874 173.849 129.826 173.625 129.733C173.4 129.64 173.196 129.503 173.024 129.331C172.853 129.159 172.716 128.955 172.624 128.73C172.531 128.505 172.483 128.265 172.484 128.022Z" fill="#263238" stroke="#263238" stroke-linecap="round" stroke-linejoin="round"/>
<path d="M173.525 128.022C173.525 127.865 173.571 127.711 173.658 127.581C173.746 127.45 173.869 127.348 174.014 127.288C174.159 127.228 174.319 127.213 174.473 127.243C174.627 127.274 174.768 127.349 174.879 127.46C174.99 127.571 175.066 127.713 175.096 127.867C175.127 128.021 175.111 128.18 175.051 128.325C174.991 128.47 174.889 128.594 174.759 128.681C174.628 128.768 174.475 128.815 174.318 128.815C174.108 128.815 173.906 128.731 173.757 128.583C173.608 128.434 173.525 128.232 173.525 128.022Z" fill="white" stroke="#263238" stroke-linecap="round" stroke-linejoin="round"/>
<path d="M129.738 128.021C129.738 127.655 129.847 127.297 130.05 126.992C130.254 126.688 130.543 126.45 130.882 126.31C131.22 126.17 131.593 126.133 131.952 126.205C132.311 126.276 132.641 126.452 132.9 126.712C133.16 126.971 133.336 127.301 133.407 127.66C133.479 128.019 133.442 128.392 133.302 128.73C133.162 129.069 132.924 129.358 132.62 129.562C132.315 129.765 131.957 129.874 131.591 129.874C131.099 129.874 130.628 129.679 130.281 129.331C129.933 128.984 129.738 128.513 129.738 128.021Z" fill="#263238" stroke="#263238" stroke-linecap="round" stroke-linejoin="round"/>
<path d="M131.591 128.815C132.029 128.815 132.384 128.46 132.384 128.022C132.384 127.583 132.029 127.228 131.591 127.228C131.152 127.228 130.797 127.583 130.797 128.022C130.797 128.46 131.152 128.815 131.591 128.815Z" fill="white" stroke="#263238" stroke-linecap="round" stroke-linejoin="round"/>
<path d="M152.028 127.985H153.482L154.212 118.062H151.301L152.028 127.985Z" fill="#8C8C8C" stroke="#263238" stroke-linecap="round" stroke-linejoin="round"/>
<path d="M152.097 129.968H153.552V125.867H152.097V129.968Z" fill="#263238" stroke="#263238" stroke-linecap="round" stroke-linejoin="round"/>
<path d="M164.277 92.6857C165.126 92.7677 165.982 92.6817 166.797 92.4327C167.613 92.1836 168.371 91.7764 169.029 91.2343C169.687 90.6921 170.231 90.0257 170.631 89.273C171.032 88.5204 171.28 87.6962 171.361 86.8477L173.389 65.7554C173.554 64.042 173.031 62.3332 171.936 61.0048C170.842 59.6764 169.264 58.837 167.551 58.6714C165.837 58.5075 164.128 59.0306 162.8 60.1258C161.472 61.221 160.632 62.7988 160.467 64.5124L158.436 85.6318C158.279 87.341 158.806 89.0428 159.9 90.3648C160.995 91.6868 162.569 92.5213 164.277 92.6857Z" fill="#8C8C8C" stroke="#263238" stroke-linecap="round" stroke-linejoin="round"/>
<path d="M162.739 92.5379C164.452 92.7026 166.161 92.1802 167.489 91.0855C168.818 89.9907 169.657 88.4133 169.823 86.6999L171.853 65.5805C172.013 63.8695 171.488 62.1649 170.393 60.8405C169.298 59.516 167.723 58.6796 166.012 58.5145C165.164 58.433 164.307 58.5194 163.492 58.7688C162.677 59.0182 161.919 59.4258 161.262 59.9682C160.604 60.5106 160.06 61.1772 159.66 61.93C159.26 62.6828 159.012 63.507 158.931 64.3555L156.901 85.4568C156.736 87.17 157.258 88.8784 158.353 90.2064C159.448 91.5343 161.026 92.373 162.739 92.5379Z" fill="#8C8C8C" stroke="#263238" stroke-linecap="round" stroke-linejoin="round"/>
<path d="M134.496 101.96L164.775 102.757C164.943 102.762 165.111 102.734 165.268 102.674C165.425 102.615 165.569 102.525 165.691 102.41C165.814 102.295 165.912 102.157 165.981 102.003C166.05 101.85 166.089 101.685 166.094 101.517L166.247 96.6712C166.253 96.5032 166.225 96.3358 166.165 96.1786C166.106 96.0214 166.016 95.8775 165.901 95.755C165.786 95.6326 165.647 95.534 165.494 95.465C165.341 95.396 165.175 95.3578 165.007 95.3528L134.731 94.5563C134.563 94.5506 134.396 94.5782 134.239 94.6373C134.082 94.6965 133.938 94.7861 133.815 94.901C133.693 95.016 133.594 95.1539 133.525 95.307C133.456 95.4601 133.418 95.6254 133.413 95.7933L133.262 100.642C133.251 100.98 133.375 101.309 133.607 101.556C133.838 101.803 134.158 101.948 134.496 101.96Z" fill="#8C8C8C" stroke="#263238" stroke-linecap="round" stroke-linejoin="round"/>
<path d="M147.156 102.194L164.779 102.751C165.485 102.774 166.076 102.219 166.098 101.513L166.251 96.6672C166.273 95.961 165.719 95.3705 165.013 95.3482L147.39 94.7913C146.684 94.769 146.093 95.3233 146.071 96.0295L145.918 100.875C145.896 101.582 146.45 102.172 147.156 102.194Z" fill="#8C8C8C" stroke="#263238" stroke-linecap="round" stroke-linejoin="round"/>
<path d="M132.478 122.693L132.33 123.81C132.33 123.81 130.99 126.489 130.468 126.935C129.946 127.382 126.673 128.794 126.078 129.017C125.484 129.24 126.525 129.922 127.94 129.986C129.355 130.049 131.959 130.061 132.852 129.838C133.745 129.614 135.455 128.347 135.83 128.275L136.131 129.24C136.131 129.24 137.769 128.637 138.364 128.498C138.958 128.359 139.927 127.593 139.927 127.593C139.589 126.554 139.192 125.534 138.738 124.54C138.463 124.041 138.111 123.589 137.694 123.2L136.581 121.873L132.478 122.693Z" fill="#263238" stroke="#263238" stroke-linecap="round" stroke-linejoin="round"/>
<path d="M141.483 80.177L139.028 81.6644L133.669 83.2273C133.669 83.2273 116.701 86.3529 115.733 87.4783C114.764 88.6037 115.129 89.5631 115.956 90.9781C116.783 92.3931 131.15 123.734 131.15 123.734L137.106 122.543L127.131 92.5319C127.131 92.5319 145.888 96.3273 149.156 95.7299C152.423 95.1326 156.599 91.6388 157.341 88.9597C158.083 86.2805 154.662 82.0204 154.662 82.0204L141.483 80.177Z" fill="#92E3A9" stroke="#263238" stroke-linecap="round" stroke-linejoin="round"/>
<path d="M122.91 89.6204C122.91 89.6204 126.661 91.4306 127.333 93.4671" stroke="#263238" stroke-linecap="round" stroke-linejoin="round"/>
<path d="M160.907 55.3194L152.87 54.5742L141.112 81.2179L148.851 82.5574L160.907 55.3194Z" fill="white" stroke="#263238" stroke-linecap="round" stroke-linejoin="round"/>
<path d="M153.018 57.0633C153.018 57.0633 141.26 80.8408 141.106 81.2179C140.952 81.595 137.61 82.5575 136.864 82.7053C136.119 82.8531 133.663 83.2273 133.663 83.2273L137.833 80.4003L140.805 72.7339L137.184 70.8845C137.184 70.8845 143.882 60.8377 145.369 57.4133C146.857 53.9889 147.442 53.0838 148.927 53.0114C150.411 52.939 154.659 53.2347 154.659 53.2347L153.018 57.0633Z" fill="#92E3A9" stroke="#263238" stroke-linecap="round" stroke-linejoin="round"/>
<path d="M151.382 62.0897L151.53 63.8034C151.53 63.8034 143.716 77.7935 143.644 78.0922C143.571 78.3909 144.247 80.4726 144.247 80.4726L147.002 78.4633L152.209 64.1021L153.624 63.2814V60.6234L151.382 62.0897Z" fill="#263238" stroke="#263238" stroke-linecap="round" stroke-linejoin="round"/>
<path d="M154.49 36.3723C154.49 36.3723 151.726 43.0642 151.114 45.0916C150.501 47.1191 150.07 50.4318 150.209 50.7999C150.348 51.168 151.114 52.4563 152.541 52.5196C153.968 52.583 155.181 52.58 155.181 52.58L153.033 57.0633C153.033 57.0633 153.277 60.5631 153.636 60.6235C153.995 60.6838 159.408 56.5112 159.532 56.3242C159.655 56.1371 163.092 48.7815 163.092 48.7815C163.092 48.7815 166.163 47.2458 166.347 45.8942C166.407 45.5161 166.365 45.1288 166.224 44.7727C166.083 44.4166 165.85 44.1047 165.548 43.8697V42.2104L166.899 38.1584C166.899 38.1584 163.523 35.95 159.776 35.0267C156.029 34.1035 155.232 34.725 155.232 34.725L154.49 36.3723Z" fill="white" stroke="#263238" stroke-linecap="round" stroke-linejoin="round"/>
<path d="M160.69 32.6281C160.69 32.6281 155.166 31.1528 152.71 33.304C150.254 35.4551 156.638 38.9036 158.726 39.2053C160.814 39.507 163.393 39.0816 162.778 39.6368C162.162 40.1919 160.814 41.0487 161.49 41.6009C161.914 41.9415 162.391 42.2106 162.902 42.3974C162.902 42.3974 160.017 48.7332 159.525 49.4573C159.034 50.1814 158.113 50.1331 157.561 49.9491C157.009 49.765 154.369 48.1087 153.509 47.8009C152.65 47.4932 151.054 46.573 150.685 47.5565C150.317 48.5401 149.394 52.7127 150.746 53.6329C152.097 54.5531 158.666 52.2209 159.649 51.5451C160.633 50.8693 160.937 49.6413 161.121 49.3969C161.306 49.1526 163.945 44.7929 164.19 44.4852C164.434 44.1774 165.541 43.8818 165.541 43.8818C165.541 43.8818 167.753 39.4588 167.937 37.7421C168.121 36.0253 162.349 32.5678 160.69 32.6281Z" fill="#263238" stroke="#263238" stroke-linecap="round" stroke-linejoin="round"/>
<path d="M154.921 41.1604L154.798 43.8758C154.798 43.8758 151.913 47.1281 151.913 47.4962C151.913 47.8643 155.35 47.4359 155.35 47.4359" stroke="#263238" stroke-linecap="round" stroke-linejoin="round"/>
<path d="M154.49 40.5479C154.385 40.3422 154.21 40.1801 153.997 40.0902C153.784 40.0002 153.546 39.9882 153.325 40.0562" stroke="#263238" stroke-linecap="round" stroke-linejoin="round"/>
<path d="M157.07 42.0806C157.07 42.0806 158.85 41.8965 159.402 43.2482" stroke="#263238" stroke-linecap="round" stroke-linejoin="round"/>
<path d="M152.269 48.8961C152.269 48.8961 153.865 49.8797 154.909 49.8797" stroke="white" stroke-linecap="round" stroke-linejoin="round"/>
<path d="M157.676 44.7416C157.507 45.0765 157.199 45.2575 156.988 45.1519C156.777 45.0463 156.741 44.6873 156.91 44.3554C157.079 44.0235 157.386 43.8395 157.598 43.9451C157.809 44.0507 157.845 44.4097 157.676 44.7416Z" fill="#263238"/>
<path d="M153.832 43.2482C153.666 43.5801 153.356 43.7641 153.144 43.6555C152.933 43.5469 152.897 43.1939 153.066 42.859C153.235 42.5241 153.543 42.3431 153.754 42.4517C153.965 42.5603 154.001 42.9133 153.832 43.2482Z" fill="#263238"/>
<path d="M127.195 120.204L126.673 123.33L125.556 123.632C125.556 123.632 124.513 124.89 124.292 125.192C124.072 125.493 121.314 127.497 120.572 127.871C119.83 128.245 117.965 128.39 118.041 128.912C118.116 129.434 122.06 129.88 124.591 129.952C127.122 130.025 128.534 129.21 128.534 129.21L128.758 129.729L131.361 129.506C131.361 129.506 131.213 127.05 131.289 126.009C131.313 125.163 131.262 124.316 131.138 123.478L130.99 121.321L127.195 120.204Z" fill="#263238" stroke="#263238" stroke-linecap="round" stroke-linejoin="round"/>
<path d="M148.109 83.6737C148.109 83.6737 126.971 86.2774 126.525 86.7994C126.078 87.3213 126.449 102.726 126.449 102.726L123.994 120.756L131.585 123.079C131.585 123.079 133.968 107.877 134.786 103.77C135.345 100.717 135.742 97.6363 135.977 94.5411C135.977 94.5411 147.662 97.2203 151.666 94.9877C155.67 92.7551 154.864 90.0005 154.864 90.0005" fill="#92E3A9"/>
<path d="M148.109 83.6737C148.109 83.6737 126.971 86.2774 126.525 86.7994C126.078 87.3213 126.449 102.726 126.449 102.726L123.994 120.756L131.585 123.079C131.585 123.079 133.968 107.877 134.786 103.77C135.345 100.717 135.742 97.6363 135.977 94.5411C135.977 94.5411 147.662 97.2203 151.666 94.9877C155.67 92.7551 154.864 90.0005 154.864 90.0005" stroke="#263238" stroke-linecap="round" stroke-linejoin="round"/>
<path d="M126.854 102.123C126.854 102.123 127.816 97.7965 128.006 95.4855" stroke="#263238" stroke-linecap="round" stroke-linejoin="round"/>
<path d="M134.405 92.0521C134.176 91.7453 133.901 91.4765 133.588 91.2556" stroke="#263238" stroke-linecap="round" stroke-linejoin="round"/>
<path d="M135.977 94.5411C135.977 94.5411 135.549 93.7024 134.988 92.8546" stroke="#263238" stroke-linecap="round" stroke-linejoin="round"/>
<path d="M160.612 53.9044C160.612 53.9044 152.2 69.3759 150.414 73.3282C148.628 77.2806 146.235 82.7807 146.235 83.375C146.235 83.9694 144.673 99.2297 145.194 99.5254C145.716 99.821 153.528 97.2927 157.175 95.8807C160.823 94.4688 160.971 93.4249 161.269 92.6042C161.568 91.7836 161.493 81.2178 161.493 81.2178C161.493 81.2178 169.084 59.6338 169.008 58.6684C168.933 57.7029 160.612 53.9044 160.612 53.9044Z" fill="#92E3A9" stroke="#263238" stroke-linecap="round" stroke-linejoin="round"/>
<path d="M154.218 69.5569C152.84 70.9085 151.681 71.9162 151.681 71.9162" stroke="#263238" stroke-linecap="round" stroke-linejoin="round"/>
<path d="M163.291 55.6151C163.291 55.6151 159.794 62.4638 158.005 65.2184C157.122 66.4808 156.126 67.6603 155.03 68.7423" stroke="#263238" stroke-linecap="round" stroke-linejoin="round"/>
<path d="M152.104 54.179C152.104 54.179 148.483 60.2312 147.439 63.8034C146.395 67.3756 146.172 69.2341 146.172 69.2341" stroke="#263238" stroke-linecap="round" stroke-linejoin="round"/>
<path d="M150.191 62.8349L153.63 60.6234L153.763 65.8128" stroke="#263238" stroke-linecap="round" stroke-linejoin="round"/>
<path d="M157.528 86.0874L158.678 85.9064" stroke="#263238" stroke-linecap="round" stroke-linejoin="round"/>
<path d="M158.304 84.5668L150.191 85.5352V87.2459L155.983 86.3318" stroke="#263238" stroke-linecap="round" stroke-linejoin="round"/>
<path d="M146.993 56.5081C146.993 56.5081 148.332 53.6811 149.002 53.6057C149.672 53.5303 151.159 53.6057 151.159 54.2091C151.159 54.8125 150.342 54.8789 150.342 54.8789H149.225L148.703 56.2185L146.993 56.5081Z" fill="white" stroke="#263238" stroke-linecap="round" stroke-linejoin="round"/>
<path d="M145.131 61.8665L145.653 58.9641C145.653 58.9641 145.876 56.4358 146.256 56.2849C146.637 56.1341 150.052 56.2125 150.052 56.2125C150.052 56.2125 150.127 59.1873 149.829 59.9326C149.53 60.6778 148.19 60.9734 148.19 60.9734C148.067 61.4376 147.893 61.8868 147.671 62.313C147.448 62.6147 146.628 62.9828 146.628 62.9828L146.404 63.5862L144.47 62.3191L145.131 61.8665Z" fill="white" stroke="#263238" stroke-linecap="round" stroke-linejoin="round"/>
<path d="M148.181 60.9764L147.81 59.5614L149.225 59.486" fill="white"/>
<path d="M148.181 60.9764L147.81 59.5614L149.225 59.486" stroke="#263238" stroke-linecap="round" stroke-linejoin="round"/>
<path d="M144.386 61.6462L147.439 63.8034L146.247 65.0676L143.644 62.6871L144.386 61.6462Z" fill="white" stroke="#263238" stroke-linecap="round" stroke-linejoin="round"/>
<path d="M143.644 62.6871L147.14 65.2909L140.443 75.4885C139.65 75.6569 138.827 75.6047 138.062 75.3377C136.795 74.8911 135.606 72.3628 135.606 72.0642C135.606 71.7655 143.644 62.6871 143.644 62.6871Z" fill="#92E3A9" stroke="#263238" stroke-linecap="round" stroke-linejoin="round"/>
<path d="M140.965 74.5199C140.965 74.5199 139.848 72.4352 139.773 71.8408C139.697 71.2464 139.625 70.0547 139.251 69.6082C138.877 69.1616 138.433 68.863 138.285 68.1932C138.138 67.5234 137.465 67.8221 137.38 68.4949C137.296 69.1677 137.899 69.8345 137.899 69.8345C137.899 69.8345 136.041 69.231 135.742 69.3879C135.443 69.5448 134.837 69.759 134.997 70.2931C135.096 70.6206 135.222 70.9395 135.374 71.2464C135.374 71.2464 134.185 72.8093 134.185 73.5515C134.185 74.2937 135.003 75.4884 135.6 75.9349C136.198 76.3815 138.279 76.8401 138.279 76.8401L140.965 74.5199Z" fill="white" stroke="#263238" stroke-linecap="round" stroke-linejoin="round"/>
<path d="M162.437 59.2054L155.7 73.1805L139.251 74.0856C138.836 74.1861 138.457 74.3989 138.155 74.7007C137.854 75.0024 137.641 75.3815 137.54 75.7962C137.367 76.4771 137.292 77.179 137.317 77.881C137.317 77.881 148.257 79.2206 151.681 79.4439C155.105 79.6671 159.272 80.1137 159.794 79.5917C160.316 79.0697 166.492 66.2714 166.492 66.2714" fill="#92E3A9"/>
<path d="M162.437 59.2054L155.7 73.1805L139.251 74.0856C138.836 74.1861 138.457 74.3989 138.155 74.7007C137.854 75.0024 137.641 75.3815 137.54 75.7962C137.367 76.4771 137.292 77.179 137.317 77.881C137.317 77.881 148.257 79.2206 151.681 79.4439C155.105 79.6671 159.272 80.1137 159.794 79.5917C160.316 79.0698 166.492 66.2714 166.492 66.2714" stroke="#263238" stroke-linecap="round" stroke-linejoin="round"/>
<path d="M63.9813 100.304H62.2616V116.874H63.9813V100.304Z" fill="#263238" stroke="#263238" stroke-linecap="round" stroke-linejoin="round"/>
<path d="M53.5024 84.4284L50.4698 84.7831L52.3944 101.241L55.427 100.886L53.5024 84.4284Z" fill="#263238" stroke="#263238" stroke-linecap="round" stroke-linejoin="round"/>
<path d="M65.3058 117.549V114.756H60.9401V117.574L43.4774 124.582V127.889H44.6691V125.376L63.1848 121.161L81.2117 125.376V127.889H82.3703V124.582L65.3058 117.549Z" fill="#8C8C8C" stroke="#263238" stroke-linecap="round" stroke-linejoin="round"/>
<path d="M67.4207 100.304H58.8221V105.596H67.4207V100.304Z" fill="#263238" stroke="#263238" stroke-linecap="round" stroke-linejoin="round"/>
<path d="M43.4773 128.022C43.4773 127.655 43.3687 127.297 43.1652 126.992C42.9616 126.688 42.6723 126.45 42.3338 126.31C41.9953 126.17 41.6228 126.133 41.2635 126.205C40.9041 126.276 40.574 126.453 40.315 126.712C40.0559 126.971 39.8795 127.301 39.808 127.66C39.7365 128.02 39.7732 128.392 39.9134 128.731C40.0536 129.069 40.2911 129.358 40.5957 129.562C40.9003 129.765 41.2585 129.874 41.6249 129.874C42.1162 129.874 42.5874 129.679 42.9348 129.332C43.2822 128.984 43.4773 128.513 43.4773 128.022Z" fill="#263238" stroke="#263238" stroke-linecap="round" stroke-linejoin="round"/>
<path d="M42.4183 128.022C42.4183 127.865 42.3718 127.711 42.2846 127.581C42.1974 127.45 42.0735 127.349 41.9285 127.289C41.7835 127.228 41.624 127.213 41.47 127.243C41.3161 127.274 41.1747 127.35 41.0638 127.461C40.9528 127.572 40.8772 127.713 40.8466 127.867C40.816 128.021 40.8317 128.18 40.8918 128.325C40.9518 128.47 41.0535 128.594 41.184 128.681C41.3145 128.769 41.4679 128.815 41.6248 128.815C41.8353 128.815 42.0371 128.732 42.1859 128.583C42.3347 128.434 42.4183 128.232 42.4183 128.022Z" fill="white" stroke="#263238" stroke-linecap="round" stroke-linejoin="round"/>
<path d="M86.1959 128.022C86.1959 127.655 86.0872 127.297 85.8837 126.992C85.6801 126.688 85.3908 126.45 85.0523 126.31C84.7138 126.17 84.3414 126.133 83.982 126.205C83.6227 126.276 83.2926 126.453 83.0335 126.712C82.7744 126.971 82.598 127.301 82.5265 127.66C82.4551 128.02 82.4917 128.392 82.6319 128.731C82.7722 129.069 83.0096 129.358 83.3142 129.562C83.6189 129.765 83.977 129.874 84.3434 129.874C84.8347 129.874 85.3059 129.679 85.6533 129.332C86.0007 128.984 86.1959 128.513 86.1959 128.022Z" fill="#263238" stroke="#263238" stroke-linecap="round" stroke-linejoin="round"/>
<path d="M84.3555 128.815C84.7937 128.815 85.149 128.46 85.149 128.022C85.149 127.583 84.7937 127.228 84.3555 127.228C83.9172 127.228 83.562 127.583 83.562 128.022C83.562 128.46 83.9172 128.815 84.3555 128.815Z" fill="white" stroke="#263238" stroke-linecap="round" stroke-linejoin="round"/>
<path d="M63.9149 127.985H62.4607L61.7336 118.062H64.645L63.9149 127.985Z" fill="#8C8C8C" stroke="#263238" stroke-linecap="round" stroke-linejoin="round"/>
<path d="M63.8485 125.867H62.3943V129.968H63.8485V125.867Z" fill="#263238" stroke="#263238" stroke-linecap="round" stroke-linejoin="round"/>
<path d="M51.6687 92.6859C50.8202 92.7679 49.9638 92.6819 49.1485 92.4328C48.3333 92.1838 47.5751 91.7766 46.9172 91.2344C46.2594 90.6923 45.7148 90.0259 45.3145 89.2732C44.9143 88.5205 44.6663 87.6964 44.5846 86.8479L42.5541 65.7285C42.4721 64.8799 42.5581 64.0236 42.8072 63.2083C43.0562 62.3931 43.4634 61.6348 44.0056 60.977C44.5477 60.3191 45.2141 59.7745 45.9668 59.3743C46.7195 58.9741 47.5436 58.726 48.3921 58.6444C50.1059 58.4805 51.8147 59.0036 53.143 60.0988C54.4713 61.1941 55.3105 62.7718 55.4762 64.4854L57.5067 85.6048C57.6714 87.318 57.1489 89.0264 56.0541 90.3544C54.9593 91.6823 53.3818 92.5209 51.6687 92.6859Z" fill="#8C8C8C" stroke="#263238" stroke-linecap="round" stroke-linejoin="round"/>
<path d="M53.2074 92.538C51.4939 92.7028 49.7851 92.1804 48.4567 91.0856C47.1283 89.9909 46.289 88.4134 46.1233 86.7L44.0928 65.5806C43.9331 63.8701 44.4579 62.166 45.5521 60.8416C46.6464 59.5172 48.2209 58.6805 49.9308 58.5147C51.6448 58.3499 53.354 58.8728 54.6825 59.9681C56.011 61.0635 56.85 62.6418 57.0149 64.3557L59.0424 85.454C59.2072 87.167 58.6851 88.8753 57.591 90.2037C56.4969 91.532 54.9202 92.3716 53.2074 92.538Z" fill="#8C8C8C" stroke="#263238" stroke-linecap="round" stroke-linejoin="round"/>
<path d="M82.497 101.96L51.1708 102.757C51.0028 102.762 50.8354 102.734 50.6782 102.675C50.521 102.615 50.3771 102.525 50.2546 102.41C50.1322 102.295 50.0336 102.157 49.9646 102.003C49.8956 101.85 49.8575 101.685 49.8524 101.517L49.6895 96.6713C49.6789 96.3325 49.8032 96.0034 50.0352 95.7562C50.2671 95.509 50.5877 95.3639 50.9265 95.3529L82.2737 94.5564C82.4416 94.5507 82.6089 94.5783 82.7661 94.6375C82.9233 94.6966 83.0672 94.7862 83.1897 94.9012C83.3122 95.0161 83.4108 95.1541 83.4799 95.3072C83.5489 95.4603 83.5871 95.6255 83.5922 95.7934L83.746 100.642C83.7512 100.811 83.723 100.979 83.6629 101.136C83.6029 101.294 83.5122 101.439 83.3961 101.561C83.2799 101.684 83.1407 101.782 82.9864 101.851C82.8321 101.919 82.6657 101.956 82.497 101.96Z" fill="#8C8C8C" stroke="#263238" stroke-linecap="round" stroke-linejoin="round"/>
<path d="M68.564 94.7944L50.9411 95.3513C50.2349 95.3736 49.6806 95.9642 49.7029 96.6703L49.856 101.516C49.8783 102.222 50.4689 102.777 51.175 102.754L68.7979 102.198C69.5041 102.175 70.0584 101.585 70.0361 100.879L69.883 96.0326C69.8606 95.3265 69.2701 94.7721 68.564 94.7944Z" fill="#8C8C8C" stroke="#263238" stroke-linecap="round" stroke-linejoin="round"/>
<path d="M86.4976 92.0914C86.4976 92.0914 86.7661 97.2687 87.4781 101.906C88.1902 106.543 89.3698 120.612 89.3698 120.612C89.7408 122.024 90.246 123.398 90.8784 124.715C91.3005 125.589 91.8406 126.401 92.4834 127.129C92.4834 127.129 94.8036 129.449 94.713 129.805C94.6225 130.161 93.1683 130.124 91.7412 129.856C90.3142 129.587 90.0215 129.253 89.219 128.712C88.4164 128.172 86.5911 127.482 85.7886 127.204C84.986 126.926 84.7205 126.226 84.9891 125.424C85.2576 124.621 86.1506 122.748 86.1506 121.589C86.1506 120.431 85.4356 114.934 83.4805 111.274C81.5255 107.614 80.3579 101.281 80.3579 101.281L86.4976 92.0914Z" fill="white" stroke="#263238" stroke-linecap="round" stroke-linejoin="round"/>
<path d="M86.9713 125.692C86.4041 125.252 85.8731 124.787 85.4205 124.35C85.2515 124.781 85.0947 125.161 85.0072 125.424C84.7386 126.226 85.0072 126.932 85.8067 127.204C86.6062 127.476 88.4345 128.169 89.2371 128.713C90.0396 129.256 90.3323 129.587 91.7593 129.856C93.1864 130.125 94.6436 130.158 94.7311 129.805C94.8186 129.452 92.5015 127.129 92.5015 127.129L91.343 127.666C91.343 127.666 88.5763 126.942 86.9713 125.692Z" fill="#92E3A9" stroke="#263238" stroke-linecap="round" stroke-linejoin="round"/>
<path d="M52.2721 81.4594C52.2721 81.4594 51.4695 84.6032 51.907 86.5884C52.3445 88.5736 55.3434 93.1656 60.5328 94.2638C65.7221 95.362 78.7649 95.003 78.7649 95.003C78.7649 95.003 75.6211 99.779 74.4505 105.53C73.6781 109.337 71.3097 114.665 70.9446 115.471C70.5796 116.276 66.2652 117.737 66.4191 118.394C66.5729 119.052 67.0768 123.143 68.172 124.827C69.2672 126.51 71.0955 127.24 71.8256 127.457C72.5557 127.675 72.7036 127.675 72.7036 126.945C72.7036 126.214 72.1907 125.192 72.1907 124.531C72.1907 123.87 72.1183 119.402 72.4109 118.829C72.7036 118.255 82.2737 103.167 83.7339 100.693C85.1942 98.2192 87.463 93.3828 88.1208 92.5803C88.7785 91.7778 89.581 90.6796 88.9233 89.2917C88.2656 87.9039 73.1652 83.2576 73.1652 83.2576L72.3717 80.4487L64.8291 80.0112L52.2721 81.4594Z" fill="white" stroke="#263238" stroke-linecap="round" stroke-linejoin="round"/>
<path d="M73.1652 83.2545L72.3717 80.4457L64.8291 80.0082L52.257 81.4684C52.257 81.4684 51.4364 84.6152 51.8919 86.5974C52.616 89.7322 55.3284 93.1746 60.5177 94.2728C65.707 95.371 78.7498 95.012 78.7498 95.012C78.7498 95.012 79.9868 88.8301 82.4034 86.4194C79.501 85.4298 73.1652 83.2545 73.1652 83.2545Z" fill="#263238" stroke="#263238" stroke-linecap="round" stroke-linejoin="round"/>
<path d="M78.7649 94.9908C80.5055 94.5298 82.1947 93.893 83.8064 93.0901L78.7649 94.9908Z" fill="white"/>
<path d="M78.7649 94.9908C80.5055 94.5298 82.1947 93.893 83.8064 93.0901" stroke="#263238" stroke-linecap="round" stroke-linejoin="round"/>
<path d="M68.8961 121.891C68.3771 120.684 68.4103 118.271 68.4767 116.979C67.3725 117.525 66.3376 118.053 66.413 118.382C66.5579 119.04 67.0708 123.131 68.1659 124.815C69.2611 126.498 71.0895 127.228 71.8196 127.445C72.5497 127.663 72.6976 127.663 72.6976 126.933C72.6976 126.202 72.1877 125.183 72.1847 124.519C71.4204 124.422 70.6634 124.273 69.9189 124.075C69.9189 124.075 69.6262 123.572 68.8961 121.891Z" fill="#92E3A9" stroke="#263238" stroke-linecap="round" stroke-linejoin="round"/>
<path d="M67.8401 52.5167L65.5743 53.4671C65.5743 53.4671 67.4026 70.5829 67.3302 72.9965C67.2578 75.4102 67.11 80.2375 67.11 80.2375C67.11 80.2375 70.2537 81.1878 72.3717 80.4577L72.2269 72.2C72.2269 72.2 73.7626 64.3044 73.1773 61.7459C72.592 59.1874 70.7636 54.6558 70.7636 54.6558C70.7636 54.6558 69.9038 52.5891 67.8401 52.5167Z" fill="white" stroke="#263238" stroke-linecap="round" stroke-linejoin="round"/>
<path d="M67.1884 59.8995L69.3848 56.5536L72.0851 60.4757C72.0851 60.4757 70.9175 54.9937 70.7697 54.6287C70.4195 53.9406 69.89 53.36 69.237 52.9482C68.359 52.3629 67.3332 52.3448 66.7509 52.2905C66.1687 52.2361 65.5803 53.4611 65.5803 53.4611L67.1884 59.8995Z" fill="white" stroke="#263238" stroke-linecap="round" stroke-linejoin="round"/>
<path d="M66.1626 52.2482C66.1626 52.2482 58.8161 53.8563 58.1855 54.3149C57.5549 54.7734 57.2804 56.2669 57.4373 56.8401C57.5942 57.4134 59.2747 69.8135 59.2747 69.8135L50.8269 82.1533C50.8269 82.1533 53.5845 84.4492 56.1671 84.9078C58.7497 85.3664 64.2588 84.6785 66.2109 83.876L68.1629 83.0735C68.1629 83.0735 69.068 68.0907 68.1056 62.1773C67.1432 56.2639 66.1626 52.2482 66.1626 52.2482Z" fill="#92E3A9" stroke="#263238" stroke-linecap="round" stroke-linejoin="round"/>
<path d="M88.7212 71.3039L91.5904 70.0428C91.5904 70.0428 92.4533 68.1481 92.5679 67.9761C92.6826 67.8041 93.6571 67.5175 94.1157 67.1132C94.5743 66.709 95.2078 66.0241 95.3798 65.9668C95.5518 65.9094 95.8384 66.4253 95.3798 67.1132C95.0323 67.6008 94.627 68.0445 94.173 68.4347L96.9879 67.4029C96.9879 67.4029 98.0771 65.5655 98.3637 66.368C98.6503 67.1706 97.1569 69.6415 96.8159 70.4441C96.475 71.2466 96.125 71.6509 95.4945 71.7655C94.8639 71.8802 92.9119 72.2241 92.5106 72.2815C92.1093 72.3388 89.6383 73.7719 89.6383 73.7719L88.7212 71.3039Z" fill="white" stroke="#263238" stroke-linecap="round" stroke-linejoin="round"/>
<path d="M92.7037 70.7307C93.2136 70.2993 93.8019 69.8708 94.1157 69.8708C94.7492 69.8708 96.125 69.9855 96.125 69.9855C96.125 69.9855 96.9306 68.1481 97.3318 67.8735C97.7331 67.599 98.0771 67.9882 97.7331 68.5614" fill="white"/>
<path d="M92.7037 70.7307C93.2136 70.2993 93.8019 69.8708 94.1157 69.8708C94.7492 69.8708 96.125 69.9855 96.125 69.9855C96.125 69.9855 96.9306 68.1481 97.3318 67.8735C97.7331 67.599 98.0771 67.9882 97.7331 68.5614" stroke="#263238" stroke-linecap="round" stroke-linejoin="round"/>
<path d="M70.0094 53.627C70.0094 53.627 71.8468 61.6041 71.7894 64.5879C71.7321 67.5718 70.8089 69.0743 70.9839 70.1001C71.1589 71.1259 71.5571 83.1881 71.5571 83.1881L73.1652 83.2454C73.1652 83.2454 72.7639 78.6535 72.8213 77.7906C72.8786 76.9277 73.4518 73.4852 73.4518 73.4852C73.4518 73.4852 76.3241 79.1694 76.7253 79.456C77.1266 79.7426 90.4439 74.0615 90.4439 74.0615L89.4664 70.788L79.3079 72.8547C79.3079 72.8547 77.2986 66.196 77.012 64.7599C76.7253 63.3238 76.496 58.2762 75.6905 57.0121C74.8849 55.7479 70.0094 53.627 70.0094 53.627Z" fill="#92E3A9" stroke="#263238" stroke-linecap="round" stroke-linejoin="round"/>
<path d="M73.4518 73.4853C73.4518 73.4853 73.7958 72.0522 74.372 68.2627C74.7183 66.0004 74.7376 63.7 74.4293 61.4321" stroke="#263238" stroke-linecap="round" stroke-linejoin="round"/>
<path d="M72.8243 58.0952C73.0988 60.1619 73.304 62.7143 72.9359 64.1293C72.5158 65.7355 71.9784 67.3086 71.3278 68.8359" stroke="#263238" stroke-linecap="round" stroke-linejoin="round"/>
<path d="M72.3174 54.8942C72.3174 54.8942 72.4894 55.7601 72.6795 57.0061" stroke="#263238" stroke-linecap="round" stroke-linejoin="round"/>
<path d="M66.8264 66.0573C67.5716 67.9037 68.2293 69.7049 68.2293 69.7049" stroke="#263238" stroke-linecap="round" stroke-linejoin="round"/>
<path d="M63.3507 53.1654C63.3507 53.1654 64.6692 61.2602 65.704 63.4415C65.9152 63.885 66.1445 64.41 66.3768 64.95" stroke="#263238" stroke-linecap="round" stroke-linejoin="round"/>
<path d="M79.6519 69.5842L81.8905 68.9506C81.8905 68.9506 83.3267 67.1132 83.6706 66.6546C84.0146 66.196 84.8171 66.196 85.3933 65.8521C85.9696 65.5081 86.7118 64.244 86.9984 64.4733C87.285 64.7026 86.9984 65.7374 86.6967 66.0241C86.3123 66.335 85.9093 66.6222 85.4899 66.8839C85.2606 67.0559 88.1871 66.368 88.1871 66.368C88.1871 66.368 90.0819 64.7026 90.1965 65.1612C90.3112 65.6198 89.3336 67.2279 89.3336 67.2279C89.3336 67.2279 87.9578 68.5463 87.2669 69.1196C86.576 69.6928 84.9136 69.9251 84.455 70.0247C83.9965 70.1242 83.1939 70.254 83.1939 70.254L79.7484 71.5151L79.6519 69.5842Z" fill="white" stroke="#263238" stroke-linecap="round" stroke-linejoin="round"/>
<path d="M88.8931 67.5658C88.8931 67.5658 87.6863 68.139 87.0557 68.4257L88.8931 67.5658Z" fill="white"/>
<path d="M88.8931 67.5658C88.8931 67.5658 87.6863 68.139 87.0557 68.4257" stroke="#263238" stroke-linecap="round" stroke-linejoin="round"/>
<path d="M85.508 66.8839L84.4731 67.1132" stroke="#263238" stroke-linecap="round" stroke-linejoin="round"/>
<path d="M59.4466 53.8563C59.4466 53.8563 56.0615 55.0028 55.5425 55.8657C55.0236 56.7286 56.864 63.7855 58.2428 67.6895C59.6216 71.5936 63.2934 78.1346 63.752 78.3639C64.2106 78.5932 76.2094 74.3482 78.9549 73.4853C81.7004 72.6224 82.1681 72.1669 82.1681 72.1669L80.9613 69.0653L67.1884 71.5333L62.9645 58.2763" fill="#92E3A9"/>
<path d="M59.4466 53.8563C59.4466 53.8563 56.0615 55.0028 55.5425 55.8657C55.0236 56.7286 56.864 63.7855 58.2428 67.6895C59.6216 71.5936 63.2934 78.1346 63.752 78.3639C64.2106 78.5932 76.2094 74.3482 78.9549 73.4853C81.7004 72.6224 82.1681 72.1669 82.1681 72.1669L80.9613 69.0653L67.1884 71.5333L62.9645 58.2763" stroke="#263238" stroke-linecap="round" stroke-linejoin="round"/>
<path d="M76.0797 36.3755C76.0797 36.3755 77.4193 37.2806 76.7404 38.2551C76.0616 39.2297 74.6285 39.296 74.6285 39.296L73.3764 37.3229C73.3764 37.3229 74.8668 35.5549 76.0797 36.3755Z" fill="#263238" stroke="#263238" stroke-linecap="round" stroke-linejoin="round"/>
<path d="M74.6737 37.5521C74.6737 37.5521 76.7283 42.4277 76.6137 42.847C76.499 43.2664 75.5426 43.9211 75.9771 44.5577C76.4115 45.1943 77.6847 46.4675 77.6516 46.6455C77.6184 46.8235 76.0616 47.7316 76.0616 47.7316C76.0616 47.7316 74.9724 51.6538 74.5289 52.2271C74.0854 52.8003 70.3412 52.1034 70.3412 52.1034L69.5507 56.4962L65.1036 52.3508L63.4412 50.7819C63.4412 50.7819 61.9508 44.0901 65.1127 40.0683C68.2745 36.0466 74.6737 37.5521 74.6737 37.5521Z" fill="white" stroke="#263238" stroke-linecap="round" stroke-linejoin="round"/>
<path d="M74.3901 44.422C74.3901 44.8323 74.2212 45.1642 74.0311 45.1612C73.841 45.1582 73.6932 44.8203 73.7022 44.4069C73.7113 43.9936 73.8682 43.6647 74.0582 43.6677C74.2483 43.6708 74.3962 44.0087 74.3901 44.422Z" fill="#263238"/>
<path d="M74.3992 48.7122C74.0437 48.6954 73.6954 48.6065 73.3754 48.4509C73.0554 48.2953 72.7704 48.0763 72.5376 47.8071C72.5376 47.8071 72.426 49.5721 72.9751 49.6747C73.5242 49.7773 74.3992 48.7122 74.3992 48.7122Z" fill="#263238" stroke="#263238" stroke-linecap="round" stroke-linejoin="round"/>
<path d="M73.2437 42.7867C73.2437 42.7867 74.3871 41.8182 75.4099 42.9526" stroke="#263238" stroke-linecap="round" stroke-linejoin="round"/>
<path d="M70.3412 52.1034L68.4857 51.6599L69.8826 54.2516L70.3412 52.1034Z" fill="#263238" stroke="#263238" stroke-linecap="round" stroke-linejoin="round"/>
<path d="M74.6737 37.5521C74.6737 37.5521 74.2694 38.8223 72.2933 40.4817C70.3171 42.1411 68.5491 43.197 68.5551 43.6556C68.5612 44.1142 68.8568 44.5426 68.4586 44.6543C68.1339 44.6957 67.8043 44.6401 67.5112 44.4944C67.5112 44.4944 66.5518 47.2308 66.407 49.1618C66.3482 50.4362 66.542 51.7097 66.9772 52.9089C66.9772 52.9089 62.7201 53.1382 60.2643 51.2737C57.8084 49.4092 57.1175 47.2972 57.389 45.4659C57.6605 43.6345 58.4389 37.8508 62.2163 35.0178C65.9937 32.1848 71.4063 32.3024 73.2436 33.458C75.081 34.6135 76.4116 35.4613 76.0736 36.3755C75.7357 37.2896 74.6737 37.5521 74.6737 37.5521Z" fill="#263238" stroke="#263238" stroke-linecap="round" stroke-linejoin="round"/>
<path d="M65.7523 95.1749C65.6396 95.1755 65.5282 95.1508 65.4264 95.1025C65.2111 94.985 65.046 94.793 64.9622 94.5625C64.8783 94.332 64.8814 94.0788 64.9708 93.8504C66.3346 90.1274 67.8974 83.4869 66.2953 81.5046C65.9212 81.2029 63.6675 80.5995 51.5268 81.8546L50.6428 81.9451C49.795 82.0175 49.0709 83.2425 48.8839 83.6649C48.844 83.7727 48.7815 83.8707 48.7006 83.9524C48.6197 84.0341 48.5222 84.0975 48.4147 84.1383C48.3073 84.1792 48.1923 84.1966 48.0775 84.1894C47.9628 84.1821 47.8509 84.1504 47.7495 84.0963C47.5418 83.9632 47.389 83.7596 47.3192 83.523C47.2494 83.2864 47.2672 83.0326 47.3693 82.808C47.487 82.5425 48.5761 80.2013 50.5131 80.0323L51.373 79.9448C64.3101 78.5992 66.7901 79.2781 67.5444 80.2073C70.3925 83.7312 66.941 93.4824 66.5337 94.5836C66.4807 94.7509 66.377 94.8977 66.2371 95.0036C66.0971 95.1095 65.9277 95.1694 65.7523 95.1749Z" fill="white" stroke="#263238" stroke-linecap="round" stroke-linejoin="round"/>
<path d="M119.088 66.8235H99.2628L94.6768 82.3583H114.502L119.088 66.8235Z" fill="#D9D9D9" stroke="#263238" stroke-linecap="round" stroke-linejoin="round"/>
<path d="M80.1738 81.5074L79.9234 82.3583H114.502L114.755 81.5074H80.1738Z" fill="#D9D9D9" stroke="#263238" stroke-linecap="round" stroke-linejoin="round"/>
<path d="M94.9635 81.5074L94.713 82.3583H114.502L114.755 81.5074H94.9635Z" fill="#263238" stroke="#263238" stroke-linecap="round" stroke-linejoin="round"/>
<path d="M114.218 84.6906H110.863V129.548H114.218V84.6906Z" fill="white" stroke="#263238" stroke-linecap="round" stroke-linejoin="round"/>
<path d="M114.218 84.6906H110.863V92.1004H114.218V84.6906Z" fill="#263238" stroke="#263238" stroke-linecap="round" stroke-linejoin="round"/>
<path d="M154.976 82.3674H69.8042V84.8595H154.976V82.3674Z" fill="white" stroke="#263238" stroke-linecap="round" stroke-linejoin="round"/>
<path d="M130.046 129.913H94.7462C98.2384 128.271 102.05 127.42 105.909 127.421H118.922C122.781 127.419 126.593 128.27 130.085 129.913H130.046Z" fill="white" stroke="#263238" stroke-linecap="round" stroke-linejoin="round"/>
</svg>
