<svg width="216" height="141" viewBox="0 0 216 141" fill="none" xmlns="http://www.w3.org/2000/svg">
<path d="M211.79 96.6767C216.906 58.7804 191.255 23.5419 153.745 16.1088C148.381 15.0469 142.445 14.1507 135.905 13.5032C98.1561 9.82034 69.6142 45.1141 43.5275 55.2419C17.4409 65.3696 5.47169 64.142 3.01647 96.6736C0.561256 129.205 30.3308 139.333 64.09 132.888C97.8492 126.443 95.394 109.564 134.064 123.374C172.733 137.185 190.227 140.254 204.037 119.077C208.006 112.992 210.633 105.255 211.79 96.6767Z" fill="#92E3A9"/>
<path opacity="0.7" d="M211.79 96.6767C216.906 58.7804 191.255 23.5419 153.745 16.1088C148.381 15.0469 142.445 14.1507 135.905 13.5032C98.1561 9.82034 69.6142 45.1141 43.5275 55.2419C17.4409 65.3696 5.47169 64.142 3.01647 96.6736C0.561256 129.205 30.3308 139.333 64.09 132.888C97.8492 126.443 95.394 109.564 134.064 123.374C172.733 137.185 190.227 140.254 204.037 119.077C208.006 112.992 210.633 105.255 211.79 96.6767Z" fill="white"/>
<path d="M200.017 95.1207L203.362 127.171" stroke="#263238" stroke-miterlimit="10"/>
<path d="M202.825 121.036L201.309 119.437" stroke="#263238" stroke-miterlimit="10"/>
<path d="M201.782 119.915C201.777 119.67 201.72 119.428 201.615 119.206C201.509 118.984 201.356 118.787 201.168 118.629C200.778 118.283 198.731 117.42 198.535 118.142C198.323 118.927 200.419 120.468 201.782 119.915Z" fill="#92E3A9" stroke="#263238" stroke-miterlimit="10"/>
<path d="M201.769 119.915L199.817 118.7" stroke="#263238" stroke-width="0.5" stroke-miterlimit="10"/>
<path d="M203.206 124.681L201.686 123.079" stroke="#263238" stroke-miterlimit="10"/>
<path d="M202.15 123.561C202.146 123.315 202.088 123.073 201.983 122.85C201.877 122.628 201.724 122.431 201.536 122.272C201.146 121.926 199.099 121.063 198.903 121.784C198.713 122.57 200.8 124.111 202.15 123.561Z" fill="#92E3A9" stroke="#263238" stroke-miterlimit="10"/>
<path d="M202.15 123.561L200.198 122.346" stroke="#263238" stroke-width="0.5" stroke-miterlimit="10"/>
<path d="M201.895 112.142L200.379 110.543" stroke="#263238" stroke-miterlimit="10"/>
<path d="M200.839 111.021C200.835 110.776 200.778 110.534 200.672 110.312C200.566 110.09 200.414 109.893 200.226 109.735C199.836 109.389 197.77 108.526 197.592 109.247C197.393 110.033 199.489 111.574 200.839 111.021Z" fill="#92E3A9" stroke="#263238" stroke-miterlimit="10"/>
<path d="M200.839 111.021L198.891 109.806" stroke="#263238" stroke-width="0.5" stroke-miterlimit="10"/>
<path d="M202.276 115.788L200.76 114.186" stroke="#263238" stroke-miterlimit="10"/>
<path d="M201.22 114.667C201.215 114.421 201.158 114.179 201.052 113.956C200.947 113.734 200.794 113.537 200.606 113.378C200.216 113.032 198.151 112.169 197.973 112.893C197.773 113.676 199.87 115.217 201.22 114.667Z" fill="#92E3A9" stroke="#263238" stroke-miterlimit="10"/>
<path d="M201.22 114.667L199.271 113.452" stroke="#263238" stroke-width="0.5" stroke-miterlimit="10"/>
<path d="M201.278 106.221L199.762 104.619" stroke="#263238" stroke-miterlimit="10"/>
<path d="M200.223 105.101C200.218 104.855 200.161 104.613 200.055 104.392C199.95 104.17 199.797 103.973 199.609 103.815C199.219 103.465 197.172 102.606 196.979 103.327C196.776 104.11 198.872 105.651 200.223 105.101Z" fill="#92E3A9" stroke="#263238" stroke-miterlimit="10"/>
<path d="M200.223 105.101L198.274 103.886" stroke="#263238" stroke-width="0.5" stroke-miterlimit="10"/>
<path d="M200.658 100.277L199.142 98.6747" stroke="#263238" stroke-width="2" stroke-miterlimit="10"/>
<path d="M199.603 99.1626C199.598 98.9168 199.541 98.6747 199.436 98.4529C199.33 98.231 199.177 98.0345 198.989 97.8767C198.599 97.5299 196.552 96.6675 196.356 97.3887C196.156 98.1652 198.252 99.7058 199.603 99.1626Z" fill="#92E3A9" stroke="#263238" stroke-miterlimit="10"/>
<path d="M199.603 99.1534L197.651 97.9381" stroke="#263238" stroke-width="0.5" stroke-miterlimit="10"/>
<path d="M202.57 118.881L203.721 117" stroke="#263238" stroke-width="2" stroke-miterlimit="10"/>
<path d="M203.371 117.577C203.323 117.336 203.328 117.088 203.384 116.849C203.44 116.611 203.547 116.387 203.697 116.193C204.004 115.772 205.845 114.508 206.17 115.174C206.539 115.886 204.805 117.825 203.371 117.577Z" fill="#92E3A9" stroke="#263238" stroke-miterlimit="10"/>
<path d="M203.371 117.564L205.127 115.886" stroke="#263238" stroke-width="0.5" stroke-miterlimit="10"/>
<path d="M201.567 109.29L202.721 107.409" stroke="#263238" stroke-miterlimit="10"/>
<path d="M202.368 107.974C202.322 107.733 202.328 107.484 202.386 107.246C202.443 107.007 202.551 106.783 202.702 106.59C203.009 106.169 204.851 104.905 205.179 105.571C205.538 106.295 203.804 108.235 202.368 107.974Z" fill="#92E3A9" stroke="#263238" stroke-miterlimit="10"/>
<path d="M202.368 107.974L204.126 106.295" stroke="#263238" stroke-width="0.5" stroke-miterlimit="10"/>
<path d="M201.128 105.074L202.282 103.195" stroke="#263238" stroke-miterlimit="10"/>
<path d="M201.929 103.766C201.882 103.526 201.886 103.279 201.942 103.041C201.999 102.802 202.105 102.579 202.254 102.385C202.561 101.965 204.403 100.697 204.728 101.363C205.096 102.078 203.365 104.018 201.929 103.766Z" fill="#92E3A9" stroke="#263238" stroke-miterlimit="10"/>
<path d="M201.929 103.757L203.684 102.081" stroke="#263238" stroke-width="0.5" stroke-miterlimit="10"/>
<path d="M200.483 98.8956L201.637 97.0143" stroke="#263238" stroke-miterlimit="10"/>
<path d="M201.284 97.579C201.237 97.3384 201.242 97.0906 201.298 96.8519C201.354 96.6132 201.46 96.3892 201.61 96.1949C201.917 95.7744 203.758 94.51 204.083 95.176C204.452 95.9003 202.721 97.8399 201.284 97.579Z" fill="#92E3A9" stroke="#263238" stroke-miterlimit="10"/>
<path d="M201.284 97.579L203.04 95.9003" stroke="#263238" stroke-width="0.5" stroke-miterlimit="10"/>
<path d="M199.989 94.9427C199.942 94.7026 199.947 94.4552 200.003 94.217C200.059 93.9789 200.165 93.7554 200.315 93.5617C200.622 93.1412 202.463 91.8737 202.788 92.5397C203.16 93.264 201.426 95.2036 199.989 94.9427Z" fill="#92E3A9" stroke="#263238" stroke-miterlimit="10"/>
<path d="M199.989 94.9428L201.745 93.2671" stroke="#263238" stroke-width="0.5" stroke-miterlimit="10"/>
<path d="M200.091 95.0164C199.846 95.0386 199.6 95.0083 199.369 94.9273C199.138 94.8462 198.926 94.7165 198.749 94.5468C198.366 94.1969 197.298 92.2481 197.994 91.9811C198.753 91.6895 200.502 93.6169 200.091 95.0164Z" fill="#92E3A9" stroke="#263238" stroke-miterlimit="10"/>
<path d="M200.091 95.0164L198.608 93.0952" stroke="#263238" stroke-width="0.5" stroke-miterlimit="10"/>
<path d="M208.84 99.5339L205.514 131.587" stroke="#263238" stroke-miterlimit="10"/>
<path d="M206.25 125.473L205.096 123.592" stroke="#263238" stroke-miterlimit="10"/>
<path d="M205.446 124.157C205.494 123.917 205.49 123.669 205.434 123.431C205.378 123.192 205.271 122.969 205.121 122.776C204.814 122.355 202.972 121.091 202.647 121.757C202.279 122.487 204.013 124.421 205.446 124.157Z" fill="#92E3A9" stroke="#263238" stroke-miterlimit="10"/>
<path d="M205.446 124.157L203.789 122.567" stroke="#263238" stroke-width="0.5" stroke-miterlimit="10"/>
<path d="M207.171 116.579L206.017 114.698" stroke="#263238" stroke-miterlimit="10"/>
<path d="M206.385 115.263C206.433 115.023 206.429 114.775 206.373 114.537C206.317 114.298 206.21 114.075 206.06 113.882C205.753 113.461 203.912 112.194 203.586 112.86C203.203 113.587 204.937 115.524 206.385 115.263Z" fill="#92E3A9" stroke="#263238" stroke-miterlimit="10"/>
<path d="M206.37 115.263L204.713 113.673" stroke="#263238" stroke-width="0.5" stroke-miterlimit="10"/>
<path d="M206.793 120.222L205.639 118.344" stroke="#263238" stroke-miterlimit="10"/>
<path d="M205.992 118.909C206.04 118.668 206.035 118.42 205.979 118.182C205.923 117.943 205.816 117.719 205.667 117.525C205.36 117.104 203.519 115.84 203.19 116.506C202.822 117.23 204.544 119.17 205.992 118.909Z" fill="#92E3A9" stroke="#263238" stroke-miterlimit="10"/>
<path d="M205.992 118.909L204.335 117.319" stroke="#263238" stroke-width="0.5" stroke-miterlimit="10"/>
<path d="M207.788 110.656L206.634 108.778" stroke="#263238" stroke-miterlimit="10"/>
<path d="M206.999 109.343C207.047 109.102 207.043 108.854 206.987 108.615C206.931 108.376 206.824 108.152 206.674 107.958C206.367 107.538 204.525 106.274 204.2 106.94C203.816 107.664 205.55 109.597 206.999 109.343Z" fill="#92E3A9" stroke="#263238" stroke-miterlimit="10"/>
<path d="M206.984 109.343L205.326 107.753" stroke="#263238" stroke-width="0.5" stroke-miterlimit="10"/>
<path d="M208.405 104.711L207.251 102.83" stroke="#263238" stroke-miterlimit="10"/>
<path d="M207.613 103.395C207.661 103.155 207.657 102.907 207.601 102.669C207.545 102.431 207.438 102.207 207.287 102.014C206.981 101.593 205.139 100.326 204.814 100.992C204.433 101.716 206.167 103.656 207.613 103.395Z" fill="#92E3A9" stroke="#263238" stroke-miterlimit="10"/>
<path d="M207.6 103.395L205.943 101.805" stroke="#263238" stroke-width="0.5" stroke-miterlimit="10"/>
<path d="M206.443 123.31L207.96 121.708" stroke="#263238" stroke-miterlimit="10"/>
<path d="M207.499 122.18C207.504 121.935 207.561 121.693 207.667 121.471C207.773 121.249 207.925 121.053 208.113 120.894C208.503 120.548 210.55 119.685 210.746 120.406C210.946 121.195 208.84 122.739 207.499 122.18Z" fill="#92E3A9" stroke="#263238" stroke-miterlimit="10"/>
<path d="M207.499 122.186L209.562 120.907" stroke="#263238" stroke-width="0.5" stroke-miterlimit="10"/>
<path d="M207.438 113.719L208.954 112.117" stroke="#263238" stroke-miterlimit="10"/>
<path d="M208.494 112.596C208.498 112.35 208.555 112.108 208.661 111.886C208.767 111.664 208.919 111.468 209.107 111.31C209.494 110.96 211.544 110.098 211.738 110.819C211.94 111.604 209.844 113.145 208.494 112.596Z" fill="#92E3A9" stroke="#263238" stroke-miterlimit="10"/>
<path d="M208.494 112.596L210.559 111.316" stroke="#263238" stroke-width="0.5" stroke-miterlimit="10"/>
<path d="M207.877 109.502L209.393 107.9" stroke="#263238" stroke-width="2" stroke-miterlimit="10"/>
<path d="M208.932 108.37C208.936 108.124 208.993 107.882 209.099 107.66C209.205 107.438 209.357 107.241 209.546 107.084C209.936 106.737 211.983 105.875 212.179 106.596C212.379 107.388 210.283 108.931 208.932 108.37Z" fill="#92E3A9" stroke="#263238" stroke-miterlimit="10"/>
<path d="M208.932 108.379L210.995 107.099" stroke="#263238" stroke-width="0.5" stroke-miterlimit="10"/>
<path d="M208.518 103.324L210.034 101.722" stroke="#263238" stroke-miterlimit="10"/>
<path d="M209.574 102.201C209.577 101.955 209.634 101.713 209.74 101.491C209.846 101.269 209.999 101.073 210.188 100.915C210.577 100.565 212.624 99.7028 212.818 100.424C213.02 101.21 210.924 102.75 209.574 102.201Z" fill="#92E3A9" stroke="#263238" stroke-miterlimit="10"/>
<path d="M209.574 102.201L211.636 100.921" stroke="#263238" stroke-width="0.5" stroke-miterlimit="10"/>
<path d="M208.84 99.356C208.845 99.1103 208.902 98.8683 209.008 98.6465C209.114 98.4246 209.266 98.2281 209.454 98.0701C209.844 97.7202 211.891 96.8578 212.087 97.5791C212.296 98.3647 210.2 99.9054 208.84 99.356Z" fill="#92E3A9" stroke="#263238" stroke-miterlimit="10"/>
<path d="M208.85 99.356L210.912 98.0762" stroke="#263238" stroke-width="0.5" stroke-miterlimit="10"/>
<path d="M208.932 99.448C208.687 99.4211 208.45 99.3413 208.238 99.2142C208.026 99.0871 207.844 98.9156 207.705 98.7115C207.398 98.291 206.757 96.1642 207.493 96.0445C208.309 95.9156 209.623 98.1621 208.932 99.448Z" fill="#92E3A9" stroke="#263238" stroke-miterlimit="10"/>
<path d="M208.932 99.4481L207.877 97.2599" stroke="#263238" stroke-width="0.5" stroke-miterlimit="10"/>
<path d="M205.029 86.4845V127.014" stroke="#263238" stroke-miterlimit="10"/>
<path d="M205.062 120.919L203.718 119.17" stroke="#263238" stroke-miterlimit="10"/>
<path d="M204.126 119.694C204.149 119.45 204.119 119.205 204.038 118.973C203.958 118.742 203.829 118.531 203.66 118.353C203.31 117.967 201.361 116.898 201.094 117.595C200.803 118.353 202.727 120.103 204.126 119.694Z" fill="#92E3A9" stroke="#263238" stroke-miterlimit="10"/>
<path d="M204.126 119.694L202.316 118.283" stroke="#263238" stroke-width="0.5" stroke-miterlimit="10"/>
<path d="M205.062 113.305L203.718 111.552" stroke="#263238" stroke-miterlimit="10"/>
<path d="M204.126 112.077C204.149 111.833 204.119 111.587 204.038 111.356C203.958 111.125 203.829 110.913 203.66 110.736C203.31 110.349 201.361 109.281 201.094 109.978C200.803 110.736 202.727 112.485 204.126 112.077Z" fill="#92E3A9" stroke="#263238" stroke-miterlimit="10"/>
<path d="M204.126 112.077L202.316 110.668" stroke="#263238" stroke-miterlimit="10"/>
<path d="M205.062 104.362L203.718 102.612" stroke="#263238" stroke-miterlimit="10"/>
<path d="M204.126 103.152C204.149 102.908 204.119 102.662 204.038 102.43C203.958 102.198 203.829 101.986 203.66 101.808C203.31 101.425 201.361 100.353 201.094 101.05C200.803 101.793 202.727 103.545 204.126 103.152Z" fill="#92E3A9" stroke="#263238" stroke-miterlimit="10"/>
<path d="M204.126 103.137L202.316 101.725" stroke="#263238" stroke-width="0.5" stroke-miterlimit="10"/>
<path d="M205.062 98.4077L203.718 96.6583" stroke="#263238" stroke-miterlimit="10"/>
<path d="M204.126 97.1831C204.149 96.9392 204.119 96.6933 204.038 96.462C203.958 96.2306 203.829 96.0192 203.66 95.8419C203.31 95.4552 201.361 94.3841 201.094 95.0839C200.803 95.8419 202.727 97.5912 204.126 97.1831Z" fill="#92E3A9" stroke="#263238" stroke-miterlimit="10"/>
<path d="M204.126 97.1831L202.316 95.7714" stroke="#263238" stroke-width="0.5" stroke-miterlimit="10"/>
<path d="M205.062 92.4292L203.718 90.6798" stroke="#263238" stroke-miterlimit="10"/>
<path d="M204.126 91.2047C204.149 90.9608 204.119 90.7149 204.038 90.4836C203.958 90.2522 203.829 90.0408 203.66 89.8635C203.31 89.4768 201.361 88.4057 201.094 89.1055C200.803 89.8635 202.727 91.6128 204.126 91.2047Z" fill="#92E3A9" stroke="#263238" stroke-miterlimit="10"/>
<path d="M204.126 91.2047L202.316 89.793" stroke="#263238" stroke-miterlimit="10"/>
<path d="M205.032 123.245L206.373 121.496" stroke="#263238" stroke-miterlimit="10"/>
<path d="M205.965 122.021C205.942 121.777 205.972 121.531 206.053 121.3C206.133 121.068 206.262 120.857 206.431 120.68C206.781 120.293 208.73 119.222 208.997 119.922C209.292 120.68 207.364 122.429 205.965 122.021Z" fill="#92E3A9" stroke="#263238" stroke-miterlimit="10"/>
<path d="M205.965 122.021L207.886 120.532" stroke="#263238" stroke-width="0.5" stroke-miterlimit="10"/>
<path d="M205.032 111.132L206.373 109.382" stroke="#263238" stroke-miterlimit="10"/>
<path d="M205.965 109.904C205.942 109.66 205.972 109.414 206.053 109.183C206.133 108.952 206.262 108.74 206.431 108.563C206.781 108.176 208.73 107.105 208.997 107.805C209.292 108.566 207.364 110.316 205.965 109.904Z" fill="#92E3A9" stroke="#263238" stroke-miterlimit="10"/>
<path d="M205.965 109.907L207.886 108.419" stroke="#263238" stroke-width="0.5" stroke-miterlimit="10"/>
<path d="M205.032 105.153L206.373 103.404" stroke="#263238" stroke-miterlimit="10"/>
<path d="M205.965 103.929C205.942 103.685 205.972 103.439 206.053 103.208C206.133 102.976 206.262 102.765 206.431 102.588C206.781 102.201 208.73 101.13 208.997 101.827C209.292 102.588 207.364 104.337 205.965 103.929Z" fill="#92E3A9" stroke="#263238" stroke-miterlimit="10"/>
<path d="M205.965 103.929L207.886 102.44" stroke="#263238" stroke-width="0.5" stroke-miterlimit="10"/>
<path d="M205.032 97.2507L206.373 95.5013" stroke="#263238" stroke-miterlimit="10"/>
<path d="M205.965 96.0261C205.942 95.7822 205.972 95.5363 206.053 95.305C206.133 95.0736 206.262 94.8622 206.431 94.6849C206.781 94.2982 208.73 93.2271 208.997 93.9269C209.292 94.6849 207.364 96.4343 205.965 96.0261Z" fill="#92E3A9" stroke="#263238" stroke-miterlimit="10"/>
<path d="M205.965 96.0261L207.886 94.5376" stroke="#263238" stroke-width="0.5" stroke-miterlimit="10"/>
<path d="M205.032 91.0389L206.373 89.2865" stroke="#263238" stroke-miterlimit="10"/>
<path d="M205.965 89.8144C205.942 89.57 205.972 89.3237 206.053 89.0918C206.133 88.86 206.262 88.648 206.431 88.4701C206.781 88.0835 208.73 87.0154 208.997 87.7121C209.292 88.4701 207.364 90.2226 205.965 89.8144Z" fill="#92E3A9" stroke="#263238" stroke-miterlimit="10"/>
<path d="M205.965 89.8144L207.886 88.3259" stroke="#263238" stroke-width="0.5" stroke-miterlimit="10"/>
<path d="M204.952 87.0584C204.93 86.814 204.96 86.5677 205.04 86.3359C205.121 86.1041 205.25 85.8921 205.418 85.7141C205.768 85.3305 207.717 84.2594 207.984 84.9561C208.276 85.7141 206.351 87.4666 204.952 87.0584Z" fill="#92E3A9" stroke="#263238" stroke-miterlimit="10"/>
<path d="M204.952 87.0584L206.87 85.5699" stroke="#263238" stroke-width="0.5" stroke-miterlimit="10"/>
<path d="M205.044 87.1413C204.798 87.1363 204.557 87.079 204.335 86.9731C204.113 86.8673 203.916 86.7153 203.758 86.5275C203.411 86.1408 202.552 84.0907 203.273 83.8973C204.059 83.6917 205.596 85.7909 205.044 87.1413Z" fill="#92E3A9" stroke="#263238" stroke-miterlimit="10"/>
<path d="M205.044 87.1413L203.767 85.0728" stroke="#263238" stroke-width="0.5" stroke-miterlimit="10"/>
<path d="M206.695 137.525H202.405L201.868 126.686H207.232L206.695 137.525Z" fill="#263238" stroke="#263238" stroke-miterlimit="10"/>
<path d="M39.6145 9.54724H11.1954V28.7777H39.6145V9.54724Z" stroke="#B2B2B2" stroke-linecap="round" stroke-linejoin="round"/>
<path d="M69.7186 9.54724H41.2994V28.7777H69.7186V9.54724Z" stroke="#B2B2B2" stroke-linecap="round" stroke-linejoin="round"/>
<path d="M111.169 9.54724H82.7496V28.7777H111.169V9.54724Z" stroke="#B2B2B2" stroke-linecap="round" stroke-linejoin="round"/>
<path d="M141.276 9.54724H112.857V28.7777H141.276V9.54724Z" stroke="#B2B2B2" stroke-linecap="round" stroke-linejoin="round"/>
<path d="M182.726 9.54724H154.307V28.7777H182.726V9.54724Z" stroke="#B2B2B2" stroke-linecap="round" stroke-linejoin="round"/>
<path d="M212.83 9.54724H184.411V28.7777H212.83V9.54724Z" stroke="#B2B2B2" stroke-linecap="round" stroke-linejoin="round"/>
<path d="M144.369 109.874H122.315V133.471H144.369V109.874Z" fill="white" stroke="#B2B2B2" stroke-linecap="round" stroke-linejoin="round"/>
<path d="M126.054 109.874H124.049V118.458H126.054V109.874Z" fill="#B2B2B2" stroke="#B2B2B2" stroke-miterlimit="10"/>
<path d="M166.405 109.874H144.351V133.471H166.405V109.874Z" fill="white" stroke="#B2B2B2" stroke-linecap="round" stroke-linejoin="round"/>
<path d="M148.089 109.874H146.085V118.458H148.089V109.874Z" fill="#B2B2B2" stroke="#B2B2B2" stroke-miterlimit="10"/>
<path d="M144.369 86.1224H122.315V109.72H144.369V86.1224Z" fill="white" stroke="#B2B2B2" stroke-linecap="round" stroke-linejoin="round"/>
<path d="M126.054 86.1224H124.049V94.7065H126.054V86.1224Z" fill="#B2B2B2" stroke="#B2B2B2" stroke-miterlimit="10"/>
<path d="M166.405 86.1224H144.351V109.72H166.405V86.1224Z" fill="white" stroke="#B2B2B2" stroke-linecap="round" stroke-linejoin="round"/>
<path d="M148.089 86.1224H146.085V94.7065H148.089V86.1224Z" fill="#B2B2B2" stroke="#B2B2B2" stroke-miterlimit="10"/>
<path d="M168.688 136.399H121.471V137.526H168.688V136.399Z" fill="white" stroke="#B2B2B2" stroke-linecap="round" stroke-linejoin="round"/>
<path d="M168.688 132.311H121.471V133.437H168.688V132.311Z" fill="white" stroke="#B2B2B2" stroke-linecap="round" stroke-linejoin="round"/>
<path d="M125.98 133.471H122.315V136.332H125.98V133.471Z" fill="white" stroke="#B2B2B2" stroke-linecap="round" stroke-linejoin="round"/>
<path d="M146.306 133.471H142.642V136.332H146.306V133.471Z" fill="white" stroke="#B2B2B2" stroke-linecap="round" stroke-linejoin="round"/>
<path d="M166.632 133.471H162.968V136.332H166.632V133.471Z" fill="white" stroke="#B2B2B2" stroke-linecap="round" stroke-linejoin="round"/>
<path d="M96.1858 109.874H74.1318V133.471H96.1858V109.874Z" fill="white" stroke="#B2B2B2" stroke-linecap="round" stroke-linejoin="round"/>
<path d="M77.8699 109.874H75.8658V118.458H77.8699V109.874Z" fill="#B2B2B2" stroke="#B2B2B2" stroke-miterlimit="10"/>
<path d="M118.221 109.874H96.1674V133.471H118.221V109.874Z" fill="white" stroke="#B2B2B2" stroke-linecap="round" stroke-linejoin="round"/>
<path d="M99.9055 109.874H97.9014V118.458H99.9055V109.874Z" fill="#B2B2B2" stroke="#B2B2B2" stroke-miterlimit="10"/>
<path d="M96.1858 86.1224H74.1318V109.72H96.1858V86.1224Z" fill="white" stroke="#B2B2B2" stroke-linecap="round" stroke-linejoin="round"/>
<path d="M77.8699 86.1224H75.8658V94.7065H77.8699V86.1224Z" fill="#B2B2B2" stroke="#B2B2B2" stroke-miterlimit="10"/>
<path d="M118.221 86.1224H96.1674V109.72H118.221V86.1224Z" fill="white" stroke="#B2B2B2" stroke-linecap="round" stroke-linejoin="round"/>
<path d="M99.9055 86.1224H97.9014V94.7065H99.9055V86.1224Z" fill="#B2B2B2" stroke="#B2B2B2" stroke-miterlimit="10"/>
<path d="M120.505 136.399H73.2878V137.526H120.505V136.399Z" fill="white" stroke="#B2B2B2" stroke-linecap="round" stroke-linejoin="round"/>
<path d="M120.505 132.311H73.2878V133.437H120.505V132.311Z" fill="white" stroke="#B2B2B2" stroke-linecap="round" stroke-linejoin="round"/>
<path d="M77.7962 133.471H74.1318V136.332H77.7962V133.471Z" fill="white" stroke="#B2B2B2" stroke-linecap="round" stroke-linejoin="round"/>
<path d="M98.1224 133.471H94.4579V136.332H98.1224V133.471Z" fill="white" stroke="#B2B2B2" stroke-linecap="round" stroke-linejoin="round"/>
<path d="M118.449 133.471H114.784V136.332H118.449V133.471Z" fill="white" stroke="#B2B2B2" stroke-linecap="round" stroke-linejoin="round"/>
<path d="M48.0022 109.874H25.9482V133.471H48.0022V109.874Z" fill="white" stroke="#B2B2B2" stroke-linecap="round" stroke-linejoin="round"/>
<path d="M29.6863 109.874H27.6822V118.458H29.6863V109.874Z" fill="#B2B2B2" stroke="#B2B2B2" stroke-miterlimit="10"/>
<path d="M70.0378 109.874H47.9838V133.471H70.0378V109.874Z" fill="white" stroke="#B2B2B2" stroke-linecap="round" stroke-linejoin="round"/>
<path d="M51.7218 109.874H49.7178V118.458H51.7218V109.874Z" fill="#B2B2B2" stroke="#B2B2B2" stroke-miterlimit="10"/>
<path d="M48.0022 86.1224H25.9482V109.72H48.0022V86.1224Z" fill="white" stroke="#B2B2B2" stroke-linecap="round" stroke-linejoin="round"/>
<path d="M29.6863 86.1224H27.6822V94.7065H29.6863V86.1224Z" fill="#B2B2B2" stroke="#B2B2B2" stroke-miterlimit="10"/>
<path d="M70.0378 86.1224H47.9838V109.72H70.0378V86.1224Z" fill="white" stroke="#B2B2B2" stroke-linecap="round" stroke-linejoin="round"/>
<path d="M51.7218 86.1224H49.7178V94.7065H51.7218V86.1224Z" fill="#B2B2B2" stroke="#B2B2B2" stroke-miterlimit="10"/>
<path d="M48.0022 62.7979H25.9482V86.3956H48.0022V62.7979Z" fill="white" stroke="#B2B2B2" stroke-linecap="round" stroke-linejoin="round"/>
<path d="M29.6863 62.7979H27.6822V71.3819H29.6863V62.7979Z" fill="#B2B2B2" stroke="#B2B2B2" stroke-miterlimit="10"/>
<path d="M70.0378 62.7979H47.9838V86.3956H70.0378V62.7979Z" fill="white" stroke="#B2B2B2" stroke-linecap="round" stroke-linejoin="round"/>
<path d="M51.7218 62.7979H49.7178V71.3819H51.7218V62.7979Z" fill="#B2B2B2" stroke="#B2B2B2" stroke-miterlimit="10"/>
<path d="M72.3211 136.399H25.1042V137.526H72.3211V136.399Z" fill="white" stroke="#B2B2B2" stroke-linecap="round" stroke-linejoin="round"/>
<path d="M72.3211 132.311H25.1042V133.437H72.3211V132.311Z" fill="white" stroke="#B2B2B2" stroke-linecap="round" stroke-linejoin="round"/>
<path d="M29.6126 133.471H25.9482V136.332H29.6126V133.471Z" fill="white" stroke="#B2B2B2" stroke-linecap="round" stroke-linejoin="round"/>
<path d="M49.9387 133.471H46.2743V136.332H49.9387V133.471Z" fill="white" stroke="#B2B2B2" stroke-linecap="round" stroke-linejoin="round"/>
<path d="M70.2649 133.471H66.6005V136.332H70.2649V133.471Z" fill="white" stroke="#B2B2B2" stroke-linecap="round" stroke-linejoin="round"/>
<path d="M198.841 1H115.033V66.5758H198.841V1Z" fill="#E8E8E8" stroke="#263238" stroke-linecap="round" stroke-linejoin="round"/>
<path d="M198.841 1H115.033V3.96774H198.841V1Z" fill="#263238" stroke="#263238" stroke-linecap="round" stroke-linejoin="round"/>
<path d="M192.065 2.35654C192.068 2.20525 192.026 2.0565 191.944 1.92926C191.862 1.80203 191.744 1.70209 191.605 1.64221C191.466 1.58233 191.313 1.56523 191.164 1.59309C191.015 1.62095 190.878 1.69251 190.77 1.79863C190.662 1.90475 190.589 2.04061 190.558 2.18886C190.528 2.33711 190.543 2.49102 190.6 2.63094C190.658 2.77086 190.756 2.89043 190.882 2.97439C191.008 3.05835 191.156 3.10289 191.307 3.10231C191.506 3.10155 191.696 3.02311 191.838 2.88376C191.98 2.74441 192.061 2.55519 192.065 2.35654Z" fill="white" stroke="#263238" stroke-linecap="round" stroke-linejoin="round"/>
<path d="M194.723 2.35656C194.726 2.20594 194.684 2.05781 194.603 1.93093C194.522 1.80405 194.405 1.70413 194.267 1.64383C194.128 1.58353 193.976 1.56556 193.827 1.59219C193.679 1.61882 193.542 1.68886 193.434 1.79343C193.325 1.89801 193.25 2.03241 193.218 2.17963C193.186 2.32685 193.199 2.48025 193.254 2.62041C193.309 2.76057 193.405 2.88118 193.528 2.96697C193.652 3.05276 193.799 3.09987 193.949 3.10233C194.151 3.10562 194.345 3.02898 194.49 2.8892C194.635 2.74942 194.719 2.55789 194.723 2.35656Z" fill="white" stroke="#263238" stroke-linecap="round" stroke-linejoin="round"/>
<path d="M197.353 2.35654C197.356 2.20539 197.314 2.05676 197.232 1.92959C197.151 1.80242 197.033 1.70248 196.894 1.64252C196.755 1.58255 196.602 1.56527 196.453 1.59288C196.304 1.62049 196.167 1.69174 196.059 1.79755C195.951 1.90336 195.877 2.03893 195.847 2.18697C195.816 2.33502 195.83 2.48883 195.887 2.62881C195.944 2.76878 196.042 2.88857 196.168 2.9729C196.293 3.05723 196.441 3.10228 196.592 3.10231C196.791 3.10235 196.982 3.02427 197.125 2.88484C197.267 2.7454 197.349 2.55573 197.353 2.35654Z" fill="white" stroke="#263238" stroke-linecap="round" stroke-linejoin="round"/>
<path d="M120.339 12.1897H119.894V7.72729H120.526L121.557 10.9528V7.72729H121.987V12.1897H121.468L120.327 8.58048L120.339 12.1897Z" fill="#263238"/>
<path d="M124.095 9.70374V10.161H123.006V11.7508H124.344V12.2019H122.503V7.72729H124.344V8.17844H123.006V9.71295L124.095 9.70374Z" fill="#263238"/>
<path d="M125.992 12.1897H125.308L124.694 7.72729H125.179L125.701 11.5267L126.198 7.73343H126.689L127.18 11.5329L127.683 7.72729H128.125L127.511 12.1897H126.855L126.428 9.16053L125.992 12.1897Z" fill="#263238"/>
<path d="M131.099 9.70374V10.161H130.009V11.7508H131.351V12.2019H129.509V7.72729H131.351V8.17844H130.009V9.71295L131.099 9.70374Z" fill="#263238"/>
<path d="M132.25 12.1897H131.808V7.72729H132.422L133.456 10.9528V7.72729H133.895V12.1897H133.379L132.238 8.58048L132.25 12.1897Z" fill="#263238"/>
<path d="M135.061 12.1897V8.17844H134.239V7.72729H136.387V8.17844H135.552V12.1897H135.061Z" fill="#263238"/>
<path d="M137.71 7.72729C138.409 7.72729 138.704 8.0833 138.704 8.74621V9.10835C138.704 9.5994 138.532 9.9063 138.149 10.0291C138.557 10.1488 138.71 10.4802 138.71 10.9498V11.6464C138.695 11.829 138.726 12.0125 138.799 12.1804H138.296C138.225 12.0087 138.196 11.8223 138.213 11.6372V10.9467C138.213 10.4434 137.977 10.2838 137.562 10.2838H137.212V12.1897H136.718V7.72729H137.71ZM137.581 9.82957C137.977 9.82957 138.213 9.70374 138.213 9.21577V8.79225C138.213 8.3902 138.066 8.17844 137.697 8.17844H137.212V9.82957H137.581Z" fill="#263238"/>
<path d="M139.726 7.72729V12.1897H139.226V7.72729H139.726Z" fill="#263238"/>
<path d="M141.822 9.70374V10.161H140.733V11.7508H142.071V12.2019H140.229V7.72729H142.071V8.17844H140.733V9.71295L141.822 9.70374Z" fill="#263238"/>
<path d="M144.465 8.79843V8.93347H143.992V8.78616C143.992 8.38412 143.839 8.15087 143.482 8.15087C143.126 8.15087 142.97 8.38412 142.97 8.78002C142.97 9.78359 144.471 9.87873 144.471 11.134C144.471 11.8091 144.145 12.2511 143.464 12.2511C142.783 12.2511 142.461 11.8091 142.461 11.134V10.8792H142.927V11.1585C142.927 11.5606 143.093 11.7969 143.449 11.7969C143.805 11.7969 143.974 11.5606 143.974 11.1585C143.974 10.1641 142.482 10.069 142.482 8.81378C142.482 8.12325 142.789 7.69666 143.47 7.69666C144.152 7.69666 144.465 8.12018 144.465 8.79843Z" fill="#263238"/>
<path d="M147.862 14.5466H120.67C120.079 14.5466 119.599 15.0262 119.599 15.6177V19.4693C119.599 20.0609 120.079 20.5404 120.67 20.5404H147.862C148.454 20.5404 148.933 20.0609 148.933 19.4693V15.6177C148.933 15.0262 148.454 14.5466 147.862 14.5466Z" fill="#D9D9D9" stroke="#263238" stroke-linecap="round" stroke-linejoin="round"/>
<path d="M134.395 58.3354H120.324C119.924 58.3354 119.599 58.6597 119.599 59.0597V62.807C119.599 63.207 119.924 63.5313 120.324 63.5313H134.395C134.795 63.5313 135.119 63.207 135.119 62.807V59.0597C135.119 58.6597 134.795 58.3354 134.395 58.3354Z" fill="#D9D9D9" stroke="#263238" stroke-linecap="round" stroke-linejoin="round"/>
<path d="M153.586 58.3354H139.514C139.114 58.3354 138.79 58.6597 138.79 59.0597V62.807C138.79 63.207 139.114 63.5313 139.514 63.5313H153.586C153.986 63.5313 154.31 63.207 154.31 62.807V59.0597C154.31 58.6597 153.986 58.3354 153.586 58.3354Z" fill="#263238" stroke="#263238" stroke-linecap="round" stroke-linejoin="round"/>
<path d="M193.679 24.4504H120.67C120.079 24.4504 119.599 24.93 119.599 25.5215V29.3731C119.599 29.9647 120.079 30.4442 120.67 30.4442H193.679C194.271 30.4442 194.75 29.9647 194.75 29.3731V25.5215C194.75 24.93 194.271 24.4504 193.679 24.4504Z" fill="#D9D9D9" stroke="#263238" stroke-linecap="round" stroke-linejoin="round"/>
<path d="M194.75 33.1848H173.522V54.2874H194.75V33.1848Z" fill="white" stroke="#263238" stroke-linecap="round" stroke-linejoin="round"/>
<path d="M171.681 33.1848H119.599V54.2874H171.681V33.1848Z" fill="white" stroke="#263238" stroke-linecap="round" stroke-linejoin="round"/>
<path d="M174.977 36.6099H192.182" stroke="#263238" stroke-linecap="round" stroke-linejoin="round"/>
<path d="M121.527 36.6099H170.336" stroke="#263238" stroke-linecap="round" stroke-linejoin="round"/>
<path d="M175.115 41.106H192.182" stroke="#263238" stroke-linecap="round" stroke-linejoin="round"/>
<path d="M121.527 41.106H170.471" stroke="#263238" stroke-linecap="round" stroke-linejoin="round"/>
<path d="M175.115 45.6021H192.182" stroke="#263238" stroke-linecap="round" stroke-linejoin="round"/>
<path d="M121.527 45.6021H170.471" stroke="#263238" stroke-linecap="round" stroke-linejoin="round"/>
<path d="M175.115 50.0981H192.182" stroke="#263238" stroke-linecap="round" stroke-linejoin="round"/>
<path d="M121.527 50.0981H170.471" stroke="#263238" stroke-linecap="round" stroke-linejoin="round"/>
<path d="M173.78 15.811C174.182 15.811 174.366 16.0535 174.366 16.4525V17.7507C174.366 18.1466 174.182 18.389 173.78 18.389H173.166V15.811H173.78ZM173.78 18.1281C173.986 18.1281 174.087 17.9992 174.087 17.7629V16.4371C174.087 16.2008 173.989 16.0719 173.78 16.0719H173.473V18.1404L173.78 18.1281Z" fill="#263238"/>
<path d="M174.922 17.8703L174.823 18.389H174.556L175.05 15.811H175.468L175.959 18.389H175.673L175.572 17.8703H174.922ZM174.958 17.6218H175.532L175.244 16.1364L174.958 17.6218Z" fill="#263238"/>
<path d="M176.56 18.389V16.0719H176.085V15.811H177.312V16.0719H176.84V18.389H176.56Z" fill="#263238"/>
<path d="M178.439 16.9528V17.2198H177.809V18.1405H178.583V18.4013H177.536V15.8234H178.598V16.0842H177.825V16.965L178.439 16.9528Z" fill="#263238"/>
<path d="M184.138 15.3815H180.087V19.4326H184.138V15.3815Z" fill="white" stroke="#263238" stroke-linecap="round" stroke-linejoin="round"/>
<path d="M189.576 15.3815H185.525V19.4326H189.576V15.3815Z" fill="white" stroke="#263238" stroke-linecap="round" stroke-linejoin="round"/>
<path d="M195.014 15.3815H190.963V19.4326H195.014V15.3815Z" fill="white" stroke="#263238" stroke-linecap="round" stroke-linejoin="round"/>
<path d="M142.003 68.939H156.247L170.146 84.637L160.654 68.939H176.474" stroke="#263238" stroke-linecap="round" stroke-linejoin="round"/>
<path d="M139.52 68.939H140.699" stroke="#263238" stroke-linecap="round" stroke-linejoin="round"/>
<path d="M175.324 132.259C175.324 132.259 173.872 134.595 173.458 134.96C173.043 135.325 172.003 136.101 171.589 136.516C171.174 136.93 171.69 137.452 172.159 137.501C172.629 137.55 178.297 137.501 178.297 137.501C178.297 137.501 178.911 137.4 178.973 137.087C179.034 136.774 179.28 135.841 178.921 135.012C178.693 134.45 178.569 133.851 178.555 133.244L178.66 132.986L178.555 132.373L175.324 132.259Z" fill="white" stroke="#263238" stroke-linecap="round" stroke-linejoin="round"/>
<path d="M172.159 137.501C172.626 137.553 178.297 137.501 178.297 137.501C178.297 137.501 178.911 137.4 178.973 137.087C179.06 136.701 179.105 136.307 179.108 135.911C178.251 136.166 177.383 136.525 177.383 136.525H171.589C171.171 136.93 171.705 137.452 172.159 137.501Z" fill="white" stroke="#263238" stroke-linecap="round" stroke-linejoin="round"/>
<path d="M177.638 135.988L177.239 137.39" stroke="#263238" stroke-linecap="round" stroke-linejoin="round"/>
<path d="M175.968 135.35C175.935 135.35 175.903 135.343 175.873 135.331C174.796 134.852 174.093 135.178 174.065 135.193C174.01 135.219 173.947 135.223 173.89 135.203C173.832 135.183 173.785 135.141 173.758 135.086C173.732 135.031 173.728 134.968 173.747 134.911C173.767 134.853 173.808 134.806 173.863 134.779C173.9 134.76 174.783 134.337 176.063 134.908C176.091 134.92 176.117 134.937 176.138 134.959C176.16 134.981 176.177 135.007 176.188 135.036C176.199 135.064 176.204 135.095 176.203 135.126C176.203 135.156 176.196 135.187 176.183 135.215C176.164 135.255 176.134 135.29 176.095 135.314C176.057 135.338 176.013 135.35 175.968 135.35Z" fill="white" stroke="#263238" stroke-linecap="round" stroke-linejoin="round"/>
<path d="M176.168 134.763C176.135 134.763 176.103 134.757 176.072 134.745C174.998 134.266 174.295 134.591 174.265 134.607C174.21 134.629 174.149 134.63 174.094 134.609C174.039 134.588 173.994 134.547 173.968 134.494C173.942 134.441 173.937 134.38 173.954 134.324C173.971 134.267 174.008 134.219 174.059 134.189C174.096 134.171 174.98 133.747 176.263 134.318C176.311 134.34 176.35 134.378 176.374 134.426C176.397 134.473 176.404 134.527 176.393 134.579C176.382 134.631 176.354 134.677 176.313 134.711C176.272 134.744 176.221 134.763 176.168 134.763Z" fill="white" stroke="#263238" stroke-linecap="round" stroke-linejoin="round"/>
<path d="M176.367 134.15C176.335 134.149 176.304 134.143 176.275 134.131C175.198 133.649 174.495 133.978 174.464 133.993C174.41 134.015 174.349 134.016 174.294 133.995C174.238 133.974 174.193 133.933 174.167 133.88C174.141 133.827 174.136 133.766 174.153 133.71C174.17 133.653 174.208 133.605 174.259 133.576C174.295 133.557 175.179 133.134 176.462 133.705C176.519 133.729 176.563 133.776 176.585 133.833C176.608 133.891 176.607 133.955 176.582 134.011C176.563 134.052 176.532 134.087 176.494 134.112C176.456 134.136 176.412 134.149 176.367 134.15Z" fill="white" stroke="#263238" stroke-linecap="round" stroke-linejoin="round"/>
<path d="M191.092 132.259C191.092 132.259 192.544 134.595 192.961 134.96C193.379 135.325 194.413 136.101 194.83 136.516C195.248 136.93 194.726 137.452 194.256 137.501C193.787 137.55 188.118 137.501 188.118 137.501C188.118 137.501 187.505 137.4 187.446 137.087C187.388 136.774 187.139 135.841 187.495 135.012C187.723 134.45 187.847 133.851 187.861 133.244L187.756 132.986L187.861 132.373L191.092 132.259Z" fill="white" stroke="#263238" stroke-linecap="round" stroke-linejoin="round"/>
<path d="M194.256 137.501C193.79 137.553 188.118 137.501 188.118 137.501C188.118 137.501 187.505 137.4 187.446 137.087C187.356 136.701 187.31 136.307 187.308 135.911C188.164 136.166 189.033 136.525 189.033 136.525H194.818C195.245 136.93 194.723 137.452 194.256 137.501Z" fill="white" stroke="#263238" stroke-linecap="round" stroke-linejoin="round"/>
<path d="M188.778 135.988L189.18 137.39" stroke="#263238" stroke-linecap="round" stroke-linejoin="round"/>
<path d="M190.448 135.35C190.48 135.35 190.513 135.343 190.543 135.331C191.62 134.852 192.323 135.178 192.351 135.193C192.379 135.208 192.41 135.217 192.441 135.22C192.473 135.222 192.505 135.219 192.535 135.209C192.566 135.2 192.594 135.184 192.618 135.164C192.643 135.143 192.663 135.118 192.677 135.09C192.692 135.062 192.701 135.031 192.704 134.999C192.707 134.968 192.703 134.936 192.694 134.905C192.684 134.875 192.669 134.847 192.648 134.823C192.628 134.798 192.603 134.778 192.575 134.763C192.538 134.745 191.654 134.321 190.371 134.892C190.343 134.904 190.317 134.922 190.296 134.944C190.274 134.966 190.258 134.992 190.247 135.02C190.235 135.049 190.23 135.08 190.231 135.11C190.232 135.141 190.239 135.171 190.251 135.199C190.267 135.24 190.293 135.276 190.328 135.303C190.363 135.329 190.404 135.345 190.448 135.35Z" fill="white" stroke="#263238" stroke-linecap="round" stroke-linejoin="round"/>
<path d="M190.248 134.763C190.281 134.763 190.313 134.757 190.343 134.745C191.421 134.266 192.12 134.591 192.151 134.607C192.206 134.629 192.267 134.63 192.322 134.609C192.377 134.588 192.422 134.547 192.448 134.494C192.474 134.441 192.479 134.38 192.462 134.324C192.445 134.267 192.408 134.219 192.357 134.189C192.32 134.171 191.436 133.747 190.153 134.318C190.105 134.34 190.066 134.378 190.042 134.426C190.019 134.473 190.012 134.527 190.023 134.579C190.034 134.631 190.062 134.677 190.103 134.711C190.144 134.744 190.195 134.763 190.248 134.763Z" fill="white" stroke="#263238" stroke-linecap="round" stroke-linejoin="round"/>
<path d="M190.049 134.15C190.08 134.149 190.112 134.143 190.141 134.131C191.218 133.649 191.921 133.978 191.952 133.993C192.006 134.015 192.067 134.016 192.122 133.995C192.177 133.974 192.223 133.933 192.249 133.88C192.275 133.827 192.28 133.766 192.263 133.71C192.246 133.653 192.208 133.605 192.157 133.576C192.12 133.557 191.236 133.134 189.954 133.705C189.906 133.727 189.866 133.765 189.843 133.812C189.819 133.859 189.812 133.913 189.823 133.965C189.834 134.017 189.863 134.063 189.904 134.097C189.945 134.13 189.996 134.149 190.049 134.15Z" fill="white" stroke="#263238" stroke-linecap="round" stroke-linejoin="round"/>
<path d="M191.893 130.826C191.85 130.669 191.804 130.519 191.761 130.362C191.389 128.812 191.172 127.229 191.114 125.636C190.398 115.312 189.681 104.987 188.965 94.6604C188.99 95.0103 178.779 94.7954 177.868 94.7801C175.787 94.7494 175.919 95.311 175.867 97.3274C175.815 99.3437 175.769 101.446 175.726 103.505C175.57 111.403 175.502 119.3 175.52 127.195C175.551 127.841 175.492 128.487 175.345 129.116C175.204 129.61 174.952 130.065 174.799 130.553C174.536 131.384 174.554 132.279 174.848 133.1C176.199 133.057 177.545 133.302 178.795 133.818C179.562 132.32 179.764 130.608 179.955 128.935L182.717 104.739L186.265 125.13L186.928 128.932C187.21 130.556 187.492 132.182 187.802 133.803C189.113 133.32 190.497 133.064 191.893 133.048C192.268 132.391 192.102 131.59 191.893 130.826Z" fill="#263238" stroke="#263238" stroke-linecap="round" stroke-linejoin="round"/>
<path d="M186.581 95.5167H178.175V96.4252H186.581V95.5167Z" fill="#575757" stroke="#263238" stroke-linecap="round" stroke-linejoin="round"/>
<path d="M188.968 95.5167H187.345V96.4252H188.968V95.5167Z" fill="#575757" stroke="#263238" stroke-linecap="round" stroke-linejoin="round"/>
<path d="M177.411 95.5167H176.122V96.4252H177.411V95.5167Z" fill="#575757" stroke="#263238" stroke-linecap="round" stroke-linejoin="round"/>
<path d="M183.524 95.6118H181.422V96.376H183.524V95.6118Z" fill="white" stroke="#263238" stroke-linecap="round" stroke-linejoin="round"/>
<path d="M173.206 78.809C173.206 78.809 169.333 92.2758 169.164 92.6196C168.995 92.9633 170.008 92.7884 170.959 92.9572C171.911 93.1259 173.261 92.3955 173.415 92.1132C173.568 91.8308 174.986 87.4575 174.986 87.4575L173.206 78.809Z" fill="white" stroke="#263238" stroke-linecap="round" stroke-linejoin="round"/>
<path d="M173.381 83.1731L173.221 82.7833" stroke="#263238" stroke-linecap="round" stroke-linejoin="round"/>
<path d="M174.651 86.2452L173.568 83.6243" stroke="#263238" stroke-linecap="round" stroke-linejoin="round"/>
<path d="M173.289 90.3362L173.596 90.5572L173.289 90.3362Z" fill="white"/>
<path d="M173.289 90.3362L173.596 90.5572" stroke="#263238" stroke-linecap="round" stroke-linejoin="round"/>
<path d="M170.428 89.7285C170.844 89.5688 171.271 89.4395 171.705 89.3418C172.142 89.5381 172.554 89.7853 172.933 90.0784" fill="white"/>
<path d="M170.428 89.7285C170.844 89.5688 171.271 89.4395 171.705 89.3418C172.142 89.5381 172.554 89.7853 172.933 90.0784" stroke="#263238" stroke-linecap="round" stroke-linejoin="round"/>
<path d="M191.163 78.0233C191.163 78.0233 195.594 89.8636 195.708 90.2994C195.847 90.6929 195.905 91.1106 195.877 91.527C195.819 92.0303 195.036 92.3679 194.867 92.3679C194.698 92.3679 193.465 91.5823 192.958 91.3582C192.452 91.1342 190.939 90.4037 190.939 90.4037L190.153 87.8779L191.163 78.0233Z" fill="white" stroke="#263238" stroke-linecap="round" stroke-linejoin="round"/>
<path d="M191.411 81.8656L191.485 81.5771" stroke="#263238" stroke-linecap="round" stroke-linejoin="round"/>
<path d="M190.353 86.0303L191.292 82.3352" stroke="#263238" stroke-linecap="round" stroke-linejoin="round"/>
<path d="M193.069 88.1418L191.258 89.2743" stroke="#263238" stroke-linecap="round" stroke-linejoin="round"/>
<path d="M179.688 74.7302L179.872 71.879H183.503L184.239 75.0524L181.802 77.213L179.688 74.7302Z" fill="white" stroke="#263238" stroke-linecap="round" stroke-linejoin="round"/>
<path d="M179.547 75.4423L173.206 78.8182L175.968 93.4083C175.968 93.4083 175.744 94.7556 175.91 95.0349C176.025 95.2159 176.179 95.369 176.361 95.483H188.763C188.763 95.483 189.604 94.6973 189.604 94.5316V93.7919L191.175 78.0233L184.884 75.5313L179.547 75.4423Z" fill="white" stroke="#263238" stroke-linecap="round" stroke-linejoin="round"/>
<path d="M180.968 76.1081L181.799 78.4559L180.673 92.7453L182.435 95.535L183.954 92.4998L182.385 78.4559L183.364 76.3506L181.947 74.7854L180.968 76.1081Z" fill="#263238" stroke="#263238" stroke-linecap="round" stroke-linejoin="round"/>
<path d="M179.451 74.1992L179.304 75.7644L180.624 77.9189L181.603 75.568L179.451 74.1992Z" fill="white" stroke="#263238" stroke-linecap="round" stroke-linejoin="round"/>
<path d="M182.484 75.6171L183.266 78.1122L184.884 75.5189L184.147 74.0028L182.484 75.6171Z" fill="white" stroke="#263238" stroke-linecap="round" stroke-linejoin="round"/>
<path d="M186.504 92.1653L186.28 90.4252L187.796 90.7045L186.504 92.1653Z" fill="white" stroke="#263238" stroke-linecap="round" stroke-linejoin="round"/>
<path d="M182.352 86.8866C181.878 86.8275 181.409 86.7331 180.949 86.6043C180.443 86.4386 180.108 86.6626 180.501 87.1659C180.894 87.6692 182.296 87.8963 182.465 87.8963C182.465 87.8963 182.744 89.3541 183.53 89.6365C183.923 89.7919 184.337 89.8861 184.758 89.9158C184.972 90.2234 185.292 90.4417 185.657 90.5296C186.163 90.5879 187.339 91.4288 187.339 91.4288L187.9 90.1367L186.673 89.127L185.445 86.994L184.267 86.6012L183.251 86.2728L182.352 86.8866Z" fill="white" stroke="#263238" stroke-linecap="round" stroke-linejoin="round"/>
<path d="M185.494 88.4211L184.991 88.9244C185.025 89.0714 185.044 89.2216 185.046 89.3725C185.046 89.5996 184.653 89.5996 184.371 89.5996C184.074 89.6113 183.781 89.5321 183.53 89.3725C183.306 89.2067 182.407 88.4211 182.407 88.4211L183.361 86.7362L182.52 87.2978C182.317 87.6789 182.072 88.0361 181.79 88.3627C181.455 88.7003 181.342 88.3075 181.342 88.3075C181.482 87.8401 181.67 87.3886 181.904 86.9602C182.222 86.6238 182.559 86.3051 182.913 86.0057C183.136 85.9716 183.363 85.9716 183.585 86.0057C184.125 86.1697 184.637 86.4161 185.102 86.7362C185.412 86.9606 185.648 87.2742 185.777 87.6354C185.809 87.7639 185.828 87.8956 185.832 88.0282" fill="white"/>
<path d="M185.494 88.4211L184.991 88.9244C185.025 89.0714 185.044 89.2216 185.046 89.3725C185.046 89.5996 184.653 89.5996 184.371 89.5996C184.074 89.6113 183.781 89.5321 183.53 89.3725C183.306 89.2067 182.407 88.4211 182.407 88.4211L183.361 86.7362L182.52 87.2978C182.317 87.6789 182.072 88.0361 181.79 88.3627C181.455 88.7003 181.342 88.3075 181.342 88.3075C181.482 87.8401 181.67 87.3886 181.904 86.9602C182.222 86.6238 182.559 86.3051 182.913 86.0057C183.136 85.9716 183.363 85.9716 183.585 86.0057C184.125 86.1697 184.637 86.4161 185.102 86.7362C185.412 86.9606 185.648 87.2742 185.777 87.6354C185.809 87.7639 185.828 87.8956 185.832 88.0282" stroke="#263238" stroke-linecap="round" stroke-linejoin="round"/>
<path d="M184.037 89.526C183.944 89.3143 183.924 89.0783 183.978 88.8539C184.236 88.3906 184.518 87.9409 184.822 87.5066" stroke="#263238" stroke-linecap="round" stroke-linejoin="round"/>
<path d="M183.53 89.3572C183.53 89.3572 183.441 89.2559 183.34 89.1148C183.239 88.9736 183.321 88.7189 183.321 88.5347C183.321 88.1971 184.147 86.8345 184.147 86.8345" stroke="#263238" stroke-linecap="round" stroke-linejoin="round"/>
<path d="M194.585 89.0779C194.585 89.0779 195.987 91.2108 195.932 91.7725C195.877 92.3341 195.539 93.5678 195.036 93.5678C194.533 93.5678 192.274 93.2855 190.715 93.0062C189.156 92.7269 188.075 92.6134 188.075 92.6134L186.504 92.1653L187.572 89.5842L188.591 89.796C189.078 89.6777 189.574 89.5957 190.073 89.5505C190.804 89.4922 193.237 88.9091 193.237 88.9091" fill="white"/>
<path d="M194.585 89.0779C194.585 89.0779 195.987 91.2108 195.932 91.7725C195.877 92.3341 195.539 93.5678 195.036 93.5678C194.533 93.5678 192.274 93.2855 190.715 93.0062C189.156 92.7269 188.075 92.6134 188.075 92.6134L186.504 92.1653L187.572 89.5842L188.591 89.796C189.078 89.6777 189.574 89.5957 190.073 89.5505C190.804 89.4922 193.237 88.9091 193.237 88.9091" stroke="#263238" stroke-linecap="round" stroke-linejoin="round"/>
<path d="M188.6 90.0508C188.627 90.6799 188.471 91.3033 188.152 91.8462" stroke="#263238" stroke-linecap="round" stroke-linejoin="round"/>
<path d="M169.894 90.818C169.894 90.818 168.94 93.1167 168.885 93.2733C168.83 93.4298 169.054 94.5009 169.95 94.283C170.846 94.0651 175.618 93.5556 176.235 93.4421L177.806 93.1628H179.034C179.596 93.1628 181.182 93.1628 181.505 93.0492L182.852 92.6011C183.186 92.4876 183.917 92.0395 183.972 91.8707C184.027 91.7019 183.806 91.5362 183.245 91.5914C182.683 91.6467 180.943 91.7019 180.943 91.7019C180.943 91.7019 182.514 91.0881 183.021 90.861C183.527 90.6339 183.355 90.4129 183.355 90.4129C183.03 90.4151 182.707 90.4722 182.401 90.5817C182.008 90.7505 178.138 91.2539 178.138 91.2539L177.696 90.8764C177.823 90.5535 177.898 90.2128 177.92 89.8666C177.92 89.4186 177.696 89.081 177.414 89.1945C177.131 89.3081 177.021 89.9802 176.966 90.2042C176.91 90.4283 176.628 91.3244 176.628 91.3244L176.517 91.8308C176.517 91.8308 174.216 91.3828 173.54 91.1004C172.865 90.8181 171.466 90.4283 171.242 90.4866C171.018 90.5449 170.567 91.1618 170.456 91.4411" fill="white"/>
<path d="M169.894 90.818C169.894 90.818 168.94 93.1167 168.885 93.2733C168.83 93.4298 169.054 94.5009 169.95 94.283C170.846 94.0651 175.618 93.5556 176.235 93.4421L177.806 93.1628H179.034C179.596 93.1628 181.182 93.1628 181.505 93.0492L182.852 92.6011C183.186 92.4876 183.917 92.0395 183.972 91.8707C184.027 91.7019 183.806 91.5362 183.245 91.5914C182.683 91.6467 180.943 91.7019 180.943 91.7019C180.943 91.7019 182.514 91.0881 183.021 90.861C183.527 90.6339 183.355 90.4129 183.355 90.4129C183.03 90.4151 182.707 90.4722 182.401 90.5817C182.008 90.7505 178.138 91.2539 178.138 91.2539L177.696 90.8764C177.823 90.5535 177.898 90.2128 177.92 89.8666C177.92 89.4186 177.696 89.081 177.414 89.1945C177.131 89.3081 177.021 89.9802 176.966 90.2042C176.91 90.4283 176.628 91.3244 176.628 91.3244L176.517 91.8308C176.517 91.8308 174.216 91.3828 173.54 91.1004C172.865 90.8181 171.466 90.4283 171.242 90.4866C171.018 90.5449 170.567 91.1618 170.456 91.4411" stroke="#263238" stroke-linecap="round" stroke-linejoin="round"/>
<path d="M174.906 91.6221C174.906 91.6221 174.532 92.4446 174.983 92.9694" stroke="#263238" stroke-linecap="round" stroke-linejoin="round"/>
<path d="M175.71 88.6666L177.417 92.1377C177.447 92.2004 177.495 92.2532 177.554 92.2901C177.613 92.327 177.681 92.3465 177.751 92.3464L183.981 92.4109C184.043 92.4114 184.104 92.397 184.158 92.3687C184.213 92.3404 184.26 92.2993 184.295 92.2487C184.33 92.1982 184.352 92.1399 184.36 92.0788C184.367 92.0177 184.359 91.9558 184.337 91.8983L182.981 88.3628C182.953 88.2922 182.905 88.2316 182.843 88.1888C182.781 88.1461 182.707 88.1233 182.631 88.1234H176.048C175.984 88.1228 175.92 88.1388 175.864 88.1698C175.808 88.2007 175.76 88.2456 175.726 88.3002C175.693 88.3548 175.673 88.4171 175.67 88.4813C175.668 88.5455 175.681 88.6093 175.71 88.6666Z" fill="#92E3A9" stroke="#263238" stroke-linecap="round" stroke-linejoin="round"/>
<path d="M183.251 91.6037C182.689 91.659 180.949 91.7142 180.949 91.7142C180.949 91.7142 182.52 91.1004 183.027 90.8733C183.533 90.6462 183.361 90.4252 183.361 90.4252C183.036 90.4274 182.713 90.4844 182.407 90.594C182.014 90.7628 178.144 91.2661 178.144 91.2661L177.696 90.8764C177.823 90.5535 177.898 90.2128 177.92 89.8666C177.92 89.4186 177.696 89.081 177.414 89.1945C177.131 89.3081 177.021 89.9802 176.966 90.2042C176.91 90.4283 176.628 91.3244 176.628 91.3244L176.517 91.8308L175.922 91.7111C175.811 92.1001 175.823 92.5137 175.956 92.8958C176.017 93.0901 176.09 93.2807 176.174 93.4666H176.235L177.806 93.1873H179.034C179.596 93.1873 181.182 93.1873 181.505 93.0738L182.852 92.6257C183.186 92.5122 183.917 92.0641 183.972 91.8953C184.027 91.7265 183.813 91.5485 183.251 91.6037Z" fill="white" stroke="#263238" stroke-linecap="round" stroke-linejoin="round"/>
<path d="M183.766 91.9719C183.335 92.1854 182.89 92.3699 182.435 92.5243C182.269 92.5243 180.286 92.7484 180.286 92.7484" stroke="#263238" stroke-linecap="round" stroke-linejoin="round"/>
<path d="M174.833 133.112C174.846 133.058 174.864 133.005 174.885 132.953C174.863 132.989 174.839 133.023 174.814 133.06L174.833 133.112Z" fill="white" stroke="#263238" stroke-linecap="round" stroke-linejoin="round"/>
<path d="M178.215 67.5027C178.215 67.5027 177.711 67.1344 177.527 67.6868C177.343 68.2393 177.251 68.8347 177.619 69.249C177.988 69.6633 178.491 70.3999 178.491 70.3999L178.215 67.5027Z" fill="white" stroke="#263238" stroke-linecap="round" stroke-linejoin="round"/>
<path d="M185.135 67.5027C185.135 67.5027 185.639 67.1344 185.823 67.6868C186.007 68.2393 186.099 68.8347 185.731 69.249C185.362 69.6633 184.859 70.3999 184.859 70.3999L185.135 67.5027Z" fill="white" stroke="#263238" stroke-linecap="round" stroke-linejoin="round"/>
<path d="M178.736 71.4678C178.736 71.4678 180.578 73.9384 180.964 74.0673C181.409 74.2146 182.226 74.3742 182.597 74.1409C182.969 73.9077 184.936 71.7164 184.991 70.7005C185.046 69.6847 185.399 65.7134 184.825 64.7098C184.251 63.7062 183.042 62.2546 179.85 63.2981C179.85 63.2981 176.806 64.2648 178.736 71.4678Z" fill="white" stroke="#263238" stroke-linecap="round" stroke-linejoin="round"/>
<path d="M180.86 71.2622C180.951 71.4304 181.088 71.5693 181.255 71.6627C181.421 71.7562 181.611 71.8003 181.802 71.7901C182.244 71.7901 182.505 71.2683 182.505 71.2683" stroke="#263238" stroke-linecap="round" stroke-linejoin="round"/>
<path d="M181.262 72.4315C181.262 72.4315 181.569 72.8029 182.376 72.4315" stroke="#263238" stroke-linecap="round" stroke-linejoin="round"/>
<path d="M179.255 69.7001C179.255 69.7001 180.237 70.185 180.836 69.6786" stroke="#263238" stroke-linecap="round" stroke-linejoin="round"/>
<path d="M182.671 69.7001C183.231 69.8429 183.818 69.8354 184.374 69.6786" stroke="#263238" stroke-linecap="round" stroke-linejoin="round"/>
<path d="M180.928 69.1109C180.676 68.8996 180.376 68.7551 180.054 68.6907C179.732 68.6264 179.399 68.6442 179.086 68.7426" stroke="#263238" stroke-linecap="round" stroke-linejoin="round"/>
<path d="M182.536 69.1109C182.839 68.9094 183.189 68.7906 183.552 68.7663C183.915 68.7421 184.277 68.8133 184.604 68.9728" stroke="#263238" stroke-linecap="round" stroke-linejoin="round"/>
<path d="M176.631 66.6495C176.631 66.6495 178.141 68.6628 180.658 68.764C183.174 68.8653 184.205 68.4111 184.834 67.9078C185.464 67.4045 186.697 66.3487 186.697 66.3487C186.341 65.7629 186.101 65.1136 185.991 64.4367C185.841 63.3779 185.685 61.3155 183.374 60.6096C181.063 59.9038 178.442 60.8613 177.638 62.4725C176.834 64.0838 177.183 65.9958 176.631 66.6495Z" fill="white" stroke="#263238" stroke-linecap="round" stroke-linejoin="round"/>
<path d="M179.246 66.6096C179.246 66.6096 179.178 64.2802 179.451 63.4577C179.725 62.6352 181.231 61.9508 181.231 61.9508V61.0608" fill="white"/>
<path d="M179.246 66.6096C179.246 66.6096 179.178 64.2802 179.451 63.4577C179.725 62.6352 181.231 61.9508 181.231 61.9508V61.0608" stroke="#263238" stroke-linecap="round" stroke-linejoin="round"/>
<path d="M183.699 66.6096C183.699 66.6096 184.04 64.2127 183.355 63.114C182.671 62.0153 182.192 62.0183 182.192 62.0183V61.0608" fill="white"/>
<path d="M183.699 66.6096C183.699 66.6096 184.04 64.2127 183.355 63.114C182.671 62.0153 182.192 62.0183 182.192 62.0183V61.0608" stroke="#263238" stroke-linecap="round" stroke-linejoin="round"/>
<path d="M68.313 43.3893H62.0184V133.821H68.313V43.3893Z" fill="#263238" stroke="#263238" stroke-linecap="round" stroke-linejoin="round"/>
<path d="M71.3666 62.451H67.4199C66.4855 62.451 65.5893 62.8222 64.9286 63.483C64.2678 64.1437 63.8967 65.0399 63.8967 65.9743V68.6505C63.8931 68.9171 63.9591 69.1801 64.0881 69.4134C64.2171 69.6468 64.4047 69.8425 64.6324 69.9813C64.8601 70.1201 65.12 70.1971 65.3865 70.2049C65.6531 70.2126 65.917 70.1507 66.1524 70.0254L72.9042 66.539V62.8746L71.3666 62.451Z" fill="#424242" stroke="#263238" stroke-linecap="round" stroke-linejoin="round"/>
<path d="M71.3666 112.359H67.4199C66.4855 112.359 65.5893 112.731 64.9286 113.391C64.2678 114.052 63.8967 114.948 63.8967 115.883V118.559C63.8931 118.825 63.9591 119.088 64.0881 119.322C64.2171 119.555 64.4047 119.751 64.6324 119.89C64.8601 120.028 65.12 120.105 65.3865 120.113C65.6531 120.121 65.917 120.059 66.1524 119.934L72.9042 116.447V112.768L71.3666 112.359Z" fill="#424242" stroke="#263238" stroke-linecap="round" stroke-linejoin="round"/>
<path d="M62.4849 41.0261H59.6675V61.0392H62.4849V41.0261Z" fill="#424242" stroke="#263238" stroke-linecap="round" stroke-linejoin="round"/>
<path d="M112.409 99.2854H90.6493V109.257H112.409V99.2854Z" fill="#263238" stroke="#263238" stroke-linecap="round" stroke-linejoin="round"/>
<path d="M72.5114 116.656L81.8996 68.1318C82.4316 65.3788 83.8757 62.8854 85.9989 61.054C88.1221 59.2226 90.8005 58.16 93.6017 58.0378L114.981 57.1171C116.026 57.0724 117.047 57.4342 117.831 58.1266C118.615 58.819 119.1 59.7881 119.185 60.8306L122.868 106.743" stroke="#263238" stroke-width="11" stroke-miterlimit="10"/>
<path d="M89.302 117.792L66.8368 114.502V125.234L90.7322 119.366L89.302 117.792Z" fill="#263238" stroke="#263238" stroke-miterlimit="10"/>
<path d="M87.6847 93.4266L84.545 91.6159L82.9093 92.4108L80.2484 90.4159L79.1988 92.1315L80.2484 93.2762L79.1988 93.755L79.7696 94.9826C79.7696 94.9826 77.385 96.603 76.8142 100.992L74.3344 100.897V109.597L77.4863 108.158L78.631 107.968C78.631 107.968 84.7384 101.673 86.1686 98.6194C87.5987 95.5657 87.6847 93.4266 87.6847 93.4266Z" fill="#263238" stroke="#263238" stroke-miterlimit="10"/>
<path d="M94.2063 85.2968L93.2856 85.7019L86.6688 85.0881C86.6688 85.0881 84.9379 84.0722 83.922 84.4743C83.3037 84.7246 82.7476 85.1069 82.2924 85.5945C82.2924 85.5945 82.2924 87.5279 82.8018 87.6292C83.3113 87.7305 84.2258 87.4267 84.2258 87.4267L84.7353 86.9172C84.7353 86.9172 91.2478 88.6481 92.1654 88.8507C93.083 89.0532 95.7255 87.93 95.7255 87.93L94.2063 85.2968Z" fill="white" stroke="#263238" stroke-linecap="round" stroke-linejoin="round"/>
<path d="M83.9312 84.4804C83.3129 84.7307 82.7568 85.113 82.3016 85.6006C82.3016 85.6006 82.3016 87.5341 82.811 87.6353C83.3205 87.7366 84.2351 87.4328 84.2351 87.4328L84.7445 86.9233L86.6565 87.4297C86.887 87.1819 87.0247 86.8621 87.0463 86.5244C87.0101 86.0442 86.9289 85.5684 86.8038 85.1034H86.678C86.678 85.1034 84.944 84.0753 83.9312 84.4804Z" fill="#92E3A9" stroke="#263238" stroke-linecap="round" stroke-linejoin="round"/>
<path d="M84.7936 85.0758L84.1951 85.1771C84.1951 85.1771 83.2959 86.1776 83.2959 86.5244C83.2959 86.8712 83.8453 87.0737 84.0448 86.9755C84.2657 86.8298 84.4713 86.6622 84.6586 86.4753C84.9055 86.6501 85.2033 86.7385 85.5056 86.7269C85.854 86.7205 86.1962 86.6344 86.5061 86.4753" stroke="#263238" stroke-miterlimit="10"/>
<path d="M99.0922 80.3097L93.4943 84.7874L95.7316 87.9423L99.0922 85.4994V80.3097Z" fill="white" stroke="#263238" stroke-linecap="round" stroke-linejoin="round"/>
<path d="M93.4943 84.7874L95.4278 88.8569L96.6492 87.6354L94.9183 83.5659L93.4943 84.7874Z" fill="white" stroke="#263238" stroke-linecap="round" stroke-linejoin="round"/>
<path d="M99.1935 77.0657L97.7695 83.5781C97.7695 83.5781 98.3833 88.9704 98.3833 89.9893C98.3833 91.0082 97.8738 93.2456 97.8738 93.2456L97.6682 93.9576C97.6682 93.9576 97.6682 97.8245 99.2978 98.2327C100.927 98.6409 102.554 99.046 104.589 99.046C106.624 99.046 108.253 98.1253 109.067 96.7074C109.88 95.2895 109.883 92.2266 109.883 91.1095C109.883 89.9924 108.152 81.2365 107.845 78.9991C107.538 76.7618 104.589 75.0278 103.978 74.8253C103.367 74.6227 99.1935 77.0657 99.1935 77.0657Z" fill="white" stroke="#263238" stroke-linecap="round" stroke-linejoin="round"/>
<path d="M96.5388 67.6407L95.9741 68.8898C95.9741 68.8898 94.461 69.9978 94.8109 70.2893C95.0108 70.4523 95.1995 70.6287 95.3756 70.8172C95.3756 70.8172 94.8017 73.3123 95.0104 73.5333C95.2357 73.7383 95.5177 73.8706 95.8194 73.9128C96.1211 73.9549 96.4285 73.905 96.7014 73.7696C96.8836 73.7073 97.0786 73.6924 97.2681 73.7263C97.4576 73.7601 97.6354 73.8415 97.7848 73.9629L99.2733 76.7864L103.852 74.0243L103.238 71.6888L104.374 69.9701L96.5388 67.6407Z" fill="white" stroke="#263238" stroke-linecap="round" stroke-linejoin="round"/>
<path d="M103.232 71.6857L104.368 69.967L98.0856 68.1655C97.9321 68.4387 97.662 68.988 97.8922 69.1353C98.1284 69.3057 98.3356 69.513 98.506 69.7491C98.506 69.7491 98.4293 70.3353 98.8436 70.2678C99.2579 70.2003 99.8932 69.3624 100.55 69.8504C101.207 70.3384 101.228 70.8877 100.749 71.3205C100.463 71.5796 100.161 71.8225 99.8472 72.0478C99.8472 72.0478 102.401 73.9813 103.223 73.8401L103.702 73.7573L103.232 71.6857Z" fill="#263238" stroke="#263238" stroke-linecap="round" stroke-linejoin="round"/>
<path d="M95.8421 67.1742L94.1664 67.4228C94.1664 67.4228 98.0794 68.9573 99.2088 68.942C100.338 68.9266 104.733 71.2161 104.733 71.2161C104.733 71.2161 106.599 68.454 105.196 65.9988C103.794 63.5435 101.357 62.899 99.5311 63.5435C97.705 64.188 96.7567 64.8295 95.8421 67.1742Z" fill="white" stroke="#263238" stroke-linecap="round" stroke-linejoin="round"/>
<path d="M103.671 72.9808L98.1746 76.3383L98.3802 78.0693L104.484 74.5092L103.671 72.9808Z" fill="white" stroke="#263238" stroke-linecap="round" stroke-linejoin="round"/>
<path d="M81.2888 110.733C81.2888 110.733 78.0449 112.547 77.4709 112.737C76.897 112.927 73.1743 113.882 73.2756 114.551C73.3769 115.22 73.6561 115.407 75.1814 115.778C76.7068 116.15 83.0995 116.828 83.9588 116.733C84.8182 116.638 83.8637 111.485 83.8637 111.485L81.2888 110.733Z" fill="#263238" stroke="#263238" stroke-linecap="round" stroke-linejoin="round"/>
<path d="M75.1814 115.791C76.716 116.171 83.0995 116.84 83.9588 116.745C84.2657 116.711 84.3394 116.03 84.3087 115.174C79.1712 115.904 75.2827 114.947 73.3983 114.296C73.359 114.326 73.3273 114.364 73.3059 114.408C73.2845 114.453 73.2741 114.502 73.2756 114.551C73.3707 115.217 73.6561 115.407 75.1814 115.791Z" fill="white" stroke="#263238" stroke-linecap="round" stroke-linejoin="round"/>
<path d="M105.611 95.7591C105.611 95.7591 101.511 93.9453 101.118 93.6599C100.725 93.3745 88.9061 94.3259 87.8565 95.09C86.8069 95.8542 78.7937 109.877 78.7937 109.877L83.9466 113.216L91.9721 101.004C91.9721 101.004 95.0227 100.909 95.7869 100.623C96.5511 100.338 101.035 99.5739 101.035 99.5739C101.035 99.5739 105.899 100.24 107.234 99.669C108.569 99.0982 107.044 96.7105 107.044 96.7105" fill="#92E3A9"/>
<path d="M105.611 95.7591C105.611 95.7591 101.511 93.9453 101.118 93.6599C100.725 93.3745 88.9061 94.3259 87.8565 95.09C86.8069 95.8542 78.7937 109.877 78.7937 109.877L83.9466 113.216L91.9721 101.004C91.9721 101.004 95.0227 100.909 95.7869 100.623C96.5511 100.338 101.035 99.5739 101.035 99.5739C101.035 99.5739 105.899 100.24 107.234 99.669C108.569 99.0982 107.044 96.7105 107.044 96.7105" stroke="#263238" stroke-linecap="round" stroke-linejoin="round"/>
<path d="M91.7818 100.719L89.302 97.7601L92.0672 99.7642" stroke="#263238" stroke-miterlimit="10"/>
<path d="M94.2002 102.25H112.587V96.8485C112.587 96.8485 111.801 95.891 110.147 96.4987C108.493 97.1063 107.271 99.2884 107.271 99.2884C107.271 99.2884 95.1577 97.1984 94.2002 102.25Z" fill="#263238" stroke="#263238" stroke-linecap="round" stroke-linejoin="round"/>
<path d="M112.412 98.9386H114.852L119.035 87.1751L117.117 86.6533L112.412 98.9386Z" fill="#263238" stroke="#263238" stroke-linecap="round" stroke-linejoin="round"/>
<path d="M117.117 86.6534L113.719 95.8911L110.797 94.6942C110.48 94.5647 110.193 94.3707 109.954 94.1245C109.716 93.8782 109.531 93.5851 109.411 93.2638C109.292 92.9424 109.241 92.5997 109.26 92.2574C109.28 91.9151 109.371 91.5807 109.527 91.2753C110.558 89.259 112.206 86.5367 114.066 85.346C117.202 83.3419 117.384 85.26 117.117 86.6534Z" fill="#263238" stroke="#263238" stroke-linecap="round" stroke-linejoin="round"/>
<path d="M88.4427 106.777L87.8688 118.939L77.3635 120.781C79.324 122.08 80.7632 124.03 81.4278 126.286C82.0925 128.542 81.94 130.96 80.9972 133.115H124.666C125.191 133.115 125.695 132.907 126.066 132.535C126.437 132.164 126.646 131.661 126.646 131.136V104.825C126.647 104.377 126.479 103.945 126.176 103.614C125.873 103.284 125.457 103.08 125.01 103.042C119.2 102.539 99.3531 101.311 88.4427 106.777Z" fill="#92E3A9" stroke="#263238" stroke-linecap="round" stroke-linejoin="round"/>
<path d="M77.4838 135.359C80.9416 132.243 81.219 126.914 78.1034 123.456C74.9878 119.999 69.659 119.721 66.2012 122.837C62.7434 125.952 62.4659 131.281 65.5816 134.739C68.6972 138.197 74.026 138.474 77.4838 135.359Z" fill="#263238" stroke="#263238" stroke-linecap="round" stroke-linejoin="round"/>
<path d="M74.4718 132.022C76.0798 130.568 76.2047 128.086 74.7507 126.478C73.2968 124.87 70.8146 124.745 69.2066 126.199C67.5986 127.653 67.4737 130.135 68.9276 131.743C70.3816 133.351 72.8638 133.476 74.4718 132.022Z" fill="white" stroke="#263238" stroke-linecap="round" stroke-linejoin="round"/>
<path d="M125.08 136.218C126.824 134.474 126.824 131.647 125.08 129.903C123.337 128.159 120.509 128.159 118.765 129.903C117.022 131.647 117.022 134.474 118.765 136.218C120.509 137.962 123.337 137.962 125.08 136.218Z" fill="#263238" stroke="#263238" stroke-linecap="round" stroke-linejoin="round"/>
<path d="M124 133.06C124 132.648 123.878 132.246 123.649 131.904C123.421 131.561 123.096 131.295 122.715 131.137C122.335 130.98 121.916 130.939 121.513 131.019C121.109 131.1 120.738 131.298 120.447 131.59C120.156 131.881 119.958 132.252 119.878 132.656C119.798 133.06 119.84 133.478 119.998 133.858C120.156 134.239 120.423 134.563 120.766 134.792C121.108 135.02 121.511 135.141 121.923 135.141C122.196 135.141 122.466 135.087 122.718 134.982C122.971 134.878 123.2 134.724 123.393 134.531C123.586 134.338 123.739 134.108 123.843 133.856C123.947 133.604 124.001 133.333 124 133.06Z" fill="white" stroke="#263238" stroke-linecap="round" stroke-linejoin="round"/>
<path d="M66.1769 121.548C67.779 120.345 69.7224 119.682 71.7258 119.657C73.7293 119.631 75.6889 120.244 77.3212 121.406C78.9535 122.568 80.1737 124.219 80.8053 126.12C81.4369 128.022 81.4472 130.075 80.8346 131.983H81.4484C82.055 129.963 82.0086 127.804 81.3159 125.812C80.6232 123.82 79.3194 122.098 77.5904 120.891C75.8614 119.684 73.7955 119.053 71.6871 119.089C69.5787 119.125 67.5354 119.826 65.8485 121.091L66.1769 121.548Z" fill="#92E3A9" stroke="#263238" stroke-linecap="round" stroke-linejoin="round"/>
<path d="M87.8688 118.939C87.8688 118.939 110.948 115.52 112.694 115.257C114.44 114.993 119.587 113.142 121.518 102.849" stroke="#263238" stroke-linecap="round" stroke-linejoin="round"/>
<path d="M34.9282 34.5167H12.8742V58.1144H34.9282V34.5167Z" fill="#92E3A9" stroke="#263238" stroke-linecap="round" stroke-linejoin="round"/>
<path d="M16.6123 34.5167H14.6082V43.1008H16.6123V34.5167Z" fill="#263238"/>
<path d="M56.9637 34.5167H34.9098V58.1144H56.9637V34.5167Z" fill="#92E3A9" stroke="#263238" stroke-linecap="round" stroke-linejoin="round"/>
<path d="M38.6478 34.5167H36.6437V43.1008H38.6478V34.5167Z" fill="#263238"/>
<path d="M34.9282 10.7656H12.8742V34.3633H34.9282V10.7656Z" fill="#92E3A9" stroke="#263238" stroke-linecap="round" stroke-linejoin="round"/>
<path d="M16.6123 10.7656H14.6082V19.3497H16.6123V10.7656Z" fill="#263238"/>
<path d="M56.9637 10.7656H34.9098V34.3633H56.9637V10.7656Z" fill="#92E3A9" stroke="#263238" stroke-linecap="round" stroke-linejoin="round"/>
<path d="M38.6478 10.7656H36.6437V19.3497H38.6478V10.7656Z" fill="#263238"/>
<path d="M59.244 61.0424H12.0271V62.1687H59.244V61.0424Z" fill="white" stroke="#263238" stroke-linecap="round" stroke-linejoin="round"/>
<path d="M59.244 56.9543H12.0271V58.0807H59.244V56.9543Z" fill="white" stroke="#263238" stroke-linecap="round" stroke-linejoin="round"/>
<path d="M16.5386 58.1145H12.8742V60.9748H16.5386V58.1145Z" fill="white" stroke="#263238" stroke-linecap="round" stroke-linejoin="round"/>
<path d="M36.8647 58.1145H33.2003V60.9748H36.8647V58.1145Z" fill="white" stroke="#263238" stroke-linecap="round" stroke-linejoin="round"/>
<path d="M57.1878 58.1145H53.5234V60.9748H57.1878V58.1145Z" fill="white" stroke="#263238" stroke-linecap="round" stroke-linejoin="round"/>
<path d="M96.9531 88.2461C96.9531 88.2461 91.5608 90.0875 90.7475 90.3944C90.5323 90.4558 90.3315 90.5593 90.1566 90.6989C89.9816 90.8385 89.8362 91.0115 89.7286 91.2077C89.7286 91.2077 89.0166 92.9386 89.6273 93.2425C90.2381 93.5463 91.7757 93.3437 91.7757 93.3437C91.7757 93.3437 92.6964 93.5494 92.8958 93.1412C93.056 92.6809 93.1591 92.2026 93.2027 91.7172C93.2027 91.7172 97.8861 91.4103 98.9019 91.309C99.5791 91.2132 100.216 90.9317 100.743 90.4957L96.9531 88.2461Z" fill="white" stroke="#263238" stroke-linecap="round" stroke-linejoin="round"/>
<path d="M92.8836 93.132C93.0451 92.6742 93.1483 92.1978 93.1905 91.7141C92.5971 91.6594 92.0369 91.4164 91.5915 91.0205C91.2232 90.6952 91.2017 90.4067 91.2846 90.1888C91.0391 90.2748 90.8457 90.3423 90.7383 90.3853C90.5231 90.4467 90.3222 90.5502 90.1473 90.6898C89.9724 90.8294 89.827 91.0023 89.7194 91.1985C89.7194 91.1985 89.0074 92.9295 89.6181 93.2333C90.2289 93.5371 91.7664 93.3346 91.7664 93.3346C91.7664 93.3346 92.681 93.5402 92.8836 93.132Z" fill="#92E3A9" stroke="#263238" stroke-linecap="round" stroke-linejoin="round"/>
<path d="M101.425 77.3726C101.425 77.3726 100.308 78.6953 100.001 79.8278C99.6937 80.9602 98.8804 85.0175 98.8804 85.0175L98.0672 86.552L96.947 88.2799C97.0781 88.7681 97.3354 89.2132 97.6932 89.5704C98.0509 89.9276 98.4964 90.1843 98.9848 90.3146C100.713 90.8241 101.133 91.0297 101.529 90.6215C101.925 90.2133 103.677 87.1597 104.073 85.7356C104.469 84.3116 106.108 80.3434 106.108 80.3434" fill="white"/>
<path d="M101.425 77.3726C101.425 77.3726 100.308 78.6953 100.001 79.8278C99.6937 80.9602 98.8804 85.0175 98.8804 85.0175L98.0672 86.552L96.947 88.2799C97.0781 88.7681 97.3354 89.2132 97.6932 89.5704C98.0509 89.9276 98.4964 90.1843 98.9848 90.3146C100.713 90.8241 101.133 91.0297 101.529 90.6215C101.925 90.2133 103.677 87.1597 104.073 85.7356C104.469 84.3116 106.108 80.3434 106.108 80.3434" stroke="#263238" stroke-linecap="round" stroke-linejoin="round"/>
<path d="M98.0733 86.5183L95.7316 87.9423C95.9507 88.6746 96.2955 89.3631 96.7505 89.9771C97.4625 90.8978 98.5919 91.2999 98.8989 91.2999H100.326L101.953 90.3791C101.953 90.3791 99.7152 90.0722 99.0032 88.5377C98.2912 87.0032 98.0733 86.5183 98.0733 86.5183Z" fill="white" stroke="#263238" stroke-linecap="round" stroke-linejoin="round"/>
<path d="M83.7686 88.6973L84.9133 91.7509L87.9639 93.1811L89.0135 91.3704L83.7686 88.6973Z" fill="#263238" stroke="#263238" stroke-miterlimit="10"/>
<path d="M92.2728 93.6015C92.18 93.6014 92.0885 93.5793 92.0058 93.5371L81.6233 88.0405C81.4969 87.9651 81.4042 87.8439 81.3646 87.7021C81.3249 87.5604 81.3413 87.4087 81.4102 87.2787C81.4792 87.1486 81.5956 87.05 81.7352 87.0033C81.8748 86.9566 82.027 86.9653 82.1604 87.0277L92.5398 92.5243C92.6535 92.5834 92.7439 92.6791 92.7966 92.7958C92.8494 92.9126 92.8613 93.0437 92.8304 93.168C92.7996 93.2924 92.7279 93.4027 92.6267 93.4814C92.5256 93.56 92.4009 93.6023 92.2728 93.6015Z" fill="#263238"/>
<path d="M11.5023 137.525H215.239" stroke="#263238" stroke-linecap="round" stroke-linejoin="round"/>
<path d="M0.760742 137.525H9.354" stroke="#263238" stroke-linecap="round" stroke-linejoin="round"/>
</svg>
