<svg width="142" height="141" viewBox="0 0 142 141" fill="none" xmlns="http://www.w3.org/2000/svg">
<path d="M115.521 125.869C120.412 122.417 124.419 117.857 127.214 112.561C144.693 79.8144 140.745 31.5272 107.084 10.816C91.5252 1.24479 69.1323 -4.8129 52.3138 5.01518C38.6756 12.9902 30.3153 28.0014 23.3983 41.658C19.0531 50.2476 15.4723 59.4916 10.1148 67.5278C3.16727 77.9491 -4.48053 91.8687 3.24066 103.978C13.7629 120.472 33.6362 128.004 51.6564 132.964C71.2086 138.343 93.1949 139.104 111.255 128.612C112.716 127.762 114.138 126.848 115.521 125.869Z" fill="#2b2963"/>
<path opacity="0.7" d="M115.521 125.869C120.412 122.417 124.419 117.857 127.214 112.561C144.693 79.8144 140.745 31.5272 107.084 10.816C91.5252 1.24479 69.1323 -4.8129 52.3138 5.01518C38.6756 12.9902 30.3153 28.0014 23.3983 41.658C19.0531 50.2476 15.4723 59.4916 10.1148 67.5278C3.16727 77.9491 -4.48053 91.8687 3.24066 103.978C13.7629 120.472 33.6362 128.004 51.6564 132.964C71.2086 138.343 93.1949 139.104 111.255 128.612C112.716 127.762 114.138 126.848 115.521 125.869Z" fill="white"/>
<path d="M89.348 71.1973C89.7047 71.2497 90.069 71.1959 90.3953 71.0425C90.7216 70.8892 90.9955 70.6431 91.1828 70.335" stroke="#263238" stroke-linecap="round" stroke-linejoin="round"/>
<g opacity="0.3">
<path d="M136.406 20.7419H111.025V54.073H136.406V20.7419Z" stroke="black" stroke-miterlimit="10"/>
<path d="M131.749 26.8578H115.683V47.9573H131.749V26.8578Z" stroke="black" stroke-miterlimit="10"/>
</g>
<path d="M136.1 140H140.993" stroke="#263238" stroke-linecap="round" stroke-linejoin="round"/>
<path d="M4.6106 140H133.042" stroke="#263238" stroke-linecap="round" stroke-linejoin="round"/>
<g opacity="0.3">
<path d="M35.3272 10.183H6.30468V91.8472H35.3272V10.183Z" stroke="black" stroke-miterlimit="10"/>
<path d="M6.46063 12.666H35.2722L34.5933 10.4215" stroke="black" stroke-miterlimit="10"/>
<path d="M6.46063 15.3845H35.2722L34.5933 13.14" stroke="black" stroke-miterlimit="10"/>
<path d="M6.46063 18.1029H35.2722L34.5933 15.8584" stroke="black" stroke-miterlimit="10"/>
<path d="M6.46063 20.8214H35.2722L34.5933 18.5769" stroke="black" stroke-miterlimit="10"/>
<path d="M6.46063 23.5399H35.2722L34.5933 21.2954" stroke="black" stroke-miterlimit="10"/>
<path d="M6.46063 26.2615H35.2722L34.5933 24.0139" stroke="black" stroke-miterlimit="10"/>
<path d="M6.46063 28.9799H35.2722L34.5933 26.7323" stroke="black" stroke-miterlimit="10"/>
<path d="M6.46063 31.6984H35.2722L34.5933 29.4539" stroke="black" stroke-miterlimit="10"/>
<path d="M6.46063 34.4169H35.2722L34.5933 32.1724" stroke="black" stroke-miterlimit="10"/>
<path d="M6.46063 37.1352H35.2722L34.5933 34.8907" stroke="black" stroke-miterlimit="10"/>
<path d="M6.46063 39.8537H35.2722L34.5933 37.6093" stroke="black" stroke-miterlimit="10"/>
<path d="M6.46063 42.5723H35.2722L34.5933 40.3278" stroke="black" stroke-miterlimit="10"/>
<path d="M6.46063 45.2908H35.2722L34.5933 43.0463" stroke="black" stroke-miterlimit="10"/>
<path d="M6.46063 48.0122H35.2722L34.5933 45.7646" stroke="black" stroke-miterlimit="10"/>
<path d="M6.46063 50.7307H35.2722L34.5933 48.4832" stroke="black" stroke-miterlimit="10"/>
<path d="M6.46063 53.4492H35.2722L34.5933 51.2047" stroke="black" stroke-miterlimit="10"/>
<path d="M6.46063 56.1676H35.2722L34.5933 53.9231" stroke="black" stroke-miterlimit="10"/>
<path d="M6.46063 58.8861H35.2722L34.5933 56.6416" stroke="black" stroke-miterlimit="10"/>
<path d="M6.46063 61.6046H35.2722L34.5933 59.3601" stroke="black" stroke-miterlimit="10"/>
<path d="M6.46063 64.3231H35.2722L34.5933 62.0786" stroke="black" stroke-miterlimit="10"/>
<path d="M6.46063 67.0415H35.2722L34.5933 64.797" stroke="black" stroke-miterlimit="10"/>
<path d="M6.46063 69.7631H35.2722L34.5933 67.5186" stroke="black" stroke-miterlimit="10"/>
<path d="M6.46063 72.4816H35.2722L34.5933 70.2371" stroke="black" stroke-miterlimit="10"/>
<path d="M6.46063 75.2001H35.2722L34.5933 72.9556" stroke="black" stroke-miterlimit="10"/>
<path d="M6.46063 77.9184H35.2722L34.5933 75.674" stroke="black" stroke-miterlimit="10"/>
<path d="M6.46063 80.637H35.2722L34.5933 78.3925" stroke="black" stroke-miterlimit="10"/>
<path d="M6.46063 83.3555H35.2722L34.5933 81.111" stroke="black" stroke-miterlimit="10"/>
<path d="M6.46063 86.0738H35.2722L34.5933 83.8293" stroke="black" stroke-miterlimit="10"/>
<path d="M6.46063 88.7954H35.2722L34.5933 86.5479" stroke="black" stroke-miterlimit="10"/>
<path d="M66.5392 10.183H37.5166V91.8472H66.5392V10.183Z" stroke="black" stroke-miterlimit="10"/>
<path d="M37.6726 12.666H66.4811L65.8053 10.4215" stroke="black" stroke-miterlimit="10"/>
<path d="M37.6726 15.3845H66.4811L65.8053 13.14" stroke="black" stroke-miterlimit="10"/>
<path d="M37.6726 18.1029H66.4811L65.8053 15.8584" stroke="black" stroke-miterlimit="10"/>
<path d="M37.6726 20.8214H66.4811L65.8053 18.5769" stroke="black" stroke-miterlimit="10"/>
<path d="M37.6726 23.5399H66.4811L65.8053 21.2954" stroke="black" stroke-miterlimit="10"/>
<path d="M37.6726 26.2615H66.4811L65.8053 24.0139" stroke="black" stroke-miterlimit="10"/>
<path d="M37.6726 28.9799H66.4811L65.8053 26.7323" stroke="black" stroke-miterlimit="10"/>
<path d="M37.6726 31.6984H66.4811L65.8053 29.4539" stroke="black" stroke-miterlimit="10"/>
<path d="M37.6726 34.4169H66.4811L65.8053 32.1724" stroke="black" stroke-miterlimit="10"/>
<path d="M37.6726 37.1352H66.4811L65.8053 34.8907" stroke="black" stroke-miterlimit="10"/>
<path d="M37.6726 39.8537H66.4811L65.8053 37.6093" stroke="black" stroke-miterlimit="10"/>
<path d="M37.6726 42.5723H66.4811L65.8053 40.3278" stroke="black" stroke-miterlimit="10"/>
<path d="M37.6726 45.2908H66.4811L65.8053 43.0463" stroke="black" stroke-miterlimit="10"/>
<path d="M37.6726 48.0122H66.4811L65.8053 45.7646" stroke="black" stroke-miterlimit="10"/>
<path d="M37.6726 50.7307H66.4811L65.8053 48.4832" stroke="black" stroke-miterlimit="10"/>
<path d="M37.6726 53.4492H66.4811L65.8053 51.2047" stroke="black" stroke-miterlimit="10"/>
<path d="M37.6726 56.1676H66.4811L65.8053 53.9231" stroke="black" stroke-miterlimit="10"/>
<path d="M37.6726 58.8861H66.4811L65.8053 56.6416" stroke="black" stroke-miterlimit="10"/>
<path d="M37.6726 61.6046H66.4811L65.8053 59.3601" stroke="black" stroke-miterlimit="10"/>
<path d="M37.6726 64.3231H66.4811L65.8053 62.0786" stroke="black" stroke-miterlimit="10"/>
<path d="M37.6726 67.0415H66.4811L65.8053 64.797" stroke="black" stroke-miterlimit="10"/>
<path d="M37.6726 69.7631H66.4811L65.8053 67.5186" stroke="black" stroke-miterlimit="10"/>
<path d="M37.6726 72.4816H66.4811L65.8053 70.2371" stroke="black" stroke-miterlimit="10"/>
<path d="M37.6726 75.2001H66.4811L65.8053 72.9556" stroke="black" stroke-miterlimit="10"/>
<path d="M37.6726 77.9184H66.4811L65.8053 75.674" stroke="black" stroke-miterlimit="10"/>
<path d="M37.6726 80.637H66.4811L65.8053 78.3925" stroke="black" stroke-miterlimit="10"/>
<path d="M37.6726 83.3555H66.4811L65.8053 81.111" stroke="black" stroke-miterlimit="10"/>
<path d="M37.6726 86.0738H66.4811L65.8053 83.8293" stroke="black" stroke-miterlimit="10"/>
<path d="M37.6726 88.7954H66.4811L65.8053 86.5479" stroke="black" stroke-miterlimit="10"/>
</g>
<path d="M106.653 4.51062H29.5264V73.1635H106.653V4.51062Z" fill="white" stroke="#263238" stroke-linecap="round" stroke-linejoin="round"/>
<path d="M106.653 4.51062H29.5264V15.2377H106.653V4.51062Z" fill="#2b2963" stroke="#263238" stroke-linecap="round" stroke-linejoin="round"/>
<path d="M106.653 4.51062H103.748V73.1635H106.653V4.51062Z" fill="#DBDBDB" stroke="#263238" stroke-linecap="round" stroke-linejoin="round"/>
<path d="M106.653 14.8311H103.748V28.0809H106.653V14.8311Z" fill="#949494" stroke="#263238" stroke-linecap="round" stroke-linejoin="round"/>
<path d="M106.653 4.51062H29.5264V9.72434H106.653V4.51062Z" fill="#DBDBDB" stroke="#263238" stroke-linecap="round" stroke-linejoin="round"/>
<path d="M63.8543 6.03345H33.4374V8.20456H63.8543V6.03345Z" fill="white" stroke="#263238" stroke-linecap="round" stroke-linejoin="round"/>
<path d="M102.099 6.1344H104.769" stroke="#263238" stroke-linecap="round" stroke-linejoin="round"/>
<path d="M102.099 7.2627H104.769" stroke="#263238" stroke-linecap="round" stroke-linejoin="round"/>
<path d="M102.099 8.39111H104.769" stroke="#263238" stroke-linecap="round" stroke-linejoin="round"/>
<path d="M91.3112 23.1882H42.3848V25.023H91.3112V23.1882Z" fill="#DBDBDB" stroke="#A8A8A8" stroke-linecap="round" stroke-linejoin="round"/>
<path d="M66.6431 23.1882H42.3848V25.023H66.6431V23.1882Z" fill="#2b2963" stroke="#263238" stroke-linecap="round" stroke-linejoin="round"/>
<path d="M39.7367 28.8974C42.2142 28.8974 44.2226 26.889 44.2226 24.4115C44.2226 21.934 42.2142 19.9255 39.7367 19.9255C37.2592 19.9255 35.2507 21.934 35.2507 24.4115C35.2507 26.889 37.2592 28.8974 39.7367 28.8974Z" fill="#2b2963" stroke="#263238" stroke-linecap="round" stroke-linejoin="round"/>
<path d="M39.7367 28.2247C41.8426 28.2247 43.5499 26.5174 43.5499 24.4115C43.5499 22.3055 41.8426 20.5983 39.7367 20.5983C37.6307 20.5983 35.9235 22.3055 35.9235 24.4115C35.9235 26.5174 37.6307 28.2247 39.7367 28.2247Z" fill="white" stroke="#263238" stroke-linecap="round" stroke-linejoin="round"/>
<path d="M66.848 28.8974C69.3255 28.8974 71.3339 26.889 71.3339 24.4115C71.3339 21.934 69.3255 19.9255 66.848 19.9255C64.3705 19.9255 62.3621 21.934 62.3621 24.4115C62.3621 26.889 64.3705 28.8974 66.848 28.8974Z" fill="#2b2963" stroke="#263238" stroke-linecap="round" stroke-linejoin="round"/>
<path d="M66.848 28.2247C68.954 28.2247 70.6612 26.5174 70.6612 24.4115C70.6612 22.3055 68.954 20.5983 66.848 20.5983C64.742 20.5983 63.0348 22.3055 63.0348 24.4115C63.0348 26.5174 64.742 28.2247 66.848 28.2247Z" fill="white" stroke="#263238" stroke-linecap="round" stroke-linejoin="round"/>
<path d="M93.9624 28.8974C96.4399 28.8974 98.4483 26.889 98.4483 24.4115C98.4483 21.934 96.4399 19.9255 93.9624 19.9255C91.4849 19.9255 89.4764 21.934 89.4764 24.4115C89.4764 26.889 91.4849 28.8974 93.9624 28.8974Z" fill="#DBDBDB" stroke="#A8A8A8" stroke-linecap="round" stroke-linejoin="round"/>
<path d="M93.9624 28.2368C96.0751 28.2368 97.7878 26.5241 97.7878 24.4114C97.7878 22.2986 96.0751 20.5859 93.9624 20.5859C91.8497 20.5859 90.137 22.2986 90.137 24.4114C90.137 26.5241 91.8497 28.2368 93.9624 28.2368Z" fill="white" stroke="#A8A8A8" stroke-linecap="round" stroke-linejoin="round"/>
<path d="M38.9569 23.0385C39.1092 23.0561 39.2625 23.0159 39.3865 22.9258C39.5105 22.8358 39.5962 22.7025 39.6266 22.5522H40.0364V26.4174H39.4248V23.4696H38.9539L38.9569 23.0385Z" fill="#263238"/>
<path d="M66.6554 23.0598C66.4627 23.0598 66.3496 23.1638 66.3496 23.442V23.8549H65.7686V23.494C65.7686 22.8824 66.0744 22.5216 66.6859 22.5216C67.2975 22.5216 67.6033 22.8763 67.6033 23.494C67.6033 24.7172 66.3954 25.1636 66.3954 25.7997C66.3924 25.8271 66.3924 25.8548 66.3954 25.8822H67.5421V26.4327H65.7686V25.9403C65.7686 24.8028 66.9734 24.6132 66.9734 23.494C66.9703 23.1546 66.848 23.0598 66.6554 23.0598Z" fill="#263238"/>
<path d="M94.2254 23.494C94.2254 23.1454 94.103 23.0506 93.9196 23.0506C93.7361 23.0506 93.6138 23.1546 93.6138 23.4329V23.6806H93.0389V23.494C93.0389 22.8824 93.3447 22.5216 93.9563 22.5216C94.5678 22.5216 94.8736 22.8763 94.8736 23.494V23.5949C94.8982 23.7556 94.87 23.9199 94.7934 24.0632C94.7168 24.2065 94.5958 24.3212 94.4486 24.39C94.5828 24.4709 94.6898 24.5902 94.7557 24.7324C94.8217 24.8746 94.8436 25.0333 94.8186 25.1881V25.4939C94.8186 26.1055 94.5128 26.4663 93.9012 26.4663C93.2896 26.4663 92.9839 26.1116 92.9839 25.4939V25.1881H93.5954V25.5489C93.5954 25.8241 93.7147 25.9281 93.9012 25.9281C94.0878 25.9281 94.207 25.8364 94.207 25.4939V25.1881C94.207 24.8303 94.0847 24.6958 93.8095 24.6958H93.6046V24.1453H93.8401C94.0664 24.1453 94.207 24.0444 94.207 23.7356L94.2254 23.494Z" fill="#263238"/>
<path d="M59.0259 39.5908H36.2476V43.1135H59.0259V39.5908Z" fill="white" stroke="#263238" stroke-linecap="round" stroke-linejoin="round"/>
<path d="M86.8375 39.5908H64.0592V43.1135H86.8375V39.5908Z" fill="white" stroke="#263238" stroke-linecap="round" stroke-linejoin="round"/>
<path d="M74.6304 46.5139H36.2476V50.0366H74.6304V46.5139Z" fill="white" stroke="#263238" stroke-linecap="round" stroke-linejoin="round"/>
<path d="M74.6304 53.1832H36.2476V56.7059H74.6304V53.1832Z" fill="white" stroke="#263238" stroke-linecap="round" stroke-linejoin="round"/>
<path d="M37.1895 33.3466C37.5839 33.3466 37.7827 33.579 37.7827 33.9918V34.0713H37.4035V33.9643C37.4035 33.7808 37.3301 33.7104 37.2017 33.7104C37.0733 33.7104 36.9999 33.7808 36.9999 33.9643C36.9999 34.4933 37.7888 34.5911 37.7888 35.325C37.7888 35.7348 37.5839 35.9702 37.1772 35.9702C36.7705 35.9702 36.5656 35.7348 36.5656 35.325V35.1691H36.9479V35.3525C36.9479 35.536 37.0274 35.6002 37.1558 35.6002C37.2842 35.6002 37.3668 35.536 37.3668 35.3525C37.3668 34.8235 36.5779 34.7226 36.5779 33.9918C36.5962 33.5851 36.798 33.3466 37.1895 33.3466Z" fill="#263238"/>
<path d="M37.9019 33.3741H39.1649V33.7411H38.7429V35.9428H38.3392V33.7411H37.9172L37.9019 33.3741Z" fill="#263238"/>
<path d="M39.7306 34.4566H40.284V34.8236H39.7306V35.5758H40.4247V35.9428H39.3269V33.3741H40.4247V33.7411H39.7306V34.4566Z" fill="#263238"/>
<path d="M41.8711 34.0102V34.3435C41.8711 34.7533 41.6723 34.9765 41.2595 34.9765H41.0669V35.9428H40.6632V33.3741H41.2595C41.6723 33.3741 41.8711 33.5851 41.8711 34.0102ZM41.0791 33.7411V34.6095H41.2717C41.4002 34.6095 41.4675 34.5514 41.4675 34.368V33.9827C41.4675 33.7992 41.4002 33.7411 41.2717 33.7411H41.0791Z" fill="#263238"/>
<path d="M43.4062 34.0041C43.4062 33.7747 43.3236 33.6983 43.1982 33.6983C43.0728 33.6983 42.9872 33.7686 42.9872 33.9521V34.1172H42.605V33.9796C42.592 33.8948 42.5985 33.8082 42.6242 33.7263C42.6498 33.6444 42.6938 33.5695 42.7528 33.5072C42.8118 33.445 42.8843 33.397 42.9646 33.3671C43.045 33.3371 43.1312 33.326 43.2166 33.3344C43.6141 33.3344 43.8281 33.5668 43.8281 33.9796V34.0438C43.8447 34.1509 43.8259 34.2605 43.7746 34.356C43.7233 34.4514 43.6422 34.5276 43.5438 34.5729C43.6414 34.6216 43.7213 34.6998 43.7723 34.7963C43.8233 34.8928 43.8429 35.0029 43.8281 35.111V35.3129C43.8281 35.7226 43.6233 35.9581 43.2166 35.9581C43.1312 35.9665 43.045 35.9553 42.9646 35.9254C42.8843 35.8954 42.8118 35.8475 42.7528 35.7852C42.6938 35.723 42.6498 35.648 42.6242 35.5662C42.5985 35.4843 42.592 35.3977 42.605 35.3129V35.1141H42.9872V35.3526C42.9872 35.5361 43.0698 35.6034 43.1982 35.6034C43.3267 35.6034 43.4062 35.5422 43.4062 35.3159V35.1141C43.4062 34.8756 43.3236 34.7869 43.1432 34.7869H43.0056V34.42H43.1646C43.3144 34.42 43.4062 34.3527 43.4062 34.1478V34.0041Z" fill="#263238"/>
<path d="M62.8727 34.8082H65.9306" stroke="#263238" stroke-miterlimit="10"/>
<path d="M51.5585 34.8082H61.4967" stroke="#263238" stroke-miterlimit="10"/>
<path d="M47.1246 34.8082H50.1825" stroke="#263238" stroke-miterlimit="10"/>
<path d="M36.0672 63.1459H94.3691" stroke="#263238" stroke-linecap="round" stroke-linejoin="round"/>
<path d="M68.0345 105.577L71.1352 132.444L74.4622 132.215L75.2664 111.662L77.3335 111.433L90.3082 112.237C90.9903 112.084 91.6804 111.969 92.3753 111.892C92.834 111.892 93.4089 110.629 90.6537 109.482C87.8986 108.336 68.8265 104.66 68.38 104.66C67.9335 104.66 68.0345 105.577 68.0345 105.577Z" fill="#263238" stroke="#263238" stroke-linecap="round" stroke-linejoin="round"/>
<path d="M86.0608 101.776C86.0608 101.776 74.135 97.8286 62.515 100.4C61.5639 100.611 59.5274 124.863 59.5274 124.863L62.6281 125.781L67.4504 106.605C67.4504 106.605 87.657 112.461 91.7913 111.886C95.9255 111.311 86.0608 101.776 86.0608 101.776Z" fill="#263238" stroke="#263238" stroke-linecap="round" stroke-linejoin="round"/>
<path d="M89.3908 61.2622C89.3908 61.2622 88.4735 63.6718 88.4735 64.8185C88.5013 65.5967 88.6832 66.3617 89.0086 67.0691C89.0086 67.0691 87.2075 69.0231 87.5408 69.7631C87.7457 70.2249 88.663 70.3961 88.663 70.3961C88.663 70.3961 89.4673 74.6405 90.1553 74.8698C90.8433 75.0992 93.7147 74.5243 93.7147 74.5243L93.2254 80.3343L98.9223 75.4967L98.4636 71.8272C98.4636 71.8272 99.8397 69.8732 101.448 67.5798C103.057 65.2864 102.136 61.6077 101.219 59.8861C100.301 58.1645 93.2958 54.6051 88.5897 60.461L89.3908 61.2622Z" fill="#9C9C9C" stroke="#263238" stroke-linecap="round" stroke-linejoin="round"/>
<path d="M107.968 63.1948C107.821 62.678 109.441 62.5312 108.851 61.2775C108.261 60.0238 106.494 60.1002 106.57 59.2165C106.647 58.3327 107.231 58.4061 106.2 57.4459C105.17 56.4858 104.365 57.0056 104.06 56.0485C103.754 55.0914 103.546 54.1312 103.546 54.1312L102.882 53.6175C102.445 53.278 102.041 53.6175 101.815 53.8713C101.203 54.07 100.641 54.8651 100.072 54.7886C99.2281 54.6847 99.0171 52.4707 97.3199 52.5747C95.6228 52.6787 96.268 55.4216 95.6351 55.2106C95.0021 54.9996 93.7361 54.1556 92.0512 54.5776C90.3663 54.9996 92.0512 56.5806 91.4182 56.4766C90.7852 56.3726 87.0974 55.6326 86.7794 56.5806C86.4614 57.5285 88.7823 58.7945 88.7823 58.7945C88.7823 58.7945 85.9354 57.9505 86.7794 59.5314C87.047 60.0011 87.421 60.4015 87.8713 60.7004C88.3216 60.9994 88.8358 61.1887 89.3725 61.253C89.3725 61.253 88.241 61.672 88.6997 62.1887C89.0973 62.6352 90.3969 62.7392 90.7363 62.7575L90.7975 62.8217C90.6874 63.0969 90.3235 64.2437 91.6812 64.5984C92.0481 64.6932 92.3478 64.7543 92.5986 64.7941L92.8034 65.0204C92.6728 65.3258 92.5655 65.6406 92.4824 65.9622C92.2714 66.9101 93.9563 67.4392 94.5892 67.4392C95.2222 67.4392 95.7482 69.5461 95.2222 70.1913C95.1659 70.2598 95.1239 70.339 95.0987 70.4241C95.0734 70.5092 95.0655 70.5985 95.0755 70.6866C94.9776 70.7937 94.895 70.8793 94.8522 70.9374C94.5464 71.3043 94.2621 72.5581 94.629 72.7721C94.9959 72.9862 96.4637 72.7721 96.4637 72.7721C96.4637 72.7721 96.6839 74.5396 97.3475 74.6894C98.011 74.8393 98.5248 74.1726 98.748 73.6559C98.9712 73.1391 99.5583 74.3928 100.442 74.246C101.326 74.0993 101.693 73.4357 101.989 72.9189C102.286 72.4021 102.576 73.3623 103.977 73.0657C105.378 72.7691 104.787 70.708 104.787 70.708C104.787 70.708 106.114 71.445 106.851 70.8579C107.588 70.2708 107.809 68.9406 107.882 68.0569C107.955 67.1731 109.136 68.277 109.136 66.6563C109.136 65.0356 108.12 63.7085 107.968 63.1948Z" fill="#263238"/>
<path d="M93.7116 74.5243L95.3109 74.1084L93.5924 77.1632L93.7116 74.5243Z" fill="#263238" stroke="#263238" stroke-linecap="round" stroke-linejoin="round"/>
<path d="M90.403 67.0844C90.403 67.4758 90.2654 67.7939 90.0972 67.7939C89.929 67.7939 89.7914 67.4881 89.7914 67.0844C89.7914 66.6808 89.929 66.3781 90.0972 66.3781C90.2654 66.3781 90.403 66.6961 90.403 67.0844Z" fill="#263238"/>
<path d="M89.6966 65.317C89.6966 65.317 90.3082 65.054 91.0207 65.6717" stroke="#263238" stroke-linecap="round" stroke-linejoin="round"/>
<path d="M89.6538 90.4805L77.2968 91.4804L73.3216 91.1104C73.3216 91.1104 67.851 92.9696 68.9182 93.3274C69.6755 93.5308 70.4741 93.5224 71.2269 93.3029C72.2554 93.7112 73.3496 93.9288 74.456 93.9451C75.3552 93.9362 76.2498 93.816 77.1195 93.5873L90.9045 95.6605L89.6538 90.4805Z" fill="#263238" stroke="#263238" stroke-linecap="round" stroke-linejoin="round"/>
<path d="M98.6899 74.8087C98.6899 74.8087 91.5711 81.6981 90.4336 83.4197C89.296 85.1413 88.8282 86.6336 88.8282 88.1258C88.8282 89.6181 89.8617 92.9481 89.8617 92.9481L88.4826 97.8866L84.4646 101.556L90.7791 111.647C90.7791 111.647 93.6505 112.222 95.6014 111.075C97.5524 109.929 98.7939 105.005 98.7939 102.593C98.7939 100.18 98.3352 95.0153 98.3352 95.0153C98.3352 95.0153 100.977 86.759 101.781 83.6491C102.586 80.5392 102.699 77.7932 101.895 76.3101C101.09 74.827 99.8366 74.0045 98.6899 74.8087Z" fill="white" stroke="#263238" stroke-linecap="round" stroke-linejoin="round"/>
<path d="M90.4213 83.4289C90.1919 83.7713 89.9807 84.1255 89.7883 84.49C92.8065 84.9089 96.9377 85.5542 101.008 86.4195C101.167 85.8814 101.314 85.3707 101.448 84.8906C97.6074 84.0711 93.7147 83.4473 90.7179 83.0192C90.5987 83.1751 90.4978 83.3066 90.4213 83.4289Z" fill="#2b2963" stroke="#263238" stroke-linecap="round" stroke-linejoin="round"/>
<path d="M101.885 83.2607C102.014 82.7347 102.121 82.218 102.206 81.7165L93.892 79.5759C93.4578 80.0193 93.0358 80.4597 92.6352 80.8786L101.885 83.2607Z" fill="#2b2963" stroke="#263238" stroke-linecap="round" stroke-linejoin="round"/>
<path d="M98.5431 94.3945L99.0293 92.8503C96.0142 92.6301 92.7025 92.3824 89.6141 92.147C89.7486 92.6301 89.8495 92.9481 89.8495 92.9481L89.6324 93.7279C92.5527 93.9511 95.6687 94.1835 98.5431 94.3945Z" fill="#2b2963" stroke="#263238" stroke-linecap="round" stroke-linejoin="round"/>
<path d="M102.402 80.1967C102.451 79.6487 102.462 79.098 102.436 78.5485L96.7634 76.7015L95.5097 77.9492L102.402 80.1967Z" fill="#2b2963" stroke="#263238" stroke-linecap="round" stroke-linejoin="round"/>
<path d="M94.9929 111.378C92.461 109.357 89.2226 106.791 86.2076 104.366L88.7211 108.391L92.9839 111.791C93.6712 111.76 94.3493 111.621 94.9929 111.378Z" fill="#2b2963" stroke="#263238" stroke-linecap="round" stroke-linejoin="round"/>
<path d="M98.4361 96.0886C95.1794 96.0366 91.8402 95.9479 89.0514 95.8073L88.6172 97.3637C91.5528 97.5197 95.1091 97.6145 98.5584 97.6695C98.5125 97.0732 98.4697 96.5289 98.4361 96.0886Z" fill="#2b2963" stroke="#263238" stroke-linecap="round" stroke-linejoin="round"/>
<path d="M88.978 86.6305C88.8702 87.1216 88.8159 87.623 88.8159 88.1258V88.2022C92.0573 88.3001 96.1243 88.6487 100.2 89.086C100.36 88.5692 100.506 88.0524 100.668 87.557C96.5188 87.0984 92.3448 86.7345 88.978 86.6305Z" fill="#2b2963" stroke="#263238" stroke-linecap="round" stroke-linejoin="round"/>
<path d="M88.7211 102.388C87.5255 101.834 86.3727 101.302 85.2871 100.807L84.4523 101.568L84.9691 102.394L88.0576 103.816C91.2592 105.226 94.5373 106.457 97.8765 107.501C98.0477 107.005 98.2006 106.492 98.326 105.972C95.0877 104.935 91.4733 103.654 88.7211 102.388Z" fill="#2b2963" stroke="#263238" stroke-linecap="round" stroke-linejoin="round"/>
<path d="M98.7939 102.593C98.7939 102.232 98.7939 101.807 98.7663 101.345C94.9705 100.708 91.2175 99.8381 87.5286 98.7397L86.1709 99.9782C90.305 101.246 94.5189 102.237 98.7847 102.944C98.7939 102.822 98.7939 102.694 98.7939 102.593Z" fill="#2b2963" stroke="#263238" stroke-linecap="round" stroke-linejoin="round"/>
<path d="M71.1352 132.444L67.2302 136.808C67.2302 136.808 64.2457 137.725 63.787 138.187C63.3284 138.648 64.2457 138.875 65.3924 139.333C66.5391 139.792 70.7896 139.104 72.1687 138.988C73.5478 138.872 74.8077 138.988 75.2664 137.841C75.7251 136.694 75.2664 135.428 75.1532 134.97C75.0401 134.511 74.4622 132.218 74.4622 132.218L71.1352 132.444Z" fill="#9C9C9C" stroke="#263238" stroke-linecap="round" stroke-linejoin="round"/>
<path d="M67.0345 136.869C66.374 137.08 64.1754 137.786 63.787 138.187C63.3284 138.645 64.2457 138.875 65.3924 139.333C66.5391 139.792 70.7896 139.104 72.1687 138.988C73.5478 138.872 74.8077 138.988 75.2664 137.841C75.7251 136.694 75.2664 135.428 75.1532 134.97C75.1532 134.918 75.1196 134.841 75.0982 134.747C73.0922 136.003 69.6827 137.382 68.9518 137.382C68.2903 137.31 67.6437 137.137 67.0345 136.869Z" fill="#2b2963" stroke="#263238" stroke-linecap="round" stroke-linejoin="round"/>
<path d="M59.5366 124.866C59.5366 124.866 55.0659 129.805 54.4849 130.493C53.9039 131.181 52.1915 131.41 52.3046 132.215C52.4178 133.019 54.2556 132.789 55.0567 132.673C55.8579 132.557 60.9126 131.297 61.6006 131.068C62.2887 130.839 63.2091 130.493 63.3253 129.459C63.4415 128.426 62.6342 125.79 62.6342 125.79L59.5366 124.866Z" fill="#9C9C9C" stroke="#263238" stroke-linecap="round" stroke-linejoin="round"/>
<path d="M63.3222 129.459C63.3926 128.814 63.1051 127.545 62.8819 126.68C61.7535 127.23 60.6649 128.719 60.1053 129.001C59.4173 129.343 54.1363 131.068 54.1363 131.068L53.8947 130.93C53.1731 131.328 52.2129 131.609 52.2985 132.215C52.4147 133.019 54.2495 132.789 55.0506 132.673C55.8518 132.557 60.9065 131.297 61.5945 131.068C62.2826 130.839 63.2122 130.493 63.3222 129.459Z" fill="#2b2963" stroke="#263238" stroke-linecap="round" stroke-linejoin="round"/>
<path d="M101.167 75.9492C100.17 75.3958 98.1762 76.3926 97.5126 77.4996L96.6289 80.8205L93.4181 91.5598L77.2968 91.4803C77.2968 91.4803 72.7344 90.4743 72.0709 90.4895C71.4073 90.5048 68.0222 92.6851 68.0283 93.0154C68.0345 93.3456 68.9212 93.3212 68.9212 93.3212L70.4685 93.1774L72.1229 92.8074C72.1229 92.8074 73.5693 93.2172 74.2359 93.2019C74.7938 93.165 75.3474 93.079 75.8902 92.945C75.8902 92.945 93.3049 96.8836 94.4119 96.8836C95.5189 96.8836 96.739 96.5503 97.1824 95.7767C97.6257 95.003 102.274 83.487 102.494 80.9397C102.714 78.3925 102.158 76.5027 101.167 75.9492Z" fill="#9C9C9C" stroke="#263238" stroke-linecap="round" stroke-linejoin="round"/>
<path d="M69.0252 93.1439C69.0252 93.1439 71.5939 91.7709 71.8782 91.7158" stroke="#263238" stroke-linecap="round" stroke-linejoin="round"/>
<path d="M71.4807 90.9728C71.4807 90.9728 68.5665 92.6302 68.3953 93.257" stroke="#263238" stroke-linecap="round" stroke-linejoin="round"/>
<path d="M106.133 77.6189L104.298 77.5149C104.298 77.5149 99.5736 91.1745 98.9559 96.3087C98.3382 101.443 98.5462 105.755 98.855 107.192C99.1639 108.629 100.806 111.403 100.806 111.403L102.858 111.916C102.858 111.916 100.717 106.369 100.601 104.831C100.485 103.293 100.763 97.1864 100.907 96.4096C102.032 90.462 106.133 77.6189 106.133 77.6189Z" fill="#6E6E6E" stroke="#263238" stroke-linecap="round" stroke-linejoin="round"/>
<path d="M89.6202 129.995C89.6202 129.995 79.4404 135.129 79.2233 136.257C79.1084 137.109 79.1084 137.971 79.2233 138.823L79.5841 138.465L80.5596 136.153L89.6966 131.842L89.6202 129.995Z" fill="#6E6E6E" stroke="#263238" stroke-linecap="round" stroke-linejoin="round"/>
<path d="M81.0856 138.413C81.0862 138.637 81.0203 138.856 80.8964 139.042C80.7724 139.229 80.5959 139.374 80.3892 139.461C80.1826 139.547 79.955 139.569 79.7353 139.526C79.5156 139.483 79.3137 139.375 79.1552 139.217C78.9967 139.059 78.8886 138.858 78.8447 138.638C78.8008 138.418 78.823 138.191 78.9086 137.984C78.9941 137.777 79.1391 137.6 79.3252 137.476C79.5114 137.351 79.7302 137.285 79.9542 137.285C80.2537 137.285 80.541 137.403 80.7531 137.615C80.9652 137.826 81.0848 138.113 81.0856 138.413Z" fill="#263238" stroke="#263238" stroke-linecap="round" stroke-linejoin="round"/>
<path d="M92.5833 129.995C92.5833 129.995 102.751 135.129 102.956 136.257C103.071 137.109 103.071 137.971 102.956 138.823L102.595 138.471L101.619 136.159L92.4824 131.848L92.5833 129.995Z" fill="#6E6E6E" stroke="#263238" stroke-linecap="round" stroke-linejoin="round"/>
<path d="M101.109 138.413C101.109 138.636 101.175 138.854 101.299 139.04C101.423 139.225 101.599 139.37 101.805 139.456C102.011 139.541 102.238 139.563 102.457 139.52C102.676 139.476 102.877 139.369 103.035 139.211C103.193 139.053 103.3 138.852 103.344 138.633C103.387 138.414 103.365 138.187 103.28 137.981C103.194 137.775 103.049 137.599 102.864 137.475C102.678 137.351 102.46 137.285 102.237 137.285C101.938 137.285 101.652 137.405 101.44 137.616C101.229 137.827 101.109 138.114 101.109 138.413Z" fill="#263238" stroke="#263238" stroke-linecap="round" stroke-linejoin="round"/>
<path d="M91.7638 113.256H90.1217V131.123H91.7638V113.256Z" fill="#263238" stroke="#263238" stroke-linecap="round" stroke-linejoin="round"/>
<path d="M93.4058 115.002H88.5805V118.289H93.4058V115.002Z" fill="#263238" stroke="#263238" stroke-linecap="round" stroke-linejoin="round"/>
<path d="M102.463 111.693C98.907 111.32 87.4521 110.326 77.1806 111.693C77.0934 111.706 77.0117 111.744 76.9447 111.801C76.8777 111.858 76.8281 111.933 76.8017 112.017C76.7752 112.102 76.7729 112.191 76.7951 112.277C76.8172 112.362 76.8628 112.44 76.9268 112.5C78.0185 113.531 81.0489 115.402 88.8924 115.916C96.9958 116.448 101.124 113.959 102.748 112.62C102.824 112.552 102.88 112.464 102.908 112.365C102.935 112.267 102.934 112.162 102.904 112.065C102.874 111.967 102.817 111.88 102.738 111.814C102.66 111.748 102.565 111.706 102.463 111.693Z" fill="#6E6E6E" stroke="#263238" stroke-linecap="round" stroke-linejoin="round"/>
<path d="M76.9146 112.5L76.936 112.519C77.0193 112.596 77.1282 112.639 77.2418 112.641H102.717H102.735C102.816 112.574 102.874 112.485 102.904 112.385C102.933 112.285 102.933 112.179 102.902 112.079C102.871 111.979 102.812 111.891 102.731 111.825C102.65 111.759 102.552 111.719 102.448 111.708C98.8887 111.335 87.4368 110.341 77.1684 111.708C77.0837 111.723 77.0045 111.76 76.9395 111.816C76.8746 111.872 76.8264 111.945 76.8001 112.027C76.7739 112.109 76.7707 112.196 76.7909 112.28C76.8111 112.363 76.8539 112.44 76.9146 112.5Z" fill="#263238" stroke="#263238" stroke-linecap="round" stroke-linejoin="round"/>
<path d="M92.8921 128.349H89.0942V132.355H92.8921V128.349Z" fill="#263238" stroke="#263238" stroke-linecap="round" stroke-linejoin="round"/>
<path d="M91.1491 130.352H90.5834V139.541H91.1491V130.352Z" fill="#6E6E6E" stroke="#263238" stroke-linecap="round" stroke-linejoin="round"/>
<path d="M91.357 137.147H90.3632V139.554H91.357V137.147Z" fill="#263238" stroke="#263238" stroke-linecap="round" stroke-linejoin="round"/>
<path d="M94.8431 112.641H92.5833L91.1461 98.8805H92.6872L94.8431 112.641Z" fill="#6E6E6E" stroke="#263238" stroke-linecap="round" stroke-linejoin="round"/>
<path d="M98.7449 99.804H83.2414C83.2414 99.804 84.3698 97.7521 85.0761 97.5472C85.7825 97.3424 97.5004 97.5472 97.5004 97.5472C97.5004 97.5472 98.7449 97.957 98.7449 99.804Z" fill="#263238" stroke="#263238" stroke-linecap="round" stroke-linejoin="round"/>
<path d="M83.2414 99.804H98.7449C98.7444 99.6321 98.7321 99.4605 98.7082 99.2903H83.5441C83.3606 99.59 83.2414 99.804 83.2414 99.804Z" fill="#6E6E6E" stroke="#263238" stroke-linecap="round" stroke-linejoin="round"/>
<path d="M35.1896 97.0335L36.9387 101.538C37.5503 102.816 37.801 104.99 37.6359 106.4L33.5322 138.936C33.5215 139.023 33.5292 139.112 33.5549 139.196C33.5806 139.28 33.6237 139.357 33.6813 139.424C33.739 139.49 33.81 139.543 33.8897 139.581C33.9693 139.618 34.0559 139.638 34.1438 139.639C34.2899 139.641 34.432 139.591 34.5441 139.497C34.6563 139.403 34.7313 139.273 34.7554 139.128L42.5958 97.4677H39.7214L39.2168 99.8651C39.1975 99.9519 39.1502 100.03 39.0822 100.087C39.0142 100.145 38.9293 100.178 38.8405 100.183C38.7517 100.187 38.6639 100.162 38.5905 100.112C38.517 100.062 38.4621 99.9892 38.434 99.9048L37.4647 96.8469L35.1896 97.0335Z" fill="white" stroke="#263238" stroke-linecap="round" stroke-linejoin="round"/>
<path d="M39.4401 98.807H42.342L42.5958 97.4677H39.7214L39.4401 98.807Z" fill="#263238" stroke="#263238" stroke-linecap="round" stroke-linejoin="round"/>
<path d="M37.4647 96.853L35.1743 97.0334L35.8623 98.807H38.0854L37.4647 96.853Z" fill="#263238" stroke="#263238" stroke-linecap="round" stroke-linejoin="round"/>
<path d="M79.3365 97.0335L77.5873 101.538C76.9758 102.816 76.7219 104.99 76.8871 106.4L80.9938 138.936C81.0046 139.023 80.9968 139.112 80.9711 139.196C80.9455 139.28 80.9024 139.357 80.8447 139.424C80.787 139.49 80.7161 139.543 80.6364 139.581C80.5567 139.618 80.4701 139.638 80.3823 139.639C80.2361 139.641 80.0941 139.591 79.9819 139.497C79.8697 139.403 79.7948 139.273 79.7707 139.128L71.9149 97.4677H74.7894L75.2939 99.8651C75.3122 99.9524 75.3588 100.031 75.4266 100.089C75.4943 100.147 75.5794 100.181 75.6685 100.186C75.7575 100.19 75.8456 100.165 75.9189 100.114C75.9922 100.063 76.0467 99.9898 76.0737 99.9048L77.0461 96.8469L79.3365 97.0335Z" fill="white" stroke="#263238" stroke-linecap="round" stroke-linejoin="round"/>
<path d="M74.7894 97.4677H71.9149L72.1687 98.807H75.0707L74.7894 97.4677Z" fill="#263238" stroke="#263238" stroke-linecap="round" stroke-linejoin="round"/>
<path d="M76.4253 98.807H78.6484L79.3365 97.0334L77.0461 96.853L76.4253 98.807Z" fill="#263238" stroke="#263238" stroke-linecap="round" stroke-linejoin="round"/>
<path d="M82.6237 94.7828H32.1042V97.4524H82.6237V94.7828Z" fill="white" stroke="#263238" stroke-linecap="round" stroke-linejoin="round"/>
<path d="M78.8778 94.0306H65.9673V94.8012H78.8778V94.0306Z" fill="white" stroke="#263238" stroke-linecap="round" stroke-linejoin="round"/>
<path d="M58.188 94.63H52.5554C52.0777 94.6299 51.6183 94.4465 51.2718 94.1176C50.9253 93.7888 50.7182 93.3396 50.6931 92.8625C50.682 92.6562 50.7057 92.4494 50.7635 92.2509L54.2923 82.1018C54.328 81.9988 54.4031 81.9142 54.5012 81.8666C54.5992 81.819 54.7122 81.8123 54.8152 81.848C54.9182 81.8836 55.0028 81.9588 55.0504 82.0569C55.098 82.1549 55.1047 82.2679 55.069 82.3709L51.5463 92.4986C51.517 92.6051 51.5057 92.7157 51.5126 92.8258C51.5275 93.0925 51.6438 93.3433 51.8376 93.527C52.0315 93.7106 52.2883 93.8132 52.5554 93.8135H58.188C58.291 93.8224 58.3869 93.8696 58.4567 93.9457C58.5266 94.0219 58.5654 94.1215 58.5654 94.2248C58.5654 94.3281 58.5266 94.4277 58.4567 94.5039C58.3869 94.58 58.291 94.6272 58.188 94.6361V94.63Z" fill="#263238" stroke="#263238" stroke-linecap="round" stroke-linejoin="round"/>
<path d="M56.7325 68.2067L62.9522 92.0216L62.2734 92.5322C62.2734 92.5322 54.4543 86.4073 54.4543 81.2884C54.4543 76.1694 55.8151 68.3565 55.8151 68.3565L56.7325 68.2067Z" fill="white" stroke="#263238" stroke-linecap="round" stroke-linejoin="round"/>
<path d="M56.7325 68.2067L55.8059 68.3687L62.2734 92.5322L62.9522 92.0216L56.7325 68.2067Z" fill="#263238" stroke="#263238" stroke-linecap="round" stroke-linejoin="round"/>
<path d="M39.5135 89.9728C39.5135 89.9728 37.3056 86.4379 39.0731 84.4502C40.8406 82.4626 43.7119 83.4289 44.2991 85.2636C44.8862 87.0984 43.6386 90.196 43.6386 90.196L39.5135 89.9728Z" fill="#2b2963" stroke="#263238" stroke-linecap="round" stroke-linejoin="round"/>
<path d="M39.5899 85.9242C39.2199 85.9242 37.8224 85.4074 37.379 84.7438C36.9356 84.0802 36.8653 82.6033 38.116 82.6033C39.3667 82.6033 39.8101 84.8141 39.8101 84.8141L39.8835 85.6214" fill="#2b2963"/>
<path d="M39.5899 85.9242C39.2199 85.9242 37.8224 85.4074 37.379 84.7438C36.9356 84.0802 36.8653 82.6033 38.116 82.6033C39.3667 82.6033 39.8101 84.8141 39.8101 84.8141L39.8835 85.6214" stroke="#263238" stroke-linecap="round" stroke-linejoin="round"/>
<path d="M40.7213 84.5481C40.3911 84.3829 39.3697 83.2974 39.2688 82.5084C39.1679 81.7195 39.7611 80.3679 40.8834 80.9245C42.0056 81.481 41.4124 83.6582 41.4124 83.6582L41.1066 84.4166" fill="#2b2963"/>
<path d="M40.7213 84.5481C40.3911 84.3829 39.3697 83.2974 39.2688 82.5084C39.1679 81.7195 39.7611 80.3679 40.8834 80.9245C42.0056 81.481 41.4124 83.6582 41.4124 83.6582L41.1066 84.4166" stroke="#263238" stroke-linecap="round" stroke-linejoin="round"/>
<path d="M42.0576 84.9181C41.8741 84.6123 41.6265 83.1292 41.9812 82.4167C42.3359 81.7042 43.5805 80.9092 44.2012 81.9947C44.822 83.0803 43.1401 84.5603 43.1401 84.5603L42.4735 85.0282" fill="#2b2963"/>
<path d="M42.0576 84.9181C41.8741 84.6123 41.6265 83.1292 41.9812 82.4167C42.3359 81.7042 43.5805 80.9092 44.2012 81.9947C44.822 83.0803 43.1401 84.5603 43.1401 84.5603L42.4735 85.0282" stroke="#263238" stroke-linecap="round" stroke-linejoin="round"/>
<path d="M42.498 87.5571C42.4368 87.1932 42.712 85.7223 43.293 85.1841C43.874 84.6459 45.3143 84.3218 45.5222 85.5572C45.7302 86.7926 43.6233 87.5907 43.6233 87.5907L42.8374 87.7986" fill="#2b2963"/>
<path d="M42.498 87.5571C42.4368 87.1932 42.712 85.7223 43.293 85.1841C43.874 84.6459 45.3143 84.3218 45.5222 85.5572C45.7302 86.7926 43.6233 87.5907 43.6233 87.5907L42.8374 87.7986" stroke="#263238" stroke-linecap="round" stroke-linejoin="round"/>
<path d="M37.5411 83.8569L37.7888 84.2483" stroke="white" stroke-linecap="round" stroke-linejoin="round"/>
<path d="M38.2505 84.8171L38.6419 85.1352" stroke="white" stroke-linecap="round" stroke-linejoin="round"/>
<path d="M37.8255 83.1108L38.2169 83.6796" stroke="white" stroke-linecap="round" stroke-linejoin="round"/>
<path d="M38.749 84.1414L39.1771 84.9211" stroke="white" stroke-linecap="round" stroke-linejoin="round"/>
<path d="M39.7428 82.2577L39.8865 82.6858" stroke="white" stroke-linecap="round" stroke-linejoin="round"/>
<path d="M40.2412 83.4656L40.4889 83.8203" stroke="white" stroke-linecap="round" stroke-linejoin="round"/>
<path d="M40.1342 81.4045L40.4553 82.117" stroke="white" stroke-linecap="round" stroke-linejoin="round"/>
<path d="M38.8927 86.4135L38.9967 87.0556" stroke="white" stroke-linecap="round" stroke-linejoin="round"/>
<path d="M39.2107 87.658L39.3544 88.19" stroke="white" stroke-linecap="round" stroke-linejoin="round"/>
<path d="M39.5654 86.4501L39.7092 87.1595" stroke="white" stroke-linecap="round" stroke-linejoin="round"/>
<path d="M40.0272 87.658L40.1342 88.19" stroke="white" stroke-linecap="round" stroke-linejoin="round"/>
<path d="M40.2779 85.5266L40.4889 86.5204" stroke="white" stroke-linecap="round" stroke-linejoin="round"/>
<path d="M40.7733 87.4806L40.81 87.9423" stroke="white" stroke-linecap="round" stroke-linejoin="round"/>
<path d="M41.1647 85.2056L41.3421 86.129" stroke="white" stroke-linecap="round" stroke-linejoin="round"/>
<path d="M41.3421 87.0892L41.4124 88.0494" stroke="white" stroke-linecap="round" stroke-linejoin="round"/>
<path d="M42.1952 85.5634V86.3431" stroke="white" stroke-linecap="round" stroke-linejoin="round"/>
<path d="M42.0882 87.3369L42.1249 87.9424" stroke="white" stroke-linecap="round" stroke-linejoin="round"/>
<path d="M43.0851 81.8663L42.9047 82.2944" stroke="white" stroke-linecap="round" stroke-linejoin="round"/>
<path d="M42.8343 82.7898L42.657 83.3953" stroke="white" stroke-linecap="round" stroke-linejoin="round"/>
<path d="M43.8648 82.6858L43.5805 83.2515" stroke="white" stroke-linecap="round" stroke-linejoin="round"/>
<path d="M42.978 83.8937L42.657 84.2484" stroke="white" stroke-linecap="round" stroke-linejoin="round"/>
<path d="M42.3023 82.6492L42.1952 83.1109" stroke="white" stroke-linecap="round" stroke-linejoin="round"/>
<path d="M43.8648 85.2056L43.4734 85.8477" stroke="white" stroke-linecap="round" stroke-linejoin="round"/>
<path d="M43.2257 86.2361L43.0117 86.8049" stroke="white" stroke-linecap="round" stroke-linejoin="round"/>
<path d="M43.5468 87.0892L44.1859 86.7345" stroke="white" stroke-linecap="round" stroke-linejoin="round"/>
<path d="M44.5743 85.2056L44.2562 85.7407" stroke="white" stroke-linecap="round" stroke-linejoin="round"/>
<path d="M44.8954 85.811L44.4703 86.129" stroke="white" stroke-linecap="round" stroke-linejoin="round"/>
<path d="M44.4367 88.7405H38.3973V94.7798H44.4367V88.7405Z" fill="#263238" stroke="#263238" stroke-linecap="round" stroke-linejoin="round"/>
<path d="M113.389 95.5811L116.891 129.151" stroke="#263238" stroke-width="2" stroke-miterlimit="10"/>
<path d="M116.328 122.726L114.738 121.05" stroke="#263238" stroke-width="2" stroke-miterlimit="10"/>
<path d="M115.221 121.552C115.218 121.295 115.16 121.042 115.051 120.81C114.942 120.578 114.784 120.372 114.588 120.206C114.181 119.839 112.035 118.937 111.836 119.693C111.61 120.515 113.808 122.13 115.221 121.552Z" fill="#2b2963" stroke="#263238" stroke-miterlimit="10"/>
<path d="M115.221 121.552L113.178 120.28" stroke="#263238" stroke-width="0.5" stroke-miterlimit="10"/>
<path d="M116.725 126.545L115.138 124.867" stroke="#263238" stroke-width="2" stroke-miterlimit="10"/>
<path d="M115.612 125.371C115.609 125.114 115.552 124.861 115.443 124.629C115.335 124.396 115.177 124.189 114.982 124.023C114.573 123.659 112.429 122.757 112.23 123.512C112.01 124.334 114.206 125.949 115.612 125.371Z" fill="#2b2963" stroke="#263238" stroke-miterlimit="10"/>
<path d="M115.618 125.371L113.576 124.096" stroke="#263238" stroke-width="0.5" stroke-miterlimit="10"/>
<path d="M115.355 113.412L113.765 111.733" stroke="#263238" stroke-width="2" stroke-miterlimit="10"/>
<path d="M114.248 112.234C114.245 111.978 114.187 111.725 114.078 111.493C113.969 111.261 113.811 111.055 113.615 110.889C113.209 110.525 111.062 109.62 110.863 110.378C110.637 111.198 112.836 112.812 114.248 112.234Z" fill="#2b2963" stroke="#263238" stroke-miterlimit="10"/>
<path d="M114.248 112.234L112.206 110.962" stroke="#263238" stroke-width="0.5" stroke-miterlimit="10"/>
<path d="M115.753 117.228L114.166 115.552" stroke="#263238" stroke-width="2" stroke-miterlimit="10"/>
<path d="M114.646 116.054C114.643 115.797 114.586 115.544 114.477 115.311C114.368 115.079 114.211 114.872 114.016 114.705C113.606 114.341 111.463 113.439 111.264 114.194C111.025 115.017 113.233 116.632 114.646 116.054Z" fill="#2b2963" stroke="#263238" stroke-miterlimit="10"/>
<path d="M114.646 116.054L112.603 114.782" stroke="#263238" stroke-width="0.5" stroke-miterlimit="10"/>
<path d="M114.707 107.207L113.12 105.531" stroke="#263238" stroke-width="2" stroke-miterlimit="10"/>
<path d="M113.6 106.033C113.597 105.776 113.54 105.523 113.431 105.291C113.322 105.058 113.165 104.851 112.97 104.684C112.561 104.32 110.417 103.418 110.218 104.174C109.992 104.996 112.187 106.611 113.6 106.033Z" fill="#2b2963" stroke="#263238" stroke-miterlimit="10"/>
<path d="M113.6 106.033L111.558 104.761" stroke="#263238" stroke-width="0.5" stroke-miterlimit="10"/>
<path d="M114.056 100.978L112.469 99.3025" stroke="#263238" stroke-width="2" stroke-miterlimit="10"/>
<path d="M112.952 99.804C112.949 99.5471 112.891 99.2937 112.782 99.0611C112.672 98.8285 112.515 98.622 112.319 98.4555C111.912 98.0916 109.766 97.1895 109.567 97.9448C109.341 98.7674 111.536 100.382 112.952 99.804Z" fill="#2b2963" stroke="#263238" stroke-miterlimit="10"/>
<path d="M112.952 99.8039L110.909 98.5319" stroke="#263238" stroke-width="0.5" stroke-miterlimit="10"/>
<path d="M116.059 120.469L117.267 118.5" stroke="#263238" stroke-width="2" stroke-miterlimit="10"/>
<path d="M116.9 119.09C116.849 118.838 116.854 118.579 116.912 118.329C116.971 118.079 117.082 117.844 117.239 117.641C117.563 117.2 119.477 115.873 119.832 116.573C120.217 117.332 118.401 119.362 116.9 119.09Z" fill="#2b2963" stroke="#263238" stroke-miterlimit="10"/>
<path d="M116.9 119.09L118.737 117.332" stroke="#263238" stroke-width="0.5" stroke-miterlimit="10"/>
<path d="M115.01 110.421L116.218 108.452" stroke="#263238" stroke-width="2" stroke-miterlimit="10"/>
<path d="M115.851 109.042C115.801 108.79 115.805 108.53 115.863 108.28C115.922 108.03 116.033 107.796 116.19 107.592C116.514 107.152 118.429 105.828 118.783 106.525C119.169 107.28 117.355 109.317 115.851 109.042Z" fill="#2b2963" stroke="#263238" stroke-miterlimit="10"/>
<path d="M115.851 109.042L117.689 107.284" stroke="#263238" stroke-width="0.5" stroke-miterlimit="10"/>
<path d="M114.551 106.005L115.759 104.036" stroke="#263238" stroke-width="2" stroke-miterlimit="10"/>
<path d="M115.389 104.626C115.34 104.375 115.345 104.116 115.404 103.866C115.463 103.617 115.575 103.383 115.732 103.18C116.053 102.737 117.967 101.412 118.322 102.11C118.71 102.868 116.894 104.902 115.389 104.626Z" fill="#2b2963" stroke="#263238" stroke-miterlimit="10"/>
<path d="M115.389 104.626L117.23 102.868" stroke="#263238" stroke-width="0.5" stroke-miterlimit="10"/>
<path d="M113.875 99.5318L115.083 97.5625" stroke="#263238" stroke-width="2" stroke-miterlimit="10"/>
<path d="M114.713 98.1527C114.664 97.9012 114.669 97.6419 114.728 97.3925C114.787 97.143 114.899 96.9091 115.056 96.7063C115.377 96.266 117.291 94.9389 117.646 95.6361C118.034 96.3944 116.224 98.4279 114.713 98.1527Z" fill="#2b2963" stroke="#263238" stroke-miterlimit="10"/>
<path d="M114.713 98.1527L116.554 96.3975" stroke="#263238" stroke-width="0.5" stroke-miterlimit="10"/>
<path d="M113.359 95.3946C113.308 95.1427 113.312 94.883 113.371 94.633C113.43 94.3829 113.541 94.1484 113.698 93.9451C114.022 93.5048 115.936 92.1776 116.291 92.8748C116.676 93.6332 114.863 95.6606 113.359 95.3946Z" fill="#2b2963" stroke="#263238" stroke-miterlimit="10"/>
<path d="M113.359 95.3945L115.196 93.6362" stroke="#263238" stroke-width="0.5" stroke-miterlimit="10"/>
<path d="M113.472 95.4679C113.216 95.4914 112.958 95.4599 112.716 95.3755C112.473 95.2911 112.251 95.1558 112.065 94.9786C111.661 94.6117 110.536 92.569 111.273 92.2877C112.062 91.9911 113.894 94.0032 113.472 95.4679Z" fill="#2b2963" stroke="#263238" stroke-miterlimit="10"/>
<path d="M113.466 95.4679L111.909 93.4558" stroke="#263238" stroke-width="0.5" stroke-miterlimit="10"/>
<path d="M122.63 100.205L119.144 133.777" stroke="#263238" stroke-width="2" stroke-miterlimit="10"/>
<path d="M119.915 127.374L118.707 125.405" stroke="#263238" stroke-width="2" stroke-miterlimit="10"/>
<path d="M119.074 125.998C119.124 125.746 119.12 125.486 119.061 125.236C119.003 124.986 118.891 124.752 118.734 124.548C118.41 124.108 116.496 122.784 116.141 123.481C115.756 124.24 117.572 126.27 119.074 125.998Z" fill="#2b2963" stroke="#263238" stroke-miterlimit="10"/>
<path d="M119.074 125.998L117.337 124.331" stroke="#263238" stroke-width="0.5" stroke-miterlimit="10"/>
<path d="M120.881 118.057L119.673 116.087" stroke="#263238" stroke-width="2" stroke-miterlimit="10"/>
<path d="M120.043 116.681C120.093 116.428 120.088 116.169 120.028 115.919C119.969 115.669 119.858 115.434 119.701 115.231C119.377 114.791 117.462 113.467 117.108 114.164C116.722 114.925 118.539 116.953 120.043 116.681Z" fill="#2b2963" stroke="#263238" stroke-miterlimit="10"/>
<path d="M120.043 116.68L118.306 115.014" stroke="#263238" stroke-width="0.5" stroke-miterlimit="10"/>
<path d="M120.487 121.876L119.276 119.907" stroke="#263238" stroke-width="2" stroke-miterlimit="10"/>
<path d="M119.646 120.497C119.696 120.245 119.691 119.985 119.632 119.735C119.573 119.485 119.461 119.25 119.303 119.047C118.979 118.61 117.068 117.283 116.713 117.98C116.325 118.738 118.141 120.772 119.646 120.497Z" fill="#2b2963" stroke="#263238" stroke-miterlimit="10"/>
<path d="M119.646 120.497L117.909 118.83" stroke="#263238" stroke-width="0.5" stroke-miterlimit="10"/>
<path d="M121.526 111.855L120.315 109.886" stroke="#263238" stroke-width="2" stroke-miterlimit="10"/>
<path d="M120.685 110.476C120.736 110.224 120.731 109.964 120.672 109.714C120.613 109.464 120.501 109.23 120.343 109.027C120.022 108.586 118.108 107.262 117.753 107.959C117.364 108.718 119.184 110.751 120.685 110.476Z" fill="#2b2963" stroke="#263238" stroke-miterlimit="10"/>
<path d="M120.685 110.476L118.948 108.809" stroke="#263238" stroke-width="0.5" stroke-miterlimit="10"/>
<path d="M122.171 105.623L120.964 103.657" stroke="#263238" stroke-width="2" stroke-miterlimit="10"/>
<path d="M121.331 104.247C121.381 103.995 121.377 103.736 121.318 103.486C121.26 103.236 121.148 103.001 120.991 102.798C120.667 102.357 118.753 101.033 118.398 101.731C118.013 102.489 119.829 104.528 121.331 104.247Z" fill="#2b2963" stroke="#263238" stroke-miterlimit="10"/>
<path d="M121.331 104.247L119.594 102.581" stroke="#263238" stroke-width="0.5" stroke-miterlimit="10"/>
<path d="M120.12 125.108L121.707 123.429" stroke="#263238" stroke-width="2" stroke-miterlimit="10"/>
<path d="M121.224 123.934C121.227 123.677 121.285 123.424 121.394 123.191C121.503 122.958 121.661 122.752 121.857 122.585C122.263 122.221 124.407 121.316 124.609 122.072C124.835 122.894 122.645 124.509 121.224 123.934Z" fill="#2b2963" stroke="#263238" stroke-miterlimit="10"/>
<path d="M121.224 123.934L123.385 122.591" stroke="#263238" stroke-width="0.5" stroke-miterlimit="10"/>
<path d="M121.162 115.06L122.749 113.381" stroke="#263238" stroke-width="2" stroke-miterlimit="10"/>
<path d="M122.266 113.886C122.269 113.629 122.327 113.375 122.437 113.143C122.546 112.91 122.704 112.704 122.899 112.537C123.306 112.173 125.45 111.268 125.651 112.023C125.878 112.846 123.682 114.46 122.266 113.886Z" fill="#2b2963" stroke="#263238" stroke-miterlimit="10"/>
<path d="M122.266 113.886L124.428 112.543" stroke="#263238" stroke-width="0.5" stroke-miterlimit="10"/>
<path d="M121.621 110.644L123.208 108.965" stroke="#263238" stroke-width="2" stroke-miterlimit="10"/>
<path d="M122.725 109.47C122.728 109.213 122.786 108.96 122.895 108.727C123.004 108.495 123.162 108.288 123.358 108.122C123.765 107.758 125.908 106.853 126.11 107.608C126.336 108.43 124.141 110.033 122.725 109.47Z" fill="#2b2963" stroke="#263238" stroke-miterlimit="10"/>
<path d="M122.725 109.47L124.887 108.128" stroke="#263238" stroke-width="0.5" stroke-miterlimit="10"/>
<path d="M122.291 104.171L123.878 102.492" stroke="#263238" stroke-width="2" stroke-miterlimit="10"/>
<path d="M123.398 102.999C123.401 102.743 123.458 102.49 123.567 102.257C123.676 102.025 123.833 101.818 124.028 101.651C124.434 101.287 126.581 100.382 126.78 101.137C127.006 101.957 124.81 103.571 123.398 102.999Z" fill="#2b2963" stroke="#263238" stroke-miterlimit="10"/>
<path d="M123.398 102.996L125.56 101.654" stroke="#263238" stroke-width="0.5" stroke-miterlimit="10"/>
<path d="M122.645 100.015C122.648 99.7583 122.706 99.5051 122.815 99.2726C122.923 99.04 123.08 98.8333 123.275 98.6664C123.682 98.3025 125.829 97.3974 126.028 98.1557C126.248 98.9753 124.052 100.593 122.645 100.015Z" fill="#2b2963" stroke="#263238" stroke-miterlimit="10"/>
<path d="M122.639 100.015L124.801 98.6726" stroke="#263238" stroke-width="0.5" stroke-miterlimit="10"/>
<path d="M122.728 100.11C122.472 100.079 122.225 99.9935 122.005 99.8589C121.785 99.7244 121.597 99.544 121.453 99.33C121.147 98.8866 120.459 96.6574 121.233 96.5351C122.074 96.4128 123.45 98.7643 122.728 100.11Z" fill="#2b2963" stroke="#263238" stroke-miterlimit="10"/>
<path d="M122.728 100.11L121.618 97.8195" stroke="#263238" stroke-width="0.5" stroke-miterlimit="10"/>
<path d="M118.637 86.5327V128.989" stroke="#263238" stroke-width="2" stroke-miterlimit="10"/>
<path d="M118.67 122.604L117.264 120.772" stroke="#263238" stroke-width="2" stroke-miterlimit="10"/>
<path d="M117.692 121.322C117.715 121.067 117.684 120.809 117.599 120.566C117.515 120.323 117.38 120.102 117.202 119.916C116.835 119.512 114.796 118.387 114.515 119.121C114.209 119.916 116.224 121.75 117.692 121.322Z" fill="#2b2963" stroke="#263238" stroke-miterlimit="10"/>
<path d="M117.692 121.322L115.793 119.842" stroke="#263238" stroke-width="0.5" stroke-miterlimit="10"/>
<path d="M118.67 114.626L117.264 112.794" stroke="#263238" stroke-width="2" stroke-miterlimit="10"/>
<path d="M117.692 113.341C117.715 113.086 117.684 112.829 117.599 112.586C117.515 112.344 117.379 112.123 117.202 111.938C116.835 111.534 114.796 110.409 114.515 111.143C114.209 111.938 116.224 113.769 117.692 113.341Z" fill="#2b2963" stroke="#263238" stroke-miterlimit="10"/>
<path d="M117.692 113.341L115.793 111.864" stroke="#263238" stroke-width="0.5" stroke-miterlimit="10"/>
<path d="M118.67 105.259L117.264 103.425" stroke="#263238" stroke-width="2" stroke-miterlimit="10"/>
<path d="M117.692 103.975C117.715 103.719 117.684 103.461 117.599 103.219C117.515 102.976 117.38 102.754 117.202 102.568C116.835 102.165 114.796 101.039 114.515 101.776C114.209 102.568 116.224 104.403 117.692 103.975Z" fill="#2b2963" stroke="#263238" stroke-miterlimit="10"/>
<path d="M117.692 103.975L115.793 102.498" stroke="#263238" stroke-width="0.5" stroke-miterlimit="10"/>
<path d="M118.67 99.0211L117.264 97.1895" stroke="#263238" stroke-width="2" stroke-miterlimit="10"/>
<path d="M117.692 97.74C117.715 97.4842 117.684 97.2263 117.599 96.9837C117.515 96.7411 117.38 96.5194 117.202 96.3333C116.835 95.9297 114.796 94.8044 114.515 95.5383C114.209 96.3333 116.224 98.1681 117.692 97.74Z" fill="#2b2963" stroke="#263238" stroke-miterlimit="10"/>
<path d="M117.692 97.7399L115.793 96.2599" stroke="#263238" stroke-width="0.5" stroke-miterlimit="10"/>
<path d="M118.67 92.7586L117.264 90.9269" stroke="#263238" stroke-width="2" stroke-miterlimit="10"/>
<path d="M117.692 91.4773C117.715 91.2215 117.684 90.9636 117.599 90.721C117.515 90.4784 117.38 90.2567 117.202 90.0706C116.835 89.667 114.796 88.5417 114.515 89.2756C114.209 90.0706 116.224 91.9023 117.692 91.4773Z" fill="#2b2963" stroke="#263238" stroke-miterlimit="10"/>
<path d="M117.692 91.4773L115.793 89.9973" stroke="#263238" stroke-width="0.5" stroke-miterlimit="10"/>
<path d="M118.64 125.041L120.046 123.209" stroke="#263238" stroke-width="2" stroke-miterlimit="10"/>
<path d="M119.618 123.756C119.595 123.501 119.626 123.244 119.711 123.002C119.795 122.76 119.93 122.538 120.107 122.353C120.474 121.946 122.514 120.824 122.795 121.558C123.101 122.353 121.083 124.185 119.618 123.756Z" fill="#2b2963" stroke="#263238" stroke-miterlimit="10"/>
<path d="M119.618 123.757L121.63 122.2" stroke="#263238" stroke-width="0.5" stroke-miterlimit="10"/>
<path d="M118.64 112.351L120.046 110.519" stroke="#263238" stroke-width="2" stroke-miterlimit="10"/>
<path d="M119.618 111.069C119.595 110.814 119.626 110.556 119.711 110.313C119.795 110.07 119.93 109.849 120.107 109.663C120.474 109.259 122.514 108.134 122.795 108.868C123.101 109.663 121.083 111.497 119.618 111.069Z" fill="#2b2963" stroke="#263238" stroke-miterlimit="10"/>
<path d="M119.618 111.069L121.63 109.51" stroke="#263238" stroke-width="0.5" stroke-miterlimit="10"/>
<path d="M118.64 106.088L120.046 104.256" stroke="#263238" stroke-width="2" stroke-miterlimit="10"/>
<path d="M119.618 104.804C119.595 104.548 119.626 104.291 119.711 104.049C119.795 103.807 119.93 103.586 120.107 103.4C120.474 102.993 122.514 101.871 122.795 102.605C123.101 103.4 121.083 105.232 119.618 104.804Z" fill="#2b2963" stroke="#263238" stroke-miterlimit="10"/>
<path d="M119.618 104.804L121.63 103.247" stroke="#263238" stroke-width="0.5" stroke-miterlimit="10"/>
<path d="M118.64 97.8102L120.046 95.9755" stroke="#263238" stroke-width="2" stroke-miterlimit="10"/>
<path d="M119.618 96.5259C119.595 96.2705 119.626 96.0131 119.71 95.771C119.795 95.5288 119.93 95.3076 120.107 95.1223C120.474 94.7156 122.514 93.5934 122.795 94.3272C123.101 95.1223 121.083 96.954 119.618 96.5259Z" fill="#2b2963" stroke="#263238" stroke-miterlimit="10"/>
<path d="M119.618 96.526L121.63 94.9695" stroke="#263238" stroke-width="0.5" stroke-miterlimit="10"/>
<path d="M118.64 91.303L120.046 89.4683" stroke="#263238" stroke-width="2" stroke-miterlimit="10"/>
<path d="M119.618 90.0186C119.595 89.7629 119.626 89.505 119.711 89.2624C119.795 89.0198 119.93 88.798 120.107 88.612C120.474 88.2084 122.514 87.0831 122.795 87.817C123.101 88.6273 121.083 90.462 119.618 90.0186Z" fill="#2b2963" stroke="#263238" stroke-miterlimit="10"/>
<path d="M119.618 90.0187L121.63 88.4623" stroke="#263238" stroke-width="0.5" stroke-miterlimit="10"/>
<path d="M118.554 87.1321C118.531 86.8763 118.562 86.6184 118.646 86.3758C118.731 86.1332 118.866 85.9114 119.043 85.7254C119.41 85.3218 121.453 84.1965 121.734 84.9304C122.034 85.7254 120.022 87.5602 118.554 87.1321Z" fill="#2b2963" stroke="#263238" stroke-miterlimit="10"/>
<path d="M118.554 87.132L120.566 85.5756" stroke="#263238" stroke-width="0.5" stroke-miterlimit="10"/>
<path d="M118.652 87.2177C118.395 87.2146 118.142 87.1565 117.91 87.0473C117.678 86.9381 117.472 86.7804 117.306 86.5847C116.942 86.178 116.043 84.0313 116.799 83.8326C117.621 83.6063 119.233 85.8049 118.652 87.2177Z" fill="#2b2963" stroke="#263238" stroke-miterlimit="10"/>
<path d="M118.652 87.2177L117.316 85.0558" stroke="#263238" stroke-width="0.5" stroke-miterlimit="10"/>
<path d="M120.383 140H115.888L115.325 128.646H120.945L120.383 140Z" fill="#263238" stroke="#263238" stroke-miterlimit="10"/>
</svg>
