<svg width="1439" height="150" viewBox="0 0 1439 150" fill="none" xmlns="http://www.w3.org/2000/svg">
<g clip-path="url(#clip0_153_5575)">
<path d="M0 0L34.3761 7.29999C68.7522 14.7 137.504 29.3 205.937 44.3C274.529 59.3 342.642 74.7 411.234 72.7C479.667 70.7 548.419 51.3 616.851 48.8C685.444 46.3 753.556 60.7 822.149 54.5C890.581 48.3 959.333 21.7 1027.77 22.2C1096.36 22.7 1164.47 50.3 1233.06 53.3C1301.5 56.3 1370.25 34.7 1404.62 23.8L1439 13V246H1404.62C1370.25 246 1301.5 246 1233.06 246C1164.47 246 1096.36 246 1027.77 246C959.333 246 890.581 246 822.149 246C753.556 246 685.444 246 616.851 246C548.419 246 479.667 246 411.234 246C342.642 246 274.529 246 205.937 246C137.504 246 68.7522 246 34.3761 246H0V0Z" fill="#139E96"/>
<path d="M0 43L34.3761 43.2C68.7522 43.3 137.504 43.7 205.937 54.8C274.529 66 342.642 88 411.234 100.8C479.667 113.7 548.419 117.3 616.851 108C685.444 98.7 753.556 76.3 822.149 63.2C890.581 50 959.333 46 1027.77 45.5C1096.36 45 1164.47 48 1233.06 49.2C1301.5 50.3 1370.25 49.7 1404.62 49.3L1439 49V246H1404.62C1370.25 246 1301.5 246 1233.06 246C1164.47 246 1096.36 246 1027.77 246C959.333 246 890.581 246 822.149 246C753.556 246 685.444 246 616.851 246C548.419 246 479.667 246 411.234 246C342.642 246 274.529 246 205.937 246C137.504 246 68.7522 246 34.3761 246H0V43Z" fill="#128D83"/>
<path d="M0 150L34.3761 149.8C68.7522 149.7 137.504 149.3 205.937 145C274.529 140.7 342.642 132.3 411.234 125.5C479.667 118.7 548.419 113.3 616.851 115.2C685.444 117 753.556 126 822.149 124.5C890.581 123 959.333 111 1027.77 103.7C1096.36 96.3 1164.47 93.7 1233.06 91C1301.5 88.3 1370.25 85.7 1404.62 84.3L1439 83V246H1404.62C1370.25 246 1301.5 246 1233.06 246C1164.47 246 1096.36 246 1027.77 246C959.333 246 890.581 246 822.149 246C753.556 246 685.444 246 616.851 246C548.419 246 479.667 246 411.234 246C342.642 246 274.529 246 205.937 246C137.504 246 68.7522 246 34.3761 246H0V150Z" fill="#107C71"/>
<path d="M0 159L34.3761 156C68.7522 153 137.504 147 205.937 151.5C274.529 156 342.642 171 411.234 173.8C479.667 176.7 548.419 167.3 616.851 167.3C685.444 167.3 753.556 176.7 822.149 176.8C890.581 177 959.333 168 1027.77 163.2C1096.36 158.3 1164.47 157.7 1233.06 160.7C1301.5 163.7 1370.25 170.3 1404.62 173.7L1439 177V246H1404.62C1370.25 246 1301.5 246 1233.06 246C1164.47 246 1096.36 246 1027.77 246C959.333 246 890.581 246 822.149 246C753.556 246 685.444 246 616.851 246C548.419 246 479.667 246 411.234 246C342.642 246 274.529 246 205.937 246C137.504 246 68.7522 246 34.3761 246H0V159Z" fill="#0D6C60"/>
</g>
<defs>
<clipPath id="clip0_153_5575">
<rect width="1439" height="150" fill="white"/>
</clipPath>
</defs>
</svg>
