<svg width="16" height="16" viewBox="0 0 16 16" fill="none" xmlns="http://www.w3.org/2000/svg">
<path d="M0 8C0 10.1217 0.842854 12.1566 2.34315 13.6569C3.84344 15.1571 5.87827 16 8 16C10.1217 16 12.1566 15.1571 13.6569 13.6569C15.1571 12.1566 16 10.1217 16 8C16 5.87827 15.1571 3.84344 13.6569 2.34315C12.1566 0.842855 10.1217 0 8 0C5.87827 0 3.84344 0.842855 2.34315 2.34315C0.842854 3.84344 0 5.87827 0 8V8ZM7.5 4.5C7.5 4.36739 7.55268 4.24021 7.64645 4.14645C7.74021 4.05268 7.86739 4 8 4C8.13261 4 8.25979 4.05268 8.35355 4.14645C8.44732 4.24021 8.5 4.36739 8.5 4.5V10.293L10.646 8.146C10.7399 8.05211 10.8672 7.99937 11 7.99937C11.1328 7.99937 11.2601 8.05211 11.354 8.146C11.4479 8.23989 11.5006 8.36722 11.5006 8.5C11.5006 8.63278 11.4479 8.76011 11.354 8.854L8.354 11.854C8.30755 11.9006 8.25238 11.9375 8.19163 11.9627C8.13089 11.9879 8.06577 12.0009 8 12.0009C7.93423 12.0009 7.86911 11.9879 7.80837 11.9627C7.74762 11.9375 7.69245 11.9006 7.646 11.854L4.646 8.854C4.55211 8.76011 4.49937 8.63278 4.49937 8.5C4.49937 8.36722 4.55211 8.23989 4.646 8.146C4.73989 8.05211 4.86722 7.99937 5 7.99937C5.13278 7.99937 5.26011 8.05211 5.354 8.146L7.5 10.293V4.5Z" fill="#DC3545"/>
</svg>
