<svg width="39" height="32" viewBox="0 0 39 32" fill="none" xmlns="http://www.w3.org/2000/svg">
<path fill-rule="evenodd" clip-rule="evenodd" d="M0.975586 2.66667C0.975586 1.95942 1.26155 1.28115 1.77058 0.781049C2.27961 0.280952 2.97 0 3.68987 0H36.2613C36.9812 0 37.6716 0.280952 38.1806 0.781049C38.6896 1.28115 38.9756 1.95942 38.9756 2.66667C38.9756 3.37391 38.6896 4.05219 38.1806 4.55228C37.6716 5.05238 36.9812 5.33333 36.2613 5.33333H3.68987C2.97 5.33333 2.27961 5.05238 1.77058 4.55228C1.26155 4.05219 0.975586 3.37391 0.975586 2.66667ZM0.975586 16C0.975586 15.2928 1.26155 14.6145 1.77058 14.1144C2.27961 13.6143 2.97 13.3333 3.68987 13.3333H36.2613C36.9812 13.3333 37.6716 13.6143 38.1806 14.1144C38.6896 14.6145 38.9756 15.2928 38.9756 16C38.9756 16.7072 38.6896 17.3855 38.1806 17.8856C37.6716 18.3857 36.9812 18.6667 36.2613 18.6667H3.68987C2.97 18.6667 2.27961 18.3857 1.77058 17.8856C1.26155 17.3855 0.975586 16.7072 0.975586 16ZM17.2613 29.3333C17.2613 28.6261 17.5473 27.9478 18.0563 27.4477C18.5653 26.9476 19.2557 26.6667 19.9756 26.6667H36.2613C36.9812 26.6667 37.6716 26.9476 38.1806 27.4477C38.6896 27.9478 38.9756 28.6261 38.9756 29.3333C38.9756 30.0406 38.6896 30.7189 38.1806 31.219C37.6716 31.719 36.9812 32 36.2613 32H19.9756C19.2557 32 18.5653 31.719 18.0563 31.219C17.5473 30.7189 17.2613 30.0406 17.2613 29.3333Z" fill="#2b2963"/>
</svg>
