<svg xmlns="http://www.w3.org/2000/svg" xmlns:xlink="http://www.w3.org/1999/xlink" viewBox="0 0 54.24 59.33"><defs><style>.cls-1{isolation:isolate;}.cls-2{fill:#a8020b;}.cls-3{fill:#7d0618;}.cls-4{fill:#ff998a;}.cls-5{fill:#ffb8ad;}.cls-6{fill:#c4251f;}.cls-7{fill:#fef884;}.cls-8{fill:#ffdf31;}.cls-9{fill:#fede31;}.cls-10{fill:#d49792;mix-blend-mode:multiply;}.cls-11{fill:#fbd631;}.cls-12{fill:#fac22a;}.cls-13{fill:#fab01b;}.cls-14{fill:#d85e00;}.cls-15{fill:#ffe763;}.cls-16{fill:#db4534;}.cls-17{fill:#b61d12;}.cls-18{fill:#9d0012;}.cls-19{fill:#fefbbf;}.cls-20{fill:#fefefe;}.cls-21{fill:#8b8b8b;}.cls-22{fill:#d6d6d6;}.cls-23{fill:#6f6f6f;}.cls-24{fill:#8e8e8e;}.cls-25{fill:#f56c5d;}.cls-26{fill:url(#Áåçûìÿííûé_ãðàäèåíò_12);}.cls-27{fill:#e89d07;}.cls-28{fill:url(#Áåçûìÿííûé_ãðàäèåíò_12-2);}.cls-29{fill:#fadd4a;}.cls-30{fill:#fec200;}.cls-31{fill:#ffd13b;}.cls-32{fill:#fbe265;}</style><linearGradient id="Áåçûìÿííûé_ãðàäèåíò_12" x1="42.27" y1="9.87" x2="32.17" y2="11.92" gradientUnits="userSpaceOnUse"><stop offset="0" stop-color="#fede31"/><stop offset="0.43" stop-color="#fdd62e"/><stop offset="0.47" stop-color="#fdd52d"/><stop offset="0.47" stop-color="#fcc927"/><stop offset="0.47" stop-color="#fbbc21"/><stop offset="0.79" stop-color="#fab01b"/></linearGradient><linearGradient id="Áåçûìÿííûé_ãðàäèåíò_12-2" x1="14.92" y1="9.97" x2="31.22" y2="14.63" xlink:href="#Áåçûìÿííûé_ãðàäèåíò_12"/></defs><title>business</title><g class="cls-1"><g id="Layer_2" data-name="Layer 2"><g id="Layer_1-2" data-name="Layer 1"><polygon class="cls-2" points="27.12 59.33 0 43.67 0 15.66 27.12 31.32 27.12 59.33"/><polygon class="cls-3" points="0 15.66 0 43.67 27.12 59.33 0.79 43.22 0 15.66"/><polygon class="cls-3" points="11.39 50.34 11.39 22.24 15.7 24.72 15.7 53.07 11.39 50.34"/><polygon class="cls-4" points="27.12 31.32 0 15.66 27.12 0 54.24 15.66 27.12 31.32"/><polygon class="cls-5" points="52.63 15.55 27.12 30.46 0 15.66 27.12 31.32 54.24 15.66 27.12 0 52.63 15.55"/><polygon class="cls-6" points="12.11 8.76 43.56 26.82 48.33 24.11 12.23 8.63 12.11 8.76"/><polygon class="cls-7" points="16.54 6.15 27.79 12.44 23.32 15 12.23 8.63 16.54 6.15"/><polygon class="cls-7" points="48.45 23.99 43.69 26.7 27.83 17.59 32.42 15.03 48.45 23.99"/><polygon class="cls-6" points="15.34 24.55 43.37 8.93 43.3 9.34 15.7 24.72 15.34 24.55"/><polygon class="cls-8" points="32.42 15.03 27.83 17.59 23.32 15 27.79 12.44 32.42 15.03"/><polygon class="cls-9" points="23.32 15 27.83 17.59 15.33 24.56 11.03 22.06 23.32 15"/><path class="cls-10" d="M20,14.33s-5.24-.51-5.05,2.19,5.73,2.55,5.73,2.55h1.8s-2.43,4.23,3,4.23,6-2.34,5.13-3.52a8.72,8.72,0,0,1-1.25-3.17,22.17,22.17,0,0,0,6,.75c2.63-.17,6.57-.48,6.38-1.7s1.08-3.76-2.63-2.8-10,.34-10,.34L25.77,8.93l-2.45.35v2.66Z"/><path class="cls-11" d="M30.05,5.4a21.27,21.27,0,0,1-1.62,8.3l-3.06-.5.14-.76s-2.2-7-.63-8.51a1.08,1.08,0,0,1,.71-.27C28.2,3.64,30.05,3.55,30.05,5.4Z"/><path class="cls-12" d="M25.65,5.77a40.13,40.13,0,0,1,.3,4.31,8.43,8.43,0,0,0,0,1.68l3.25-.6a24.12,24.12,0,0,0,.65-4l0-1.53-.4,2.72a.3.3,0,0,1-.54.13A1.05,1.05,0,0,0,28.1,8a2.12,2.12,0,0,0-1.19.42A.58.58,0,0,1,26,8C25.9,7.26,25.76,6.29,25.65,5.77Z"/><path class="cls-13" d="M25.71,13.2h-.34l.14-.76s-2.2-7-.63-8.51a1.44,1.44,0,0,1,.47,1A38.59,38.59,0,0,1,25.71,13.2Z"/><path class="cls-14" d="M24.69,4.41s-.59.26,0,3.82a21.62,21.62,0,0,0,1.08,4.63S25.51,2.83,24.69,4.41Z"/><polygon class="cls-15" points="43.37 8.93 32.42 15.03 27.79 12.44 38.61 6.22 43.37 8.93"/><polygon class="cls-13" points="11.03 50.17 11.03 22.07 15.34 24.55 15.34 52.9 11.03 50.17"/><polygon class="cls-16" points="27.12 59.33 54.24 43.67 54.24 15.66 27.12 31.32 27.12 59.33"/><polygon class="cls-17" points="27.12 59.33 54.24 43.67 54.24 43.18 27.12 58.84 27.12 59.33"/><polygon class="cls-18" points="43.87 49.64 43.87 21.64 39.23 24.32 39.23 52.32 43.87 49.64"/><polygon class="cls-11" points="44.05 49.75 44.05 21.54 39.4 24.22 39.4 52.43 44.05 49.75"/><polygon class="cls-19" points="40.35 19.46 43.46 21.54 39.09 24.06 39.4 24.22 44.05 21.54 40.35 19.46"/><polygon class="cls-18" points="28.73 52.89 36.45 48.42 36.45 41.97 28.87 46.02 28.73 46.44 28.73 52.89"/><polygon class="cls-20" points="29.03 46.15 36.76 41.68 36.6 41.56 28.87 46.02 29.03 46.15"/><polygon class="cls-21" points="29.03 52.6 29.03 46.15 28.87 46.02 28.87 52.48 29.03 52.6"/><polygon class="cls-22" points="29.03 52.6 36.76 48.14 36.76 41.68 29.03 46.15 29.03 52.6"/><polygon class="cls-23" points="29.46 47.03 36.32 43.06 36.32 42.65 29.46 46.62 29.46 47.03"/><polygon class="cls-24" points="32.3 47.19 36.32 44.87 36.32 44.46 32.3 46.78 32.3 47.19"/><polygon class="cls-24" points="29.49 51.54 31.59 50.33 31.59 46.85 29.49 48.06 29.49 51.54"/><polygon class="cls-24" points="32.3 48.08 36.32 45.76 36.32 45.35 32.3 47.67 32.3 48.08"/><polygon class="cls-24" points="32.3 48.97 36.32 46.65 36.32 46.24 32.3 48.56 32.3 48.97"/><polygon class="cls-24" points="32.3 49.86 36.32 47.54 36.32 47.13 32.3 49.45 32.3 49.86"/><polygon class="cls-25" points="27.12 31.32 27.12 59.33 28.01 30.8 27.12 31.32"/><polygon class="cls-25" points="53.24 16.24 54.24 43.18 54.24 15.66 53.24 16.24"/><path class="cls-14" d="M28.47,13.42a16,16,0,0,0,7.32,0,27.5,27.5,0,0,0,6.62-3.07l1,2.83s-4.09,4.55-15,2.31Z"/><path class="cls-26" d="M28.47,13.42S36.55,6,40,7.22s3.43,5.58,3.37,5.93c0,0-1.93-4.11-8.27-.26a25.64,25.64,0,0,1-6.73,2.57Z"/><path class="cls-27" d="M37,7.77a36.38,36.38,0,0,0-4.37,2.55c-1.64,1.21-2.31,2-3.73,2.52A1.4,1.4,0,0,0,28,14.69l.51.32s1.7-.06,4.94-1.83l4.73-2.57a30.64,30.64,0,0,0-4.36,1.81c-.37.21-1.13.75-1.54.58-.1,0-.21-.09-.22-.19a.32.32,0,0,1,0-.19c0-.09.08-.19.11-.28a.59.59,0,0,0,0-.26.2.2,0,0,0-.2-.15c.18-.52-.62-.12-.2-.47s1.07-.86,1.49-1.14A30.58,30.58,0,0,1,37,7.77Z"/><path class="cls-14" d="M27.93,13.42a16,16,0,0,1-7.32,0A27.32,27.32,0,0,1,14,10.32l-1,2.83s4.4,4.55,15.32,2.31Z"/><path class="cls-28" d="M28.36,15.46a26,26,0,0,1-7-2.57c-4.32-2.62-6.6-1.54-7.6-.6a3.41,3.41,0,0,0-.67.86,7.18,7.18,0,0,1,1.43-4.6,4.37,4.37,0,0,1,2-1.34C19.85,6,27.93,13.42,27.93,13.42Z"/><path class="cls-12" d="M21.25,8.64s3.66,2.29,4.23,3.09-.43,2.61-.43,2.61-2-.77-2.35-.94S20,11.79,20,11.79s3.45,1.51,3.68,1.48.56-1.4.56-1.4l.06-.73Z"/><path class="cls-29" d="M28.72,11.76s.63-2-1.13-2-2.2,0-2.17,1.29a5.16,5.16,0,0,0,1.46,2.73Z"/><path class="cls-30" d="M27.68,10.78s1.38-1.64,2.29-.16,1.19,1.83.1,2.5a5.24,5.24,0,0,1-3.08.29Z"/><path class="cls-30" d="M26.3,11.1S24.92,9.46,24,10.93s-1.19,1.83-.1,2.51a5.21,5.21,0,0,0,3.08.28Z"/><path class="cls-13" d="M29.07,12.44c.6.37.73,2.31-1.72,2.26s-3.37,0-3-1.28c.45-1.69,2.81-1,2.81-1A5.22,5.22,0,0,1,29.07,12.44Z"/><path class="cls-29" d="M25.52,13.52s-.93-.29-1.9,1.85c-1.56,3.47-.33,6.19.55,6.47,1.6.51,5.25.74,5.78-1.14s-1.21-7.18-1.21-7.18l-1.34.18Z"/><path class="cls-29" d="M25.52,13.52s-.93-.29-1.9,1.85c-1.56,3.47-.33,6.19.55,6.47,1.6.51,5.25.74,5.78-1.14s-1.21-7.18-1.21-7.18l-1.34.18Z"/><path class="cls-13" d="M28.74,13.52l-.19.06c.35,1.17,1.33,4.51.95,5.88-.46,1.64-3.66,1.44-5.06,1s-2-2.28-.48-5.66c.05-.11.09-.2.14-.29a6.79,6.79,0,0,0-.48.87c-1.56,3.47-.33,6.19.55,6.47,1.6.51,5.25.74,5.78-1.14S28.74,13.52,28.74,13.52Z"/><path class="cls-31" d="M24.17,18.6c-.57-.18-.69-.64-1-1.24-.69,2.56-.32,4.07,1,4.48,1.6.51,5.25.74,5.78-1.14a8.08,8.08,0,0,0-.12-3C29,19.31,25.68,19.08,24.17,18.6Z"/><path class="cls-13" d="M30,19.1a2.79,2.79,0,0,1-.06.33c-.53,1.89-4.18,1.65-5.78,1.14-.8-.25-1-1-1.19-2.05-.21,1.85.12,3,1.19,3.32,1.6.51,5.25.74,5.78-1.14A5,5,0,0,0,30,19.1Z"/><path class="cls-32" d="M42.7,12.16A2.93,2.93,0,0,0,40.56,11a9.11,9.11,0,0,0,0-1.08A7.11,7.11,0,0,0,40.3,7.5a3,3,0,0,1,.81.49c1.16,1,1.53,1.65,1.59,2.21S42.7,12.16,42.7,12.16Z"/><path class="cls-32" d="M15,8.22a3.08,3.08,0,0,1,2.23-1,4.56,4.56,0,0,1,2.24.63,5.07,5.07,0,0,0-1.07.74,2.37,2.37,0,0,0,.08.92,4.35,4.35,0,0,1-.15,1.11c-.11,0,1.06,1,1.06,1a5.85,5.85,0,0,0-3.21-.67,9,9,0,0,0-1.75.57A14.9,14.9,0,0,0,15,9.62,6.6,6.6,0,0,0,15,8.22Z"/><path class="cls-13" d="M14.47,8.55a8,8,0,0,0-.31,1.88,7.35,7.35,0,0,1-.45,1.86,3.41,3.41,0,0,0-.67.86A7.18,7.18,0,0,1,14.47,8.55Z"/></g></g></g></svg>