<svg width="24" height="24" viewBox="0 0 24 24" fill="none" xmlns="http://www.w3.org/2000/svg">
<path d="M5.034 9.11694C4.08821 9.35494 3.26188 9.9301 2.71025 10.7344C2.15863 11.5387 1.91968 12.5167 2.03831 13.4847C2.15693 14.4528 2.62496 15.3442 3.35447 15.9914C4.08397 16.6387 5.02473 16.9974 6 16.9999H7M12 21.9999V12.9999V21.9999ZM12 21.9999L9.5 19.9999L12 21.9999ZM12 21.9999L14.5 19.9999L12 21.9999Z" stroke="#2b2963" stroke-width="2" stroke-linecap="round" stroke-linejoin="round"/>
<path d="M15.83 7.13796C15.4882 5.78453 14.6446 4.6117 13.4701 3.85722C12.2957 3.10274 10.8783 2.82305 9.50526 3.07487C8.13224 3.32668 6.90634 4.09115 6.07606 5.2133C5.24579 6.33545 4.87326 7.73133 5.034 9.11796C5.034 9.11796 5.187 9.99996 5.5 10.5" stroke="#2b2963" stroke-width="2" stroke-linecap="round" stroke-linejoin="round"/>
<path d="M17 17C17.706 16.9995 18.404 16.8495 19.0479 16.5599C19.6917 16.2702 20.267 15.8475 20.7357 15.3195C21.2045 14.7915 21.5561 14.1702 21.7674 13.4965C21.9787 12.8229 22.045 12.1121 21.9618 11.4109C21.8786 10.7098 21.6479 10.0343 21.2848 9.42874C20.9217 8.82321 20.4345 8.30145 19.8552 7.89778C19.276 7.49412 18.6178 7.21772 17.924 7.08676C17.2302 6.9558 16.5166 6.97327 15.83 7.138L14.5 7.5" stroke="#2b2963" stroke-width="2" stroke-linecap="round" stroke-linejoin="round"/>
</svg>
