<svg width="21" height="26" viewBox="0 0 21 26" fill="none" xmlns="http://www.w3.org/2000/svg">
<path d="M2.62514 15.4975L15.4463 15.4988C15.5677 15.7138 15.7147 15.9126 15.8897 16.0901L16.7286 16.9429C16.6819 17.1429 16.6189 17.3417 16.5419 17.5405C16.3953 17.4314 16.221 17.3729 16.0425 17.373H2.62514C2.39306 17.373 2.17049 17.4718 2.00639 17.6476C1.84229 17.8235 1.75009 18.062 1.75009 18.3107V19.4447C1.75009 20.2649 2.08378 21.0451 2.66481 21.579C4.13256 22.9306 6.34351 23.6245 9.33033 23.6245C9.66985 23.6245 10.0012 23.6158 10.3221 23.5983C10.4154 24.1559 10.6651 24.686 11.0571 25.1099L11.3231 25.395C10.6907 25.465 10.028 25.5 9.33033 25.5C5.95849 25.5 3.34735 24.6798 1.52375 22.9994C1.04578 22.5592 0.662177 22.0136 0.399188 21.3999C0.136198 20.7862 3.03719e-05 20.1188 0 19.4435V18.3095C0.000309346 17.5636 0.277023 16.8483 0.769298 16.321C1.26157 15.7937 1.92911 15.4975 2.62514 15.4975ZM16.3424 13.3032L16.9304 11.8191C17.2058 11.1239 17.865 10.7451 18.5125 10.8901L18.6502 10.9276L19.3852 11.1802C20.1144 11.4302 20.6733 12.0992 20.8541 12.9394C21.2823 14.9374 20.7678 17.3692 19.3117 20.2362C17.8568 23.0994 16.2619 24.8198 14.5281 25.4C14.197 25.5099 13.8454 25.5282 13.5059 25.4532C13.1664 25.3782 12.8502 25.2124 12.5867 24.9711L12.4432 24.8298L11.8843 24.2297C11.6494 23.9704 11.4976 23.6377 11.451 23.2798C11.4044 22.9219 11.4655 22.5574 11.6253 22.2392L11.7081 22.0942L12.5493 20.7688C12.8807 20.2474 13.4477 20.0011 13.9938 20.1249L14.1419 20.1687L15.696 20.7238C16.3266 20.2084 16.8543 19.5625 17.2478 18.8246C17.588 18.2115 17.8235 17.5383 17.9431 16.8366L17.9875 16.499L16.6936 15.1837C16.4846 14.9656 16.336 14.6898 16.2644 14.3868C16.1927 14.0838 16.2007 13.7654 16.2875 13.467L16.3424 13.3045L16.9304 11.8191L16.3424 13.3032V13.3032ZM9.33033 0.5C10.0964 0.5 10.855 0.661701 11.5628 0.975872C12.2705 1.29004 12.9136 1.75053 13.4553 2.33104C13.997 2.91155 14.4268 3.60072 14.7199 4.35919C15.0131 5.11767 15.164 5.9306 15.164 6.75156C15.164 7.57253 15.0131 8.38546 14.7199 9.14393C14.4268 9.90241 13.997 10.5916 13.4553 11.1721C12.9136 11.7526 12.2705 12.2131 11.5628 12.5273C10.855 12.8414 10.0964 13.0031 9.33033 13.0031C7.78315 13.0031 6.29934 12.3445 5.20532 11.1721C4.1113 9.99969 3.49669 8.40958 3.49669 6.75156C3.49669 5.09355 4.1113 3.50344 5.20532 2.33104C6.29934 1.15864 7.78315 0.5 9.33033 0.5V0.5ZM9.33033 2.37547C8.79407 2.37547 8.26307 2.48866 7.76763 2.70858C7.27219 2.9285 6.82202 3.25084 6.44283 3.6572C6.06363 4.06355 5.76284 4.54597 5.55762 5.0769C5.35241 5.60784 5.24678 6.17689 5.24678 6.75156C5.24678 7.32624 5.35241 7.89529 5.55762 8.42622C5.76284 8.95715 6.06363 9.43957 6.44283 9.84593C6.82202 10.2523 7.27219 10.5746 7.76763 10.7945C8.26307 11.0145 8.79407 11.1277 9.33033 11.1277C10.4134 11.1277 11.452 10.6666 12.2178 9.84593C12.9837 9.02525 13.4139 7.91218 13.4139 6.75156C13.4139 5.59095 12.9837 4.47787 12.2178 3.6572C11.452 2.83652 10.4134 2.37547 9.33033 2.37547V2.37547Z" fill="#333333"/>
</svg>
