<svg width="32" height="31" viewBox="0 0 32 31" fill="none" xmlns="http://www.w3.org/2000/svg">
<path d="M21.1667 20.6667H28.9167M25.0417 16.7917V24.5417M27.625 12.9167V10.3333C27.6245 9.8803 27.505 9.43537 27.2782 9.04315C27.0515 8.65094 26.7257 8.32525 26.3333 8.09874L17.2917 2.93207C16.899 2.70533 16.4535 2.58597 16 2.58597C15.5465 2.58597 15.1011 2.70533 14.7083 2.93207L5.66667 8.09874C5.27434 8.32525 4.94847 8.65094 4.72176 9.04315C4.49505 9.43537 4.37546 9.8803 4.375 10.3333V20.6667C4.37546 21.1197 4.49505 21.5646 4.72176 21.9568C4.94847 22.349 5.27434 22.6747 5.66667 22.9012L14.7083 28.0679C15.1011 28.2946 15.5465 28.414 16 28.414C16.4535 28.414 16.899 28.2946 17.2917 28.0679L19.875 26.5954M21.8125 12.1417L10.2521 5.47665" stroke="white" stroke-width="3.91667" stroke-linecap="round" stroke-linejoin="round"/>
<path d="M4.74951 9.04166L15.9999 15.5L27.2503 9.04166M15.9999 28.4167V15.5" stroke="white" stroke-width="3.91667" stroke-linecap="round" stroke-linejoin="round"/>
</svg>
