<svg xmlns="http://www.w3.org/2000/svg" viewBox="0 0 53.57 58.88"><defs><style>.cls-1{fill:#b76f3f;}.cls-2{fill:#8c4320;}.cls-3{fill:#9c480c;}.cls-4{fill:#efd995;}.cls-5{fill:#ffedb4;}.cls-6{fill:#ab774d;}.cls-7{fill:#e6e1e4;}.cls-8{fill:#c39055;}.cls-9{fill:#f9f9f9;}.cls-10{fill:#f1f1f1;}.cls-11{fill:#b3a4ad;}.cls-12{fill:#d9af6a;}.cls-13{fill:#9d6f40;}.cls-14{fill:#d6d6d6;}.cls-15{fill:#a45823;}.cls-16{fill:#fefefe;}.cls-17{fill:#8b8b8b;}.cls-18{fill:#6f6f6f;}.cls-19{fill:#8e8e8e;}</style></defs><title>developing</title><g id="Layer_2" data-name="Layer 2"><g id="Layer_1-2" data-name="Layer 1"><polygon class="cls-1" points="26.78 58.88 0 43.41 0 15.46 26.78 30.93 26.78 58.88"/><polygon class="cls-2" points="0 15.46 0 43.41 26.78 58.88 0.78 42.97 0 15.46"/><polygon class="cls-3" points="11.25 50 11.25 21.96 15.51 24.42 15.51 52.7 11.25 50"/><polygon class="cls-4" points="26.78 30.93 0 15.46 26.78 0 53.57 15.46 26.78 30.93"/><polygon class="cls-5" points="51.59 15.46 26.86 29.69 0 15.46 26.78 30.93 53.57 15.46 26.78 0 51.59 15.46"/><polygon class="cls-6" points="11.96 8.65 43.02 26.49 47.73 23.81 12.08 8.53 11.96 8.65"/><polygon class="cls-7" points="16.34 6.07 27.44 12.28 23.03 14.82 12.08 8.53 16.34 6.07"/><polygon class="cls-7" points="47.85 23.7 43.14 26.36 27.48 17.37 32.02 14.84 47.85 23.7"/><polygon class="cls-8" points="15.14 24.25 42.83 8.82 42.76 9.23 15.51 24.42 15.14 24.25"/><polygon class="cls-9" points="32.02 14.84 27.48 17.37 23.03 14.82 27.44 12.28 32.02 14.84"/><polygon class="cls-10" points="23.03 14.82 27.48 17.37 15.14 24.25 10.89 21.79 23.03 14.82"/><polygon class="cls-10" points="42.84 8.82 32.02 14.84 27.44 12.28 38.13 6.15 42.84 8.82"/><polygon class="cls-11" points="10.89 49.83 10.89 21.79 15.14 24.25 15.14 52.53 10.89 49.83"/><polygon class="cls-12" points="26.78 58.88 53.57 43.41 53.57 15.46 26.78 30.93 26.78 58.88"/><polygon class="cls-13" points="26.78 58.88 53.57 43.41 53.57 42.93 26.78 58.4 26.78 58.88"/><polygon class="cls-3" points="28.37 52.87 36 48.46 36 42.09 28.51 46.09 28.37 46.5 28.37 52.87"/><polygon class="cls-3" points="43.33 49.31 43.33 21.37 38.74 24.02 38.74 51.96 43.33 49.31"/><polygon class="cls-14" points="43.5 49.42 43.5 21.27 38.91 23.92 38.91 52.06 43.5 49.42"/><path class="cls-15" d="M8.06,31l-6.22-3.6V18.28l6.22,3.59ZM2.41,27.1,7.49,30V22.2L2.41,19.27Z"/><polygon class="cls-15" points="3.77 26.56 5.88 27.78 5.88 25.27 3.77 24.05 3.77 26.56"/><polygon class="cls-15" points="2.73 23.48 6.91 25.89 4.82 21.52 2.73 23.48"/><polygon class="cls-16" points="28.67 46.21 36.3 41.8 36.14 41.68 28.51 46.09 28.67 46.21"/><polygon class="cls-17" points="28.67 52.59 28.67 46.21 28.51 46.09 28.51 52.47 28.67 52.59"/><polygon class="cls-14" points="28.67 52.59 36.3 48.18 36.3 41.8 28.67 46.21 28.67 52.59"/><polygon class="cls-18" points="29.1 47.08 35.87 43.16 35.87 42.76 29.1 46.68 29.1 47.08"/><polygon class="cls-19" points="31.9 47.24 35.87 44.95 35.87 44.55 31.9 46.84 31.9 47.24"/><polygon class="cls-19" points="29.12 51.53 31.19 50.34 31.19 46.91 29.12 48.1 29.12 51.53"/><polygon class="cls-19" points="31.9 48.12 35.87 45.83 35.87 45.43 31.9 47.72 31.9 48.12"/><polygon class="cls-19" points="31.9 49 35.87 46.71 35.87 46.31 31.9 48.59 31.9 49"/><polygon class="cls-19" points="31.9 49.88 35.87 47.59 35.87 47.18 31.9 49.47 31.9 49.88"/><polygon class="cls-10" points="39.85 19.22 42.92 21.27 38.91 23.59 38.91 23.92 43.5 21.27 39.85 19.22"/></g></g></svg>