<svg width="17" height="12" viewBox="0 0 17 12" fill="none" xmlns="http://www.w3.org/2000/svg">
<g clip-path="url(#clip0_218_5413)">
<path d="M17 10.5V1.5C17 0.67 16.33 0 15.5 0H1.49001C0.660006 0 -0.00999451 0.67 -0.00999451 1.5V10.5C-0.00999451 11.33 0.660006 12 1.49001 12H15.5C16.33 12 17 11.33 17 10.5ZM15.69 1.39C16.02 1.72 15.84 2.06 15.66 2.23L11.6 5.95L15.5 10.01C15.62 10.15 15.7 10.37 15.56 10.52C15.43 10.68 15.13 10.67 15 10.57L10.63 6.84L8.49001 8.79L6.36001 6.84L1.99001 10.57C1.86001 10.67 1.56001 10.68 1.43001 10.52C1.29001 10.37 1.37001 10.15 1.49001 10.01L5.39001 5.95L1.33001 2.23C1.15001 2.06 0.970005 1.72 1.30001 1.39C1.63001 1.06 1.97001 1.22 2.25001 1.46L8.49001 6.5L14.74 1.46C15.02 1.22 15.36 1.06 15.69 1.39V1.39Z" fill="white"/>
</g>
<defs>
<clipPath id="clip0_218_5413">
<rect width="17" height="12" fill="white"/>
</clipPath>
</defs>
</svg>
