<svg width="32" height="32" viewBox="0 0 32 32" fill="none" xmlns="http://www.w3.org/2000/svg">
<path fill-rule="evenodd" clip-rule="evenodd" d="M28.781 4.40507H18.651V2.01807L2 4.58807V27.1151L18.651 29.9831V26.4451H28.781C29.0878 26.4606 29.3883 26.354 29.6167 26.1487C29.8451 25.9433 29.9829 25.6558 30 25.3491V5.50007C29.9827 5.19353 29.8448 4.9063 29.6164 4.70113C29.388 4.49596 29.0876 4.38952 28.781 4.40507ZM28.941 25.5311H18.617L18.6 23.6421H21.087V21.4421H18.581L18.569 20.1421H21.087V17.9421H18.55L18.538 16.6421H21.087V14.4421H18.53V13.1421H21.087V10.9421H18.53V9.64207H21.087V7.44207H18.53V5.44207H28.941V25.5311Z" fill="#20744A"/>
<path d="M22.487 7.43896H26.81V9.63896H22.487V7.43896ZM22.487 10.94H26.81V13.14H22.487V10.94ZM22.487 14.441H26.81V16.641H22.487V14.441ZM22.487 17.942H26.81V20.142H22.487V17.942ZM22.487 21.443H26.81V23.643H22.487V21.443Z" fill="#20744A"/>
<path fill-rule="evenodd" clip-rule="evenodd" d="M6.34699 10.6729L8.49299 10.5499L9.84199 14.2589L11.436 10.3969L13.582 10.2739L10.976 15.5399L13.582 20.8189L11.313 20.6659L9.78099 16.6419L8.24799 20.5129L6.16299 20.3289L8.58499 15.6659L6.34699 10.6729Z" fill="white"/>
</svg>
