<svg width="29" height="28" viewBox="0 0 29 28" fill="none" xmlns="http://www.w3.org/2000/svg">
<path d="M28.3986 13.7833L16.0387 1.6053L15.2102 0.788604C15.0214 0.603748 14.7661 0.5 14.5001 0.5C14.234 0.5 13.9787 0.603748 13.7899 0.788604L0.601497 13.7833C0.408072 13.9732 0.255206 14.1994 0.15192 14.4485C0.0486344 14.6976 -0.00297684 14.9646 0.000132587 15.2338C0.0129276 16.3437 0.950161 17.2298 2.07612 17.2298H3.43559V27.5H25.5645V17.2298H26.9528C27.4998 17.2298 28.0148 17.0185 28.4018 16.637C28.5924 16.4497 28.7434 16.227 28.8461 15.9818C28.9488 15.7366 29.0011 15.4738 29 15.2085C29 14.6725 28.7857 14.1648 28.3986 13.7833V13.7833ZM16.2914 25.2296H12.7088V18.797H16.2914V25.2296ZM23.2614 14.9594V25.2296H18.3386V18.0402C18.3386 17.3433 17.766 16.7789 17.0591 16.7789H11.9411C11.2341 16.7789 10.6616 17.3433 10.6616 18.0402V25.2296H5.73869V14.9594H2.66789L14.5033 3.30176L15.2422 4.03017L26.3354 14.9594H23.2614Z" fill="white"/>
</svg>
