<svg width="33" height="34" viewBox="0 0 33 34" fill="none" xmlns="http://www.w3.org/2000/svg">
<path d="M0 6.84615C0 5.16305 0.668611 3.54888 1.85875 2.35875C3.04888 1.16861 4.66305 0.5 6.34615 0.5H24.1154C25.7985 0.5 27.4127 1.16861 28.6028 2.35875C29.7929 3.54888 30.4615 5.16305 30.4615 6.84615V19.1247C29.6588 18.7427 28.803 18.4843 27.9231 18.3581V10.6538H22.8462V18.2692H20.3077V10.6538H10.1538V20.8077H10.2808C9.43557 21.6342 8.76431 22.6214 8.30655 23.7113C7.8488 24.8012 7.61379 25.9717 7.61538 27.1538V23.3462H2.53846V24.6154C2.53846 25.6252 2.93963 26.5937 3.65371 27.3078C4.36779 28.0219 5.33629 28.4231 6.34615 28.4231H7.61538V27.1538C7.61538 28.517 7.92 29.8065 8.47085 30.9615H6.34615C4.66305 30.9615 3.04888 30.2929 1.85875 29.1028C0.668611 27.9127 0 26.2985 0 24.6154V6.84615ZM7.61538 10.6538H2.53846V20.8077H7.61538V10.6538ZM10.1538 8.11538H20.3077V3.03846H10.1538V8.11538ZM7.61538 3.03846H6.34615C5.33629 3.03846 4.36779 3.43963 3.65371 4.15371C2.93963 4.86779 2.53846 5.83629 2.53846 6.84615V8.11538H7.61538V3.03846ZM27.9231 8.11538V6.84615C27.9231 5.83629 27.5219 4.86779 26.8078 4.15371C26.0937 3.43963 25.1252 3.03846 24.1154 3.03846H22.8462V8.11538H27.9231ZM16.5 20.8077C14.8169 20.8077 13.2027 21.4763 12.0126 22.6664C10.8225 23.8566 10.1538 25.4707 10.1538 27.1538C10.1538 28.8369 10.8225 30.4511 12.0126 31.6413C13.2027 32.8314 14.8169 33.5 16.5 33.5H17.7692C18.1059 33.5 18.4287 33.3663 18.6667 33.1283C18.9047 32.8902 19.0385 32.5674 19.0385 32.2308C19.0385 31.8941 18.9047 31.5713 18.6667 31.3333C18.4287 31.0953 18.1059 30.9615 17.7692 30.9615H16.5C15.4901 30.9615 14.5216 30.5604 13.8076 29.8463C13.0935 29.1322 12.6923 28.1637 12.6923 27.1538C12.6923 26.144 13.0935 25.1755 13.8076 24.4614C14.5216 23.7473 15.4901 23.3462 16.5 23.3462H17.7692C18.1059 23.3462 18.4287 23.2124 18.6667 22.9744C18.9047 22.7364 19.0385 22.4135 19.0385 22.0769C19.0385 21.7403 18.9047 21.4175 18.6667 21.1794C18.4287 20.9414 18.1059 20.8077 17.7692 20.8077H16.5ZM25.3846 20.8077C25.048 20.8077 24.7252 20.9414 24.4871 21.1794C24.2491 21.4175 24.1154 21.7403 24.1154 22.0769C24.1154 22.4135 24.2491 22.7364 24.4871 22.9744C24.7252 23.2124 25.048 23.3462 25.3846 23.3462H26.6538C27.6637 23.3462 28.6322 23.7473 29.3463 24.4614C30.0604 25.1755 30.4615 26.144 30.4615 27.1538C30.4615 28.1637 30.0604 29.1322 29.3463 29.8463C28.6322 30.5604 27.6637 30.9615 26.6538 30.9615H25.3846C25.048 30.9615 24.7252 31.0953 24.4871 31.3333C24.2491 31.5713 24.1154 31.8941 24.1154 32.2308C24.1154 32.5674 24.2491 32.8902 24.4871 33.1283C24.7252 33.3663 25.048 33.5 25.3846 33.5H26.6538C28.3369 33.5 29.9511 32.8314 31.1413 31.6413C32.3314 30.4511 33 28.8369 33 27.1538C33 25.4707 32.3314 23.8566 31.1413 22.6664C29.9511 21.4763 28.3369 20.8077 26.6538 20.8077H25.3846ZM15.2308 27.1538C15.2308 26.8172 15.3645 26.4944 15.6025 26.2564C15.8405 26.0183 16.1634 25.8846 16.5 25.8846H26.6538C26.9905 25.8846 27.3133 26.0183 27.5513 26.2564C27.7894 26.4944 27.9231 26.8172 27.9231 27.1538C27.9231 27.4905 27.7894 27.8133 27.5513 28.0513C27.3133 28.2894 26.9905 28.4231 26.6538 28.4231H16.5C16.1634 28.4231 15.8405 28.2894 15.6025 28.0513C15.3645 27.8133 15.2308 27.4905 15.2308 27.1538Z" fill="#333333"/>
</svg>
