<svg width="53" height="47" viewBox="0 0 53 47" fill="none" xmlns="http://www.w3.org/2000/svg">
<path d="M52.4739 17.4871H37.0863C36.8219 17.4871 36.6055 17.7035 36.6055 17.968V20.8532C36.6055 21.1176 36.8219 21.334 37.0863 21.334H52.4739C52.7384 21.334 52.9548 21.1176 52.9548 20.8532V17.968C52.9548 17.7035 52.7384 17.4871 52.4739 17.4871ZM44.4195 25.6618H37.0863C36.8219 25.6618 36.6055 25.8782 36.6055 26.1426V29.0278C36.6055 29.2923 36.8219 29.5087 37.0863 29.5087H44.4195C44.684 29.5087 44.9003 29.2923 44.9003 29.0278V26.1426C44.9003 25.8782 44.684 25.6618 44.4195 25.6618ZM24.3616 12.1075H21.7589C21.3862 12.1075 21.0857 12.4081 21.0857 12.7807V27.6874C21.0857 27.9038 21.1879 28.1022 21.3622 28.2284L30.3122 34.7561C30.6128 34.9725 31.0335 34.9124 31.2499 34.6118L32.7947 32.502V32.496C33.011 32.1955 32.9449 31.7747 32.6444 31.5583L25.0288 26.0525V12.7807C25.0348 12.4081 24.7282 12.1075 24.3616 12.1075Z" fill="#79D8FF"/>
<path d="M44.0469 33.2293H40.5727C40.2361 33.2293 39.9175 33.4036 39.7372 33.6922C38.9738 34.9003 38.0842 36.0183 37.0624 37.0402C35.3013 38.8013 33.2516 40.1838 30.9735 41.1455C28.6113 42.1433 26.1048 42.6482 23.5202 42.6482C20.9295 42.6482 18.423 42.1433 16.0668 41.1455C13.7887 40.1838 11.7391 38.8013 9.97791 37.0402C8.21676 35.279 6.83428 33.2293 5.87256 30.9513C4.87477 28.595 4.36987 26.0886 4.36987 23.4979C4.36987 20.9073 4.87477 18.4068 5.87256 16.0446C6.83428 13.7665 8.21676 11.7168 9.97791 9.95566C11.7391 8.19451 13.7887 6.81203 16.0668 5.85031C18.423 4.85252 20.9355 4.34762 23.5202 4.34762C26.1108 4.34762 28.6173 4.85252 30.9735 5.85031C33.2516 6.81203 35.3013 8.19451 37.0624 9.95566C38.0842 10.9775 38.9738 12.0955 39.7372 13.3037C39.9175 13.5922 40.2361 13.7665 40.5727 13.7665H44.0469C44.4617 13.7665 44.7261 13.3337 44.5398 12.9671C40.6208 5.17109 32.6746 0.104016 23.8027 0.00183344C10.8134 -0.160457 0.0240841 10.4726 4.10644e-05 23.4498C-0.024002 36.4511 10.5129 47 23.5142 47C32.5002 47 40.5787 41.9149 44.5398 34.0288C44.7261 33.6621 44.4557 33.2293 44.0469 33.2293Z" fill="#79D8FF"/>
</svg>
