<svg width="42" height="40" viewBox="0 0 42 40" fill="none" xmlns="http://www.w3.org/2000/svg">
<path d="M17.7719 16.5969L26.0948 8.27396L23.3042 5.53229L17.7719 11.0646L6.65833 0L3.91666 2.74167L17.7719 16.5969ZM15.6667 39.0198L29.375 35.201V38.0406H41.125V16.499H25.5562L13.4146 21.0031C12.3375 21.3948 11.4641 22.0802 10.7943 23.0594C10.1259 24.0385 9.79167 25.1156 9.79167 26.2906H5.875C4.24305 26.2906 2.8559 26.8292 1.71354 27.9063C0.571178 28.9833 0 30.4031 0 32.1656V34.124L15.6667 39.0198ZM37.2083 34.124H33.2917V20.4156H37.2083V34.124ZM15.7646 34.9073L4.1125 31.2844C4.21041 30.9253 4.43105 30.6557 4.77441 30.4756C5.11647 30.2967 5.48333 30.2073 5.875 30.2073H15.275C16.2868 30.2073 17.2007 30.142 18.0167 30.0115C18.8326 29.8809 19.7139 29.6524 20.6604 29.326L24.0385 28.151L22.9125 24.4302L18.9958 25.7031C18.4083 25.899 17.7229 26.0458 16.9396 26.1438C16.1562 26.2417 15.0792 26.2906 13.7083 26.2906C13.7083 25.9316 13.8141 25.5889 14.0256 25.2625C14.2384 24.9361 14.4917 24.724 14.7854 24.626L26.2417 20.4156H29.375V31.1865L15.7646 34.9073Z" fill="#51D388"/>
</svg>
