<svg width="44" height="32" viewBox="0 0 44 32" fill="none" xmlns="http://www.w3.org/2000/svg">
<path d="M9.79183 28.3958C8.16641 28.3958 6.85433 27.0837 6.85433 25.4583C6.85433 23.8329 8.16641 22.5208 9.79183 22.5208C11.4172 22.5208 12.7293 23.8329 12.7293 25.4583C12.7293 27.0837 11.4172 28.3958 9.79183 28.3958ZM6.85433 10.7708H11.7502V15.6667H3.016L6.85433 10.7708ZM33.2918 28.3958C31.6664 28.3958 30.3543 27.0837 30.3543 25.4583C30.3543 23.8329 31.6664 22.5208 33.2918 22.5208C34.9172 22.5208 36.2293 23.8329 36.2293 25.4583C36.2293 27.0837 34.9172 28.3958 33.2918 28.3958ZM5.87516 7.83333L0.000160217 15.6667V25.4583H3.91682C3.91682 28.7092 6.54099 31.3333 9.79183 31.3333C13.0427 31.3333 15.6668 28.7092 15.6668 25.4583H27.4168C27.4168 28.7092 30.041 31.3333 33.2918 31.3333C36.5427 31.3333 39.1668 28.7092 39.1668 25.4583H43.0835V3.91667C43.0835 1.74292 41.3406 0 39.1668 0H11.7502V7.83333H5.87516ZM39.1668 3.91667V21.5417H37.6785C36.6014 20.3471 35.0347 19.5833 33.2918 19.5833C31.5489 19.5833 29.9822 20.3471 28.9052 21.5417H15.6668V3.91667H39.1668ZM25.4585 5.875L18.6043 12.7292L25.4585 19.5833V14.6875H35.2502V10.7708H25.4585V5.875Z" fill="#8F9FFF"/>
</svg>
