<svg width="21" height="26" viewBox="0 0 21 26" fill="none" xmlns="http://www.w3.org/2000/svg">
<path d="M21 18.625C21 19.1 20.755 19.5125 20.3817 19.725L11.165 25.275C10.9783 25.425 10.745 25.5 10.5 25.5C10.255 25.5 10.0217 25.425 9.835 25.275L0.618338 19.725C0.431297 19.6197 0.274769 19.4615 0.165756 19.2675C0.0567443 19.0736 -0.000582365 18.8514 4.46045e-06 18.625V7.375C4.46045e-06 6.9 0.245004 6.4875 0.618338 6.275L9.835 0.725C10.0217 0.575 10.255 0.5 10.5 0.5C10.745 0.5 10.9783 0.575 11.165 0.725L20.3817 6.275C20.755 6.4875 21 6.9 21 7.375V18.625ZM10.5 3.1875L8.295 4.525L15.1667 8.7625L17.4533 7.375L10.5 3.1875ZM3.54667 7.375L10.5 11.5625L12.7867 10.1875L5.92667 5.9375L3.54667 7.375ZM2.33334 17.8875L9.33334 22.1125V13.725L2.33334 9.5125V17.8875ZM18.6667 17.8875V9.5125L11.6667 13.725V22.1125L18.6667 17.8875V17.8875Z" fill="#333333"/>
</svg>
