<svg width="27" height="30" viewBox="0 0 27 30" fill="none" xmlns="http://www.w3.org/2000/svg">
<path d="M5.78571 8.5C5.02284 8.5 4.2771 8.26541 3.6428 7.82588C3.0085 7.38635 2.51412 6.76164 2.22218 6.03074C1.93024 5.29983 1.85386 4.49556 2.00269 3.71964C2.15151 2.94372 2.51887 2.23098 3.0583 1.67157C3.59773 1.11216 4.28501 0.731202 5.03322 0.576861C5.78144 0.42252 6.55698 0.501733 7.26178 0.804484C7.96658 1.10723 8.56898 1.61992 8.99281 2.27772C9.41664 2.93552 9.64286 3.70888 9.64286 4.5C9.64286 5.56087 9.23648 6.57828 8.51313 7.32843C7.78977 8.07857 6.80869 8.5 5.78571 8.5ZM5.78571 2.5C5.40428 2.5 5.03141 2.6173 4.71426 2.83706C4.39711 3.05683 4.14992 3.36918 4.00395 3.73463C3.85798 4.10009 3.81979 4.50222 3.8942 4.89018C3.96861 5.27814 4.15229 5.63451 4.42201 5.91422C4.69172 6.19392 5.03536 6.3844 5.40947 6.46157C5.78358 6.53874 6.17135 6.49914 6.52375 6.34776C6.87615 6.19639 7.17735 5.94004 7.38926 5.61114C7.60118 5.28224 7.71429 4.89556 7.71429 4.5C7.71429 3.96957 7.5111 3.46086 7.14942 3.08579C6.78774 2.71072 6.2972 2.5 5.78571 2.5ZM21.2143 8.5C20.4514 8.5 19.7057 8.26541 19.0714 7.82588C18.4371 7.38635 17.9427 6.76164 17.6508 6.03074C17.3588 5.29983 17.2824 4.49556 17.4313 3.71964C17.5801 2.94372 17.9474 2.23098 18.4869 1.67157C19.0263 1.11216 19.7136 0.731202 20.4618 0.576861C21.21 0.42252 21.9855 0.501733 22.6904 0.804484C23.3952 1.10723 23.9976 1.61992 24.4214 2.27772C24.8452 2.93552 25.0714 3.70888 25.0714 4.5C25.0714 5.56087 24.6651 6.57828 23.9417 7.32843C23.2183 8.07857 22.2373 8.5 21.2143 8.5ZM21.2143 2.5C20.8329 2.5 20.46 2.6173 20.1428 2.83706C19.8257 3.05683 19.5785 3.36918 19.4325 3.73463C19.2865 4.10009 19.2484 4.50222 19.3228 4.89018C19.3972 5.27814 19.5809 5.63451 19.8506 5.91422C20.1203 6.19392 20.4639 6.3844 20.838 6.46157C21.2121 6.53874 21.5999 6.49914 21.9523 6.34776C22.3047 6.19639 22.6059 5.94004 22.8178 5.61114C23.0297 5.28224 23.1429 4.89556 23.1429 4.5C23.1429 3.96957 22.9397 3.46086 22.578 3.08579C22.2163 2.71072 21.7258 2.5 21.2143 2.5ZM23.1429 29.5H19.2857C18.7742 29.5 18.2837 29.2893 17.922 28.9142C17.5603 28.5391 17.3571 28.0304 17.3571 27.5V20.5H19.2857V27.5H23.1429V18.5H25.0714V12.5C25.0714 12.2348 24.9698 11.9804 24.789 11.7929C24.6082 11.6054 24.3629 11.5 24.1071 11.5H17.9164L13.5 19.5L9.08357 11.5H2.89286C2.63711 11.5 2.39184 11.6054 2.211 11.7929C2.03017 11.9804 1.92857 12.2348 1.92857 12.5V18.5H3.85714V27.5H7.71429V20.5H9.64286V27.5C9.64286 28.0304 9.43967 28.5391 9.07799 28.9142C8.71631 29.2893 8.22577 29.5 7.71429 29.5H3.85714C3.34565 29.5 2.85511 29.2893 2.49344 28.9142C2.13176 28.5391 1.92857 28.0304 1.92857 27.5V20.5C1.41708 20.5 0.926543 20.2893 0.564865 19.9142C0.203188 19.5391 0 19.0304 0 18.5V12.5C0 11.7044 0.304782 10.9413 0.847298 10.3787C1.38981 9.81607 2.12562 9.5 2.89286 9.5H10.2021L13.5 15.5L16.7979 9.5H24.1071C24.8744 9.5 25.6102 9.81607 26.1527 10.3787C26.6952 10.9413 27 11.7044 27 12.5V18.5C27 19.0304 26.7968 19.5391 26.4351 19.9142C26.0735 20.2893 25.5829 20.5 25.0714 20.5V27.5C25.0714 28.0304 24.8682 28.5391 24.5066 28.9142C24.1449 29.2893 23.6543 29.5 23.1429 29.5Z" fill="#333333"/>
</svg>
