<svg width="25" height="26" viewBox="0 0 25 26" fill="none" xmlns="http://www.w3.org/2000/svg">
<path d="M11.8909 0.5625H13.9839C14.17 0.5625 14.263 0.655523 14.263 0.84157V25.3997C14.263 25.5858 14.17 25.6788 13.9839 25.6788H11.8909C11.7048 25.6788 11.6118 25.5858 11.6118 25.3997V0.84157C11.6118 0.655523 11.7048 0.5625 11.8909 0.5625Z" fill="#fff"/>
<path d="M1.21657 11.795H24.6584C24.8445 11.795 24.9375 11.8881 24.9375 12.0741V14.1671C24.9375 14.3532 24.8445 14.4462 24.6584 14.4462H1.21657C1.03052 14.4462 0.9375 14.3532 0.9375 14.1671V12.0741C0.9375 11.8881 1.03052 11.795 1.21657 11.795Z" fill="#fff"/>
</svg>
