<svg width="32" height="32" viewBox="0 0 32 32" fill="none" xmlns="http://www.w3.org/2000/svg">
<rect x="0.5" y="0.5" width="31" height="31" rx="15.5" fill="white"/>
<path d="M22.3889 15.1667H16.8333V9.61111C16.8333 9.45763 16.709 9.33333 16.5555 9.33333H15.4444C15.291 9.33333 15.1666 9.45763 15.1666 9.61111V15.1667H9.61109C9.45762 15.1667 9.33331 15.291 9.33331 15.4444V16.5556C9.33331 16.709 9.45762 16.8333 9.61109 16.8333H15.1666V22.3889C15.1666 22.5424 15.291 22.6667 15.4444 22.6667H16.5555C16.709 22.6667 16.8333 22.5424 16.8333 22.3889V16.8333H22.3889C22.5423 16.8333 22.6666 16.709 22.6666 16.5556V15.4444C22.6666 15.291 22.5423 15.1667 22.3889 15.1667Z" fill="black"/>
<rect x="0.5" y="0.5" width="31" height="31" rx="15.5" stroke="black"/>
</svg>
