<svg width="29" height="28" viewBox="0 0 29 28" fill="none" xmlns="http://www.w3.org/2000/svg">
<path d="M29 21.7143H24.5385V17.8571H22.3077V21.7143H17.8462V23.6429H22.3077V27.5H24.5385V23.6429H29V21.7143Z" fill="#333333"/>
<path d="M22.3077 3.39286H18.9615V2.42857C18.9598 1.91755 18.7242 1.4279 18.3062 1.06655C17.8882 0.705205 17.3219 0.501526 16.7308 0.5H7.80769C7.2166 0.501526 6.65022 0.705205 6.23225 1.06655C5.81428 1.4279 5.57869 1.91755 5.57692 2.42857V3.39286H2.23077C1.63968 3.39438 1.0733 3.59806 0.655327 3.95941C0.237359 4.32076 0.00176535 4.81041 0 5.32143V25.5714C0.00176535 26.0824 0.237359 26.5721 0.655327 26.9334C1.0733 27.2948 1.63968 27.4985 2.23077 27.5H13.3846V25.5714H2.23077V5.32143H5.57692V8.21429H18.9615V5.32143H22.3077V14H24.5385V5.32143C24.5367 4.81041 24.3011 4.32076 23.8831 3.95941C23.4652 3.59806 22.8988 3.39438 22.3077 3.39286ZM16.7308 6.28571H7.80769V2.42857H16.7308V6.28571Z" fill="#333333"/>
</svg>
