<svg width="37" height="36" viewBox="0 0 37 36" fill="none" xmlns="http://www.w3.org/2000/svg">
<path d="M2 5.16666H9.33333M35 5.16666H16.6667M2 18H24M35 18H31.3333M2 30.8333H5.66667M35 30.8333H13" stroke="#333333" stroke-width="2.75" stroke-linecap="round"/>
<path d="M12.9999 8.83333C15.025 8.83333 16.6666 7.19171 16.6666 5.16667C16.6666 3.14162 15.025 1.5 12.9999 1.5C10.9749 1.5 9.33325 3.14162 9.33325 5.16667C9.33325 7.19171 10.9749 8.83333 12.9999 8.83333Z" stroke="#333333" stroke-width="2.75" stroke-linecap="round"/>
<path d="M27.6667 21.6667C29.6917 21.6667 31.3333 20.0251 31.3333 18C31.3333 15.975 29.6917 14.3333 27.6667 14.3333C25.6416 14.3333 24 15.975 24 18C24 20.0251 25.6416 21.6667 27.6667 21.6667Z" stroke="#333333" stroke-width="2.75" stroke-linecap="round"/>
<path d="M9.33341 34.5C11.3585 34.5 13.0001 32.8584 13.0001 30.8333C13.0001 28.8083 11.3585 27.1667 9.33341 27.1667C7.30837 27.1667 5.66675 28.8083 5.66675 30.8333C5.66675 32.8584 7.30837 34.5 9.33341 34.5Z" stroke="#333333" stroke-width="2.75" stroke-linecap="round"/>
</svg>
