<svg width="34" height="28" viewBox="0 0 34 28" fill="none" xmlns="http://www.w3.org/2000/svg">
<path d="M28.25 5.75L26.699 7.301L29.537 10.15H17.25C15.6241 10.1502 14.0562 10.7539 12.85 11.844V4.463L15.699 7.301L17.25 5.75L11.75 0.25L6.25 5.75L7.801 7.301L10.65 4.463V16.75C10.6504 18.3758 11.2541 19.9436 12.344 21.15H4.963L7.801 18.301L6.25 16.75L0.75 22.25L6.25 27.75L7.801 26.199L4.963 23.35H17.25C18.525 23.3522 19.7733 22.9844 20.8434 22.2912C21.9136 21.5981 22.7596 20.6093 23.2789 19.4449C23.7983 18.2804 23.9686 16.9903 23.7693 15.731C23.57 14.4716 23.0096 13.2972 22.156 12.35H29.537L26.699 15.199L28.25 16.75L33.75 11.25L28.25 5.75ZM21.65 16.75C21.65 17.6202 21.3919 18.4709 20.9085 19.1945C20.425 19.9181 19.7378 20.482 18.9338 20.8151C18.1298 21.1481 17.2451 21.2352 16.3916 21.0655C15.5381 20.8957 14.7541 20.4766 14.1387 19.8613C13.5234 19.2459 13.1043 18.4619 12.9345 17.6084C12.7648 16.7549 12.8519 15.8702 13.1849 15.0662C13.518 14.2622 14.0819 13.575 14.8055 13.0915C15.5291 12.6081 16.3798 12.35 17.25 12.35C18.4165 12.3515 19.5348 12.8155 20.3597 13.6403C21.1845 14.4652 21.6485 15.5835 21.65 16.75Z" fill="#333333"/>
</svg>
