<svg width="21" height="22" viewBox="0 0 21 22" fill="none" xmlns="http://www.w3.org/2000/svg">
<path d="M9.33333 14.4994V2.83323H1.16667C0.857247 2.83323 0.560501 2.71031 0.341709 2.49153C0.122916 2.27275 0 1.97602 0 1.66661C0 1.35721 0.122916 1.06048 0.341709 0.841693C0.560501 0.622911 0.857247 0.5 1.16667 0.5H19.8333C20.1428 0.5 20.4395 0.622911 20.6583 0.841693C20.8771 1.06048 21 1.35721 21 1.66661C21 1.97602 20.8771 2.27275 20.6583 2.49153C20.4395 2.71031 20.1428 2.83323 19.8333 2.83323H11.6667V14.4994H14.28C14.455 14.4994 14.6265 14.5484 14.7712 14.6393C15.1795 14.8948 15.2892 15.4128 15.0173 15.7955L11.2373 21.1269C11.1717 21.2196 11.0885 21.2985 10.9923 21.359C10.7959 21.4823 10.5602 21.527 10.3323 21.4842C10.1044 21.4413 9.90098 21.3142 9.76267 21.128L5.98267 15.7966C5.88572 15.6612 5.83351 15.4989 5.83333 15.3323C5.83333 14.8715 6.23 14.4982 6.72 14.4982H9.33333V14.4994ZM19.8333 7.49968C20.1428 7.49968 20.4395 7.62259 20.6583 7.84137C20.8771 8.06015 21 8.35689 21 8.66629C21 8.9757 20.8771 9.27243 20.6583 9.49121C20.4395 9.70999 20.1428 9.8329 19.8333 9.8329H14V7.49968H19.8333ZM5.83333 7.49968H7V9.8329H1.16667C0.857247 9.8329 0.560501 9.70999 0.341709 9.49121C0.122916 9.27243 0 8.9757 0 8.66629C0 8.35689 0.122916 8.06015 0.341709 7.84137C0.560501 7.62259 0.857247 7.49968 1.16667 7.49968H5.83333Z" fill="#333333"/>
</svg>
