<svg width="77" height="56" viewBox="0 0 77 56" fill="none" xmlns="http://www.w3.org/2000/svg">
<path d="M1.13747 26.9961L8.54372 9.71481C8.73378 9.27063 9.05011 8.89206 9.45345 8.62609C9.85679 8.36013 10.3294 8.21848 10.8125 8.21875H18.2187V3.28125C18.2187 2.6265 18.4788 1.99856 18.9418 1.53558C19.4048 1.0726 20.0327 0.8125 20.6875 0.8125H60.1875V5.75H23.1562V36.7476C24.2812 37.4008 25.2657 38.2703 26.0529 39.3059C26.8402 40.3414 27.4147 41.5226 27.7432 42.7812H43.2568C43.8577 40.4541 45.2867 38.4259 47.276 37.077C49.2652 35.728 51.6782 35.1509 54.0625 35.4537C56.4469 35.7566 58.6389 36.9186 60.2278 38.7221C61.8167 40.5255 62.6932 42.8465 62.6932 45.25C62.6932 47.6535 61.8167 49.9745 60.2278 51.7779C58.6389 53.5814 56.4469 54.7434 54.0625 55.0463C51.6782 55.3491 49.2652 54.772 47.276 53.423C45.2867 52.0741 43.8577 50.0459 43.2568 47.7188H27.7432C27.2061 49.8375 25.978 51.7167 24.2529 53.0591C22.5279 54.4014 20.4045 55.1302 18.2187 55.1302C16.033 55.1302 13.9096 54.4014 12.1846 53.0591C10.4595 51.7167 9.23135 49.8375 8.69431 47.7188H3.40625C2.75149 47.7188 2.12355 47.4587 1.66057 46.9957C1.19759 46.5327 0.937496 45.9048 0.937496 45.25V27.9688C0.937374 27.6343 1.00542 27.3033 1.13747 26.9961ZM52.7812 50.1875C53.7578 50.1875 54.7124 49.8979 55.5244 49.3554C56.3363 48.8128 56.9692 48.0417 57.3429 47.1395C57.7166 46.2373 57.8144 45.2445 57.6239 44.2867C57.4334 43.329 56.9631 42.4492 56.2726 41.7587C55.5821 41.0681 54.7023 40.5979 53.7445 40.4074C52.7867 40.2169 51.794 40.3146 50.8917 40.6883C49.9895 41.0621 49.2184 41.6949 48.6759 42.5069C48.1333 43.3188 47.8437 44.2735 47.8437 45.25C47.8451 46.5591 48.3657 47.8142 49.2914 48.7399C50.217 49.6656 51.4721 50.1862 52.7812 50.1875ZM18.2187 13.1562H12.4419L7.14888 25.5H18.2187V13.1562ZM18.2187 50.1875C19.1953 50.1875 20.1499 49.8979 20.9619 49.3554C21.7738 48.8128 22.4067 48.0417 22.7804 47.1395C23.1541 46.2373 23.2519 45.2445 23.0614 44.2867C22.8709 43.329 22.4006 42.4492 21.7101 41.7587C21.0196 41.0681 20.1398 40.5979 19.182 40.4074C18.2242 40.2169 17.2315 40.3146 16.3293 40.6883C15.427 41.0621 14.6559 41.6949 14.1134 42.5069C13.5708 43.3188 13.2812 44.2735 13.2812 45.25C13.2826 46.5591 13.8032 47.8142 14.7289 48.7399C15.6545 49.6656 16.9096 50.1862 18.2187 50.1875ZM5.875 42.7812H8.69431C9.23812 40.6666 10.4683 38.7922 12.1919 37.4519C13.9156 36.1115 16.0353 35.3811 18.2187 35.375V30.4375H5.875V42.7812Z" fill="url(#paint0_linear_117_4824)"/>
<path d="M49.5179 14.6238L59.5179 9.12383C59.6656 9.0426 59.8314 9 59.9999 9C60.1685 9 60.3343 9.0426 60.4819 9.12383L70.4819 14.6238C70.6387 14.7102 70.7695 14.837 70.8605 14.9911C70.9516 15.1451 70.9996 15.3208 70.9996 15.4998C70.9996 15.6788 70.9516 15.8545 70.8605 16.0086C70.7695 16.1627 70.6387 16.2895 70.4819 16.3758L60.9999 21.5908V32.3098L64.0359 30.6398L64.9999 32.3908L60.4819 34.8758C60.3343 34.9572 60.1685 34.9999 59.9999 34.9999C59.8314 34.9999 59.6656 34.9572 59.5179 34.8758L49.5179 29.3758C49.3611 29.2895 49.2303 29.1627 49.1392 29.0087C49.0481 28.8546 49 28.6788 48.9999 28.4998V15.4998C49 15.3208 49.0481 15.1451 49.1392 14.991C49.2303 14.8369 49.3611 14.7101 49.5179 14.6238ZM59.9999 11.1418L52.0749 15.4998L59.9999 19.8578L67.9249 15.4998L59.9999 11.1418ZM50.9999 27.9088L58.9999 32.3088V21.5898L50.9999 17.1898V27.9088Z" fill="#0a0738"/>
<path d="M69 21.9998H77V19.9998H69V21.9998ZM67 29.9998H75V27.9998H67V29.9998ZM65 25.9998H73V23.9998H65V25.9998Z" fill="#0a0738"/>
<defs>
<linearGradient id="paint0_linear_117_4824" x1="88" y1="25.5" x2="-0.500002" y2="26.5" gradientUnits="userSpaceOnUse">
<stop offset="0.102616" stop-color="#659C7C"/>
<stop offset="0.80852" stop-color="#70CBBB"/>
</linearGradient>
</defs>
</svg>
