<svg width="41" height="36" viewBox="0 0 41 36" fill="none" xmlns="http://www.w3.org/2000/svg">
<path d="M1.25 9.4375V26.3125C1.25 27.4314 1.69447 28.5044 2.48564 29.2956C3.27681 30.0868 4.34987 30.5312 5.46875 30.5312H18.125M1.25 9.4375V5.21875C1.25 4.09987 1.69447 3.02681 2.48564 2.23564C3.27681 1.44447 4.34987 1 5.46875 1H35C36.1189 1 37.1919 1.44447 37.9831 2.23564C38.7743 3.02681 39.2188 4.09987 39.2188 5.21875V9.4375M1.25 9.4375H39.2188M39.2188 9.4375V15.7656M9.6875 17.875H20.2344M32.8906 22.0938V28.4219M32.8906 34.75V28.4219M32.8906 28.4219H26.5625M32.8906 28.4219H39.2188" stroke="white" stroke-width="2" stroke-linecap="round" stroke-linejoin="round"/>
</svg>
