<svg width="29" height="36" viewBox="0 0 29 36" fill="none" xmlns="http://www.w3.org/2000/svg">
<path d="M8.5 4.75H4.75C3.75544 4.75 2.80161 5.14509 2.09835 5.84835C1.39509 6.55161 1 7.50544 1 8.5V31C1 31.9946 1.39509 32.9484 2.09835 33.6516C2.80161 34.3549 3.75544 34.75 4.75 34.75H23.5C24.4946 34.75 25.4484 34.3549 26.1516 33.6516C26.8549 32.9484 27.25 31.9946 27.25 31V8.5C27.25 7.50544 26.8549 6.55161 26.1516 5.84835C25.4484 5.14509 24.4946 4.75 23.5 4.75H19.75" stroke="white" stroke-width="2" stroke-linecap="round" stroke-linejoin="round"/>
<path d="M16 1H12.25C10.1789 1 8.5 2.67893 8.5 4.75C8.5 6.82107 10.1789 8.5 12.25 8.5H16C18.0711 8.5 19.75 6.82107 19.75 4.75C19.75 2.67893 18.0711 1 16 1Z" stroke="white" stroke-width="2" stroke-linecap="round" stroke-linejoin="round"/>
<path d="M17.875 16H13.1875C12.4416 16 11.7262 16.2963 11.1988 16.8238C10.6713 17.3512 10.375 18.0666 10.375 18.8125C10.375 19.5584 10.6713 20.2738 11.1988 20.8012C11.7262 21.3287 12.4416 21.625 13.1875 21.625H15.0625C15.8084 21.625 16.5238 21.9213 17.0512 22.4488C17.5787 22.9762 17.875 23.6916 17.875 24.4375C17.875 25.1834 17.5787 25.8988 17.0512 26.4262C16.5238 26.9537 15.8084 27.25 15.0625 27.25H10.375M14.125 27.25V29.125M14.125 14.125V16" stroke="white" stroke-width="2" stroke-linecap="round" stroke-linejoin="round"/>
</svg>
